<svg xmlns="http://www.w3.org/2000/svg" xmlns:xlink="http://www.w3.org/1999/xlink" viewBox="0 0 282.5 168.84"><defs><style>.cls-1{fill:url(#linear-gradient);}.cls-2{fill:url(#linear-gradient-2);}.cls-10,.cls-14,.cls-15,.cls-20,.cls-23,.cls-24,.cls-3{fill:none;}.cls-4{font-size:18.5px;fill:#dbb24a;font-family:Rockwell;}.cls-5{letter-spacing:-0.01em;}.cls-6{letter-spacing:0em;}.cls-7{clip-path:url(#clip-path);}.cls-8{fill:url(#linear-gradient-3);}.cls-9{clip-path:url(#clip-path-2);}.cls-10{stroke:#9d9d9c;}.cls-10,.cls-14,.cls-15,.cls-20,.cls-23,.cls-24{stroke-miterlimit:10;}.cls-10,.cls-14,.cls-20{stroke-width:0.25px;}.cls-11{clip-path:url(#clip-path-3);}.cls-12{mask:url(#mask);}.cls-13{fill:url(#linear-gradient-4);}.cls-14{stroke:#878787;}.cls-15,.cls-20{stroke:#706f6f;}.cls-15,.cls-23{stroke-width:0.75px;}.cls-16{clip-path:url(#clip-path-5);}.cls-17{mask:url(#mask-2);}.cls-18{fill:url(#linear-gradient-5);}.cls-19{fill:#dadada;}.cls-21{fill:#c6c6c6;}.cls-22{fill:#3c3c3b;}.cls-23,.cls-24{stroke:#575756;}.cls-25{opacity:0.27;}.cls-26{clip-path:url(#clip-path-7);}.cls-27{clip-path:url(#clip-path-8);}.cls-28{fill:url(#linear-gradient-6);}.cls-29{fill:url(#linear-gradient-7);}.cls-30{clip-path:url(#clip-path-9);}.cls-31{fill:url(#linear-gradient-8);}.cls-32{fill:url(#linear-gradient-9);}.cls-33{clip-path:url(#clip-path-10);}.cls-34{fill:url(#linear-gradient-10);}.cls-35{fill:url(#linear-gradient-11);}.cls-36{clip-path:url(#clip-path-11);}.cls-37{fill:url(#linear-gradient-12);}.cls-38{fill:url(#linear-gradient-13);}.cls-39{clip-path:url(#clip-path-12);}.cls-40{fill:url(#linear-gradient-14);}.cls-41{fill:url(#linear-gradient-15);}.cls-42{clip-path:url(#clip-path-13);}.cls-43{fill:url(#linear-gradient-16);}.cls-44{fill:url(#linear-gradient-17);}.cls-45{opacity:0.28;}.cls-46{clip-path:url(#clip-path-14);}.cls-47{clip-path:url(#clip-path-15);}.cls-48{fill:url(#linear-gradient-18);}.cls-49{fill:url(#linear-gradient-19);}.cls-50{clip-path:url(#clip-path-16);}.cls-51{fill:url(#linear-gradient-20);}.cls-52{fill:url(#linear-gradient-21);}.cls-53{clip-path:url(#clip-path-17);}.cls-54{fill:url(#linear-gradient-22);}.cls-55{fill:url(#linear-gradient-23);}.cls-56{clip-path:url(#clip-path-18);}.cls-57{fill:url(#linear-gradient-24);}.cls-58{fill:url(#linear-gradient-25);}.cls-59{clip-path:url(#clip-path-19);}.cls-60{fill:url(#linear-gradient-26);}.cls-61{fill:url(#linear-gradient-27);}.cls-62{clip-path:url(#clip-path-20);}.cls-63{fill:url(#linear-gradient-28);}.cls-64{fill:url(#linear-gradient-29);}.cls-65{opacity:0.21;}.cls-66{clip-path:url(#clip-path-21);}.cls-67{clip-path:url(#clip-path-22);}.cls-68{fill:url(#linear-gradient-30);}.cls-69{fill:url(#linear-gradient-31);}.cls-70{clip-path:url(#clip-path-23);}.cls-71{fill:url(#linear-gradient-32);}.cls-72{fill:url(#linear-gradient-33);}.cls-73{clip-path:url(#clip-path-24);}.cls-74{fill:url(#linear-gradient-34);}.cls-75{fill:url(#linear-gradient-35);}.cls-76{clip-path:url(#clip-path-25);}.cls-77{fill:url(#linear-gradient-36);}.cls-78{fill:url(#linear-gradient-37);}.cls-79{clip-path:url(#clip-path-26);}.cls-80{fill:url(#linear-gradient-38);}.cls-81{fill:url(#linear-gradient-39);}.cls-82{clip-path:url(#clip-path-27);}.cls-83{fill:url(#linear-gradient-40);}.cls-84{fill:url(#linear-gradient-41);}.cls-85{opacity:0.22;}.cls-86{clip-path:url(#clip-path-28);}.cls-87{clip-path:url(#clip-path-29);}.cls-88{fill:url(#linear-gradient-42);}.cls-89{fill:url(#linear-gradient-43);}.cls-90{clip-path:url(#clip-path-30);}.cls-91{fill:url(#linear-gradient-44);}.cls-92{fill:url(#linear-gradient-45);}.cls-93{clip-path:url(#clip-path-31);}.cls-94{fill:url(#linear-gradient-46);}.cls-95{fill:url(#linear-gradient-47);}.cls-96{clip-path:url(#clip-path-32);}.cls-97{fill:url(#linear-gradient-48);}.cls-98{fill:url(#linear-gradient-49);}.cls-99{clip-path:url(#clip-path-33);}.cls-100{fill:url(#linear-gradient-50);}.cls-101{fill:url(#linear-gradient-51);}.cls-102{clip-path:url(#clip-path-34);}.cls-103{fill:url(#linear-gradient-52);}.cls-104{fill:url(#linear-gradient-53);}.cls-105{clip-path:url(#clip-path-35);}.cls-106{fill:url(#linear-gradient-54);}.cls-107{opacity:0.2;}.cls-108{clip-path:url(#clip-path-37);}.cls-109{clip-path:url(#clip-path-38);}.cls-110{clip-path:url(#clip-path-39);}</style><linearGradient id="linear-gradient" y1="595.28" x2="1" y2="595.28" gradientTransform="matrix(23.37, 0, 0, -23.37, 538.25, 14279.51)" gradientUnits="userSpaceOnUse"><stop offset="0" stop-color="#fff"/><stop offset="0.12" stop-color="#fbfbfb"/><stop offset="0.24" stop-color="#eee"/><stop offset="0.37" stop-color="#d8d8d8"/><stop offset="0.5" stop-color="#bbb"/><stop offset="0.63" stop-color="#949494"/><stop offset="0.77" stop-color="#656565"/><stop offset="0.9" stop-color="#2e2e2e"/><stop offset="1"/></linearGradient><linearGradient id="linear-gradient-2" y1="595.28" y2="595.28" gradientTransform="matrix(23.37, 0, 0, -23.37, 521.65, 14203.78)" xlink:href="#linear-gradient"/><clipPath id="clip-path" transform="translate(-300.73 -250.44)"><path class="cls-3" d="M376.37,373.42l13.26-9.91-15.48-3.27Z"/></clipPath><linearGradient id="linear-gradient-3" y1="595.21" x2="1" y2="595.21" gradientTransform="matrix(14.81, 0, 0, -14.81, 375.23, 9184.31)" gradientUnits="userSpaceOnUse"><stop offset="0" stop-color="#fff"/><stop offset="0.25" stop-color="#bababa"/><stop offset="0.51" stop-color="#777776"/><stop offset="0.74" stop-color="#464645"/><stop offset="0.91" stop-color="#282826"/><stop offset="1" stop-color="#1d1d1b"/></linearGradient><clipPath id="clip-path-2" transform="translate(-300.73 -250.44)"><rect class="cls-3" width="841.89" height="595.28"/></clipPath><clipPath id="clip-path-3" transform="translate(-300.73 -250.44)"><polygon class="cls-3" points="531.33 338.36 545.74 406.91 568.55 402.19 554.13 333.63 531.33 338.36"/></clipPath><mask id="mask" x="215.91" y="75.74" width="66.59" height="88.19" maskUnits="userSpaceOnUse"><g transform="translate(-300.73 -250.44)"><rect class="cls-1" x="524.22" y="330.6" width="51.44" height="79.34" transform="translate(-64.16 120.43) rotate(-11.81)"/></g></mask><linearGradient id="linear-gradient-4" y1="595.28" x2="1" y2="595.28" gradientTransform="matrix(23.37, 0, 0, -23.37, 538.25, 14279.51)" gradientUnits="userSpaceOnUse"><stop offset="0" stop-color="#575756"/><stop offset="0.18" stop-color="#55595a"/><stop offset="0.38" stop-color="#4f5e67"/><stop offset="0.57" stop-color="#46667c"/><stop offset="0.78" stop-color="#38719a"/><stop offset="0.98" stop-color="#2780c0"/><stop offset="1" stop-color="#2581c4"/></linearGradient><clipPath id="clip-path-5" transform="translate(-300.73 -250.44)"><polygon class="cls-3" points="514.73 262.62 529.14 331.18 551.95 326.46 537.54 257.9 514.73 262.62"/></clipPath><mask id="mask-2" x="199.31" y="0" width="66.59" height="88.19" maskUnits="userSpaceOnUse"><g transform="translate(-300.73 -250.44)"><rect class="cls-2" x="507.62" y="254.87" width="51.44" height="79.34" transform="translate(-49 115.42) rotate(-11.81)"/></g></mask><linearGradient id="linear-gradient-5" y1="595.28" y2="595.28" gradientTransform="matrix(23.37, 0, 0, -23.37, 521.65, 14203.78)" xlink:href="#linear-gradient-4"/><clipPath id="clip-path-7" transform="translate(-300.73 -250.44)"><rect class="cls-3" x="495.27" y="342.55" width="20.28" height="5.5"/></clipPath><clipPath id="clip-path-8" transform="translate(-300.73 -250.44)"><path class="cls-3" d="M514.69,344.29a.81.81,0,1,1-.31-1.59.81.81,0,1,1,.31,1.59"/></clipPath><linearGradient id="linear-gradient-6" y1="595.28" x2="1" y2="595.28" gradientTransform="matrix(0, 1.63, 1.63, 0, -453.11, 342.67)" gradientUnits="userSpaceOnUse"><stop offset="0" stop-color="#fff"/><stop offset="1" stop-color="#1d1d1b"/></linearGradient><linearGradient id="linear-gradient-7" y1="595.28" x2="1" y2="595.28" gradientTransform="matrix(0.37, 1.84, 1.84, -0.37, -580.74, 560)" gradientUnits="userSpaceOnUse"><stop offset="0" stop-color="#1d1d1b"/><stop offset="1" stop-color="#fff"/></linearGradient><clipPath id="clip-path-9" transform="translate(-300.73 -250.44)"><path class="cls-3" d="M511.17,345.07a.78.78,0,1,1,.7-.94.82.82,0,0,1-.7.94"/></clipPath><linearGradient id="linear-gradient-8" y1="595.28" y2="595.28" gradientTransform="matrix(0, 1.56, 1.56, 0, -419.54, 343.52)" xlink:href="#linear-gradient-6"/><linearGradient id="linear-gradient-9" y1="595.28" x2="1" y2="595.28" gradientTransform="matrix(0.35, 1.78, 1.78, -0.35, -547.88, 553.62)" xlink:href="#linear-gradient-7"/><clipPath id="clip-path-10" transform="translate(-300.73 -250.44)"><path class="cls-3" d="M507.52,345.8a.79.79,0,1,1,.7-.94.83.83,0,0,1-.7.94"/></clipPath><linearGradient id="linear-gradient-10" y1="595.28" y2="595.28" gradientTransform="matrix(0, 1.56, 1.56, 0, -423.2, 344.25)" xlink:href="#linear-gradient-6"/><linearGradient id="linear-gradient-11" y1="595.28" x2="1" y2="595.28" gradientTransform="matrix(0.35, 1.78, 1.78, -0.35, -551.53, 554.35)" xlink:href="#linear-gradient-7"/><clipPath id="clip-path-11" transform="translate(-300.73 -250.44)"><path class="cls-3" d="M503.9,346.52a.78.78,0,1,1,.7-.93.83.83,0,0,1-.7.93"/></clipPath><linearGradient id="linear-gradient-12" y1="595.28" y2="595.28" gradientTransform="matrix(0, 1.56, 1.56, 0, -426.82, 344.97)" xlink:href="#linear-gradient-6"/><linearGradient id="linear-gradient-13" y1="595.28" x2="1" y2="595.28" gradientTransform="matrix(0.35, 1.78, 1.78, -0.35, -555.15, 555.07)" xlink:href="#linear-gradient-7"/><clipPath id="clip-path-12" transform="translate(-300.73 -250.44)"><path class="cls-3" d="M500.29,347.24a.78.78,0,1,1,.69-.93.83.83,0,0,1-.69.93"/></clipPath><linearGradient id="linear-gradient-14" y1="595.28" y2="595.28" gradientTransform="matrix(0, 1.56, 1.56, 0, -430.43, 345.69)" xlink:href="#linear-gradient-6"/><linearGradient id="linear-gradient-15" y1="595.28" x2="1" y2="595.28" gradientTransform="matrix(0.35, 1.78, 1.78, -0.35, -558.77, 555.79)" xlink:href="#linear-gradient-7"/><clipPath id="clip-path-13" transform="translate(-300.73 -250.44)"><path class="cls-3" d="M496.41,347.91a.82.82,0,0,1-1-.59.83.83,0,0,1,.7-.94.78.78,0,1,1,.3,1.53"/></clipPath><linearGradient id="linear-gradient-16" y1="595.28" y2="595.28" gradientTransform="matrix(0, 1.56, 1.56, 0, -434.31, 346.36)" xlink:href="#linear-gradient-6"/><linearGradient id="linear-gradient-17" y1="595.28" x2="1" y2="595.28" gradientTransform="matrix(0.35, 1.78, 1.78, -0.35, -562.64, 556.46)" xlink:href="#linear-gradient-7"/><clipPath id="clip-path-14" transform="translate(-300.73 -250.44)"><rect class="cls-3" x="467.93" y="339.94" width="20.28" height="5.5"/></clipPath><clipPath id="clip-path-15" transform="translate(-300.73 -250.44)"><path class="cls-3" d="M487.35,341.68a.86.86,0,0,1-1-.62.88.88,0,0,1,.73-1,.86.86,0,0,1,1,.62.87.87,0,0,1-.72,1"/></clipPath><linearGradient id="linear-gradient-18" y1="595.28" y2="595.28" gradientTransform="matrix(0, 1.63, 1.63, 0, -480.46, 340.06)" xlink:href="#linear-gradient-6"/><linearGradient id="linear-gradient-19" y1="595.28" x2="1" y2="595.28" gradientTransform="matrix(0.37, 1.84, 1.84, -0.37, -608.08, 557.39)" xlink:href="#linear-gradient-7"/><clipPath id="clip-path-16" transform="translate(-300.73 -250.44)"><path class="cls-3" d="M483.83,342.45a.78.78,0,1,1,.7-.93.82.82,0,0,1-.7.93"/></clipPath><linearGradient id="linear-gradient-20" y1="595.28" y2="595.28" gradientTransform="matrix(0, 1.56, 1.56, 0, -446.89, 340.9)" xlink:href="#linear-gradient-6"/><linearGradient id="linear-gradient-21" y1="595.28" x2="1" y2="595.28" gradientTransform="matrix(0.35, 1.78, 1.78, -0.35, -575.22, 551)" xlink:href="#linear-gradient-7"/><clipPath id="clip-path-17" transform="translate(-300.73 -250.44)"><path class="cls-3" d="M480.18,343.18a.78.78,0,1,1,.69-.93.82.82,0,0,1-.69.93"/></clipPath><linearGradient id="linear-gradient-22" y1="595.28" y2="595.28" gradientTransform="matrix(0, 1.56, 1.56, 0, -450.54, 341.64)" xlink:href="#linear-gradient-6"/><linearGradient id="linear-gradient-23" y1="595.28" x2="1" y2="595.28" gradientTransform="matrix(0.35, 1.78, 1.78, -0.35, -578.87, 551.73)" xlink:href="#linear-gradient-7"/><clipPath id="clip-path-18" transform="translate(-300.73 -250.44)"><path class="cls-3" d="M476.56,343.91a.79.79,0,1,1-.3-1.54.79.79,0,1,1,.3,1.54"/></clipPath><linearGradient id="linear-gradient-24" y1="595.28" y2="595.28" gradientTransform="matrix(0, 1.56, 1.56, 0, -454.16, 342.35)" xlink:href="#linear-gradient-6"/><linearGradient id="linear-gradient-25" y1="595.28" x2="1" y2="595.28" gradientTransform="matrix(0.35, 1.78, 1.78, -0.35, -582.49, 552.45)" xlink:href="#linear-gradient-7"/><clipPath id="clip-path-19" transform="translate(-300.73 -250.44)"><path class="cls-3" d="M472.94,344.63a.79.79,0,1,1,.7-.94.83.83,0,0,1-.7.94"/></clipPath><linearGradient id="linear-gradient-26" y1="595.28" y2="595.28" gradientTransform="matrix(0, 1.56, 1.56, 0, -457.78, 343.08)" xlink:href="#linear-gradient-6"/><linearGradient id="linear-gradient-27" y1="595.28" x2="1" y2="595.28" gradientTransform="matrix(0.35, 1.78, 1.78, -0.35, -586.11, 553.18)" xlink:href="#linear-gradient-7"/><clipPath id="clip-path-20" transform="translate(-300.73 -250.44)"><path class="cls-3" d="M469.06,345.3a.82.82,0,0,1-1-.6.87.87,0,1,1,1,.6"/></clipPath><linearGradient id="linear-gradient-28" y1="595.28" y2="595.28" gradientTransform="matrix(0, 1.56, 1.56, 0, -461.65, 343.74)" xlink:href="#linear-gradient-6"/><linearGradient id="linear-gradient-29" y1="595.28" x2="1" y2="595.28" gradientTransform="matrix(0.35, 1.78, 1.78, -0.35, -589.99, 553.85)" xlink:href="#linear-gradient-7"/><clipPath id="clip-path-21" transform="translate(-300.73 -250.44)"><rect class="cls-3" x="531.23" y="326.72" width="20.28" height="5.5"/></clipPath><clipPath id="clip-path-22" transform="translate(-300.73 -250.44)"><path class="cls-3" d="M550.65,328.45a.86.86,0,0,1-1-.62.87.87,0,0,1,.73-1,.81.81,0,1,1,.31,1.59"/></clipPath><linearGradient id="linear-gradient-30" y1="595.28" y2="595.28" gradientTransform="matrix(0, 1.63, 1.63, 0, -417.16, 326.84)" xlink:href="#linear-gradient-6"/><linearGradient id="linear-gradient-31" y1="595.28" x2="1" y2="595.28" gradientTransform="matrix(0.37, 1.84, 1.84, -0.37, -544.78, 544.16)" xlink:href="#linear-gradient-7"/><clipPath id="clip-path-23" transform="translate(-300.73 -250.44)"><path class="cls-3" d="M547.13,329.23a.78.78,0,1,1,.7-.93.83.83,0,0,1-.7.93"/></clipPath><linearGradient id="linear-gradient-32" y1="595.28" y2="595.28" gradientTransform="matrix(0, 1.56, 1.56, 0, -383.59, 327.68)" xlink:href="#linear-gradient-6"/><linearGradient id="linear-gradient-33" y1="595.28" x2="1" y2="595.28" gradientTransform="matrix(0.35, 1.78, 1.78, -0.35, -511.92, 537.78)" xlink:href="#linear-gradient-7"/><clipPath id="clip-path-24" transform="translate(-300.73 -250.44)"><path class="cls-3" d="M543.48,330a.78.78,0,1,1-.3-1.53.78.78,0,1,1,.3,1.53"/></clipPath><linearGradient id="linear-gradient-34" y1="595.28" y2="595.28" gradientTransform="matrix(0, 1.56, 1.56, 0, -387.24, 328.39)" xlink:href="#linear-gradient-6"/><linearGradient id="linear-gradient-35" y1="595.28" x2="1" y2="595.28" gradientTransform="matrix(0.35, 1.78, 1.78, -0.35, -515.57, 538.51)" xlink:href="#linear-gradient-7"/><clipPath id="clip-path-25" transform="translate(-300.73 -250.44)"><path class="cls-3" d="M539.86,330.68a.78.78,0,1,1,.69-.93.82.82,0,0,1-.69.93"/></clipPath><linearGradient id="linear-gradient-36" y1="595.28" y2="595.28" gradientTransform="matrix(0, 1.56, 1.56, 0, -390.86, 329.14)" xlink:href="#linear-gradient-6"/><linearGradient id="linear-gradient-37" y1="595.28" x2="1" y2="595.28" gradientTransform="matrix(0.35, 1.78, 1.78, -0.35, -519.19, 539.23)" xlink:href="#linear-gradient-7"/><clipPath id="clip-path-26" transform="translate(-300.73 -250.44)"><path class="cls-3" d="M536.24,331.41a.79.79,0,1,1,.7-.94.83.83,0,0,1-.7.94"/></clipPath><linearGradient id="linear-gradient-38" y1="595.28" y2="595.28" gradientTransform="matrix(0, 1.56, 1.56, 0, -394.48, 329.88)" xlink:href="#linear-gradient-6"/><linearGradient id="linear-gradient-39" y1="595.28" x2="1" y2="595.28" gradientTransform="matrix(0.35, 1.78, 1.78, -0.35, -522.81, 539.95)" xlink:href="#linear-gradient-7"/><clipPath id="clip-path-27" transform="translate(-300.73 -250.44)"><path class="cls-3" d="M532.36,332.08a.79.79,0,1,1,.7-.94.84.84,0,0,1-.7.94"/></clipPath><linearGradient id="linear-gradient-40" y1="595.28" y2="595.28" gradientTransform="matrix(0, 1.56, 1.56, 0, -398.35, 330.54)" xlink:href="#linear-gradient-6"/><linearGradient id="linear-gradient-41" y1="595.28" x2="1" y2="595.28" gradientTransform="matrix(0.35, 1.78, 1.78, -0.35, -526.69, 540.62)" xlink:href="#linear-gradient-7"/><clipPath id="clip-path-28" transform="translate(-300.73 -250.44)"><rect class="cls-3" x="531.92" y="329.99" width="20.28" height="5.5"/></clipPath><clipPath id="clip-path-29" transform="translate(-300.73 -250.44)"><path class="cls-3" d="M551.34,331.73a.82.82,0,1,1-.32-1.6.82.82,0,1,1,.32,1.6"/></clipPath><linearGradient id="linear-gradient-42" y1="595.28" y2="595.28" gradientTransform="matrix(0, 1.63, 1.63, 0, -416.47, 330.12)" xlink:href="#linear-gradient-6"/><linearGradient id="linear-gradient-43" y1="595.28" x2="1" y2="595.28" gradientTransform="matrix(0.37, 1.84, 1.84, -0.37, -544.09, 547.43)" xlink:href="#linear-gradient-7"/><clipPath id="clip-path-30" transform="translate(-300.73 -250.44)"><path class="cls-3" d="M547.82,332.5a.78.78,0,1,1,.7-.93.83.83,0,0,1-.7.93"/></clipPath><linearGradient id="linear-gradient-44" y1="595.28" y2="595.28" gradientTransform="matrix(0, 1.56, 1.56, 0, -382.9, 330.97)" xlink:href="#linear-gradient-6"/><linearGradient id="linear-gradient-45" y1="595.28" x2="1" y2="595.28" gradientTransform="matrix(0.35, 1.78, 1.78, -0.35, -511.23, 541.05)" xlink:href="#linear-gradient-7"/><clipPath id="clip-path-31" transform="translate(-300.73 -250.44)"><path class="cls-3" d="M544.17,333.23a.81.81,0,0,1-1-.6.83.83,0,0,1,.69-.93.78.78,0,1,1,.31,1.53"/></clipPath><linearGradient id="linear-gradient-46" y1="595.28" y2="595.28" gradientTransform="matrix(0, 1.56, 1.56, 0, -386.55, 331.69)" xlink:href="#linear-gradient-6"/><linearGradient id="linear-gradient-47" y1="595.28" x2="1" y2="595.28" gradientTransform="matrix(0.35, 1.78, 1.78, -0.35, -514.88, 541.78)" xlink:href="#linear-gradient-7"/><clipPath id="clip-path-32" transform="translate(-300.73 -250.44)"><path class="cls-3" d="M540.55,334a.82.82,0,0,1-1-.59.83.83,0,0,1,.7-.94.78.78,0,1,1,.3,1.53"/></clipPath><linearGradient id="linear-gradient-48" y1="595.28" y2="595.28" gradientTransform="matrix(0, 1.56, 1.56, 0, -390.17, 332.42)" xlink:href="#linear-gradient-6"/><linearGradient id="linear-gradient-49" y1="595.28" x2="1" y2="595.28" gradientTransform="matrix(0.35, 1.78, 1.78, -0.35, -518.5, 542.5)" xlink:href="#linear-gradient-7"/><clipPath id="clip-path-33" transform="translate(-300.73 -250.44)"><path class="cls-3" d="M536.93,334.68a.79.79,0,1,1,.7-.94.83.83,0,0,1-.7.94"/></clipPath><linearGradient id="linear-gradient-50" y1="595.28" y2="595.28" gradientTransform="matrix(0, 1.56, 1.56, 0, -393.79, 333.13)" xlink:href="#linear-gradient-6"/><linearGradient id="linear-gradient-51" y1="595.28" x2="1" y2="595.28" gradientTransform="matrix(0.35, 1.78, 1.78, -0.35, -522.12, 543.22)" xlink:href="#linear-gradient-7"/><clipPath id="clip-path-34" transform="translate(-300.73 -250.44)"><path class="cls-3" d="M533.05,335.35a.79.79,0,1,1,.7-.94.84.84,0,0,1-.7.94"/></clipPath><linearGradient id="linear-gradient-52" y1="595.28" y2="595.28" gradientTransform="matrix(0, 1.56, 1.56, 0, -397.66, 333.77)" xlink:href="#linear-gradient-6"/><linearGradient id="linear-gradient-53" y1="595.28" x2="1" y2="595.28" gradientTransform="matrix(0.35, 1.78, 1.78, -0.35, -526, 543.89)" xlink:href="#linear-gradient-7"/><clipPath id="clip-path-35" transform="translate(-300.73 -250.44)"><path class="cls-3" d="M410.65,337.74c-14,2.35-29,6-29,6l8.3,41.79s13.33-2.36,17.21-3.08a263.47,263.47,0,0,0,31.83-8.12l19.79-15.61q-1.38-7.56-2.75-15.11l-25.3-8.49c-8.27.76-15.1,1.76-20,2.59"/></clipPath><linearGradient id="linear-gradient-54" y1="595.31" x2="1" y2="595.31" gradientTransform="matrix(-73.03, 0, 0, 73.03, 458.51, -43116.55)" gradientUnits="userSpaceOnUse"><stop offset="0" stop-color="#1d1d1b"/><stop offset="0.07" stop-color="#4d4d4b"/><stop offset="0.14" stop-color="#767675"/><stop offset="0.22" stop-color="#9b9b9a"/><stop offset="0.3" stop-color="#bababa"/><stop offset="0.39" stop-color="#d3d3d3"/><stop offset="0.49" stop-color="#e7e7e7"/><stop offset="0.6" stop-color="#f5f5f5"/><stop offset="0.75" stop-color="#fdfdfd"/><stop offset="1" stop-color="#fff"/></linearGradient><clipPath id="clip-path-37" transform="translate(-300.73 -250.44)"><rect class="cls-3" x="439.98" y="344.37" width="5.25" height="18.13"/></clipPath><clipPath id="clip-path-38" transform="translate(-300.73 -250.44)"><rect class="cls-3" x="407.98" y="342.49" width="5.25" height="18.13"/></clipPath><clipPath id="clip-path-39" transform="translate(-300.73 -250.44)"><rect class="cls-3" x="404.39" y="343.25" width="5.25" height="18.13"/></clipPath></defs><title>apollo18</title><g id="Layer_2" data-name="Layer 2"><g id="Layer_1-2" data-name="Layer 1"><text class="cls-4" transform="translate(0.14 163.78) scale(0.92 1)">Apollo 18 og S<tspan class="cls-5" x="122.4" y="0">o</tspan><tspan class="cls-6" x="132.9" y="0">yuz 19</tspan></text><g class="cls-7"><rect class="cls-8" x="373.24" y="359.15" width="17.3" height="15.36" transform="translate(-351.8 -188.49) rotate(-8.69)"/></g><g class="cls-9"><path class="cls-10" d="M376.37,373.42l-2.22-13.18,15.48,3.27Z" transform="translate(-300.73 -250.44)"/></g><g class="cls-11"><g class="cls-12"><rect class="cls-13" x="524.22" y="330.6" width="51.44" height="79.34" transform="translate(-364.89 -130.02) rotate(-11.81)"/></g></g><g class="cls-9"><polygon class="cls-14" points="267.82 151.75 245.01 156.47 230.59 87.91 253.4 83.19 267.82 151.75"/><line class="cls-15" x1="248.32" y1="84.24" x2="262.77" y2="152.81"/><line class="cls-15" x1="236.61" y1="86.65" x2="250.99" y2="154.9"/><line class="cls-15" x1="233.64" y1="87.19" x2="248.02" y2="155.42"/><line class="cls-15" x1="245.24" y1="84.89" x2="259.68" y2="153.43"/><line class="cls-15" x1="239.37" y1="86.1" x2="253.83" y2="154.69"/><line class="cls-15" x1="251.1" y1="83.67" x2="265.54" y2="152.22"/><line class="cls-15" x1="242.55" y1="85.44" x2="257" y2="153.99"/><line class="cls-15" x1="232.08" y1="94.87" x2="255.04" y2="91.32"/><line class="cls-15" x1="233.67" y1="102.38" x2="256.55" y2="98.5"/><line class="cls-15" x1="235.48" y1="111.13" x2="258.36" y2="107.26"/><line class="cls-15" x1="237.14" y1="118.85" x2="260.08" y2="115.22"/><line class="cls-15" x1="238.94" y1="127.4" x2="261.8" y2="123.41"/><line class="cls-15" x1="243.75" y1="149.99" x2="266.61" y2="146"/><line class="cls-15" x1="242.18" y1="142.76" x2="265.04" y2="138.77"/><line class="cls-15" x1="240.63" y1="135.29" x2="263.47" y2="131.3"/></g><g class="cls-16"><g class="cls-17"><rect class="cls-18" x="507.62" y="254.87" width="51.44" height="79.34" transform="translate(-349.73 -135.02) rotate(-11.81)"/></g></g><g class="cls-9"><polygon class="cls-14" points="251.22 76.01 228.41 80.73 214 12.18 236.81 7.46 251.22 76.01"/><line class="cls-15" x1="231.72" y1="8.51" x2="246.31" y2="77.73"/><line class="cls-15" x1="220.01" y1="10.91" x2="234.39" y2="79.16"/><line class="cls-15" x1="217.04" y1="11.46" x2="231.42" y2="79.68"/><line class="cls-15" x1="228.64" y1="9.15" x2="243.19" y2="78.21"/><line class="cls-15" x1="222.77" y1="10.36" x2="237.23" y2="78.96"/><line class="cls-15" x1="234.5" y1="7.94" x2="249.15" y2="77.46"/><line class="cls-15" x1="225.95" y1="9.7" x2="240.44" y2="78.47"/><line class="cls-15" x1="215.49" y1="19.13" x2="238.44" y2="15.59"/><line class="cls-15" x1="217.07" y1="26.64" x2="239.95" y2="22.76"/><line class="cls-15" x1="218.88" y1="35.4" x2="241.76" y2="31.52"/><line class="cls-15" x1="220.54" y1="43.11" x2="243.48" y2="39.48"/><line class="cls-15" x1="222.34" y1="51.67" x2="245.2" y2="47.68"/><line class="cls-15" x1="227.15" y1="74.25" x2="250.01" y2="70.26"/><line class="cls-15" x1="225.58" y1="67.03" x2="248.44" y2="63.04"/><line class="cls-15" x1="224.04" y1="59.56" x2="246.87" y2="55.57"/><path class="cls-19" d="M487.15,353.26l-28.38,5.63-4.42-2.64-.84-8.15,2.49-4.32,28.29-6.13,4.88,2.61,2,7.47a19.84,19.84,0,0,1-1.05,1.94,17.11,17.11,0,0,1-2.94,3.59" transform="translate(-300.73 -250.44)"/><path class="cls-20" d="M487.15,353.26l-28.38,5.63-4.42-2.64-.84-8.15,2.49-4.32,28.29-6.13,4.88,2.61,2,7.47a19.84,19.84,0,0,1-1.05,1.94A17.11,17.11,0,0,1,487.15,353.26Z" transform="translate(-300.73 -250.44)"/><path class="cls-19" d="M525.64,336.65c.79,3.75-7.16,8.6-17.76,10.81s-19.81,1-20.59-2.78,7.16-8.6,17.75-10.82,19.82-1,20.6,2.79" transform="translate(-300.73 -250.44)"/><path class="cls-14" d="M525.64,336.65c.79,3.75-7.16,8.6-17.76,10.81s-19.81,1-20.59-2.78,7.16-8.6,17.75-10.82S524.86,332.89,525.64,336.65Z" transform="translate(-300.73 -250.44)"/><path class="cls-19" d="M560.57,336.7l-28.56,4c-5.09.89-9.53-.49-10.14-3.12s2.89-5.78,8-7l28.46-6.86q1.14,6.49,2.27,13" transform="translate(-300.73 -250.44)"/><path class="cls-20" d="M560.57,336.7l-28.56,4c-5.09.89-9.53-.49-10.14-3.12s2.89-5.78,8-7l28.46-6.86Q559.44,330.19,560.57,336.7Z" transform="translate(-300.73 -250.44)"/><path class="cls-21" d="M555.75,337.35l-17.33,2.43q-1.3-5.32-2.62-10.63l17.54-4.23Z" transform="translate(-300.73 -250.44)"/><path class="cls-14" d="M555.75,337.35l-17.33,2.43q-1.3-5.32-2.62-10.63l17.54-4.23Z" transform="translate(-300.73 -250.44)"/><path class="cls-22" d="M410,357.22c.14.64-1,1.42-2.58,1.75s-2.93.07-3.06-.57,1-1.43,2.58-1.75,2.93-.07,3.06.57" transform="translate(-300.73 -250.44)"/><line class="cls-23" x1="200.11" y1="87.87" x2="200.54" y2="89.94"/><line class="cls-24" x1="159.84" y1="95.99" x2="164.62" y2="94.99"/><line class="cls-24" x1="160.07" y1="97.06" x2="163.73" y2="96.29"/><line class="cls-23" x1="204.58" y1="87.74" x2="204.85" y2="89.03"/><line class="cls-23" x1="208.5" y1="86.12" x2="208.93" y2="88.18"/><rect class="cls-23" x="473.55" y="345.28" width="2.32" height="1.53" transform="translate(-361.62 -145.7) rotate(-11.84)"/><rect class="cls-23" x="513.77" y="335.09" width="2.6" height="6.79" transform="translate(-359.11 -137.85) rotate(-11.81)"/><g class="cls-25"><g class="cls-26"><g class="cls-27"><rect class="cls-28" x="513.41" y="342.43" width="2.25" height="2.13" transform="translate(-357.78 -143.65) rotate(-11.23)"/></g><path class="cls-29" d="M514.69,344.29h0a.62.62,0,0,1-.19,0,.83.83,0,0,1-.84-.64.78.78,0,0,1,0-.14.88.88,0,0,1,.74-.83.62.62,0,0,1,.19,0,.85.85,0,0,1,.85.64.71.71,0,0,1,0,.14.87.87,0,0,1-.74.83h0a.87.87,0,0,0,.74-.83.71.71,0,0,0,0-.14.85.85,0,0,0-.85-.64.62.62,0,0,0-.19,0,.88.88,0,0,0-.74.83.78.78,0,0,0,0,.14.83.83,0,0,0,.84.64.62.62,0,0,0,.19,0Z" transform="translate(-300.73 -250.44)"/><g class="cls-30"><rect class="cls-31" x="509.95" y="343.28" width="2.16" height="2.05" transform="translate(-358 -144.33) rotate(-11.23)"/></g><path class="cls-32" d="M511.17,345.07h0l-.18,0a.79.79,0,0,1-.81-.62.68.68,0,0,1,0-.14.87.87,0,0,1,.71-.8h.19a.8.8,0,0,1,.81.61.66.66,0,0,1,0,.14.85.85,0,0,1-.71.8h0a.85.85,0,0,0,.71-.8.66.66,0,0,0,0-.14.8.8,0,0,0-.81-.61h-.19a.87.87,0,0,0-.71.8.68.68,0,0,0,0,.14.79.79,0,0,0,.81.62l.18,0Z" transform="translate(-300.73 -250.44)"/><g class="cls-33"><rect class="cls-34" x="506.29" y="344.01" width="2.16" height="2.05" transform="translate(-358.21 -145.03) rotate(-11.23)"/></g><path class="cls-35" d="M507.52,345.8h0l-.19,0a.81.81,0,0,1-.81-.62c0-.05,0-.09,0-.14a.84.84,0,0,1,.71-.79.62.62,0,0,1,.19,0,.81.81,0,0,1,.81.61.66.66,0,0,1,0,.14.86.86,0,0,1-.71.8h0a.86.86,0,0,0,.71-.8.66.66,0,0,0,0-.14.81.81,0,0,0-.81-.61.62.62,0,0,0-.19,0,.84.84,0,0,0-.71.79c0,.05,0,.09,0,.14a.81.81,0,0,0,.81.62l.19,0Z" transform="translate(-300.73 -250.44)"/><g class="cls-36"><rect class="cls-37" x="502.67" y="344.73" width="2.16" height="2.05" transform="translate(-358.42 -145.72) rotate(-11.23)"/></g><path class="cls-38" d="M503.9,346.52h0l-.18,0a.79.79,0,0,1-.81-.62.59.59,0,0,1,0-.14.84.84,0,0,1,.71-.79l.19,0a.8.8,0,0,1,.81.61.71.71,0,0,1,0,.14.84.84,0,0,1-.71.8h0a.84.84,0,0,0,.71-.8.71.71,0,0,0,0-.14.8.8,0,0,0-.81-.61l-.19,0a.84.84,0,0,0-.71.79.59.59,0,0,0,0,.14.79.79,0,0,0,.81.62l.18,0Z" transform="translate(-300.73 -250.44)"/><g class="cls-39"><rect class="cls-40" x="499.05" y="345.45" width="2.16" height="2.05" transform="translate(-358.63 -146.41) rotate(-11.23)"/></g><path class="cls-41" d="M500.29,347.24h0a.65.65,0,0,1-.19,0,.8.8,0,0,1-.81-.61.78.78,0,0,1,0-.14.85.85,0,0,1,.71-.8l.19,0a.8.8,0,0,1,.81.62.61.61,0,0,1,0,.14.84.84,0,0,1-.7.79h0a.84.84,0,0,0,.7-.79.61.61,0,0,0,0-.14.8.8,0,0,0-.81-.62l-.19,0a.85.85,0,0,0-.71.8.78.78,0,0,0,0,.14.8.8,0,0,0,.81.61.65.65,0,0,0,.19,0Z" transform="translate(-300.73 -250.44)"/><g class="cls-42"><rect class="cls-43" x="495.18" y="346.12" width="2.16" height="2.05" transform="translate(-358.84 -147.15) rotate(-11.23)"/></g><path class="cls-44" d="M496.41,347.91h0a.62.62,0,0,1-.19,0,.8.8,0,0,1-.81-.62.57.57,0,0,1,0-.13.84.84,0,0,1,.71-.8l.18,0a.79.79,0,0,1,.81.62.59.59,0,0,1,0,.13.84.84,0,0,1-.71.8h0a.84.84,0,0,0,.71-.8.59.59,0,0,0,0-.13.79.79,0,0,0-.81-.62l-.18,0a.84.84,0,0,0-.71.8.57.57,0,0,0,0,.13.8.8,0,0,0,.81.62.62.62,0,0,0,.19,0Z" transform="translate(-300.73 -250.44)"/></g></g><g class="cls-45"><g class="cls-46"><g class="cls-47"><rect class="cls-48" x="486.07" y="339.81" width="2.24" height="2.13" transform="translate(-357.79 -149.04) rotate(-11.23)"/></g><path class="cls-49" d="M487.35,341.68h0l-.19,0a.85.85,0,0,1-.85-.64.76.76,0,0,1,0-.15.88.88,0,0,1,.74-.83l.19,0a.83.83,0,0,1,.84.64.77.77,0,0,1,0,.15.89.89,0,0,1-.74.83h0a.89.89,0,0,0,.74-.83.77.77,0,0,0,0-.15.83.83,0,0,0-.84-.64l-.19,0a.88.88,0,0,0-.74.83.76.76,0,0,0,0,.15.85.85,0,0,0,.85.64l.19,0Z" transform="translate(-300.73 -250.44)"/><g class="cls-50"><rect class="cls-51" x="482.6" y="340.66" width="2.16" height="2.05" transform="translate(-358.01 -149.7) rotate(-11.23)"/></g><path class="cls-52" d="M483.83,342.45h0a.58.58,0,0,1-.19,0,.81.81,0,0,1-.81-.62.57.57,0,0,1,0-.13.84.84,0,0,1,.71-.8l.19,0a.81.81,0,0,1,.81.62.57.57,0,0,1,0,.13.84.84,0,0,1-.71.8h0a.84.84,0,0,0,.71-.8.57.57,0,0,0,0-.13.81.81,0,0,0-.81-.62l-.19,0a.84.84,0,0,0-.71.8s0,.09,0,.13a.81.81,0,0,0,.81.62.58.58,0,0,0,.19,0Z" transform="translate(-300.73 -250.44)"/><g class="cls-53"><rect class="cls-54" x="478.95" y="341.39" width="2.16" height="2.05" transform="translate(-358.22 -150.4) rotate(-11.23)"/></g><path class="cls-55" d="M480.18,343.18h0a.62.62,0,0,1-.19,0,.8.8,0,0,1-.81-.62.57.57,0,0,1,0-.13.84.84,0,0,1,.7-.8l.19,0a.79.79,0,0,1,.81.62.59.59,0,0,1,0,.14.85.85,0,0,1-.71.79h0a.85.85,0,0,0,.71-.79.59.59,0,0,0,0-.14.79.79,0,0,0-.81-.62l-.19,0a.84.84,0,0,0-.7.8.57.57,0,0,0,0,.13.8.8,0,0,0,.81.62.62.62,0,0,0,.19,0Z" transform="translate(-300.73 -250.44)"/><g class="cls-56"><rect class="cls-57" x="475.33" y="342.11" width="2.16" height="2.05" transform="translate(-358.44 -151.09) rotate(-11.23)"/></g><path class="cls-58" d="M476.56,343.91h-.19a.8.8,0,0,1-.81-.61.71.71,0,0,1,0-.14.86.86,0,0,1,.71-.8l.18,0a.79.79,0,0,1,.81.62.68.68,0,0,1,0,.14.86.86,0,0,1-.71.8h0a.86.86,0,0,0,.71-.8.68.68,0,0,0,0-.14.79.79,0,0,0-.81-.62l-.18,0a.86.86,0,0,0-.71.8.71.71,0,0,0,0,.14.8.8,0,0,0,.81.61Z" transform="translate(-300.73 -250.44)"/><g class="cls-59"><rect class="cls-60" x="471.71" y="342.84" width="2.16" height="2.05" transform="translate(-358.64 -151.79) rotate(-11.23)"/></g><path class="cls-61" d="M472.94,344.63h0l-.19,0a.81.81,0,0,1-.81-.62.66.66,0,0,1,0-.14.86.86,0,0,1,.71-.8h.18a.82.82,0,0,1,.82.61c0,.05,0,.09,0,.14a.86.86,0,0,1-.71.8h0a.86.86,0,0,0,.71-.8c0-.05,0-.09,0-.14a.82.82,0,0,0-.82-.61h-.18a.86.86,0,0,0-.71.8.66.66,0,0,0,0,.14.81.81,0,0,0,.81.62l.19,0Z" transform="translate(-300.73 -250.44)"/><g class="cls-62"><rect class="cls-63" x="467.83" y="343.51" width="2.16" height="2.05" transform="translate(-358.85 -152.52) rotate(-11.23)"/></g><path class="cls-64" d="M469.06,345.3h0l-.18,0a.79.79,0,0,1-.81-.62.68.68,0,0,1,0-.14.87.87,0,0,1,.71-.8H469a.8.8,0,0,1,.81.61.66.66,0,0,1,0,.14.86.86,0,0,1-.71.8h0a.86.86,0,0,0,.71-.8.66.66,0,0,0,0-.14.8.8,0,0,0-.81-.61h-.19a.87.87,0,0,0-.71.8.68.68,0,0,0,0,.14.79.79,0,0,0,.81.62l.18,0Z" transform="translate(-300.73 -250.44)"/></g></g><g class="cls-65"><g class="cls-66"><g class="cls-67"><rect class="cls-68" x="549.37" y="326.59" width="2.24" height="2.13" transform="translate(-354 -136.96) rotate(-11.23)"/></g><path class="cls-69" d="M550.65,328.45h0a.68.68,0,0,1-.2,0,.84.84,0,0,1-.84-.64.61.61,0,0,1,0-.14.88.88,0,0,1,.74-.83l.19,0a.83.83,0,0,1,.84.64.77.77,0,0,1,0,.15.88.88,0,0,1-.74.82h0a.88.88,0,0,0,.74-.82.77.77,0,0,0,0-.15.83.83,0,0,0-.84-.64l-.19,0a.88.88,0,0,0-.74.83.61.61,0,0,0,0,.14.84.84,0,0,0,.84.64.68.68,0,0,0,.2,0Z" transform="translate(-300.73 -250.44)"/><g class="cls-70"><rect class="cls-71" x="545.9" y="327.44" width="2.16" height="2.05" transform="translate(-354.23 -137.63) rotate(-11.23)"/></g><path class="cls-72" d="M547.13,329.23h0l-.18,0a.81.81,0,0,1-.82-.62s0-.09,0-.14a.84.84,0,0,1,.71-.79.55.55,0,0,1,.18,0,.82.82,0,0,1,.82.61s0,.1,0,.14a.84.84,0,0,1-.71.8h0a.84.84,0,0,0,.71-.8s0-.09,0-.14a.82.82,0,0,0-.82-.61.55.55,0,0,0-.18,0,.84.84,0,0,0-.71.79c0,.05,0,.1,0,.14a.81.81,0,0,0,.82.62l.18,0Z" transform="translate(-300.73 -250.44)"/><g class="cls-73"><rect class="cls-74" x="542.25" y="328.17" width="2.16" height="2.05" transform="translate(-354.44 -138.31) rotate(-11.23)"/></g><path class="cls-75" d="M543.48,330h0l-.19,0a.8.8,0,0,1-.81-.62.61.61,0,0,1,0-.14.84.84,0,0,1,.71-.79.55.55,0,0,1,.18,0,.8.8,0,0,1,.81.61.78.78,0,0,1,0,.14.85.85,0,0,1-.71.8h0a.85.85,0,0,0,.71-.8.78.78,0,0,0,0-.14.8.8,0,0,0-.81-.61.55.55,0,0,0-.18,0,.84.84,0,0,0-.71.79.61.61,0,0,0,0,.14.8.8,0,0,0,.81.62l.19,0Z" transform="translate(-300.73 -250.44)"/><g class="cls-76"><rect class="cls-77" x="538.63" y="328.89" width="2.16" height="2.05" transform="translate(-354.65 -139.02) rotate(-11.23)"/></g><path class="cls-78" d="M539.86,330.68h0a.62.62,0,0,1-.19,0,.8.8,0,0,1-.81-.61.71.71,0,0,1,0-.14.84.84,0,0,1,.71-.8l.18,0a.79.79,0,0,1,.81.62.59.59,0,0,1,0,.14.84.84,0,0,1-.71.79h0a.84.84,0,0,0,.71-.79.59.59,0,0,0,0-.14.79.79,0,0,0-.81-.62l-.18,0a.84.84,0,0,0-.71.8.71.71,0,0,0,0,.14.8.8,0,0,0,.81.61.62.62,0,0,0,.19,0Z" transform="translate(-300.73 -250.44)"/><g class="cls-79"><rect class="cls-80" x="535.01" y="329.61" width="2.16" height="2.05" transform="translate(-354.85 -139.72) rotate(-11.23)"/></g><path class="cls-81" d="M536.24,331.41h-.19a.81.81,0,0,1-.81-.61.71.71,0,0,1,0-.14.86.86,0,0,1,.71-.8l.19,0a.81.81,0,0,1,.81.62s0,.09,0,.14a.86.86,0,0,1-.71.8h0a.86.86,0,0,0,.71-.8c0-.05,0-.09,0-.14a.81.81,0,0,0-.81-.62l-.19,0a.86.86,0,0,0-.71.8.71.71,0,0,0,0,.14.81.81,0,0,0,.81.61Z" transform="translate(-300.73 -250.44)"/><g class="cls-82"><rect class="cls-83" x="531.13" y="330.28" width="2.16" height="2.05" transform="translate(-355.06 -140.46) rotate(-11.23)"/></g><path class="cls-84" d="M532.37,332.08h-.19a.8.8,0,0,1-.81-.61.78.78,0,0,1,0-.14.87.87,0,0,1,.71-.8l.19,0a.8.8,0,0,1,.81.62.66.66,0,0,1,0,.14.86.86,0,0,1-.7.8h0a.86.86,0,0,0,.7-.8.66.66,0,0,0,0-.14.8.8,0,0,0-.81-.62l-.19,0a.87.87,0,0,0-.71.8.78.78,0,0,0,0,.14.8.8,0,0,0,.81.61Z" transform="translate(-300.73 -250.44)"/></g></g><g class="cls-85"><g class="cls-86"><g class="cls-87"><rect class="cls-88" x="550.06" y="329.86" width="2.24" height="2.13" transform="translate(-354.62 -136.77) rotate(-11.23)"/></g><path class="cls-89" d="M551.34,331.73h-.2a.84.84,0,0,1-.84-.64.61.61,0,0,1,0-.14.88.88,0,0,1,.73-.83l.2,0a.83.83,0,0,1,.84.64.77.77,0,0,1,0,.15.9.9,0,0,1-.74.83h0a.9.9,0,0,0,.74-.83.77.77,0,0,0,0-.15.83.83,0,0,0-.84-.64l-.2,0a.88.88,0,0,0-.73.83.61.61,0,0,0,0,.14.84.84,0,0,0,.84.64Z" transform="translate(-300.73 -250.44)"/><g class="cls-90"><rect class="cls-91" x="546.59" y="330.71" width="2.16" height="2.05" transform="translate(-354.84 -137.45) rotate(-11.23)"/></g><path class="cls-92" d="M547.82,332.5h0l-.18,0a.81.81,0,0,1-.82-.62.61.61,0,0,1,0-.14.84.84,0,0,1,.71-.79.55.55,0,0,1,.18,0,.82.82,0,0,1,.82.61c0,.05,0,.1,0,.14a.84.84,0,0,1-.71.8h0a.84.84,0,0,0,.71-.8s0-.09,0-.14a.82.82,0,0,0-.82-.61.55.55,0,0,0-.18,0,.84.84,0,0,0-.71.79c0,.05,0,.1,0,.14a.81.81,0,0,0,.82.62l.18,0Z" transform="translate(-300.73 -250.44)"/><g class="cls-93"><rect class="cls-94" x="542.94" y="331.44" width="2.16" height="2.05" transform="translate(-355.06 -138.13) rotate(-11.23)"/></g><path class="cls-95" d="M544.17,333.23h0l-.19,0a.8.8,0,0,1-.81-.62.61.61,0,0,1,0-.14.84.84,0,0,1,.7-.79.65.65,0,0,1,.19,0,.8.8,0,0,1,.81.61.78.78,0,0,1,0,.14.85.85,0,0,1-.71.8h0a.85.85,0,0,0,.71-.8.78.78,0,0,0,0-.14.8.8,0,0,0-.81-.61.65.65,0,0,0-.19,0,.84.84,0,0,0-.7.79.61.61,0,0,0,0,.14.8.8,0,0,0,.81.62l.19,0Z" transform="translate(-300.73 -250.44)"/><g class="cls-96"><rect class="cls-97" x="539.32" y="332.16" width="2.16" height="2.05" transform="translate(-355.27 -138.83) rotate(-11.23)"/></g><path class="cls-98" d="M540.55,334h0a.62.62,0,0,1-.19,0,.8.8,0,0,1-.81-.61.71.71,0,0,1,0-.14.84.84,0,0,1,.71-.8l.18,0a.79.79,0,0,1,.81.62.59.59,0,0,1,0,.14.84.84,0,0,1-.71.79h0a.84.84,0,0,0,.71-.79.59.59,0,0,0,0-.14.79.79,0,0,0-.81-.62l-.18,0a.84.84,0,0,0-.71.8.71.71,0,0,0,0,.14.8.8,0,0,0,.81.61.62.62,0,0,0,.19,0Z" transform="translate(-300.73 -250.44)"/><g class="cls-99"><rect class="cls-100" x="535.7" y="332.88" width="2.16" height="2.05" transform="translate(-355.48 -139.51) rotate(-11.23)"/></g><path class="cls-101" d="M536.93,334.68h0l-.19,0a.81.81,0,0,1-.81-.62.66.66,0,0,1,0-.14.86.86,0,0,1,.71-.8l.19,0a.79.79,0,0,1,.8.62.68.68,0,0,1,0,.14.86.86,0,0,1-.71.8h0a.86.86,0,0,0,.71-.8.68.68,0,0,0,0-.14.79.79,0,0,0-.8-.62l-.19,0a.86.86,0,0,0-.71.8.66.66,0,0,0,0,.14.81.81,0,0,0,.81.62l.19,0Z" transform="translate(-300.73 -250.44)"/><g class="cls-102"><rect class="cls-103" x="531.82" y="333.55" width="2.16" height="2.05" transform="translate(-355.69 -140.24) rotate(-11.23)"/></g><path class="cls-104" d="M533.05,335.35h-.18a.8.8,0,0,1-.81-.61.78.78,0,0,1,0-.14.87.87,0,0,1,.71-.8l.19,0a.8.8,0,0,1,.81.62.66.66,0,0,1,0,.14.86.86,0,0,1-.71.8h0a.86.86,0,0,0,.71-.8.66.66,0,0,0,0-.14.8.8,0,0,0-.81-.62l-.19,0a.87.87,0,0,0-.71.8.78.78,0,0,0,0,.14.8.8,0,0,0,.81.61Z" transform="translate(-300.73 -250.44)"/></g></g></g><g class="cls-105"><rect class="cls-106" x="377.5" y="328.25" width="85.34" height="64.21" transform="translate(-361.84 -163.53) rotate(-11.01)"/></g><g class="cls-9"><path class="cls-10" d="M430.69,335.15,456,343.64q1.36,7.56,2.75,15.11l-19.79,15.61a263.47,263.47,0,0,1-31.83,8.12c-3.88.72-17.21,3.08-17.21,3.08l-8.3-41.79s15-3.68,29-6C415.58,336.91,422.41,335.91,430.69,335.15Z" transform="translate(-300.73 -250.44)"/><path class="cls-22" d="M431.48,352.72c.13.64-1,1.42-2.58,1.75s-2.93.07-3.07-.57,1-1.43,2.58-1.75,2.93-.07,3.07.57" transform="translate(-300.73 -250.44)"/><path class="cls-22" d="M419.94,355.13c.15.76-.88,1.61-2.31,1.91s-2.72-.07-2.88-.82.88-1.61,2.31-1.91,2.72.07,2.88.82" transform="translate(-300.73 -250.44)"/><g class="cls-107"><g class="cls-108"><path class="cls-22" d="M443.45,361.87a.9.9,0,1,1,1.05.61.85.85,0,0,1-1.05-.61" transform="translate(-300.73 -250.44)"/><path class="cls-22" d="M442.7,358.69a.82.82,0,0,1,.68-.94.81.81,0,0,1,1,.59.86.86,0,0,1-1.68.35" transform="translate(-300.73 -250.44)"/><path class="cls-22" d="M442,355.39a.87.87,0,0,1,1.69-.36.87.87,0,0,1-1.69.36" transform="translate(-300.73 -250.44)"/><path class="cls-22" d="M441.31,352.12a.86.86,0,0,1,1.68-.36.86.86,0,0,1-1.68.36" transform="translate(-300.73 -250.44)"/><path class="cls-22" d="M440.62,348.85a.86.86,0,0,1,1.68-.36.86.86,0,0,1-1.68.36" transform="translate(-300.73 -250.44)"/><path class="cls-22" d="M440,345.34a.87.87,0,1,1,1,.58.82.82,0,0,1-1-.58" transform="translate(-300.73 -250.44)"/></g></g><g class="cls-107"><g class="cls-109"><path class="cls-22" d="M411.46,360a.9.9,0,1,1,1,.61.85.85,0,0,1-1-.61" transform="translate(-300.73 -250.44)"/><path class="cls-22" d="M410.71,356.81a.82.82,0,0,1,.68-.95.79.79,0,1,1,.32,1.53.82.82,0,0,1-1-.58" transform="translate(-300.73 -250.44)"/><path class="cls-22" d="M410,353.5a.87.87,0,1,1,1,.59.83.83,0,0,1-1-.59" transform="translate(-300.73 -250.44)"/><path class="cls-22" d="M409.32,350.23a.87.87,0,0,1,1.69-.35.83.83,0,0,1-.69.94.83.83,0,0,1-1-.59" transform="translate(-300.73 -250.44)"/><path class="cls-22" d="M408.63,347a.86.86,0,1,1,1,.59.82.82,0,0,1-1-.59" transform="translate(-300.73 -250.44)"/><path class="cls-22" d="M408,343.45a.87.87,0,1,1,1,.59.83.83,0,0,1-1-.59" transform="translate(-300.73 -250.44)"/></g></g><g class="cls-107"><g class="cls-110"><path class="cls-22" d="M407.86,360.74a.9.9,0,0,1,1.76-.37.86.86,0,0,1-.71,1,.85.85,0,0,1-1.05-.61" transform="translate(-300.73 -250.44)"/><path class="cls-22" d="M407.11,357.57a.82.82,0,0,1,.68-.95.84.84,0,0,1,1,.59.87.87,0,0,1-1.69.36" transform="translate(-300.73 -250.44)"/><path class="cls-22" d="M406.41,354.26a.87.87,0,1,1,1,.59.83.83,0,0,1-1-.59" transform="translate(-300.73 -250.44)"/><path class="cls-22" d="M405.72,351a.87.87,0,1,1,1,.59.82.82,0,0,1-1-.59" transform="translate(-300.73 -250.44)"/><path class="cls-22" d="M405,347.72a.87.87,0,0,1,1.69-.35.83.83,0,0,1-.69.94.83.83,0,0,1-1-.59" transform="translate(-300.73 -250.44)"/><path class="cls-22" d="M404.4,344.21a.87.87,0,1,1,1,.59.83.83,0,0,1-1-.59" transform="translate(-300.73 -250.44)"/></g></g></g></g></g></svg>