<svg xmlns="http://www.w3.org/2000/svg" viewBox="0 0 77.5 135.36"><defs><style>.cls-1{fill:#dadada;}.cls-10,.cls-11,.cls-13,.cls-14,.cls-2,.cls-4,.cls-6,.cls-7{fill:none;stroke-miterlimit:10;}.cls-10,.cls-11,.cls-2,.cls-4,.cls-6,.cls-7{stroke:#1d1d1b;}.cls-3{fill:#fff;}.cls-4{stroke-width:0.75px;}.cls-5{fill:#1d71b8;}.cls-6{stroke-width:2px;}.cls-7{stroke-width:3px;}.cls-8{fill:#1d1d1b;}.cls-9{fill:#c6c6c6;}.cls-10{stroke-width:0.5px;}.cls-11,.cls-14{stroke-width:0.25px;}.cls-12{fill:#be1622;}.cls-13,.cls-14{stroke:#fff;}.cls-15{fill:#312783;}</style></defs><title>astro1</title><g id="Layer_2" data-name="Layer 2"><g id="Layer_1-2" data-name="Layer 1"><path class="cls-1" d="M62.8,97.83H14A13.52,13.52,0,0,1,.5,84.31V23.57A13.52,13.52,0,0,1,14,10.05H62.8A13.52,13.52,0,0,1,76.32,23.57V84.31A13.52,13.52,0,0,1,62.8,97.83"/><rect class="cls-2" x="0.5" y="10.05" width="75.82" height="87.77" rx="13.52"/><path class="cls-3" d="M34.12,131.51c.41-1.66,1-4,1.45-6.92.4-2.31.82-5.27,1.32-14.71.54-10.08.4-13-1.32-13.65-.52-.21-.68,0-4.27.31-4.38.39-4.5.12-5.14.44-1.76.86-2.09,3.41-1.61,13.61.22,4.54.34,6.93.74,11.13s.82,7.44,1.15,9.79A3.69,3.69,0,0,0,30.28,135a3.68,3.68,0,0,0,3.84-3.48"/><path class="cls-4" d="M34.12,131.51c.41-1.66,1-4,1.45-6.92.4-2.31.82-5.27,1.32-14.71.54-10.08.4-13-1.32-13.65-.52-.21-.68,0-4.27.31-4.38.39-4.5.12-5.14.44-1.76.86-2.09,3.41-1.61,13.61.22,4.54.34,6.93.74,11.13s.82,7.44,1.15,9.79A3.69,3.69,0,0,0,30.28,135,3.68,3.68,0,0,0,34.12,131.51Z"/><path class="cls-3" d="M49.81,131.34c.42-1.65,1-4,1.46-6.87a103.14,103.14,0,0,0,1.32-14.62c.11-2.78.2-6.44.12-10.76H40.19c-.11,4.36-.06,8.22.06,11.46,0,1.24.19,5.47.73,11.07.39,4,.83,7.39,1.16,9.72a3.86,3.86,0,0,0,7.67,0"/><path class="cls-4" d="M49.81,131.34c.42-1.65,1-4,1.46-6.87a103.14,103.14,0,0,0,1.32-14.62c.11-2.78.2-6.44.12-10.76H40.19c-.11,4.36-.06,8.22.06,11.46,0,1.24.19,5.47.73,11.07.39,4,.83,7.39,1.16,9.72a3.86,3.86,0,0,0,7.67,0Z"/><path class="cls-3" d="M75.16,26.59c0,14.41-16.43,26.09-36.7,26.09S1.77,41,1.77,26.59,18.2.5,38.46.5s36.7,11.68,36.7,26.09"/><path class="cls-2" d="M75.16,26.59c0,14.41-16.43,26.09-36.7,26.09S1.77,41,1.77,26.59,18.2.5,38.46.5,75.16,12.18,75.16,26.59Z"/><path class="cls-3" d="M41.52,92.61H35.29A14.82,14.82,0,0,1,20.47,77.79V67.5A14.82,14.82,0,0,1,35.29,52.69h6.23A14.81,14.81,0,0,1,56.34,67.5V77.79A14.81,14.81,0,0,1,41.52,92.61"/><rect class="cls-2" x="20.47" y="52.69" width="35.87" height="39.93" rx="14.82"/><path class="cls-3" d="M12.6,97.56a140.86,140.86,0,0,0,6.29-19.89,140.35,140.35,0,0,0,3-17.6,3.75,3.75,0,0,0-.46-2.83,3.79,3.79,0,0,0-2.37-1.69,4.89,4.89,0,0,0-2.9.44,4.82,4.82,0,0,0-2.39,2.81,115.91,115.91,0,0,0-8.62,37,3.8,3.8,0,0,0,.45,2.84,3.88,3.88,0,0,0,7-1.07"/><path class="cls-4" d="M12.6,97.56a140.86,140.86,0,0,0,6.29-19.89,140.35,140.35,0,0,0,3-17.6,3.75,3.75,0,0,0-.46-2.83,3.79,3.79,0,0,0-2.37-1.69,4.89,4.89,0,0,0-2.9.44,4.82,4.82,0,0,0-2.39,2.81,115.91,115.91,0,0,0-8.62,37,3.8,3.8,0,0,0,.45,2.84,3.88,3.88,0,0,0,7-1.07Z"/><path class="cls-3" d="M54.73,60.05c.25,4.39.72,9.12,1.51,14.13a144.17,144.17,0,0,0,5.88,23.76,3.86,3.86,0,0,0,4.49,3,3.76,3.76,0,0,0,3-4.39A147.22,147.22,0,0,0,67,73.87c-.83-4.19-1.79-8.12-2.84-11.78-1-3.11-2.49-5.22-3.51-5.84a4.81,4.81,0,0,0-1.72-.63,3.84,3.84,0,0,0-4.2,4.43"/><path class="cls-4" d="M54.73,60.05c.25,4.39.72,9.12,1.51,14.13a144.17,144.17,0,0,0,5.88,23.76,3.86,3.86,0,0,0,4.49,3,3.76,3.76,0,0,0,3-4.39A147.22,147.22,0,0,0,67,73.87c-.83-4.19-1.79-8.12-2.84-11.78-1-3.11-2.49-5.22-3.51-5.84a4.81,4.81,0,0,0-1.72-.63,3.84,3.84,0,0,0-4.2,4.43Z"/><path class="cls-5" d="M54.87,43.8h-32A12.52,12.52,0,0,1,10.3,31.29V24.74A12.52,12.52,0,0,1,22.82,12.23H54.87A12.51,12.51,0,0,1,67.38,24.74v6.55A12.51,12.51,0,0,1,54.87,43.8"/><rect class="cls-6" x="10.3" y="12.23" width="57.08" height="31.57" rx="12.52"/><path class="cls-3" d="M53.75,101H23.06c-.34-2.17-.67-4.34-1-6.52-.43-2.77-.85-5.53-1.28-8.3l3.05-3.61,27.93-.5q2.2,1.78,4.4,3.58L53.75,101"/><path class="cls-2" d="M53.75,101H23.06c-.34-2.17-.67-4.34-1-6.52-.43-2.77-.85-5.53-1.28-8.3l3.05-3.61,27.93-.5q2.2,1.78,4.4,3.58Z"/><path class="cls-3" d="M73.43,27.45c0,3.92.58,7.1,1.28,7.1S76,31.37,76,27.45s-.58-7.09-1.29-7.09-1.28,3.17-1.28,7.09"/><path class="cls-7" d="M73.43,27.45c0,3.92.58,7.1,1.28,7.1S76,31.37,76,27.45s-.58-7.09-1.29-7.09S73.43,23.53,73.43,27.45Z"/><rect class="cls-3" x="28.48" y="60.23" width="19.67" height="12.31"/><rect class="cls-2" x="28.48" y="60.23" width="19.67" height="12.31"/><path class="cls-8" d="M33.77,69.77c0,.93-1,1.68-2.26,1.68s-2.25-.75-2.25-1.68,1-1.67,2.25-1.67,2.26.75,2.26,1.67"/><path class="cls-2" d="M33.77,69.77c0,.93-1,1.68-2.26,1.68s-2.25-.75-2.25-1.68,1-1.67,2.25-1.67S33.77,68.85,33.77,69.77Z"/><line class="cls-2" x1="38.46" y1="60.23" x2="38.41" y2="72.53"/><rect class="cls-9" x="41.52" y="68.1" width="6.19" height="4.43"/><rect class="cls-2" x="41.52" y="68.1" width="6.19" height="4.43"/><rect class="cls-9" x="29.26" y="61.22" width="9.05" height="5.15"/><rect class="cls-10" x="29.26" y="61.22" width="9.05" height="5.15"/><path class="cls-9" d="M41.51,61.84c0-.32-.51-.58-1.14-.58s-1.13.26-1.13.58.51.58,1.13.58,1.14-.26,1.14-.58"/><path class="cls-11" d="M41.51,61.84c0-.32-.51-.58-1.14-.58s-1.13.26-1.13.58.51.58,1.13.58S41.51,62.16,41.51,61.84Z"/><path class="cls-12" d="M45.26,64a.64.64,0,1,1-.64-.63.63.63,0,0,1,.64.63"/><path class="cls-11" d="M45.26,64a.64.64,0,1,1-.64-.63A.63.63,0,0,1,45.26,64Z"/><path class="cls-8" d="M41.51,64.8a1,1,0,1,1-1-1,1,1,0,0,1,1,1"/><path class="cls-11" d="M41.51,64.8a1,1,0,1,1-1-1A1,1,0,0,1,41.51,64.8Z"/><path class="cls-8" d="M47.34,61.78a.91.91,0,1,1-.91-.89.89.89,0,0,1,.91.89"/><path class="cls-11" d="M47.34,61.78a.91.91,0,1,1-.91-.89A.89.89,0,0,1,47.34,61.78Z"/><line class="cls-13" x1="59.88" y1="62.5" x2="63.21" y2="61.83"/><polygon class="cls-3" points="56.16 63.34 56.06 63.32 55.99 63.38 55.99 63.29 55.91 63.25 56 63.22 56.03 63.13 56.08 63.2 56.18 63.19 56.12 63.26 56.16 63.34"/><polygon class="cls-3" points="56.98 63.18 56.89 63.16 56.81 63.22 56.81 63.13 56.73 63.09 56.82 63.05 56.85 62.97 56.91 63.04 57 63.03 56.95 63.1 56.98 63.18"/><polygon class="cls-3" points="56.58 63.26 56.48 63.24 56.41 63.3 56.41 63.21 56.33 63.16 56.42 63.13 56.45 63.05 56.51 63.12 56.6 63.11 56.55 63.18 56.58 63.26"/><polygon class="cls-3" points="55.68 63.44 55.59 63.42 55.51 63.47 55.51 63.39 55.43 63.34 55.53 63.31 55.55 63.23 55.61 63.29 55.71 63.29 55.65 63.36 55.68 63.44"/><polygon class="cls-3" points="57.84 63.01 57.74 62.99 57.67 63.05 57.67 62.96 57.59 62.92 57.68 62.88 57.71 62.8 57.77 62.87 57.86 62.86 57.8 62.93 57.84 63.01"/><polygon class="cls-3" points="58.66 62.85 58.57 62.83 58.49 62.88 58.49 62.8 58.41 62.75 58.51 62.72 58.53 62.64 58.59 62.7 58.69 62.7 58.63 62.77 58.66 62.85"/><polygon class="cls-3" points="58.26 62.93 58.17 62.91 58.09 62.96 58.09 62.88 58.01 62.83 58.1 62.8 58.13 62.72 58.19 62.78 58.28 62.78 58.23 62.85 58.26 62.93"/><polygon class="cls-3" points="57.41 63.1 57.32 63.08 57.24 63.13 57.24 63.05 57.16 63 57.25 62.97 57.28 62.89 57.34 62.95 57.43 62.95 57.38 63.02 57.41 63.1"/><polygon class="cls-3" points="59.54 62.67 59.45 62.65 59.38 62.71 59.38 62.62 59.3 62.58 59.39 62.55 59.42 62.46 59.47 62.53 59.57 62.52 59.51 62.59 59.54 62.67"/><polygon class="cls-3" points="59.13 62.76 59.03 62.73 58.96 62.79 58.96 62.71 58.88 62.66 58.97 62.63 59 62.55 59.05 62.61 59.15 62.6 59.09 62.68 59.13 62.76"/><polygon class="cls-3" points="56.47 64.86 56.38 64.84 56.3 64.9 56.3 64.81 56.22 64.77 56.31 64.73 56.34 64.65 56.4 64.72 56.49 64.71 56.44 64.78 56.47 64.86"/><polygon class="cls-3" points="57.29 64.72 57.2 64.69 57.12 64.75 57.13 64.66 57.05 64.62 57.14 64.59 57.17 64.51 57.22 64.57 57.32 64.57 57.26 64.64 57.29 64.72"/><polygon class="cls-3" points="56.89 64.79 56.8 64.77 56.72 64.82 56.72 64.73 56.64 64.69 56.74 64.66 56.77 64.58 56.82 64.64 56.92 64.64 56.86 64.71 56.89 64.79"/><polygon class="cls-3" points="55.99 64.95 55.9 64.93 55.82 64.98 55.82 64.9 55.74 64.85 55.84 64.82 55.87 64.74 55.92 64.81 56.02 64.8 55.96 64.87 55.99 64.95"/><polygon class="cls-3" points="58.15 64.56 58.06 64.54 57.98 64.6 57.99 64.51 57.91 64.47 58 64.44 58.03 64.35 58.09 64.42 58.18 64.41 58.12 64.48 58.15 64.56"/><polygon class="cls-3" points="58.98 64.42 58.89 64.4 58.81 64.45 58.81 64.36 58.73 64.32 58.83 64.29 58.86 64.21 58.91 64.27 59.01 64.27 58.95 64.34 58.98 64.42"/><polygon class="cls-3" points="58.58 64.49 58.49 64.47 58.41 64.52 58.41 64.44 58.33 64.39 58.42 64.36 58.45 64.28 58.51 64.34 58.6 64.34 58.55 64.41 58.58 64.49"/><polygon class="cls-3" points="57.72 64.64 57.63 64.62 57.55 64.67 57.56 64.59 57.48 64.54 57.57 64.51 57.6 64.43 57.66 64.5 57.75 64.49 57.69 64.56 57.72 64.64"/><polygon class="cls-3" points="59.87 64.26 59.78 64.24 59.7 64.29 59.7 64.21 59.62 64.16 59.71 64.13 59.74 64.05 59.8 64.12 59.9 64.11 59.84 64.18 59.87 64.26"/><polygon class="cls-3" points="59.45 64.34 59.36 64.31 59.28 64.37 59.28 64.28 59.2 64.24 59.29 64.21 59.32 64.12 59.38 64.19 59.48 64.19 59.42 64.26 59.45 64.34"/><polygon class="cls-3" points="56.6 65.45 56.51 65.43 56.43 65.49 56.43 65.4 56.35 65.36 56.44 65.33 56.47 65.24 56.53 65.31 56.62 65.3 56.56 65.37 56.6 65.45"/><polygon class="cls-3" points="57.42 65.29 57.33 65.27 57.25 65.33 57.25 65.24 57.17 65.2 57.27 65.17 57.29 65.08 57.35 65.15 57.45 65.14 57.39 65.21 57.42 65.29"/><polygon class="cls-3" points="57.02 65.37 56.93 65.35 56.85 65.41 56.85 65.32 56.77 65.28 56.86 65.24 56.89 65.16 56.95 65.23 57.04 65.22 56.99 65.29 57.02 65.37"/><polygon class="cls-3" points="56.12 65.55 56.03 65.53 55.95 65.58 55.96 65.5 55.88 65.45 55.97 65.42 56 65.34 56.05 65.4 56.15 65.4 56.09 65.47 56.12 65.55"/><polygon class="cls-3" points="58.28 65.12 58.19 65.1 58.11 65.16 58.11 65.07 58.03 65.03 58.12 65 58.15 64.91 58.21 64.98 58.3 64.97 58.25 65.04 58.28 65.12"/><polygon class="cls-3" points="59.1 64.96 59.01 64.94 58.93 64.99 58.93 64.91 58.85 64.86 58.95 64.83 58.98 64.75 59.03 64.81 59.13 64.81 59.07 64.88 59.1 64.96"/><polygon class="cls-3" points="58.7 65.04 58.61 65.02 58.53 65.07 58.53 64.99 58.45 64.94 58.55 64.91 58.57 64.83 58.63 64.89 58.73 64.89 58.67 64.96 58.7 65.04"/><polygon class="cls-3" points="57.85 65.21 57.76 65.19 57.68 65.24 57.68 65.16 57.6 65.11 57.7 65.08 57.72 65 57.78 65.06 57.88 65.06 57.82 65.13 57.85 65.21"/><polygon class="cls-3" points="59.99 64.78 59.9 64.76 59.82 64.82 59.82 64.73 59.74 64.69 59.83 64.66 59.86 64.57 59.92 64.64 60.01 64.63 59.95 64.7 59.99 64.78"/><polygon class="cls-3" points="59.57 64.87 59.48 64.85 59.4 64.9 59.4 64.82 59.32 64.77 59.41 64.74 59.44 64.66 59.5 64.72 59.59 64.72 59.54 64.79 59.57 64.87"/><line class="cls-14" x1="59.98" y1="63.58" x2="63.85" y2="62.88"/><line class="cls-14" x1="60.16" y1="64.52" x2="64.04" y2="63.85"/><line class="cls-14" x1="55.94" y1="66.33" x2="64.23" y2="64.73"/><line class="cls-14" x1="56.04" y1="67.01" x2="64.34" y2="65.39"/><line class="cls-14" x1="56.15" y1="67.7" x2="64.54" y2="66"/><polygon class="cls-15" points="64.77 68.19 56.99 70.08 55.94 65.85 63.71 63.96 64.77 68.19"/><polygon class="cls-3" points="64.06 65.38 56.29 67.27 55.94 65.85 63.71 63.96 64.06 65.38"/><polygon class="cls-12" points="64.77 68.19 56.99 70.08 56.64 68.67 64.41 66.78 64.77 68.19"/><polygon class="cls-11" points="64.78 68.19 56.99 70.08 55.92 65.78 63.7 63.89 64.78 68.19"/></g></g></svg>