<svg xmlns="http://www.w3.org/2000/svg" xmlns:xlink="http://www.w3.org/1999/xlink" viewBox="0 0 92.65 135.51"><defs><style>.cls-1,.cls-12,.cls-14,.cls-15,.cls-16,.cls-3,.cls-6{fill:none;}.cls-2{fill:#dadada;}.cls-15,.cls-3,.cls-6{stroke:#1d1d1b;}.cls-12,.cls-14,.cls-15,.cls-16,.cls-3,.cls-6{stroke-miterlimit:10;}.cls-16,.cls-3{stroke-width:0.5px;}.cls-4{fill:#fff;}.cls-5{fill:#1d71b8;}.cls-6{stroke-width:2px;}.cls-7{opacity:0.78;}.cls-8{clip-path:url(#clip-path);}.cls-9{fill:#1d1d1b;}.cls-10{fill:#c6c6c6;}.cls-11{fill:#be1622;}.cls-12,.cls-14{stroke:#fff;}.cls-13{fill:#312783;}.cls-14{stroke-width:0.25px;}.cls-16{stroke:#c6c6c6;}</style><clipPath id="clip-path"><rect class="cls-1" x="34.12" y="57.4" width="24.41" height="13.35"/></clipPath></defs><title>astrokvinde</title><g id="Layer_2" data-name="Layer 2"><g id="Layer_1-2" data-name="Layer 1"><path class="cls-2" d="M78.88,101.65H13.77A13.52,13.52,0,0,1,.25,88.13V23.48A13.52,13.52,0,0,1,13.77,10H78.88A13.52,13.52,0,0,1,92.4,23.48V88.13a13.52,13.52,0,0,1-13.52,13.52"/><rect class="cls-3" x="0.25" y="9.96" width="92.15" height="91.69" rx="13.52"/><path class="cls-4" d="M41.1,131.63c.51-1.74,1.17-4.22,1.77-7.23.49-2.41,1-5.51,1.61-15.36.65-10.53.48-13.54-1.61-14.27-.64-.22-.83,0-5.19.33-5.33.41-5.46.13-6.25.46-2.14.9-2.54,3.56-1.95,14.22.26,4.74.41,7.23.9,11.63s1,7.77,1.4,10.22c0,2,2.1,3.63,4.66,3.63s4.66-1.62,4.66-3.63"/><path class="cls-3" d="M41.1,131.63c.51-1.74,1.17-4.22,1.77-7.23.49-2.41,1-5.51,1.61-15.36.65-10.53.48-13.54-1.61-14.27-.64-.22-.83,0-5.19.33-5.33.41-5.46.13-6.25.46-2.14.9-2.54,3.56-1.95,14.22.26,4.74.41,7.23.9,11.63s1,7.77,1.4,10.22c0,2,2.1,3.63,4.66,3.63S41.1,133.64,41.1,131.63Z"/><path class="cls-4" d="M60.29,131.65c.5-1.72,1.17-4.19,1.77-7.18a92,92,0,0,0,1.6-15.27c.14-2.9.25-6.73.16-11.24H48.6c-.14,4.55-.08,8.59.07,12,0,1.28.24,5.71.89,11.55.48,4.23,1,7.73,1.4,10.16,0,2,2.11,3.61,4.67,3.61s4.66-1.61,4.66-3.61"/><path class="cls-3" d="M60.29,131.65c.5-1.72,1.17-4.19,1.77-7.18a92,92,0,0,0,1.6-15.27c.14-2.9.25-6.73.16-11.24H48.6c-.14,4.55-.08,8.59.07,12,0,1.28.24,5.71.89,11.55.48,4.23,1,7.73,1.4,10.16,0,2,2.11,3.61,4.67,3.61S60.29,133.65,60.29,131.65Z"/><path class="cls-4" d="M61.4,93.08,31.54,93a13,13,0,0,1-1.95-2.27,13.8,13.8,0,0,1-.05-14.48c1.38-2.11,1.65-2.56,1.86-4.25.35-2.66-.83-5-1.87-7-1.5-2.9-2.17-2.66-2.81-4.65-.4-1.23-1.41-4.34.89-6.76a8.45,8.45,0,0,1,4.11-2.2H61.4A9.53,9.53,0,0,1,66.32,53c2.84,2.09,3.28,6.08.73,9.72a15.64,15.64,0,0,0-3.2,9.42c0,1.59-.22,1.72,1.11,5.41.82,2.27,2.89,8,0,12.34a10.56,10.56,0,0,1-3.56,3.23"/><path class="cls-3" d="M61.4,93.08,31.54,93a13,13,0,0,1-1.95-2.27,13.8,13.8,0,0,1-.05-14.48c1.38-2.11,1.65-2.56,1.86-4.25.35-2.66-.83-5-1.87-7-1.5-2.9-2.17-2.66-2.81-4.65-.4-1.23-1.41-4.34.89-6.76a8.45,8.45,0,0,1,4.11-2.2H61.4A9.53,9.53,0,0,1,66.32,53c2.84,2.09,3.28,6.08.73,9.72a15.64,15.64,0,0,0-3.2,9.42c0,1.59-.22,1.72,1.11,5.41.82,2.27,2.89,8,0,12.34A10.56,10.56,0,0,1,61.4,93.08Z"/><path class="cls-4" d="M19.45,92.09a121.28,121.28,0,0,0,6.47-17.75,117.54,117.54,0,0,0,3.2-15.68,3,3,0,0,0-.4-2.51,3.58,3.58,0,0,0-2.29-1.48,5.3,5.3,0,0,0-2.84.43,4.57,4.57,0,0,0-2.38,2.52,99.42,99.42,0,0,0-4.91,12.5,95.78,95.78,0,0,0-4.12,20.49,3,3,0,0,0,.4,2.51,3.64,3.64,0,0,0,2.29,1.48h0a3.92,3.92,0,0,0,4.58-2.51"/><path class="cls-3" d="M19.45,92.09a121.28,121.28,0,0,0,6.47-17.75,117.54,117.54,0,0,0,3.2-15.68,3,3,0,0,0-.4-2.51,3.58,3.58,0,0,0-2.29-1.48,5.3,5.3,0,0,0-2.84.43,4.57,4.57,0,0,0-2.38,2.52,99.42,99.42,0,0,0-4.91,12.5,95.78,95.78,0,0,0-4.12,20.49,3,3,0,0,0,.4,2.51,3.64,3.64,0,0,0,2.29,1.48h0A3.92,3.92,0,0,0,19.45,92.09Z"/><path class="cls-4" d="M63.53,98.88H29.45c-.84-3.73-1.54-6.49-2-8.35a14,14,0,0,1-.66-5.7,12.13,12.13,0,0,1,.93-3.36l3.25-2.21,31-.16L66.18,81a14.7,14.7,0,0,1,.64,4.12,15.09,15.09,0,0,1-.58,4.18c-1,3.87-2,7.31-2.71,9.63"/><path class="cls-3" d="M63.53,98.88H29.45c-.84-3.73-1.54-6.49-2-8.35a14,14,0,0,1-.66-5.7,12.13,12.13,0,0,1,.93-3.36l3.25-2.21,31-.16L66.18,81a14.7,14.7,0,0,1,.64,4.12,15.09,15.09,0,0,1-.58,4.18C65.25,93.12,64.24,96.56,63.53,98.88Z"/><path class="cls-4" d="M87.53,25.86c0,14.14-18.11,25.6-40.45,25.6S6.63,40,6.63,25.86,24.74.25,47.08.25,87.53,11.71,87.53,25.86"/><path class="cls-3" d="M87.53,25.86c0,14.14-18.11,25.6-40.45,25.6S6.63,40,6.63,25.86,24.74.25,47.08.25,87.53,11.71,87.53,25.86Z"/><path class="cls-5" d="M69.1,41.33H25.78a7.48,7.48,0,0,1-7.48-7.48V21.93a7.48,7.48,0,0,1,7.48-7.48H69.1a7.48,7.48,0,0,1,7.48,7.48V33.85a7.48,7.48,0,0,1-7.48,7.48"/><rect class="cls-6" x="18.3" y="14.45" width="58.29" height="26.88" rx="7.48"/><path class="cls-4" d="M8.48,25.86c0,3.77-.83,6.84-1.85,6.84s-1.85-3.07-1.85-6.84S5.61,19,6.63,19s1.85,3.06,1.85,6.84"/><path class="cls-3" d="M8.48,25.86c0,3.77-.83,6.84-1.85,6.84s-1.85-3.07-1.85-6.84S5.61,19,6.63,19,8.48,22.08,8.48,25.86Z"/><path class="cls-4" d="M85.63,26.7c0,3.85.64,7,1.42,7s1.41-3.12,1.41-7-.63-7-1.41-7-1.42,3.11-1.42,7"/><path class="cls-3" d="M85.63,26.7c0,3.85.64,7,1.42,7s1.41-3.12,1.41-7-.63-7-1.41-7S85.63,22.85,85.63,26.7Z"/><g class="cls-7"><g class="cls-8"><rect class="cls-4" x="34.37" y="57.65" width="23.91" height="12.86"/><rect class="cls-3" x="34.37" y="57.65" width="23.91" height="12.86"/><path class="cls-9" d="M40.79,67.62c0,1-1.23,1.75-2.74,1.75s-2.73-.78-2.73-1.75,1.22-1.74,2.73-1.74,2.74.78,2.74,1.74"/><path class="cls-3" d="M40.79,67.62c0,1-1.23,1.75-2.74,1.75s-2.73-.78-2.73-1.75,1.22-1.74,2.73-1.74S40.79,66.66,40.79,67.62Z"/><line class="cls-3" x1="46.5" y1="57.65" x2="46.43" y2="70.5"/><rect class="cls-10" x="50.22" y="65.88" width="7.52" height="4.63"/><rect class="cls-3" x="50.22" y="65.88" width="7.52" height="4.63"/><rect class="cls-10" x="35.32" y="58.69" width="11" height="5.38"/><rect class="cls-3" x="35.32" y="58.69" width="11" height="5.38"/><path class="cls-10" d="M50.2,59.34c0-.33-.62-.6-1.38-.6s-1.38.27-1.38.6.62.61,1.38.61,1.38-.27,1.38-.61"/><path class="cls-3" d="M50.2,59.34c0-.33-.62-.6-1.38-.6s-1.38.27-1.38.6.62.61,1.38.61S50.2,59.68,50.2,59.34Z"/><path class="cls-11" d="M54.76,61.63a.79.79,0,0,1-1.56,0,.79.79,0,0,1,1.56,0"/><path class="cls-3" d="M54.76,61.63a.79.79,0,0,1-1.56,0,.79.79,0,0,1,1.56,0Z"/><path class="cls-9" d="M50.2,62.43a1.26,1.26,0,1,1-1.24-1,1.16,1.16,0,0,1,1.24,1"/><path class="cls-3" d="M50.2,62.43a1.26,1.26,0,1,1-1.24-1A1.16,1.16,0,0,1,50.2,62.43Z"/><path class="cls-9" d="M57.29,59.27a1.12,1.12,0,1,1-1.11-.93,1,1,0,0,1,1.11.93"/><path class="cls-3" d="M57.29,59.27a1.12,1.12,0,1,1-1.11-.93A1,1,0,0,1,57.29,59.27Z"/></g></g><path class="cls-4" d="M65.27,57.52A110.54,110.54,0,0,0,68,69.89,118.29,118.29,0,0,0,75.93,90.5a4.06,4.06,0,0,0,4.77,2.36,3.25,3.25,0,0,0,2.7-4A117.75,117.75,0,0,0,78.79,69c-1.19-3.64-2.49-7.06-3.86-10.22-1.29-2.69-3-4.46-4-5a5.5,5.5,0,0,0-1.78-.45,4.61,4.61,0,0,0-1.16.11,3.25,3.25,0,0,0-2.69,4.06"/><path class="cls-3" d="M65.27,57.52A110.54,110.54,0,0,0,68,69.89,118.29,118.29,0,0,0,75.93,90.5a4.06,4.06,0,0,0,4.77,2.36,3.25,3.25,0,0,0,2.7-4A117.75,117.75,0,0,0,78.79,69c-1.19-3.64-2.49-7.06-3.86-10.22-1.29-2.69-3-4.46-4-5a5.5,5.5,0,0,0-1.78-.45,4.61,4.61,0,0,0-1.16.11A3.25,3.25,0,0,0,65.27,57.52Z"/><line class="cls-12" x1="70.66" y1="59.36" x2="73.95" y2="58.57"/><polygon class="cls-11" points="75.68 62.62 67.49 64.63 66.12 60.21 74.3 58.2 75.68 62.62"/><polygon class="cls-13" points="71.22 61.5 66.86 62.57 66.12 60.2 70.49 59.13 71.22 61.5"/><polygon class="cls-4" points="66.98 60.33 66.89 60.32 66.82 60.37 66.81 60.3 66.73 60.26 66.82 60.23 66.84 60.16 66.9 60.21 67 60.2 66.95 60.26 66.98 60.33"/><polygon class="cls-4" points="67.8 60.14 67.71 60.13 67.63 60.18 67.63 60.1 67.54 60.07 67.63 60.04 67.65 59.96 67.72 60.02 67.81 60.01 67.76 60.07 67.8 60.14"/><polygon class="cls-4" points="67.4 60.23 67.31 60.22 67.23 60.27 67.23 60.2 67.14 60.16 67.23 60.13 67.25 60.06 67.32 60.11 67.42 60.1 67.36 60.17 67.4 60.23"/><polygon class="cls-4" points="66.52 60.44 66.42 60.43 66.35 60.49 66.34 60.41 66.26 60.38 66.35 60.34 66.37 60.27 66.43 60.32 66.53 60.31 66.48 60.38 66.52 60.44"/><polygon class="cls-4" points="68.65 59.94 68.56 59.92 68.48 59.98 68.48 59.9 68.39 59.87 68.48 59.84 68.5 59.76 68.57 59.81 68.66 59.8 68.61 59.87 68.65 59.94"/><polygon class="cls-4" points="69.46 59.75 69.37 59.73 69.3 59.79 69.29 59.71 69.21 59.68 69.3 59.64 69.32 59.57 69.38 59.62 69.48 59.61 69.42 59.68 69.46 59.75"/><polygon class="cls-4" points="69.07 59.84 68.97 59.83 68.9 59.88 68.89 59.8 68.81 59.77 68.9 59.74 68.92 59.66 68.98 59.72 69.08 59.7 69.03 59.77 69.07 59.84"/><polygon class="cls-4" points="68.22 60.04 68.13 60.03 68.06 60.08 68.05 60.01 67.97 59.97 68.06 59.94 68.08 59.86 68.14 59.92 68.24 59.91 68.19 59.97 68.22 60.04"/><polygon class="cls-4" points="70.34 59.54 70.24 59.52 70.17 59.58 70.17 59.5 70.08 59.47 70.17 59.44 70.19 59.36 70.25 59.41 70.35 59.4 70.3 59.47 70.34 59.54"/><polygon class="cls-4" points="69.92 59.64 69.83 59.62 69.76 59.68 69.75 59.6 69.67 59.57 69.76 59.53 69.78 59.46 69.84 59.51 69.94 59.5 69.89 59.57 69.92 59.64"/><polygon class="cls-4" points="67.43 61.66 67.33 61.64 67.26 61.7 67.26 61.62 67.17 61.58 67.26 61.55 67.28 61.48 67.35 61.53 67.44 61.52 67.39 61.59 67.43 61.66"/><polygon class="cls-4" points="68.25 61.48 68.15 61.46 68.08 61.52 68.07 61.44 67.99 61.41 68.08 61.37 68.1 61.3 68.17 61.35 68.26 61.34 68.21 61.41 68.25 61.48"/><polygon class="cls-4" points="67.85 61.56 67.75 61.55 67.68 61.6 67.67 61.53 67.59 61.49 67.68 61.46 67.7 61.38 67.77 61.44 67.86 61.43 67.81 61.5 67.85 61.56"/><polygon class="cls-4" points="66.96 61.76 66.86 61.75 66.79 61.8 66.78 61.72 66.7 61.69 66.79 61.66 66.81 61.58 66.88 61.64 66.97 61.63 66.92 61.69 66.96 61.76"/><polygon class="cls-4" points="69.1 61.29 69.01 61.28 68.93 61.33 68.93 61.25 68.84 61.22 68.94 61.19 68.96 61.11 69.02 61.17 69.12 61.16 69.06 61.22 69.1 61.29"/><polygon class="cls-4" points="69.92 61.11 69.83 61.1 69.75 61.15 69.75 61.08 69.66 61.04 69.75 61.01 69.78 60.93 69.84 60.99 69.94 60.98 69.88 61.04 69.92 61.11"/><polygon class="cls-4" points="69.52 61.2 69.43 61.18 69.35 61.24 69.35 61.16 69.26 61.13 69.36 61.09 69.38 61.02 69.44 61.08 69.53 61.06 69.48 61.13 69.52 61.2"/><polygon class="cls-4" points="68.67 61.38 68.58 61.37 68.51 61.42 68.5 61.35 68.42 61.31 68.51 61.28 68.53 61.2 68.59 61.26 68.69 61.25 68.64 61.32 68.67 61.38"/><polygon class="cls-4" points="70.8 60.92 70.7 60.9 70.63 60.96 70.63 60.88 70.54 60.85 70.63 60.81 70.66 60.74 70.72 60.8 70.81 60.78 70.76 60.85 70.8 60.92"/><polygon class="cls-4" points="70.38 61.01 70.29 61 70.22 61.05 70.21 60.97 70.13 60.94 70.22 60.91 70.24 60.83 70.3 60.89 70.4 60.88 70.34 60.94 70.38 61.01"/><polygon class="cls-4" points="67.28 61.19 67.19 61.18 67.11 61.23 67.11 61.16 67.02 61.12 67.11 61.09 67.13 61.01 67.2 61.07 67.29 61.06 67.24 61.12 67.28 61.19"/><polygon class="cls-4" points="68.09 61 68 60.98 67.93 61.04 67.92 60.96 67.84 60.93 67.93 60.9 67.95 60.82 68.01 60.88 68.11 60.86 68.06 60.93 68.09 61"/><polygon class="cls-4" points="67.7 61.09 67.6 61.08 67.53 61.13 67.52 61.06 67.44 61.02 67.53 60.99 67.55 60.91 67.61 60.97 67.71 60.96 67.66 61.02 67.7 61.09"/><polygon class="cls-4" points="66.81 61.3 66.72 61.29 66.64 61.34 66.64 61.27 66.56 61.23 66.64 61.2 66.67 61.13 66.73 61.18 66.82 61.17 66.77 61.23 66.81 61.3"/><polygon class="cls-4" points="68.94 60.8 68.85 60.78 68.78 60.84 68.77 60.76 68.69 60.73 68.78 60.69 68.8 60.62 68.86 60.67 68.96 60.66 68.9 60.73 68.94 60.8"/><polygon class="cls-4" points="69.76 60.6 69.66 60.59 69.59 60.65 69.58 60.57 69.5 60.54 69.59 60.5 69.61 60.43 69.67 60.48 69.77 60.47 69.72 60.54 69.76 60.6"/><polygon class="cls-4" points="69.36 60.7 69.27 60.68 69.19 60.74 69.19 60.66 69.1 60.63 69.19 60.59 69.21 60.52 69.28 60.57 69.37 60.56 69.32 60.63 69.36 60.7"/><polygon class="cls-4" points="68.52 60.9 68.42 60.88 68.35 60.94 68.35 60.86 68.26 60.83 68.35 60.8 68.37 60.72 68.44 60.77 68.53 60.76 68.48 60.83 68.52 60.9"/><polygon class="cls-4" points="70.63 60.4 70.54 60.38 70.47 60.44 70.46 60.36 70.38 60.33 70.47 60.29 70.49 60.22 70.55 60.27 70.65 60.26 70.59 60.33 70.63 60.4"/><polygon class="cls-4" points="70.22 60.49 70.13 60.48 70.05 60.54 70.05 60.46 69.96 60.43 70.05 60.39 70.07 60.32 70.14 60.37 70.23 60.36 70.18 60.43 70.22 60.49"/><polygon class="cls-4" points="67.13 60.72 67.03 60.71 66.96 60.76 66.96 60.69 66.87 60.65 66.96 60.62 66.98 60.54 67.05 60.6 67.14 60.59 67.09 60.65 67.13 60.72"/><polygon class="cls-4" points="67.94 60.53 67.85 60.52 67.78 60.57 67.77 60.5 67.69 60.46 67.78 60.43 67.8 60.35 67.86 60.41 67.96 60.4 67.91 60.46 67.94 60.53"/><polygon class="cls-4" points="67.55 60.62 67.45 60.61 67.38 60.66 67.37 60.59 67.29 60.55 67.38 60.52 67.4 60.45 67.46 60.5 67.56 60.49 67.51 60.56 67.55 60.62"/><polygon class="cls-4" points="66.66 60.83 66.56 60.82 66.49 60.87 66.49 60.8 66.4 60.76 66.49 60.73 66.51 60.65 66.58 60.71 66.67 60.7 66.62 60.76 66.66 60.83"/><polygon class="cls-4" points="68.8 60.34 68.7 60.32 68.63 60.38 68.62 60.3 68.54 60.27 68.63 60.23 68.65 60.16 68.71 60.21 68.81 60.2 68.76 60.27 68.8 60.34"/><polygon class="cls-4" points="69.61 60.15 69.52 60.13 69.44 60.19 69.44 60.11 69.36 60.08 69.44 60.04 69.47 59.97 69.53 60.02 69.63 60.01 69.57 60.08 69.61 60.15"/><polygon class="cls-4" points="69.21 60.24 69.12 60.22 69.05 60.28 69.04 60.2 68.96 60.17 69.05 60.13 69.07 60.06 69.13 60.12 69.23 60.1 69.17 60.17 69.21 60.24"/><polygon class="cls-4" points="68.37 60.44 68.28 60.42 68.2 60.48 68.2 60.4 68.11 60.37 68.2 60.33 68.22 60.26 68.29 60.31 68.38 60.3 68.33 60.37 68.37 60.44"/><polygon class="cls-4" points="70.49 59.94 70.39 59.93 70.32 59.98 70.31 59.91 70.23 59.87 70.32 59.84 70.34 59.76 70.4 59.82 70.5 59.81 70.45 59.87 70.49 59.94"/><polygon class="cls-4" points="70.07 60.04 69.98 60.03 69.91 60.08 69.9 60.01 69.82 59.97 69.91 59.94 69.93 59.86 69.99 59.92 70.09 59.91 70.03 59.97 70.07 60.04"/><polygon class="cls-4" points="67.61 62.17 67.52 62.16 67.44 62.21 67.44 62.13 67.35 62.1 67.44 62.07 67.46 61.99 67.53 62.05 67.62 62.03 67.57 62.1 67.61 62.17"/><polygon class="cls-4" points="68.42 61.98 68.33 61.96 68.26 62.02 68.25 61.94 68.17 61.91 68.26 61.87 68.28 61.8 68.34 61.85 68.44 61.84 68.39 61.91 68.42 61.98"/><polygon class="cls-4" points="68.03 62.07 67.93 62.06 67.86 62.11 67.85 62.03 67.77 62 67.86 61.97 67.88 61.89 67.94 61.95 68.04 61.93 67.99 62 68.03 62.07"/><polygon class="cls-4" points="67.14 62.28 67.05 62.27 66.97 62.32 66.97 62.25 66.89 62.21 66.97 62.18 67 62.1 67.06 62.16 67.15 62.15 67.1 62.21 67.14 62.28"/><polygon class="cls-4" points="69.27 61.77 69.18 61.76 69.11 61.81 69.1 61.74 69.02 61.7 69.11 61.67 69.13 61.6 69.19 61.65 69.29 61.64 69.23 61.71 69.27 61.77"/><polygon class="cls-4" points="70.09 61.58 69.99 61.57 69.92 61.62 69.92 61.55 69.83 61.51 69.92 61.48 69.94 61.4 70 61.46 70.1 61.45 70.05 61.51 70.09 61.58"/><polygon class="cls-4" points="69.69 61.67 69.6 61.66 69.52 61.72 69.52 61.64 69.43 61.61 69.52 61.57 69.54 61.5 69.61 61.55 69.7 61.54 69.65 61.61 69.69 61.67"/><polygon class="cls-4" points="68.85 61.88 68.75 61.86 68.68 61.92 68.68 61.84 68.59 61.81 68.68 61.77 68.7 61.7 68.77 61.75 68.86 61.74 68.81 61.81 68.85 61.88"/><polygon class="cls-4" points="70.96 61.37 70.87 61.36 70.8 61.41 70.79 61.34 70.71 61.3 70.8 61.27 70.82 61.2 70.88 61.25 70.98 61.24 70.92 61.3 70.96 61.37"/><polygon class="cls-4" points="70.55 61.47 70.45 61.46 70.38 61.51 70.38 61.44 70.29 61.4 70.38 61.37 70.4 61.3 70.47 61.35 70.56 61.34 70.51 61.4 70.55 61.47"/><line class="cls-14" x1="70.85" y1="60.31" x2="74.69" y2="59.46"/><line class="cls-14" x1="70.65" y1="59.65" x2="74.5" y2="58.84"/><line class="cls-14" x1="71.12" y1="61.13" x2="74.96" y2="60.31"/><line class="cls-14" x1="67.02" y1="62.98" x2="75.23" y2="61.07"/><line class="cls-14" x1="67.18" y1="63.58" x2="75.39" y2="61.65"/><line class="cls-14" x1="67.36" y1="64.18" x2="75.65" y2="62.18"/><path class="cls-15" d="M33.08,66.45a11.44,11.44,0,0,0,4.76,1.2,11.82,11.82,0,0,0,5.19-1"/><path class="cls-15" d="M53.25,66.55a10.58,10.58,0,0,0,9,0"/><line class="cls-16" x1="54.6" y1="25.74" x2="53.42" y2="21.98"/><line class="cls-16" x1="59.3" y1="24.41" x2="59.3" y2="20.65"/><line class="cls-16" x1="61.7" y1="24.23" x2="61.96" y2="20.48"/><line class="cls-16" x1="63.94" y1="24.1" x2="64.19" y2="20.61"/><line class="cls-16" x1="66.52" y1="24.69" x2="66.52" y2="20.93"/><line class="cls-16" x1="69.85" y1="24.69" x2="70.11" y2="20.93"/><line class="cls-16" x1="56.93" y1="24.79" x2="56.1" y2="21.1"/><line class="cls-16" x1="25.51" y1="26.5" x2="24.33" y2="22.74"/><line class="cls-16" x1="30.21" y1="25.16" x2="30.21" y2="21.4"/><line class="cls-16" x1="32.61" y1="24.99" x2="32.87" y2="21.23"/><line class="cls-16" x1="34.85" y1="24.86" x2="35.09" y2="21.36"/><line class="cls-16" x1="37.43" y1="25.44" x2="37.43" y2="21.69"/><line class="cls-16" x1="40.76" y1="25.44" x2="41.02" y2="21.69"/><line class="cls-16" x1="27.84" y1="25.54" x2="27.01" y2="21.85"/></g></g></svg>