<svg xmlns="http://www.w3.org/2000/svg" viewBox="0 0 83.17 134.95"><defs><style>.cls-1{fill:#dadada;}.cls-10,.cls-11,.cls-13,.cls-15,.cls-2,.cls-4,.cls-6,.cls-7{fill:none;stroke-miterlimit:10;}.cls-10,.cls-11,.cls-2,.cls-4,.cls-6,.cls-7{stroke:#1d1d1b;}.cls-3{fill:#fff;}.cls-4{stroke-width:0.75px;}.cls-5{fill:#1d71b8;}.cls-6{stroke-width:2px;}.cls-7{stroke-width:3px;}.cls-8{fill:#1d1d1b;}.cls-9{fill:#c6c6c6;}.cls-10{stroke-width:0.5px;}.cls-11,.cls-15{stroke-width:0.25px;}.cls-12{fill:#be1622;}.cls-13,.cls-15{stroke:#fff;}.cls-14{fill:#312783;}</style></defs><title>astro2</title><g id="Layer_2" data-name="Layer 2"><g id="Layer_1-2" data-name="Layer 1"><path class="cls-1" d="M69.15,97.86H15.45A13.51,13.51,0,0,1,1.94,84.35V23.57A13.52,13.52,0,0,1,15.45,10.05h53.7A13.52,13.52,0,0,1,82.67,23.57V84.35A13.51,13.51,0,0,1,69.15,97.86"/><rect class="cls-2" x="1.94" y="10.05" width="80.74" height="87.81" rx="13.52"/><path class="cls-3" d="M37.63,131.09c.44-1.66,1-4,1.55-6.91.43-2.32.87-5.28,1.41-14.72.57-10.08.42-13-1.41-13.66-.56-.21-.72,0-4.55.31-4.66.39-4.78.13-5.47.44-1.88.87-2.23,3.42-1.71,13.62.23,4.54.35,6.93.78,11.13s.88,7.45,1.23,9.79c0,1.91,1.84,3.49,4.09,3.49a3.82,3.82,0,0,0,4.08-3.49"/><path class="cls-4" d="M37.63,131.09c.44-1.66,1-4,1.55-6.91.43-2.32.87-5.28,1.41-14.72.57-10.08.42-13-1.41-13.66-.56-.21-.72,0-4.55.31-4.66.39-4.78.13-5.47.44-1.88.87-2.23,3.42-1.71,13.62.23,4.54.35,6.93.78,11.13s.88,7.45,1.23,9.79c0,1.91,1.84,3.49,4.09,3.49A3.82,3.82,0,0,0,37.63,131.09Z"/><path class="cls-3" d="M54.44,131.12c.44-1.66,1-4,1.56-6.88a96.81,96.81,0,0,0,1.4-14.62c.12-2.78.21-6.45.13-10.77H44.2c-.12,4.36-.07,8.22.06,11.47.05,1.23.21,5.47.78,11.07.42,4,.88,7.39,1.23,9.73,0,1.89,1.85,3.46,4.09,3.46s4.08-1.55,4.08-3.46"/><path class="cls-4" d="M54.44,131.12c.44-1.66,1-4,1.56-6.88a96.81,96.81,0,0,0,1.4-14.62c.12-2.78.21-6.45.13-10.77H44.2c-.12,4.36-.07,8.22.06,11.47.05,1.23.21,5.47.78,11.07.42,4,.88,7.39,1.23,9.73,0,1.89,1.85,3.46,4.09,3.46S54.44,133,54.44,131.12Z"/><path class="cls-3" d="M81.43,26.6c0,14.42-17.49,26.11-39.07,26.11S3.28,41,3.28,26.6,20.78.5,42.36.5,81.43,12.19,81.43,26.6"/><path class="cls-2" d="M81.43,26.6c0,14.42-17.49,26.11-39.07,26.11S3.28,41,3.28,26.6,20.78.5,42.36.5,81.43,12.19,81.43,26.6Z"/><path class="cls-3" d="M48.35,92.64H36.25a13.05,13.05,0,0,1-13-13V65.75a13.06,13.06,0,0,1,13.05-13h12.1a13.05,13.05,0,0,1,13,13V79.6a13,13,0,0,1-13,13"/><rect class="cls-2" x="23.2" y="52.7" width="38.19" height="39.94" rx="13.05"/><path class="cls-3" d="M14.82,97.59a134.87,134.87,0,0,0,6.7-19.89A133.17,133.17,0,0,0,24.7,60.09a3.56,3.56,0,0,0-.48-2.83,4.09,4.09,0,0,0-2.53-1.69A5.52,5.52,0,0,0,18.6,56a4.85,4.85,0,0,0-2.54,2.81,111.4,111.4,0,0,0-5.11,14,109.43,109.43,0,0,0-4.07,23,3.51,3.51,0,0,0,.48,2.83,4.11,4.11,0,0,0,2.53,1.7,4.12,4.12,0,0,0,4.93-2.77"/><path class="cls-4" d="M14.82,97.59a134.87,134.87,0,0,0,6.7-19.89A133.17,133.17,0,0,0,24.7,60.09a3.56,3.56,0,0,0-.48-2.83,4.09,4.09,0,0,0-2.53-1.69A5.52,5.52,0,0,0,18.6,56a4.85,4.85,0,0,0-2.54,2.81,111.4,111.4,0,0,0-5.11,14,109.43,109.43,0,0,0-4.07,23,3.51,3.51,0,0,0,.48,2.83,4.11,4.11,0,0,0,2.53,1.7A4.12,4.12,0,0,0,14.82,97.59Z"/><path class="cls-3" d="M59.68,60.08A133,133,0,0,0,61.29,74.2,136.59,136.59,0,0,0,67.55,98a4.1,4.1,0,0,0,4.78,3,3.77,3.77,0,0,0,3.25-4.38A137.41,137.41,0,0,0,72.74,73.9c-.88-4.19-1.91-8.12-3-11.79C68.63,59,67.07,56.89,66,56.27a5.38,5.38,0,0,0-1.84-.63,4.26,4.26,0,0,0-1.23,0,3.78,3.78,0,0,0-3.24,4.39"/><path class="cls-4" d="M59.68,60.08A133,133,0,0,0,61.29,74.2,136.59,136.59,0,0,0,67.55,98a4.1,4.1,0,0,0,4.78,3,3.77,3.77,0,0,0,3.25-4.38A137.41,137.41,0,0,0,72.74,73.9c-.88-4.19-1.91-8.12-3-11.79C68.63,59,67.07,56.89,66,56.27a5.38,5.38,0,0,0-1.84-.63,4.26,4.26,0,0,0-1.23,0A3.78,3.78,0,0,0,59.68,60.08Z"/><path class="cls-5" d="M57.36,43.82H28.17a15.8,15.8,0,0,1,0-31.59H57.36a15.8,15.8,0,0,1,0,31.59"/><path class="cls-6" d="M57.36,43.82H28.17a15.8,15.8,0,0,1,0-31.59H57.36a15.8,15.8,0,0,1,0,31.59Z"/><path class="cls-3" d="M58,99.73H26.31l-1-6.52L24,84.9l3.14-3.6,28.83-.51,4.54,3.58Q59.23,92,58,99.73"/><path class="cls-2" d="M58,99.73H26.31l-1-6.52L24,84.9l3.14-3.6,28.83-.51,4.54,3.58Q59.23,92,58,99.73Z"/><path class="cls-3" d="M5.07,26.6c0,3.85-.8,7-1.79,7s-1.78-3.12-1.78-7,.8-7,1.78-7,1.79,3.12,1.79,7"/><ellipse class="cls-7" cx="3.28" cy="26.6" rx="1.78" ry="6.97"/><rect class="cls-3" x="31.73" y="60.25" width="20.95" height="12.31"/><rect class="cls-2" x="31.73" y="60.25" width="20.95" height="12.31"/><path class="cls-8" d="M37.36,69.8c0,.92-1.08,1.67-2.4,1.67s-2.4-.75-2.4-1.67,1.08-1.67,2.4-1.67,2.4.74,2.4,1.67"/><path class="cls-2" d="M37.36,69.8c0,.92-1.08,1.67-2.4,1.67s-2.4-.75-2.4-1.67,1.08-1.67,2.4-1.67S37.36,68.87,37.36,69.8Z"/><line class="cls-2" x1="42.36" y1="60.25" x2="42.3" y2="72.56"/><rect class="cls-9" x="45.62" y="68.13" width="6.59" height="4.43"/><rect class="cls-2" x="45.62" y="68.13" width="6.59" height="4.43"/><rect class="cls-9" x="32.56" y="61.25" width="9.64" height="5.16"/><rect class="cls-10" x="32.56" y="61.25" width="9.64" height="5.16"/><path class="cls-9" d="M45.6,61.87c0-.32-.54-.58-1.21-.58s-1.21.26-1.21.58.55.58,1.21.58,1.21-.26,1.21-.58"/><path class="cls-11" d="M45.6,61.87c0-.32-.54-.58-1.21-.58s-1.21.26-1.21.58.55.58,1.21.58S45.6,62.19,45.6,61.87Z"/><path class="cls-12" d="M49.6,64.06a.69.69,0,1,1-.69-.63.66.66,0,0,1,.69.63"/><path class="cls-11" d="M49.6,64.06a.69.69,0,1,1-.69-.63A.66.66,0,0,1,49.6,64.06Z"/><path class="cls-8" d="M45.6,64.82a1.09,1.09,0,1,1-1.08-1,1,1,0,0,1,1.08,1"/><path class="cls-11" d="M45.6,64.82a1.09,1.09,0,1,1-1.08-1A1,1,0,0,1,45.6,64.82Z"/><path class="cls-8" d="M51.81,61.8a1,1,0,1,1-1-.89.93.93,0,0,1,1,.89"/><path class="cls-11" d="M51.81,61.8a1,1,0,1,1-1-.89A.93.93,0,0,1,51.81,61.8Z"/><line class="cls-13" x1="65.16" y1="62.52" x2="68.71" y2="61.85"/><polygon class="cls-12" points="70.11 66.53 61.3 68.24 60.3 63.17 69.11 61.46 70.11 66.53"/><polygon class="cls-14" points="65.54 64.97 60.84 65.88 60.3 63.16 65 62.25 65.54 64.97"/><polygon class="cls-3" points="61.2 63.37 61.1 63.34 61.02 63.4 61.02 63.31 60.93 63.27 61.03 63.24 61.06 63.16 61.12 63.22 61.22 63.21 61.16 63.29 61.2 63.37"/><polygon class="cls-3" points="62.08 63.2 61.98 63.18 61.9 63.24 61.9 63.15 61.81 63.11 61.91 63.08 61.94 62.99 62 63.06 62.1 63.05 62.04 63.12 62.08 63.2"/><polygon class="cls-3" points="61.65 63.28 61.55 63.26 61.47 63.32 61.47 63.23 61.38 63.19 61.48 63.16 61.51 63.07 61.57 63.14 61.67 63.13 61.61 63.2 61.65 63.28"/><polygon class="cls-3" points="60.69 63.46 60.6 63.44 60.51 63.5 60.52 63.41 60.43 63.37 60.53 63.33 60.56 63.25 60.62 63.32 60.72 63.31 60.66 63.38 60.69 63.46"/><polygon class="cls-3" points="62.99 63.03 62.89 63.01 62.81 63.07 62.81 62.98 62.73 62.94 62.82 62.91 62.85 62.82 62.91 62.89 63.02 62.88 62.95 62.95 62.99 63.03"/><polygon class="cls-3" points="63.87 62.87 63.77 62.85 63.69 62.91 63.69 62.82 63.6 62.78 63.7 62.74 63.73 62.66 63.79 62.73 63.89 62.72 63.83 62.79 63.87 62.87"/><polygon class="cls-3" points="63.44 62.95 63.34 62.93 63.26 62.98 63.26 62.9 63.17 62.85 63.27 62.82 63.3 62.74 63.36 62.8 63.46 62.8 63.4 62.87 63.44 62.95"/><polygon class="cls-3" points="62.53 63.12 62.43 63.1 62.35 63.16 62.35 63.07 62.27 63.02 62.37 62.99 62.4 62.91 62.46 62.98 62.56 62.97 62.5 63.04 62.53 63.12"/><polygon class="cls-3" points="64.81 62.7 64.71 62.67 64.63 62.73 64.63 62.65 64.54 62.6 64.64 62.57 64.67 62.48 64.73 62.55 64.83 62.54 64.77 62.62 64.81 62.7"/><polygon class="cls-3" points="64.36 62.78 64.26 62.76 64.18 62.81 64.18 62.73 64.1 62.68 64.2 62.65 64.23 62.57 64.29 62.63 64.39 62.63 64.33 62.7 64.36 62.78"/><polygon class="cls-3" points="61.53 64.89 61.43 64.86 61.35 64.92 61.35 64.83 61.27 64.79 61.37 64.76 61.4 64.68 61.46 64.74 61.56 64.74 61.5 64.81 61.53 64.89"/><polygon class="cls-3" points="62.41 64.74 62.31 64.72 62.23 64.77 62.23 64.69 62.15 64.64 62.25 64.61 62.28 64.53 62.34 64.6 62.44 64.59 62.38 64.66 62.41 64.74"/><polygon class="cls-3" points="61.98 64.81 61.88 64.79 61.8 64.84 61.8 64.76 61.72 64.71 61.82 64.68 61.85 64.6 61.91 64.67 62.01 64.66 61.95 64.73 61.98 64.81"/><polygon class="cls-3" points="61.02 64.97 60.93 64.95 60.84 65 60.84 64.92 60.76 64.87 60.86 64.84 60.89 64.76 60.95 64.83 61.05 64.82 60.99 64.89 61.02 64.97"/><polygon class="cls-3" points="63.33 64.59 63.23 64.56 63.15 64.62 63.15 64.53 63.06 64.49 63.16 64.46 63.2 64.38 63.25 64.44 63.36 64.44 63.29 64.51 63.33 64.59"/><polygon class="cls-3" points="64.21 64.44 64.11 64.42 64.03 64.47 64.03 64.39 63.95 64.34 64.04 64.31 64.08 64.23 64.13 64.3 64.24 64.29 64.17 64.36 64.21 64.44"/><polygon class="cls-3" points="63.78 64.51 63.68 64.49 63.6 64.55 63.6 64.46 63.52 64.41 63.61 64.38 63.65 64.3 63.7 64.37 63.81 64.36 63.74 64.43 63.78 64.51"/><polygon class="cls-3" points="62.87 64.67 62.77 64.64 62.69 64.7 62.69 64.61 62.61 64.57 62.7 64.54 62.74 64.45 62.8 64.52 62.9 64.52 62.84 64.59 62.87 64.67"/><polygon class="cls-3" points="65.15 64.28 65.05 64.26 64.97 64.32 64.97 64.23 64.89 64.19 64.99 64.16 65.02 64.07 65.08 64.14 65.18 64.13 65.12 64.2 65.15 64.28"/><polygon class="cls-3" points="64.7 64.36 64.61 64.34 64.52 64.39 64.53 64.31 64.44 64.26 64.54 64.23 64.57 64.15 64.63 64.21 64.73 64.21 64.67 64.28 64.7 64.36"/><polygon class="cls-3" points="61.42 64.35 61.32 64.33 61.24 64.39 61.24 64.3 61.16 64.26 61.26 64.23 61.28 64.14 61.34 64.21 61.45 64.2 61.39 64.27 61.42 64.35"/><polygon class="cls-3" points="62.3 64.19 62.2 64.17 62.12 64.23 62.12 64.14 62.03 64.1 62.13 64.06 62.16 63.98 62.22 64.05 62.32 64.04 62.26 64.11 62.3 64.19"/><polygon class="cls-3" points="61.87 64.27 61.77 64.25 61.69 64.31 61.69 64.22 61.61 64.17 61.7 64.14 61.73 64.06 61.79 64.13 61.9 64.12 61.84 64.19 61.87 64.27"/><polygon class="cls-3" points="60.92 64.45 60.82 64.43 60.74 64.48 60.74 64.4 60.65 64.35 60.75 64.32 60.78 64.24 60.84 64.3 60.94 64.3 60.88 64.37 60.92 64.45"/><polygon class="cls-3" points="63.21 64.02 63.11 64 63.03 64.06 63.03 63.97 62.95 63.92 63.05 63.89 63.08 63.81 63.14 63.88 63.24 63.87 63.18 63.94 63.21 64.02"/><polygon class="cls-3" points="64.09 63.86 63.99 63.84 63.91 63.89 63.91 63.81 63.83 63.76 63.92 63.73 63.95 63.65 64.01 63.71 64.11 63.71 64.06 63.78 64.09 63.86"/><polygon class="cls-3" points="63.66 63.94 63.56 63.91 63.48 63.97 63.48 63.88 63.4 63.84 63.49 63.81 63.52 63.73 63.59 63.79 63.69 63.78 63.63 63.86 63.66 63.94"/><polygon class="cls-3" points="62.76 64.11 62.66 64.08 62.58 64.14 62.58 64.06 62.49 64.01 62.59 63.98 62.62 63.9 62.68 63.96 62.78 63.95 62.72 64.03 62.76 64.11"/><polygon class="cls-3" points="65.03 63.68 64.93 63.66 64.85 63.72 64.85 63.63 64.77 63.59 64.86 63.56 64.89 63.47 64.95 63.54 65.06 63.53 65 63.6 65.03 63.68"/><polygon class="cls-3" points="64.58 63.77 64.49 63.74 64.41 63.8 64.41 63.72 64.32 63.67 64.42 63.64 64.45 63.56 64.51 63.62 64.61 63.62 64.55 63.69 64.58 63.77"/><polygon class="cls-3" points="61.31 63.81 61.21 63.79 61.13 63.85 61.13 63.76 61.05 63.72 61.15 63.69 61.18 63.6 61.23 63.67 61.34 63.66 61.28 63.73 61.31 63.81"/><polygon class="cls-3" points="62.19 63.66 62.09 63.63 62.01 63.69 62.01 63.6 61.93 63.56 62.02 63.53 62.05 63.45 62.11 63.51 62.22 63.5 62.16 63.58 62.19 63.66"/><polygon class="cls-3" points="61.76 63.73 61.66 63.71 61.58 63.77 61.58 63.68 61.5 63.63 61.59 63.6 61.63 63.52 61.68 63.59 61.79 63.58 61.73 63.65 61.76 63.73"/><polygon class="cls-3" points="60.8 63.9 60.71 63.88 60.63 63.94 60.63 63.85 60.54 63.81 60.64 63.78 60.67 63.69 60.73 63.76 60.83 63.75 60.77 63.83 60.8 63.9"/><polygon class="cls-3" points="63.1 63.49 63.01 63.47 62.92 63.52 62.92 63.44 62.84 63.39 62.94 63.36 62.97 63.28 63.03 63.35 63.13 63.34 63.07 63.41 63.1 63.49"/><polygon class="cls-3" points="63.98 63.33 63.88 63.31 63.8 63.37 63.8 63.28 63.72 63.24 63.82 63.2 63.85 63.12 63.91 63.19 64.01 63.18 63.95 63.25 63.98 63.33"/><polygon class="cls-3" points="63.55 63.41 63.45 63.39 63.37 63.44 63.37 63.36 63.29 63.31 63.39 63.28 63.42 63.2 63.48 63.27 63.58 63.26 63.52 63.33 63.55 63.41"/><polygon class="cls-3" points="62.65 63.57 62.55 63.55 62.47 63.61 62.47 63.52 62.38 63.48 62.48 63.45 62.51 63.36 62.57 63.43 62.67 63.42 62.61 63.49 62.65 63.57"/><polygon class="cls-3" points="64.92 63.16 64.83 63.14 64.74 63.2 64.75 63.11 64.66 63.07 64.76 63.03 64.79 62.95 64.85 63.02 64.95 63.01 64.89 63.08 64.92 63.16"/><polygon class="cls-3" points="64.48 63.24 64.38 63.22 64.3 63.28 64.3 63.19 64.22 63.15 64.31 63.12 64.34 63.03 64.4 63.1 64.5 63.09 64.44 63.16 64.48 63.24"/><polygon class="cls-3" points="61.67 65.48 61.57 65.46 61.49 65.51 61.49 65.43 61.41 65.38 61.5 65.35 61.53 65.27 61.59 65.33 61.7 65.33 61.63 65.4 61.67 65.48"/><polygon class="cls-3" points="62.55 65.31 62.45 65.29 62.37 65.35 62.37 65.26 62.28 65.22 62.38 65.19 62.41 65.11 62.47 65.17 62.57 65.16 62.51 65.23 62.55 65.31"/><polygon class="cls-3" points="62.12 65.39 62.02 65.37 61.94 65.43 61.94 65.34 61.85 65.3 61.95 65.27 61.98 65.18 62.04 65.25 62.14 65.24 62.08 65.31 62.12 65.39"/><polygon class="cls-3" points="61.16 65.57 61.07 65.55 60.98 65.61 60.99 65.52 60.9 65.48 61 65.44 61.03 65.36 61.09 65.43 61.19 65.42 61.13 65.49 61.16 65.57"/><polygon class="cls-3" points="63.46 65.14 63.36 65.12 63.28 65.18 63.28 65.09 63.2 65.05 63.29 65.02 63.32 64.94 63.38 65 63.49 64.99 63.42 65.06 63.46 65.14"/><polygon class="cls-3" points="64.34 64.98 64.24 64.96 64.16 65.02 64.16 64.93 64.07 64.89 64.17 64.86 64.2 64.77 64.26 64.84 64.36 64.83 64.3 64.9 64.34 64.98"/><polygon class="cls-3" points="63.91 65.06 63.81 65.04 63.73 65.1 63.73 65.01 63.65 64.97 63.74 64.94 63.77 64.85 63.83 64.92 63.94 64.91 63.87 64.98 63.91 65.06"/><polygon class="cls-3" points="63 65.23 62.91 65.21 62.82 65.27 62.82 65.18 62.74 65.14 62.84 65.1 62.87 65.02 62.93 65.09 63.03 65.08 62.97 65.15 63 65.23"/><polygon class="cls-3" points="65.28 64.81 65.18 64.79 65.1 64.84 65.1 64.76 65.02 64.71 65.11 64.68 65.14 64.6 65.2 64.66 65.31 64.66 65.24 64.73 65.28 64.81"/><polygon class="cls-3" points="64.83 64.89 64.73 64.87 64.65 64.93 64.65 64.84 64.57 64.8 64.67 64.77 64.7 64.68 64.76 64.75 64.86 64.74 64.8 64.81 64.83 64.89"/><line class="cls-15" x1="65.27" y1="63.6" x2="69.39" y2="62.9"/><line class="cls-15" x1="65.12" y1="62.84" x2="69.26" y2="62.19"/><line class="cls-15" x1="65.46" y1="64.55" x2="69.6" y2="63.87"/><line class="cls-15" x1="60.97" y1="66.36" x2="69.8" y2="64.75"/><line class="cls-15" x1="61.08" y1="67.04" x2="69.91" y2="65.42"/><line class="cls-15" x1="61.2" y1="67.73" x2="70.13" y2="66.03"/></g></g></svg>