<svg xmlns="http://www.w3.org/2000/svg" viewBox="0 0 81.38 135.71"><defs><style>.cls-1{fill:#dadada;}.cls-10,.cls-11,.cls-13,.cls-14,.cls-2,.cls-4,.cls-6,.cls-7{fill:none;stroke-miterlimit:10;}.cls-10,.cls-11,.cls-2,.cls-4,.cls-6,.cls-7{stroke:#1d1d1b;}.cls-16,.cls-3{fill:#fff;}.cls-4{stroke-width:0.75px;}.cls-5{fill:#1d71b8;}.cls-6{stroke-width:2px;}.cls-7{stroke-width:3px;}.cls-8{fill:#1d1d1b;}.cls-9{fill:#c6c6c6;}.cls-10{stroke-width:0.5px;}.cls-11,.cls-14{stroke-width:0.25px;}.cls-12{fill:#be1622;}.cls-13,.cls-14{stroke:#fff;}.cls-15{fill:#312783;}.cls-16{font-size:24.59px;font-family:MyriadPro-Regular, Myriad Pro;}</style></defs><title>astrodød</title><g id="Layer_2" data-name="Layer 2"><g id="Layer_1-2" data-name="Layer 1"><path class="cls-1" d="M66.7,98.08H15.44A13.52,13.52,0,0,1,1.92,84.56v-61A13.51,13.51,0,0,1,15.44,10.08H66.7A13.51,13.51,0,0,1,80.21,23.59v61A13.51,13.51,0,0,1,66.7,98.08"/><rect class="cls-2" x="1.92" y="10.08" width="78.29" height="88" rx="13.52"/><path class="cls-3" d="M36.63,131.85c.43-1.67,1-4,1.51-6.94.41-2.31.84-5.29,1.36-14.75.56-10.1.41-13-1.37-13.68-.54-.22-.7,0-4.41.31-4.52.39-4.64.12-5.3.44-1.82.87-2.16,3.42-1.66,13.64.22,4.55.34,6.95.76,11.17s.85,7.45,1.19,9.81a3.77,3.77,0,0,0,4,3.49,3.75,3.75,0,0,0,4-3.49"/><path class="cls-4" d="M36.63,131.85c.43-1.67,1-4,1.51-6.94.41-2.31.84-5.29,1.36-14.75.56-10.1.41-13-1.37-13.68-.54-.22-.7,0-4.41.31-4.52.39-4.64.12-5.3.44-1.82.87-2.16,3.42-1.66,13.64.22,4.55.34,6.95.76,11.17s.85,7.45,1.19,9.81a3.77,3.77,0,0,0,4,3.49A3.75,3.75,0,0,0,36.63,131.85Z"/><path class="cls-3" d="M52.84,131.68c.43-1.65,1-4,1.51-6.89a101.09,101.09,0,0,0,1.36-14.66c.11-2.78.2-6.45.12-10.79H42.91c-.12,4.37-.07,8.24.05,11.5,0,1.23.21,5.48.77,11.09.4,4.06.85,7.41,1.19,9.75a4,4,0,0,0,7.92,0"/><path class="cls-4" d="M52.84,131.68c.43-1.65,1-4,1.51-6.89a101.09,101.09,0,0,0,1.36-14.66c.11-2.78.2-6.45.12-10.79H42.91c-.12,4.37-.07,8.24.05,11.5,0,1.23.21,5.48.77,11.09.4,4.06.85,7.41,1.19,9.75a4,4,0,0,0,7.92,0Z"/><path class="cls-3" d="M79,26.66c0,14.45-17,26.16-37.89,26.16S3.23,41.11,3.23,26.66,20.19.5,41.12.5,79,12.21,79,26.66"/><path class="cls-2" d="M79,26.66c0,14.45-17,26.16-37.89,26.16S3.23,41.11,3.23,26.66,20.19.5,41.12.5,79,12.21,79,26.66Z"/><path class="cls-3" d="M44.77,92.85h-7.4A14.82,14.82,0,0,1,22.55,78V67.64A14.81,14.81,0,0,1,37.37,52.82h7.4A14.81,14.81,0,0,1,59.58,67.64V78A14.82,14.82,0,0,1,44.77,92.85"/><rect class="cls-2" x="22.55" y="52.82" width="37.04" height="40.03" rx="14.82"/><path class="cls-3" d="M14.42,97.81a137.54,137.54,0,0,0,6.49-19.94A137.62,137.62,0,0,0,24,60.23a3.72,3.72,0,0,0-.47-2.85,3.94,3.94,0,0,0-2.45-1.69,5.21,5.21,0,0,0-3,.44A4.92,4.92,0,0,0,15.61,59a116,116,0,0,0-4.94,14A113,113,0,0,0,6.71,96a3.7,3.7,0,0,0,.47,2.84,4,4,0,0,0,7.24-1.07"/><path class="cls-4" d="M14.42,97.81a137.54,137.54,0,0,0,6.49-19.94A137.62,137.62,0,0,0,24,60.23a3.72,3.72,0,0,0-.47-2.85,3.94,3.94,0,0,0-2.45-1.69,5.21,5.21,0,0,0-3,.44A4.92,4.92,0,0,0,15.61,59a116,116,0,0,0-4.94,14A113,113,0,0,0,6.71,96a3.7,3.7,0,0,0,.47,2.84,4,4,0,0,0,7.24-1.07Z"/><path class="cls-3" d="M57.91,60.21a138.48,138.48,0,0,0,1.57,14.16,140.14,140.14,0,0,0,6.07,23.82,4,4,0,0,0,4.63,3,3.78,3.78,0,0,0,3.15-4.4,142.73,142.73,0,0,0-2.74-22.72c-.86-4.2-1.86-8.14-2.93-11.81C66.6,59.13,65.09,57,64,56.39a4.94,4.94,0,0,0-1.78-.62,4,4,0,0,0-1.19,0,3.78,3.78,0,0,0-3.15,4.4"/><path class="cls-4" d="M57.91,60.21a138.48,138.48,0,0,0,1.57,14.16,140.14,140.14,0,0,0,6.07,23.82,4,4,0,0,0,4.63,3,3.78,3.78,0,0,0,3.15-4.4,142.73,142.73,0,0,0-2.74-22.72c-.86-4.2-1.86-8.14-2.93-11.81C66.6,59.13,65.09,57,64,56.39a4.94,4.94,0,0,0-1.78-.62,4,4,0,0,0-1.19,0A3.78,3.78,0,0,0,57.91,60.21Z"/><path class="cls-5" d="M58.47,43.91H24.56A12.51,12.51,0,0,1,12.05,31.4V24.78A12.51,12.51,0,0,1,24.56,12.26H58.47A12.51,12.51,0,0,1,71,24.78V31.4A12.51,12.51,0,0,1,58.47,43.91"/><rect class="cls-6" x="12.05" y="12.26" width="58.94" height="31.65" rx="12.52"/><path class="cls-3" d="M56.91,101.24H25.21c-.34-2.18-.69-4.35-1-6.53q-.67-4.17-1.33-8.33L26,82.76l28.84-.5,4.55,3.59q-1.24,7.7-2.48,15.39"/><path class="cls-2" d="M56.91,101.24H25.21c-.34-2.18-.69-4.35-1-6.53q-.67-4.17-1.33-8.33L26,82.76l28.84-.5,4.55,3.59Q58.15,93.55,56.91,101.24Z"/><path class="cls-3" d="M5,26.66c0,3.86-.78,7-1.73,7s-1.73-3.13-1.73-7,.77-7,1.73-7S5,22.8,5,26.66"/><path class="cls-7" d="M5,26.66c0,3.86-.78,7-1.73,7s-1.73-3.13-1.73-7,.77-7,1.73-7S5,22.8,5,26.66Z"/><path class="cls-3" d="M77.23,27.52c0,3.93.59,7.12,1.32,7.12s1.33-3.19,1.33-7.12-.6-7.11-1.33-7.11-1.32,3.18-1.32,7.11"/><path class="cls-7" d="M77.23,27.52c0,3.93.59,7.12,1.32,7.12s1.33-3.19,1.33-7.12-.6-7.11-1.33-7.11S77.23,23.59,77.23,27.52Z"/><rect class="cls-3" x="30.82" y="60.38" width="20.31" height="12.34"/><rect class="cls-2" x="30.82" y="60.38" width="20.31" height="12.34"/><path class="cls-8" d="M36.27,70c0,.93-1,1.68-2.32,1.68s-2.33-.75-2.33-1.68,1-1.67,2.33-1.67S36.27,69,36.27,70"/><path class="cls-2" d="M36.27,70c0,.93-1,1.68-2.32,1.68s-2.33-.75-2.33-1.68,1-1.67,2.33-1.67S36.27,69,36.27,70Z"/><line class="cls-2" x1="41.12" y1="60.38" x2="41.07" y2="72.72"/><rect class="cls-9" x="44.28" y="68.28" width="6.39" height="4.44"/><rect class="cls-2" x="44.28" y="68.28" width="6.39" height="4.44"/><rect class="cls-9" x="31.62" y="61.38" width="9.35" height="5.17"/><rect class="cls-10" x="31.62" y="61.38" width="9.35" height="5.17"/><path class="cls-9" d="M44.27,62c0-.32-.53-.58-1.18-.58s-1.17.26-1.17.58.53.58,1.17.58,1.18-.26,1.18-.58"/><path class="cls-11" d="M44.27,62c0-.32-.53-.58-1.18-.58s-1.17.26-1.17.58.53.58,1.17.58S44.27,62.32,44.27,62Z"/><path class="cls-12" d="M48.14,64.2a.66.66,0,0,1-1.32,0,.66.66,0,0,1,1.32,0"/><path class="cls-11" d="M48.14,64.2a.66.66,0,0,1-1.32,0,.66.66,0,0,1,1.32,0Z"/><path class="cls-8" d="M44.27,65a1.06,1.06,0,1,1-1.06-1,1,1,0,0,1,1.06,1"/><path class="cls-11" d="M44.27,65a1.06,1.06,0,1,1-1.06-1A1,1,0,0,1,44.27,65Z"/><path class="cls-8" d="M50.29,61.94a.94.94,0,1,1-.94-.89.91.91,0,0,1,.94.89"/><path class="cls-11" d="M50.29,61.94a.94.94,0,1,1-.94-.89A.91.91,0,0,1,50.29,61.94Z"/><line class="cls-13" x1="63.23" y1="62.66" x2="66.67" y2="61.99"/><polygon class="cls-3" points="59.39 63.51 59.29 63.48 59.22 63.54 59.22 63.45 59.13 63.41 59.23 63.38 59.26 63.3 59.32 63.36 59.41 63.35 59.36 63.43 59.39 63.51"/><polygon class="cls-3" points="60.24 63.34 60.15 63.32 60.07 63.38 60.07 63.29 59.98 63.25 60.08 63.22 60.11 63.13 60.17 63.2 60.27 63.19 60.21 63.26 60.24 63.34"/><polygon class="cls-3" points="59.83 63.42 59.73 63.4 59.65 63.46 59.65 63.37 59.57 63.33 59.66 63.3 59.69 63.21 59.75 63.28 59.85 63.27 59.79 63.34 59.83 63.42"/><polygon class="cls-3" points="58.9 63.6 58.81 63.58 58.73 63.63 58.73 63.55 58.65 63.51 58.74 63.48 58.77 63.39 58.83 63.46 58.93 63.45 58.87 63.52 58.9 63.6"/><polygon class="cls-3" points="61.13 63.17 61.03 63.15 60.95 63.21 60.95 63.12 60.87 63.08 60.97 63.05 60.99 62.96 61.05 63.03 61.15 63.02 61.09 63.09 61.13 63.17"/><polygon class="cls-3" points="61.98 63.01 61.88 62.99 61.8 63.05 61.8 62.96 61.72 62.91 61.82 62.88 61.84 62.8 61.9 62.87 62 62.86 61.94 62.93 61.98 63.01"/><polygon class="cls-3" points="61.56 63.09 61.47 63.07 61.39 63.12 61.39 63.04 61.31 62.99 61.4 62.96 61.43 62.88 61.49 62.94 61.59 62.94 61.53 63.01 61.56 63.09"/><polygon class="cls-3" points="60.68 63.26 60.59 63.24 60.51 63.29 60.51 63.21 60.43 63.16 60.52 63.13 60.55 63.05 60.61 63.12 60.71 63.11 60.65 63.18 60.68 63.26"/><polygon class="cls-3" points="62.89 62.83 62.8 62.81 62.72 62.87 62.72 62.78 62.63 62.74 62.73 62.71 62.76 62.62 62.82 62.69 62.91 62.68 62.86 62.75 62.89 62.83"/><polygon class="cls-3" points="62.46 62.92 62.36 62.9 62.28 62.95 62.28 62.87 62.2 62.82 62.3 62.79 62.33 62.71 62.38 62.77 62.48 62.77 62.42 62.84 62.46 62.92"/><polygon class="cls-3" points="59.71 65.03 59.62 65.01 59.54 65.06 59.54 64.98 59.46 64.93 59.55 64.9 59.58 64.82 59.64 64.89 59.74 64.88 59.68 64.95 59.71 65.03"/><polygon class="cls-3" points="60.56 64.89 60.47 64.86 60.39 64.92 60.39 64.83 60.31 64.78 60.41 64.76 60.44 64.67 60.49 64.74 60.59 64.73 60.53 64.81 60.56 64.89"/><polygon class="cls-3" points="60.15 64.95 60.05 64.93 59.97 64.99 59.98 64.9 59.89 64.86 59.99 64.83 60.02 64.74 60.08 64.81 60.18 64.8 60.12 64.88 60.15 64.95"/><polygon class="cls-3" points="59.22 65.12 59.13 65.09 59.05 65.15 59.05 65.06 58.97 65.02 59.06 64.99 59.09 64.91 59.15 64.97 59.25 64.97 59.19 65.04 59.22 65.12"/><polygon class="cls-3" points="61.45 64.73 61.36 64.71 61.28 64.76 61.28 64.68 61.2 64.63 61.3 64.6 61.33 64.52 61.38 64.58 61.48 64.58 61.42 64.65 61.45 64.73"/><polygon class="cls-3" points="62.31 64.58 62.21 64.56 62.13 64.62 62.13 64.53 62.05 64.48 62.15 64.45 62.18 64.37 62.24 64.44 62.34 64.43 62.27 64.5 62.31 64.58"/><polygon class="cls-3" points="61.89 64.66 61.8 64.63 61.72 64.69 61.72 64.6 61.64 64.56 61.73 64.53 61.76 64.44 61.82 64.51 61.92 64.5 61.86 64.58 61.89 64.66"/><polygon class="cls-3" points="61.01 64.81 60.91 64.79 60.83 64.84 60.84 64.75 60.76 64.71 60.85 64.68 60.88 64.6 60.94 64.66 61.04 64.66 60.98 64.73 61.01 64.81"/><polygon class="cls-3" points="63.22 64.43 63.13 64.4 63.05 64.46 63.05 64.37 62.97 64.33 63.06 64.3 63.09 64.21 63.15 64.28 63.25 64.28 63.19 64.35 63.22 64.43"/><polygon class="cls-3" points="62.79 64.5 62.7 64.48 62.62 64.53 62.62 64.45 62.54 64.4 62.63 64.37 62.66 64.29 62.72 64.36 62.82 64.35 62.76 64.42 62.79 64.5"/><polygon class="cls-3" points="59.85 65.62 59.75 65.6 59.67 65.66 59.67 65.57 59.59 65.53 59.69 65.5 59.71 65.41 59.77 65.48 59.87 65.47 59.81 65.54 59.85 65.62"/><polygon class="cls-3" points="60.7 65.46 60.6 65.44 60.52 65.49 60.52 65.41 60.44 65.36 60.54 65.33 60.56 65.25 60.62 65.31 60.72 65.31 60.66 65.38 60.7 65.46"/><polygon class="cls-3" points="60.28 65.54 60.19 65.52 60.11 65.57 60.11 65.49 60.03 65.44 60.12 65.41 60.15 65.33 60.21 65.39 60.31 65.39 60.25 65.46 60.28 65.54"/><polygon class="cls-3" points="59.36 65.72 59.26 65.69 59.18 65.75 59.18 65.67 59.1 65.62 59.2 65.59 59.23 65.51 59.28 65.57 59.38 65.56 59.32 65.64 59.36 65.72"/><polygon class="cls-3" points="61.58 65.29 61.49 65.27 61.41 65.32 61.41 65.24 61.33 65.19 61.42 65.16 61.45 65.08 61.51 65.14 61.61 65.14 61.55 65.21 61.58 65.29"/><polygon class="cls-3" points="62.43 65.13 62.34 65.1 62.26 65.16 62.26 65.08 62.18 65.03 62.27 65 62.3 64.92 62.36 64.98 62.46 64.97 62.4 65.05 62.43 65.13"/><polygon class="cls-3" points="62.02 65.2 61.92 65.18 61.84 65.24 61.84 65.15 61.76 65.11 61.86 65.08 61.89 64.99 61.95 65.06 62.04 65.05 61.98 65.13 62.02 65.2"/><polygon class="cls-3" points="61.14 65.37 61.05 65.35 60.97 65.41 60.97 65.32 60.88 65.28 60.98 65.25 61.01 65.16 61.07 65.23 61.16 65.22 61.11 65.3 61.14 65.37"/><polygon class="cls-3" points="63.35 64.95 63.25 64.93 63.17 64.99 63.17 64.9 63.09 64.86 63.19 64.82 63.21 64.74 63.27 64.81 63.37 64.8 63.31 64.87 63.35 64.95"/><polygon class="cls-3" points="62.91 65.03 62.82 65.01 62.74 65.07 62.74 64.98 62.66 64.94 62.75 64.91 62.78 64.82 62.84 64.89 62.94 64.88 62.88 64.95 62.91 65.03"/><line class="cls-14" x1="63.34" y1="63.75" x2="67.34" y2="63.04"/><line class="cls-14" x1="63.53" y1="64.69" x2="67.53" y2="64.02"/><line class="cls-14" x1="59.16" y1="66.5" x2="67.73" y2="64.89"/><line class="cls-14" x1="59.27" y1="67.18" x2="67.84" y2="65.56"/><line class="cls-14" x1="59.39" y1="67.88" x2="68.05" y2="66.17"/><polygon class="cls-15" points="68.28 68.37 60.26 70.26 59.16 66.02 67.19 64.13 68.28 68.37"/><polygon class="cls-3" points="67.55 65.55 59.53 67.44 59.16 66.02 67.19 64.13 67.55 65.55"/><polygon class="cls-12" points="68.28 68.37 60.26 70.26 59.89 68.85 67.92 66.96 68.28 68.37"/><polygon class="cls-11" points="68.29 68.37 60.26 70.26 59.15 65.95 67.18 64.06 68.29 68.37"/><text class="cls-16" transform="translate(20.5 34.2) scale(1.48 1)">x</text><text class="cls-16" transform="translate(46.69 34.2) scale(1.48 1)">x</text></g></g></svg>