<svg xmlns="http://www.w3.org/2000/svg" xmlns:xlink="http://www.w3.org/1999/xlink" viewBox="0 0 198.14 138.21"><defs><style>.cls-1{fill:url(#linear-gradient);}.cls-2{fill:url(#linear-gradient-2);}.cls-3{fill:url(#linear-gradient-3);}.cls-4{fill:url(#linear-gradient-4);}.cls-5{fill:url(#linear-gradient-5);}.cls-6{fill:url(#linear-gradient-6);}.cls-7{fill:url(#linear-gradient-7);}.cls-8{fill:url(#linear-gradient-8);}.cls-12,.cls-13,.cls-14,.cls-18,.cls-19,.cls-30,.cls-31,.cls-9,.cls-92{fill:none;}.cls-10{clip-path:url(#clip-path);}.cls-11{fill:#c6c6c6;}.cls-12{stroke:#9d9d9c;}.cls-12,.cls-13,.cls-14,.cls-18,.cls-19,.cls-30,.cls-31,.cls-92{stroke-miterlimit:10;}.cls-12,.cls-13,.cls-14,.cls-18{stroke-width:0.25px;}.cls-13{stroke:#b2b2b2;}.cls-14,.cls-19{stroke:#706f6f;}.cls-15{clip-path:url(#clip-path-3);}.cls-16{mask:url(#mask);}.cls-17{fill:url(#linear-gradient-9);}.cls-18{stroke:#878787;}.cls-19,.cls-31{stroke-width:0.75px;}.cls-20{clip-path:url(#clip-path-5);}.cls-21{mask:url(#mask-2);}.cls-22{fill:url(#linear-gradient-10);}.cls-23{fill:#dadada;}.cls-24{clip-path:url(#clip-path-7);}.cls-25{mask:url(#mask-3);}.cls-26{fill:url(#linear-gradient-11);}.cls-27{clip-path:url(#clip-path-9);}.cls-28{mask:url(#mask-4);}.cls-29{fill:url(#linear-gradient-12);}.cls-30,.cls-31{stroke:#575756;}.cls-32{opacity:0.28;}.cls-33{clip-path:url(#clip-path-11);}.cls-34{clip-path:url(#clip-path-12);}.cls-35{fill:url(#linear-gradient-13);}.cls-36{fill:url(#linear-gradient-14);}.cls-37{clip-path:url(#clip-path-13);}.cls-38{fill:url(#linear-gradient-15);}.cls-39{fill:url(#linear-gradient-16);}.cls-40{clip-path:url(#clip-path-14);}.cls-41{fill:url(#linear-gradient-17);}.cls-42{fill:url(#linear-gradient-18);}.cls-43{clip-path:url(#clip-path-15);}.cls-44{fill:url(#linear-gradient-19);}.cls-45{fill:url(#linear-gradient-20);}.cls-46{clip-path:url(#clip-path-16);}.cls-47{fill:url(#linear-gradient-21);}.cls-48{fill:url(#linear-gradient-22);}.cls-49{clip-path:url(#clip-path-17);}.cls-50{fill:url(#linear-gradient-23);}.cls-51{fill:url(#linear-gradient-24);}.cls-52{clip-path:url(#clip-path-18);}.cls-53{mask:url(#mask-5);}.cls-54{fill:url(#linear-gradient-25);}.cls-55{clip-path:url(#clip-path-20);}.cls-56{mask:url(#mask-6);}.cls-57{fill:url(#linear-gradient-26);}.cls-58{clip-path:url(#clip-path-22);}.cls-59{clip-path:url(#clip-path-23);}.cls-60{fill:url(#linear-gradient-27);}.cls-61{fill:url(#linear-gradient-28);}.cls-62{clip-path:url(#clip-path-24);}.cls-63{fill:url(#linear-gradient-29);}.cls-64{fill:url(#linear-gradient-30);}.cls-65{clip-path:url(#clip-path-25);}.cls-66{fill:url(#linear-gradient-31);}.cls-67{fill:url(#linear-gradient-32);}.cls-68{clip-path:url(#clip-path-26);}.cls-69{fill:url(#linear-gradient-33);}.cls-70{fill:url(#linear-gradient-34);}.cls-71{clip-path:url(#clip-path-27);}.cls-72{fill:url(#linear-gradient-35);}.cls-73{fill:url(#linear-gradient-36);}.cls-74{clip-path:url(#clip-path-28);}.cls-75{fill:url(#linear-gradient-37);}.cls-76{fill:url(#linear-gradient-38);}.cls-77{clip-path:url(#clip-path-29);}.cls-78{mask:url(#mask-7);}.cls-79{fill:url(#linear-gradient-39);}.cls-80{clip-path:url(#clip-path-31);}.cls-81{mask:url(#mask-8);}.cls-82{fill:url(#linear-gradient-40);}.cls-83{opacity:0.51;}.cls-84{clip-path:url(#clip-path-33);}.cls-85{clip-path:url(#clip-path-34);}.cls-86{clip-path:url(#clip-path-35);}.cls-87{clip-path:url(#clip-path-36);}.cls-88{clip-path:url(#clip-path-37);}.cls-89{clip-path:url(#clip-path-38);}.cls-90{clip-path:url(#clip-path-39);}.cls-91{clip-path:url(#clip-path-40);}.cls-92{stroke:#e94e1b;stroke-width:0.5px;}.cls-93{font-size:9px;fill:#dbb24a;font-family:Rockwell;}.cls-94{letter-spacing:0.03em;}.cls-95{letter-spacing:0em;}</style><linearGradient id="linear-gradient" y1="595.28" x2="1" y2="595.28" gradientTransform="matrix(13.22, 0, 0, -13.22, 346.52, 8229.78)" gradientUnits="userSpaceOnUse"><stop offset="0" stop-color="#fff"/><stop offset="0.12" stop-color="#fbfbfb"/><stop offset="0.24" stop-color="#eee"/><stop offset="0.37" stop-color="#d8d8d8"/><stop offset="0.5" stop-color="#bbb"/><stop offset="0.63" stop-color="#949494"/><stop offset="0.77" stop-color="#656565"/><stop offset="0.9" stop-color="#2e2e2e"/><stop offset="1"/></linearGradient><linearGradient id="linear-gradient-2" y1="595.28" y2="595.28" gradientTransform="matrix(13.22, 0, 0, -13.22, 334.75, 8232.06)" xlink:href="#linear-gradient"/><linearGradient id="linear-gradient-3" y1="595.28" y2="595.28" gradientTransform="matrix(13.22, 0, 0, -13.22, 339.89, 8169.95)" xlink:href="#linear-gradient"/><linearGradient id="linear-gradient-4" y1="595.28" y2="595.28" gradientTransform="matrix(13.22, 0, 0, -13.22, 328.14, 8172.22)" xlink:href="#linear-gradient"/><linearGradient id="linear-gradient-5" y1="595.28" y2="595.28" gradientTransform="matrix(-13.22, 0, 0, 13.22, 453.81, -7530.14)" xlink:href="#linear-gradient"/><linearGradient id="linear-gradient-6" y1="595.28" y2="595.28" gradientTransform="matrix(-13.22, 0, 0, 13.22, 465.58, -7532.31)" xlink:href="#linear-gradient"/><linearGradient id="linear-gradient-7" y1="595.28" y2="595.28" gradientTransform="matrix(-13.22, 0, 0, 13.22, 447.69, -7590.02)" xlink:href="#linear-gradient"/><linearGradient id="linear-gradient-8" y1="595.28" y2="595.28" gradientTransform="matrix(-13.22, 0, 0, 13.22, 459.45, -7592.2)" xlink:href="#linear-gradient"/><clipPath id="clip-path" transform="translate(-320.17 -250.91)"><rect class="cls-9" width="841.89" height="595.28"/></clipPath><clipPath id="clip-path-3" transform="translate(-320.17 -250.91)"><polygon class="cls-9" points="347.08 334.86 350.81 384.9 359.17 381.96 355.45 331.93 347.08 334.86"/></clipPath><mask id="mask" x="18.38" y="79.07" width="29.15" height="56.86" maskUnits="userSpaceOnUse"><g transform="translate(-320.17 -250.91)"><rect class="cls-1" x="342.84" y="331.29" width="20.58" height="54.23" transform="translate(-53.76 62.44) rotate(-9.39)"/></g></mask><linearGradient id="linear-gradient-9" y1="595.28" x2="1" y2="595.28" gradientTransform="matrix(13.22, 0, 0, -13.22, 346.52, 8229.78)" gradientUnits="userSpaceOnUse"><stop offset="0" stop-color="#575756"/><stop offset="0.18" stop-color="#55595a"/><stop offset="0.38" stop-color="#4f5e67"/><stop offset="0.57" stop-color="#46667c"/><stop offset="0.78" stop-color="#38719a"/><stop offset="0.98" stop-color="#2780c0"/><stop offset="1" stop-color="#2581c4"/></linearGradient><clipPath id="clip-path-5" transform="translate(-320.17 -250.91)"><polygon class="cls-9" points="335.32 337.13 339.04 387.17 347.41 384.24 343.69 334.2 335.32 337.13"/></clipPath><mask id="mask-2" x="6.62" y="81.34" width="29.15" height="56.87" maskUnits="userSpaceOnUse"><g transform="translate(-320.17 -250.91)"><rect class="cls-2" x="331.08" y="333.57" width="20.58" height="54.24" transform="translate(-54.29 60.55) rotate(-9.39)"/></g></mask><linearGradient id="linear-gradient-10" y1="595.28" y2="595.28" gradientTransform="matrix(13.22, 0, 0, -13.22, 334.75, 8232.06)" xlink:href="#linear-gradient-9"/><clipPath id="clip-path-7" transform="translate(-320.17 -250.91)"><polygon class="cls-9" points="340.46 275.02 344.19 325.06 352.56 322.13 348.83 272.09 340.46 275.02"/></clipPath><mask id="mask-3" x="11.76" y="19.23" width="29.15" height="56.87" maskUnits="userSpaceOnUse"><g transform="translate(-320.17 -250.91)"><rect class="cls-3" x="336.22" y="271.46" width="20.58" height="54.23" transform="translate(-44.08 60.55) rotate(-9.39)"/></g></mask><linearGradient id="linear-gradient-11" y1="595.28" y2="595.28" gradientTransform="matrix(13.22, 0, 0, -13.22, 339.89, 8169.95)" xlink:href="#linear-gradient-9"/><clipPath id="clip-path-9" transform="translate(-320.17 -250.91)"><polygon class="cls-9" points="328.7 277.3 332.43 327.33 340.8 324.4 337.07 274.37 328.7 277.3"/></clipPath><mask id="mask-4" x="0" y="21.51" width="29.15" height="56.86" maskUnits="userSpaceOnUse"><g transform="translate(-320.17 -250.91)"><rect class="cls-4" x="324.46" y="273.73" width="20.58" height="54.23" transform="translate(-44.61 58.66) rotate(-9.39)"/></g></mask><linearGradient id="linear-gradient-12" y1="595.28" y2="595.28" gradientTransform="matrix(13.22, 0, 0, -13.22, 328.14, 8172.22)" xlink:href="#linear-gradient-9"/><clipPath id="clip-path-11" transform="translate(-320.17 -250.91)"><rect class="cls-9" x="343.52" y="322.86" width="14.96" height="4.06"/></clipPath><clipPath id="clip-path-12" transform="translate(-320.17 -250.91)"><path class="cls-9" d="M357.81,324.15a.59.59,0,1,1-.23-1.15.62.62,0,0,1,.76.45.61.61,0,0,1-.53.7"/></clipPath><linearGradient id="linear-gradient-13" y1="595.28" x2="1" y2="595.28" gradientTransform="matrix(0, 1.18, 1.18, 0, -345.13, 322.98)" gradientUnits="userSpaceOnUse"><stop offset="0" stop-color="#fff"/><stop offset="1" stop-color="#1d1d1b"/></linearGradient><linearGradient id="linear-gradient-14" y1="595.28" x2="1" y2="595.28" gradientTransform="matrix(0.28, 1.4, 1.4, -0.28, -477.78, 488.73)" gradientUnits="userSpaceOnUse"><stop offset="0" stop-color="#1d1d1b"/><stop offset="1" stop-color="#fff"/></linearGradient><clipPath id="clip-path-13" transform="translate(-320.17 -250.91)"><path class="cls-9" d="M355.23,324.72a.57.57,0,1,1,.51-.68.61.61,0,0,1-.51.68"/></clipPath><linearGradient id="linear-gradient-15" y1="595.28" y2="595.28" gradientTransform="matrix(0, 1.14, 1.14, 0, -320.78, 323.6)" xlink:href="#linear-gradient-13"/><linearGradient id="linear-gradient-16" y1="595.28" y2="595.28" gradientTransform="matrix(0.27, 1.36, 1.36, -0.27, -453.94, 484.09)" xlink:href="#linear-gradient-14"/><clipPath id="clip-path-14" transform="translate(-320.17 -250.91)"><path class="cls-9" d="M352.54,325.25a.6.6,0,0,1-.73-.44.63.63,0,0,1,1.24-.24.59.59,0,0,1-.51.68"/></clipPath><linearGradient id="linear-gradient-17" y1="595.28" y2="595.28" gradientTransform="matrix(0, 1.14, 1.14, 0, -323.46, 324.13)" xlink:href="#linear-gradient-13"/><linearGradient id="linear-gradient-18" y1="595.28" y2="595.28" gradientTransform="matrix(0.27, 1.36, 1.36, -0.27, -456.62, 484.62)" xlink:href="#linear-gradient-14"/><clipPath id="clip-path-15" transform="translate(-320.17 -250.91)"><path class="cls-9" d="M349.89,325.77a.57.57,0,1,1-.22-1.11.57.57,0,1,1,.22,1.11"/></clipPath><linearGradient id="linear-gradient-19" y1="595.28" y2="595.28" gradientTransform="matrix(0, 1.14, 1.14, 0, -326.12, 324.65)" xlink:href="#linear-gradient-13"/><linearGradient id="linear-gradient-20" y1="595.28" y2="595.28" gradientTransform="matrix(0.27, 1.36, 1.36, -0.27, -459.28, 485.14)" xlink:href="#linear-gradient-14"/><clipPath id="clip-path-16" transform="translate(-320.17 -250.91)"><path class="cls-9" d="M347.23,326.3a.61.61,0,0,1-.73-.44.59.59,0,0,1,.51-.68.57.57,0,1,1,.22,1.12"/></clipPath><linearGradient id="linear-gradient-21" y1="595.28" y2="595.28" gradientTransform="matrix(0, 1.14, 1.14, 0, -328.77, 325.17)" xlink:href="#linear-gradient-13"/><linearGradient id="linear-gradient-22" y1="595.28" y2="595.28" gradientTransform="matrix(0.27, 1.36, 1.36, -0.27, -461.94, 485.67)" xlink:href="#linear-gradient-14"/><clipPath id="clip-path-17" transform="translate(-320.17 -250.91)"><path class="cls-9" d="M344.38,326.78a.6.6,0,0,1-.73-.43.64.64,0,0,1,1.24-.25.6.6,0,0,1-.51.68"/></clipPath><linearGradient id="linear-gradient-23" y1="595.28" y2="595.28" gradientTransform="matrix(0, 1.14, 1.14, 0, -331.62, 325.65)" xlink:href="#linear-gradient-13"/><linearGradient id="linear-gradient-24" y1="595.28" y2="595.28" gradientTransform="matrix(0.27, 1.36, 1.36, -0.27, -464.78, 486.15)" xlink:href="#linear-gradient-14"/><clipPath id="clip-path-18" transform="translate(-320.17 -250.91)"><polygon class="cls-9" points="441.34 317.63 444.66 367.7 453.05 364.84 449.73 314.77 441.34 317.63"/></clipPath><mask id="mask-5" x="113.06" y="62.07" width="27.93" height="56.52" maskUnits="userSpaceOnUse"><g transform="translate(-320.17 -250.91)"><rect class="cls-5" x="437.31" y="314.18" width="19.78" height="54.11" transform="translate(-47.52 73.51) rotate(-8.92)"/></g></mask><linearGradient id="linear-gradient-25" y1="595.28" y2="595.28" gradientTransform="matrix(-13.22, 0, 0, 13.22, 453.81, -7530.14)" xlink:href="#linear-gradient-9"/><clipPath id="clip-path-20" transform="translate(-320.17 -250.91)"><polygon class="cls-9" points="453.12 315.46 456.44 365.52 464.83 362.66 461.51 312.59 453.12 315.46"/></clipPath><mask id="mask-6" x="124.84" y="59.89" width="27.94" height="56.52" maskUnits="userSpaceOnUse"><g transform="translate(-320.17 -250.91)"><rect class="cls-6" x="449.09" y="312" width="19.78" height="54.11" transform="translate(-47.04 75.31) rotate(-8.92)"/></g></mask><linearGradient id="linear-gradient-26" y1="595.28" y2="595.28" gradientTransform="matrix(-13.22, 0, 0, 13.22, 465.58, -7532.31)" xlink:href="#linear-gradient-9"/><clipPath id="clip-path-22" transform="translate(-320.17 -250.91)"><rect class="cls-9" x="435.43" y="312.91" width="14.98" height="3.95"/></clipPath><clipPath id="clip-path-23" transform="translate(-320.17 -250.91)"><path class="cls-9" d="M436.1,315.57a.62.62,0,0,1,.76.45.66.66,0,0,1-1.29.25.61.61,0,0,1,.53-.7"/></clipPath><linearGradient id="linear-gradient-27" y1="595.28" y2="595.28" gradientTransform="matrix(0, -1.18, -1.18, 0, 1139.04, 316.73)" xlink:href="#linear-gradient-13"/><linearGradient id="linear-gradient-28" y1="595.28" y2="595.28" gradientTransform="matrix(-0.27, -1.41, -1.41, 0.27, 1273.01, 157.82)" xlink:href="#linear-gradient-14"/><clipPath id="clip-path-24" transform="translate(-320.17 -250.91)"><path class="cls-9" d="M438.69,315a.62.62,0,0,1,.73.44.6.6,0,0,1-.52.68.61.61,0,0,1-.73-.44.62.62,0,0,1,.52-.68"/></clipPath><linearGradient id="linear-gradient-29" y1="595.28" y2="595.28" gradientTransform="matrix(0, -1.14, -1.14, 0, 1114.69, 316.15)" xlink:href="#linear-gradient-13"/><linearGradient id="linear-gradient-30" y1="595.28" y2="595.28" gradientTransform="matrix(-0.26, -1.36, -1.36, 0.26, 1249.13, 162.26)" xlink:href="#linear-gradient-14"/><clipPath id="clip-path-25" transform="translate(-320.17 -250.91)"><path class="cls-9" d="M441.38,314.52a.6.6,0,0,1,.73.44.6.6,0,0,1-.52.67.57.57,0,1,1-.21-1.11"/></clipPath><linearGradient id="linear-gradient-31" y1="595.28" y2="595.28" gradientTransform="matrix(0, -1.14, -1.14, 0, 1117.38, 315.64)" xlink:href="#linear-gradient-13"/><linearGradient id="linear-gradient-32" y1="595.28" y2="595.28" gradientTransform="matrix(-0.26, -1.36, -1.36, 0.26, 1251.82, 161.76)" xlink:href="#linear-gradient-14"/><clipPath id="clip-path-26" transform="translate(-320.17 -250.91)"><path class="cls-9" d="M444,314a.57.57,0,1,1-.52.68A.62.62,0,0,1,444,314"/></clipPath><linearGradient id="linear-gradient-33" y1="595.28" y2="595.28" gradientTransform="matrix(0, -1.14, -1.14, 0, 1120.04, 315.14)" xlink:href="#linear-gradient-13"/><linearGradient id="linear-gradient-34" y1="595.28" y2="595.28" gradientTransform="matrix(-0.26, -1.36, -1.36, 0.26, 1254.48, 161.25)" xlink:href="#linear-gradient-14"/><clipPath id="clip-path-27" transform="translate(-320.17 -250.91)"><path class="cls-9" d="M446.7,313.51a.57.57,0,1,1-.51.67.61.61,0,0,1,.51-.67"/></clipPath><linearGradient id="linear-gradient-35" y1="595.28" y2="595.28" gradientTransform="matrix(0, -1.14, -1.14, 0, 1122.7, 314.64)" xlink:href="#linear-gradient-13"/><linearGradient id="linear-gradient-36" y1="595.28" y2="595.28" gradientTransform="matrix(-0.26, -1.36, -1.36, 0.26, 1257.14, 160.75)" xlink:href="#linear-gradient-14"/><clipPath id="clip-path-28" transform="translate(-320.17 -250.91)"><path class="cls-9" d="M449.55,313.05a.6.6,0,0,1,.73.44.59.59,0,0,1-.51.67.6.6,0,0,1-.73-.44.59.59,0,0,1,.51-.67"/></clipPath><linearGradient id="linear-gradient-37" y1="595.28" y2="595.28" gradientTransform="matrix(0, -1.14, -1.14, 0, 1125.55, 314.17)" xlink:href="#linear-gradient-13"/><linearGradient id="linear-gradient-38" y1="595.28" y2="595.28" gradientTransform="matrix(-0.26, -1.36, -1.36, 0.26, 1260, 160.29)" xlink:href="#linear-gradient-14"/><clipPath id="clip-path-29" transform="translate(-320.17 -250.91)"><polygon class="cls-9" points="435.21 257.75 438.53 307.81 446.92 304.95 443.61 254.88 435.21 257.75"/></clipPath><mask id="mask-7" x="106.93" y="2.18" width="27.93" height="56.52" maskUnits="userSpaceOnUse"><g transform="translate(-320.17 -250.91)"><rect class="cls-7" x="431.18" y="254.3" width="19.78" height="54.11" transform="translate(-38.31 71.83) rotate(-8.92)"/></g></mask><linearGradient id="linear-gradient-39" y1="595.28" y2="595.28" gradientTransform="matrix(-13.22, 0, 0, 13.22, 447.69, -7590.02)" xlink:href="#linear-gradient-9"/><clipPath id="clip-path-31" transform="translate(-320.17 -250.91)"><polygon class="cls-9" points="446.99 255.57 450.31 305.63 458.7 302.77 455.38 252.7 446.99 255.57"/></clipPath><mask id="mask-8" x="118.71" y="0" width="27.93" height="56.52" maskUnits="userSpaceOnUse"><g transform="translate(-320.17 -250.91)"><rect class="cls-8" x="442.96" y="252.12" width="19.78" height="54.11" transform="translate(-37.83 73.63) rotate(-8.92)"/></g></mask><linearGradient id="linear-gradient-40" y1="595.28" y2="595.28" gradientTransform="matrix(-13.22, 0, 0, 13.22, 459.45, -7592.2)" xlink:href="#linear-gradient-9"/><clipPath id="clip-path-33" transform="translate(-320.17 -250.91)"><rect class="cls-9" x="363.63" y="319.41" width="6.29" height="11.41"/></clipPath><clipPath id="clip-path-34" transform="translate(-320.17 -250.91)"><rect class="cls-9" x="375.76" y="317.92" width="3.8" height="4.79"/></clipPath><clipPath id="clip-path-35" transform="translate(-320.17 -250.91)"><rect class="cls-9" x="420.47" y="311.45" width="2.53" height="7.73"/></clipPath><clipPath id="clip-path-36" transform="translate(-320.17 -250.91)"><rect class="cls-9" x="416.12" y="311.79" width="2.84" height="9"/></clipPath><clipPath id="clip-path-37" transform="translate(-320.17 -250.91)"><rect class="cls-9" x="380.16" y="317.1" width="2.83" height="9"/></clipPath><clipPath id="clip-path-38" transform="translate(-320.17 -250.91)"><rect class="cls-9" x="397.83" y="315.4" width="2.83" height="9"/></clipPath><clipPath id="clip-path-39" transform="translate(-320.17 -250.91)"><rect class="cls-9" x="399.94" y="314.67" width="2.06" height="6.53"/></clipPath><clipPath id="clip-path-40" transform="translate(-320.17 -250.91)"><rect class="cls-9" x="424.94" y="310.07" width="2.83" height="9"/></clipPath></defs><title>iss_1</title><g id="Layer_2" data-name="Layer 2"><g id="Layer_1-2" data-name="Layer 1"><g class="cls-10"><rect class="cls-11" x="391.68" y="327.24" width="3.79" height="1.67" transform="translate(-370.48 -178.76) rotate(-9.85)"/><rect class="cls-12" x="391.68" y="327.24" width="3.79" height="1.67" transform="translate(-370.48 -178.76) rotate(-9.85)"/><rect class="cls-11" x="413.08" y="323.63" width="3.79" height="2.26" transform="translate(-369.61 -175.13) rotate(-9.85)"/><rect class="cls-13" x="413.08" y="323.63" width="3.79" height="2.26" transform="translate(-369.61 -175.13) rotate(-9.85)"/><g class="cls-10"><path class="cls-11" d="M398.67,314.76l-9.49,1.65a2,2,0,0,1-2.25-1.58l-.23-1.33a2,2,0,0,1,1.59-2.25l9.49-1.65a2,2,0,0,1,2.25,1.59l.23,1.32a2,2,0,0,1-1.59,2.25" transform="translate(-320.17 -250.91)"/><path class="cls-14" d="M398.67,314.76l-9.49,1.65a2,2,0,0,1-2.25-1.58l-.23-1.33a2,2,0,0,1,1.59-2.25l9.49-1.65a2,2,0,0,1,2.25,1.59l.23,1.32A2,2,0,0,1,398.67,314.76Z" transform="translate(-320.17 -250.91)"/><path class="cls-11" d="M432.64,325.11l-13.52,2.34a2.6,2.6,0,0,1-3-2.13l-.26-1.48a2.61,2.61,0,0,1,2.13-3l13.52-2.35a2.62,2.62,0,0,1,3,2.13l.25,1.48a2.62,2.62,0,0,1-2.13,3" transform="translate(-320.17 -250.91)"/><path class="cls-14" d="M432.64,325.11l-13.52,2.34a2.6,2.6,0,0,1-3-2.13l-.26-1.48a2.61,2.61,0,0,1,2.13-3l13.52-2.35a2.62,2.62,0,0,1,3,2.13l.25,1.48A2.62,2.62,0,0,1,432.64,325.11Z" transform="translate(-320.17 -250.91)"/><path class="cls-11" d="M389.71,331.45,376.2,333.8a2.62,2.62,0,0,1-.9-5.17l13.52-2.34a2.62,2.62,0,0,1,.89,5.16" transform="translate(-320.17 -250.91)"/><path class="cls-14" d="M389.71,331.45,376.2,333.8a2.62,2.62,0,0,1-.9-5.17l13.52-2.34a2.62,2.62,0,0,1,.89,5.16Z" transform="translate(-320.17 -250.91)"/><path class="cls-11" d="M385.33,317.08l-9.49,1.65a2,2,0,0,1-2.25-1.59l-.23-1.32a2,2,0,0,1,1.58-2.25l9.49-1.65a2,2,0,0,1,2.26,1.58l.22,1.33a1.93,1.93,0,0,1-1.58,2.25" transform="translate(-320.17 -250.91)"/><path class="cls-14" d="M385.33,317.08l-9.49,1.65a2,2,0,0,1-2.25-1.59l-.23-1.32a2,2,0,0,1,1.58-2.25l9.49-1.65a2,2,0,0,1,2.26,1.58l.22,1.33A1.93,1.93,0,0,1,385.33,317.08Z" transform="translate(-320.17 -250.91)"/><path class="cls-11" d="M411.05,328.1l-13.52,2.35a2.62,2.62,0,1,1-.89-5.16l13.51-2.35a2.62,2.62,0,1,1,.9,5.16" transform="translate(-320.17 -250.91)"/><path class="cls-14" d="M411.05,328.1l-13.52,2.35a2.62,2.62,0,1,1-.89-5.16l13.51-2.35a2.62,2.62,0,1,1,.9,5.16Z" transform="translate(-320.17 -250.91)"/></g><g class="cls-15"><g class="cls-16"><rect class="cls-17" x="342.84" y="331.29" width="20.58" height="54.23" transform="translate(-373.93 -188.47) rotate(-9.39)"/></g></g><g class="cls-10"><polygon class="cls-18" points="39 131.06 30.63 133.99 26.91 83.95 35.27 81.02 39 131.06"/><line class="cls-19" x1="28.03" y1="83.49" x2="31.75" y2="133.29"/><line class="cls-19" x1="33.16" y1="82.03" x2="36.88" y2="131.81"/><line class="cls-19" x1="29.62" y1="82.89" x2="33.36" y2="132.96"/><line class="cls-19" x1="34.43" y1="81.31" x2="38.17" y2="131.35"/><line class="cls-19" x1="31.29" y1="82.41" x2="35.02" y2="132.34"/><line class="cls-19" x1="27.3" y1="89.02" x2="35.69" y2="86.95"/><line class="cls-19" x1="27.7" y1="94.51" x2="36.08" y2="92.19"/><line class="cls-19" x1="28.17" y1="100.9" x2="36.55" y2="98.58"/><line class="cls-19" x1="28.6" y1="106.53" x2="36.99" y2="104.39"/><line class="cls-19" x1="29.07" y1="112.77" x2="37.44" y2="110.37"/><line class="cls-19" x1="30.32" y1="129.26" x2="38.69" y2="126.86"/><line class="cls-19" x1="29.91" y1="123.98" x2="38.28" y2="121.58"/><line class="cls-19" x1="29.51" y1="118.53" x2="37.87" y2="116.13"/></g><g class="cls-20"><g class="cls-21"><rect class="cls-22" x="331.08" y="333.57" width="20.58" height="54.24" transform="translate(-374.46 -190.36) rotate(-9.39)"/></g></g><g class="cls-10"><polygon class="cls-18" points="27.24 133.33 18.87 136.26 15.15 86.22 23.51 83.29 27.24 133.33"/><line class="cls-19" x1="16.27" y1="85.77" x2="19.99" y2="135.56"/><line class="cls-19" x1="21.4" y1="84.3" x2="25.12" y2="134.07"/><line class="cls-19" x1="17.86" y1="85.17" x2="21.6" y2="135.24"/><line class="cls-19" x1="22.67" y1="83.59" x2="26.41" y2="133.62"/><line class="cls-19" x1="19.53" y1="84.69" x2="23.27" y2="134.72"/><line class="cls-19" x1="15.53" y1="91.3" x2="23.93" y2="89.22"/><line class="cls-19" x1="15.94" y1="96.78" x2="24.32" y2="94.46"/><line class="cls-19" x1="16.41" y1="103.17" x2="24.79" y2="100.86"/><line class="cls-19" x1="16.84" y1="108.8" x2="25.23" y2="106.67"/><line class="cls-19" x1="17.31" y1="115.05" x2="25.68" y2="112.65"/><line class="cls-19" x1="18.56" y1="131.54" x2="26.93" y2="129.13"/><line class="cls-19" x1="18.15" y1="126.26" x2="26.52" y2="123.86"/><line class="cls-19" x1="17.75" y1="120.81" x2="26.11" y2="118.41"/><rect class="cls-23" x="355.49" y="314.16" width="82.65" height="11.47" transform="translate(-369.08 -178.25) rotate(-9.86)"/><rect class="cls-18" x="355.49" y="314.16" width="82.65" height="11.47" transform="translate(-369.08 -178.25) rotate(-9.86)"/></g><g class="cls-24"><g class="cls-25"><rect class="cls-26" x="336.22" y="271.46" width="20.58" height="54.23" transform="translate(-364.25 -190.36) rotate(-9.39)"/></g></g><g class="cls-10"><polygon class="cls-18" points="32.38 71.22 24.02 74.15 20.29 24.11 28.66 21.18 32.38 71.22"/><line class="cls-19" x1="21.41" y1="23.65" x2="25.13" y2="73.45"/><line class="cls-19" x1="26.55" y1="22.19" x2="30.31" y2="72.6"/><line class="cls-19" x1="23" y1="23.06" x2="26.75" y2="73.13"/><line class="cls-19" x1="27.81" y1="21.48" x2="31.6" y2="72.22"/><line class="cls-19" x1="24.68" y1="22.58" x2="28.43" y2="72.77"/><line class="cls-19" x1="20.68" y1="29.19" x2="29.07" y2="27.11"/><line class="cls-19" x1="21.09" y1="34.67" x2="29.46" y2="32.35"/><line class="cls-19" x1="21.55" y1="41.06" x2="29.93" y2="38.74"/><line class="cls-19" x1="21.99" y1="46.69" x2="30.38" y2="44.55"/><line class="cls-19" x1="22.45" y1="52.94" x2="30.82" y2="50.54"/><line class="cls-19" x1="23.7" y1="69.42" x2="32.07" y2="67.02"/><line class="cls-19" x1="23.29" y1="64.15" x2="31.66" y2="61.74"/><line class="cls-19" x1="22.89" y1="58.69" x2="31.25" y2="56.3"/></g><g class="cls-27"><g class="cls-28"><rect class="cls-29" x="324.46" y="273.73" width="20.58" height="54.23" transform="translate(-364.78 -192.24) rotate(-9.39)"/></g></g><g class="cls-10"><polygon class="cls-18" points="20.62 73.49 12.26 76.43 8.53 26.39 16.9 23.45 20.62 73.49"/><line class="cls-19" x1="9.65" y1="25.93" x2="13.37" y2="75.73"/><line class="cls-19" x1="14.79" y1="24.46" x2="18.55" y2="74.87"/><line class="cls-19" x1="11.24" y1="25.33" x2="14.99" y2="75.4"/><line class="cls-19" x1="16.05" y1="23.75" x2="19.84" y2="74.5"/><line class="cls-19" x1="12.91" y1="24.85" x2="16.67" y2="75.04"/><line class="cls-19" x1="8.92" y1="31.46" x2="17.31" y2="29.39"/><line class="cls-19" x1="9.33" y1="36.95" x2="17.7" y2="34.63"/><line class="cls-19" x1="9.79" y1="43.34" x2="18.17" y2="41.02"/><line class="cls-19" x1="10.22" y1="48.97" x2="18.62" y2="46.83"/><line class="cls-19" x1="10.69" y1="55.21" x2="19.06" y2="52.81"/><line class="cls-19" x1="11.94" y1="71.7" x2="20.31" y2="69.3"/><line class="cls-19" x1="11.53" y1="66.42" x2="19.9" y2="64.02"/><line class="cls-19" x1="11.13" y1="60.97" x2="19.49" y2="58.57"/><path class="cls-23" d="M357.25,332.65,334,337.23l-3.55-1.85c-.19-2-.37-3.95-.55-5.93l2.1-3.19,23.15-4.95,3.93,1.82c.91,3.3,1.49,5.42,1.49,5.42a15.61,15.61,0,0,1-.89,1.43,13.88,13.88,0,0,1-2.46,2.67" transform="translate(-320.17 -250.91)"/><path class="cls-14" d="M357.25,332.65,334,337.23l-3.55-1.85c-.19-2-.37-3.95-.55-5.93l2.1-3.19,23.15-4.95,3.93,1.82c.91,3.3,1.49,5.42,1.49,5.42a15.61,15.61,0,0,1-.89,1.43A13.88,13.88,0,0,1,357.25,332.65Z" transform="translate(-320.17 -250.91)"/><line class="cls-30" x1="17.98" y1="76.69" x2="21.48" y2="75.97"/><line class="cls-30" x1="18.14" y1="77.47" x2="20.83" y2="76.92"/><polygon class="cls-31" points="29.3 76.79 27.64 77.13 27.41 76.05 29.07 75.7 29.3 76.79"/><g class="cls-32"><g class="cls-33"><g class="cls-34"><rect class="cls-35" x="356.87" y="322.8" width="1.65" height="1.55" transform="translate(-376.34 -175.05) rotate(-11.23)"/></g><path class="cls-36" d="M357.81,324.15h0l-.14,0a.61.61,0,0,1-.62-.47.34.34,0,0,1,0-.1.64.64,0,0,1,.54-.6l.14,0a.61.61,0,0,1,.62.47.34.34,0,0,1,0,.1.64.64,0,0,1-.54.6h0a.64.64,0,0,0,.54-.6.34.34,0,0,0,0-.1.61.61,0,0,0-.62-.47l-.14,0a.64.64,0,0,0-.54.6.34.34,0,0,0,0,.1.61.61,0,0,0,.62.47l.14,0Z" transform="translate(-320.17 -250.91)"/><g class="cls-37"><rect class="cls-38" x="354.33" y="323.42" width="1.58" height="1.49" transform="translate(-376.5 -175.55) rotate(-11.23)"/></g><path class="cls-39" d="M355.23,324.72h-.14a.58.58,0,0,1-.59-.45.31.31,0,0,1,0-.1.61.61,0,0,1,.52-.58h.13a.6.6,0,0,1,.6.45s0,.07,0,.1a.62.62,0,0,1-.52.58h0a.62.62,0,0,0,.52-.58s0-.07,0-.1a.6.6,0,0,0-.6-.45H355a.61.61,0,0,0-.52.58.31.31,0,0,0,0,.1.58.58,0,0,0,.59.45Z" transform="translate(-320.17 -250.91)"/><g class="cls-40"><rect class="cls-41" x="351.64" y="323.95" width="1.58" height="1.49" transform="translate(-376.65 -176.06) rotate(-11.23)"/></g><path class="cls-42" d="M352.54,325.25h-.13a.6.6,0,0,1-.6-.45s0-.06,0-.1a.62.62,0,0,1,.52-.58h.14a.58.58,0,0,1,.59.45.31.31,0,0,1,0,.1.61.61,0,0,1-.52.58h0a.61.61,0,0,0,.52-.58.31.31,0,0,0,0-.1.58.58,0,0,0-.59-.45h-.14a.62.62,0,0,0-.52.58s0,.07,0,.1a.6.6,0,0,0,.6.45Z" transform="translate(-320.17 -250.91)"/><g class="cls-43"><rect class="cls-44" x="348.98" y="324.47" width="1.58" height="1.49" transform="translate(-376.81 -176.57) rotate(-11.23)"/></g><path class="cls-45" d="M349.89,325.77h0l-.14,0a.61.61,0,0,1-.6-.45s0-.07,0-.1a.62.62,0,0,1,.52-.58h.14a.6.6,0,0,1,.6.44s0,.07,0,.1a.62.62,0,0,1-.52.58h0a.62.62,0,0,0,.52-.58s0-.06,0-.1a.6.6,0,0,0-.6-.44h-.14a.62.62,0,0,0-.52.58s0,.06,0,.1a.61.61,0,0,0,.6.45l.14,0Z" transform="translate(-320.17 -250.91)"/><g class="cls-46"><rect class="cls-47" x="346.33" y="325" width="1.58" height="1.49" transform="translate(-376.96 -177.07) rotate(-11.23)"/></g><path class="cls-48" d="M347.23,326.3h-.14a.58.58,0,0,1-.59-.45.34.34,0,0,1,0-.1.61.61,0,0,1,.52-.58h.14a.58.58,0,0,1,.59.45.31.31,0,0,1,0,.1.62.62,0,0,1-.52.58h0a.62.62,0,0,0,.52-.58.31.31,0,0,0,0-.1.58.58,0,0,0-.59-.45H347a.61.61,0,0,0-.52.58.34.34,0,0,0,0,.1.58.58,0,0,0,.59.45Z" transform="translate(-320.17 -250.91)"/><g class="cls-49"><rect class="cls-50" x="343.48" y="325.48" width="1.58" height="1.49" transform="translate(-377.11 -177.61) rotate(-11.23)"/></g><path class="cls-51" d="M344.38,326.78h0l-.14,0a.58.58,0,0,1-.59-.45.38.38,0,0,1,0-.1.62.62,0,0,1,.52-.58h.14a.58.58,0,0,1,.59.44.38.38,0,0,1,0,.1.61.61,0,0,1-.52.58h0a.61.61,0,0,0,.52-.58.38.38,0,0,0,0-.1.58.58,0,0,0-.59-.44h-.14a.62.62,0,0,0-.52.58.38.38,0,0,0,0,.1.58.58,0,0,0,.59.45l.14,0Z" transform="translate(-320.17 -250.91)"/></g></g></g><g class="cls-52"><g class="cls-53"><rect class="cls-54" x="437.31" y="314.18" width="19.78" height="54.11" transform="translate(-367.7 -177.4) rotate(-8.92)"/></g></g><g class="cls-10"><polygon class="cls-18" points="121.17 66.73 129.56 63.86 132.88 113.93 124.49 116.79 121.17 66.73"/><line class="cls-19" x1="131.76" y1="114.38" x2="128.44" y2="64.55"/><line class="cls-19" x1="126.61" y1="115.8" x2="123.25" y2="65.36"/><line class="cls-19" x1="130.16" y1="114.96" x2="126.82" y2="64.86"/><line class="cls-19" x1="125.34" y1="116.5" x2="121.96" y2="65.73"/><line class="cls-19" x1="128.48" y1="115.43" x2="125.14" y2="65.21"/><line class="cls-19" x1="132.53" y1="108.85" x2="124.12" y2="110.86"/><line class="cls-19" x1="132.17" y1="103.36" x2="123.77" y2="105.62"/><line class="cls-19" x1="131.76" y1="96.97" x2="123.36" y2="99.22"/><line class="cls-19" x1="131.37" y1="91.34" x2="122.96" y2="93.41"/><line class="cls-19" x1="130.95" y1="85.09" x2="122.56" y2="87.42"/><line class="cls-19" x1="129.84" y1="68.59" x2="121.45" y2="70.93"/><line class="cls-19" x1="130.21" y1="73.87" x2="121.82" y2="76.21"/><line class="cls-19" x1="130.56" y1="79.33" x2="122.18" y2="81.66"/></g><g class="cls-55"><g class="cls-56"><rect class="cls-57" x="449.09" y="312" width="19.78" height="54.11" transform="translate(-367.22 -175.6) rotate(-8.92)"/></g></g><g class="cls-10"><polygon class="cls-18" points="132.95 64.55 141.34 61.68 144.66 111.75 136.27 114.61 132.95 64.55"/><line class="cls-19" x1="143.54" y1="112.2" x2="140.22" y2="62.37"/><line class="cls-19" x1="138.39" y1="113.62" x2="135.03" y2="63.18"/><line class="cls-19" x1="141.94" y1="112.78" x2="138.6" y2="62.68"/><line class="cls-19" x1="137.12" y1="114.32" x2="133.74" y2="63.55"/><line class="cls-19" x1="140.26" y1="113.25" x2="136.92" y2="63.03"/><line class="cls-19" x1="144.31" y1="106.67" x2="135.9" y2="108.68"/><line class="cls-19" x1="143.95" y1="101.18" x2="135.55" y2="103.44"/><line class="cls-19" x1="143.54" y1="94.79" x2="135.14" y2="97.04"/><line class="cls-19" x1="143.15" y1="89.16" x2="134.74" y2="91.23"/><line class="cls-19" x1="142.73" y1="82.91" x2="134.34" y2="85.24"/><line class="cls-19" x1="141.62" y1="66.41" x2="133.23" y2="68.75"/><line class="cls-19" x1="141.99" y1="71.69" x2="133.6" y2="74.03"/><line class="cls-19" x1="142.34" y1="77.15" x2="133.96" y2="79.48"/><path class="cls-23" d="M436.73,307.08l23.26-4.4,3.54,1.88q.24,3,.5,5.94l-2.13,3.17-23.19,4.76-3.92-1.85c-.87-3.31-1.44-5.43-1.44-5.43a14.43,14.43,0,0,1,.9-1.42,13.75,13.75,0,0,1,2.48-2.65" transform="translate(-320.17 -250.91)"/><path class="cls-14" d="M436.73,307.08l23.26-4.4,3.54,1.88q.24,3,.5,5.94l-2.13,3.17-23.19,4.76-3.92-1.85c-.87-3.31-1.44-5.43-1.44-5.43a14.43,14.43,0,0,1,.9-1.42A13.75,13.75,0,0,1,436.73,307.08Z" transform="translate(-320.17 -250.91)"/><line class="cls-30" x1="135.62" y1="61.37" x2="132.11" y2="62.07"/><line class="cls-30" x1="135.46" y1="60.59" x2="132.77" y2="61.12"/><polygon class="cls-31" points="124.3 61.18 125.97 60.85 126.19 61.94 124.52 62.27 124.3 61.18"/><g class="cls-32"><g class="cls-58"><g class="cls-59"><rect class="cls-60" x="435.4" y="315.38" width="1.63" height="1.54" transform="translate(-371.53 -163.9) rotate(-10.76)"/></g><path class="cls-61" d="M436.1,315.57h0l.14,0a.61.61,0,0,1,.62.47.38.38,0,0,1,0,.1.65.65,0,0,1-.55.61h-.13a.6.6,0,0,1-.62-.47.38.38,0,0,1,0-.1.63.63,0,0,1,.54-.6h0a.63.63,0,0,0-.54.6.38.38,0,0,0,0,.1.6.6,0,0,0,.62.47h.13a.66.66,0,0,0,.55-.61.38.38,0,0,0,0-.1.61.61,0,0,0-.62-.47l-.14,0Z" transform="translate(-320.17 -250.91)"/><g class="cls-62"><rect class="cls-63" x="438.01" y="314.84" width="1.57" height="1.48" transform="translate(-371.38 -163.42) rotate(-10.76)"/></g><path class="cls-64" d="M438.69,315h.13a.6.6,0,0,1,.6.45.38.38,0,0,1,0,.1.62.62,0,0,1-.53.58h-.13a.6.6,0,0,1-.6-.45v-.1a.61.61,0,0,1,.52-.58h0a.61.61,0,0,0-.52.58v.1a.6.6,0,0,0,.6.45h.13a.62.62,0,0,0,.53-.58.38.38,0,0,0,0-.1.6.6,0,0,0-.6-.45Z" transform="translate(-320.17 -250.91)"/><g class="cls-65"><rect class="cls-66" x="440.7" y="314.33" width="1.57" height="1.48" transform="translate(-371.24 -162.93) rotate(-10.76)"/></g><path class="cls-67" d="M441.38,314.52h0l.13,0a.6.6,0,0,1,.6.46s0,.06,0,.09a.62.62,0,0,1-.53.58h-.13a.59.59,0,0,1-.6-.45s0-.06,0-.09a.61.61,0,0,1,.53-.58h0a.61.61,0,0,0-.53.58s0,.06,0,.09a.59.59,0,0,0,.6.45h.13a.62.62,0,0,0,.53-.58s0-.06,0-.09a.6.6,0,0,0-.6-.46l-.13,0Z" transform="translate(-320.17 -250.91)"/><g class="cls-68"><rect class="cls-69" x="443.36" y="313.83" width="1.57" height="1.48" transform="translate(-371.1 -162.44) rotate(-10.76)"/></g><path class="cls-70" d="M444,314h.13a.59.59,0,0,1,.6.45.34.34,0,0,1,0,.1.62.62,0,0,1-.53.58h-.13a.6.6,0,0,1-.6-.45s0-.07,0-.1A.62.62,0,0,1,444,314h0a.62.62,0,0,0-.53.58s0,.07,0,.1a.6.6,0,0,0,.6.45h.13a.62.62,0,0,0,.53-.58.34.34,0,0,0,0-.1.59.59,0,0,0-.6-.45Z" transform="translate(-320.17 -250.91)"/><g class="cls-71"><rect class="cls-72" x="446.02" y="313.33" width="1.57" height="1.48" transform="translate(-370.96 -161.95) rotate(-10.76)"/></g><path class="cls-73" d="M446.7,313.51h.13a.58.58,0,0,1,.6.45.31.31,0,0,1,0,.1.62.62,0,0,1-.52.58h-.14a.59.59,0,0,1-.59-.45.38.38,0,0,1,0-.1.61.61,0,0,1,.52-.58h0a.61.61,0,0,0-.52.58.38.38,0,0,0,0,.1.59.59,0,0,0,.59.45h.14a.62.62,0,0,0,.52-.58.31.31,0,0,0,0-.1.58.58,0,0,0-.6-.45Z" transform="translate(-320.17 -250.91)"/><g class="cls-74"><rect class="cls-75" x="448.87" y="312.87" width="1.57" height="1.48" transform="translate(-370.82 -161.43) rotate(-10.76)"/></g><path class="cls-76" d="M449.55,313.05h0l.13,0a.59.59,0,0,1,.6.46.28.28,0,0,1,0,.09.62.62,0,0,1-.52.58h-.14a.58.58,0,0,1-.59-.45.28.28,0,0,1,0-.09.6.6,0,0,1,.52-.58h0a.6.6,0,0,0-.52.58.28.28,0,0,0,0,.09.58.58,0,0,0,.59.45h.14a.62.62,0,0,0,.52-.58.28.28,0,0,0,0-.09.59.59,0,0,0-.6-.46l-.13,0Z" transform="translate(-320.17 -250.91)"/></g></g></g><g class="cls-77"><g class="cls-78"><rect class="cls-79" x="431.18" y="254.3" width="19.78" height="54.11" transform="translate(-358.48 -179.08) rotate(-8.92)"/></g></g><g class="cls-10"><polygon class="cls-18" points="115.04 6.84 123.43 3.97 126.75 54.04 118.36 56.9 115.04 6.84"/><line class="cls-19" x1="125.63" y1="54.49" x2="122.31" y2="4.66"/><line class="cls-19" x1="120.48" y1="55.91" x2="117.17" y2="6.1"/><line class="cls-19" x1="124.03" y1="55.07" x2="120.7" y2="4.98"/><line class="cls-19" x1="119.21" y1="56.61" x2="115.88" y2="6.55"/><line class="cls-19" x1="122.35" y1="55.54" x2="119.03" y2="5.58"/><line class="cls-19" x1="126.41" y1="48.96" x2="117.99" y2="50.97"/><line class="cls-19" x1="126.04" y1="43.48" x2="117.64" y2="45.73"/><line class="cls-19" x1="125.63" y1="37.08" x2="117.23" y2="39.33"/><line class="cls-19" x1="125.24" y1="31.45" x2="116.83" y2="33.52"/><line class="cls-19" x1="124.82" y1="25.2" x2="116.43" y2="27.53"/><line class="cls-19" x1="123.71" y1="8.7" x2="115.32" y2="11.04"/><line class="cls-19" x1="124.08" y1="13.98" x2="115.69" y2="16.32"/><line class="cls-19" x1="124.43" y1="19.44" x2="116.05" y2="21.77"/></g><g class="cls-80"><g class="cls-81"><rect class="cls-82" x="442.96" y="252.12" width="19.78" height="54.11" transform="translate(-358 -177.28) rotate(-8.92)"/></g></g><g class="cls-10"><polygon class="cls-18" points="126.82 4.66 135.21 1.79 138.53 51.86 130.14 54.73 126.82 4.66"/><line class="cls-19" x1="137.41" y1="52.31" x2="134.09" y2="2.48"/><line class="cls-19" x1="132.26" y1="53.73" x2="128.95" y2="3.93"/><line class="cls-19" x1="135.81" y1="52.89" x2="132.47" y2="2.8"/><line class="cls-19" x1="130.99" y1="54.44" x2="127.66" y2="4.37"/><line class="cls-19" x1="134.13" y1="53.36" x2="130.8" y2="3.3"/><line class="cls-19" x1="138.18" y1="46.78" x2="129.77" y2="48.79"/><line class="cls-19" x1="137.82" y1="41.3" x2="129.42" y2="43.55"/><line class="cls-19" x1="137.41" y1="34.9" x2="129.01" y2="37.15"/><line class="cls-19" x1="137.02" y1="29.27" x2="128.61" y2="31.34"/><line class="cls-19" x1="136.6" y1="23.02" x2="128.21" y2="25.35"/><line class="cls-19" x1="135.49" y1="6.52" x2="127.1" y2="8.86"/><line class="cls-19" x1="135.86" y1="11.8" x2="127.47" y2="14.14"/><line class="cls-19" x1="136.21" y1="17.26" x2="127.83" y2="19.59"/><g class="cls-83"><g class="cls-84"><path class="cls-11" d="M369,330.24l-2.56.44a1,1,0,0,1-1.13-.8l-1.53-8.76a1,1,0,0,1,.8-1.13l2.56-.44a1,1,0,0,1,1.13.79l1.52,8.76a1,1,0,0,1-.79,1.14" transform="translate(-320.17 -250.91)"/><rect class="cls-14" x="364.5" y="319.69" width="4.55" height="10.85" rx="0.98" transform="translate(-370.35 -183.42) rotate(-9.84)"/></g></g><g class="cls-83"><g class="cls-85"><path class="cls-11" d="M378.92,322.25l-1.72.32a.62.62,0,0,1-.74-.5l-.56-2.95a.62.62,0,0,1,.5-.74l1.73-.33a.64.64,0,0,1,.74.51l.55,2.95a.63.63,0,0,1-.5.74" transform="translate(-320.17 -250.91)"/><rect class="cls-14" x="376.15" y="318.18" width="3.02" height="4.27" rx="0.63" transform="translate(-372.95 -175.45) rotate(-10.67)"/></g></g><g class="cls-83"><g class="cls-86"><path class="cls-11" d="M422.71,318.94l-.55.11a.21.21,0,0,1-.25-.17l-1.31-7a.21.21,0,0,1,.16-.24l.55-.11a.22.22,0,0,1,.25.17l1.31,7a.21.21,0,0,1-.16.24" transform="translate(-320.17 -250.91)"/><rect class="cls-14" x="421.25" y="311.56" width="0.97" height="7.5" rx="0.21" transform="translate(-371.41 -167.06) rotate(-10.71)"/></g></g><g class="cls-83"><g class="cls-87"><path class="cls-11" d="M418.58,320.58l-.45.08a.32.32,0,0,1-.36-.25l-1.52-8a.31.31,0,0,1,.25-.36l.45-.09a.32.32,0,0,1,.36.25l1.52,8.05a.32.32,0,0,1-.25.36" transform="translate(-320.17 -250.91)"/><rect class="cls-14" x="417" y="311.89" width="1.07" height="8.8" rx="0.31" transform="translate(-371.82 -167.52) rotate(-10.75)"/></g></g><g class="cls-83"><g class="cls-88"><path class="cls-11" d="M382.62,325.88l-.45.09a.32.32,0,0,1-.36-.25l-1.52-8a.31.31,0,0,1,.25-.36l.45-.09a.31.31,0,0,1,.36.25l1.52,8a.31.31,0,0,1-.25.36" transform="translate(-320.17 -250.91)"/><rect class="cls-14" x="381.04" y="317.2" width="1.07" height="8.8" rx="0.31" transform="translate(-373.44 -174.13) rotate(-10.75)"/></g></g><g class="cls-83"><g class="cls-89"><path class="cls-11" d="M400.29,324.18l-.45.08a.31.31,0,0,1-.36-.24L398,316a.31.31,0,0,1,.25-.36l.44-.08a.29.29,0,0,1,.36.24l1.52,8.05a.29.29,0,0,1-.24.36" transform="translate(-320.17 -250.91)"/><path class="cls-14" d="M400.29,324.18l-.45.08a.31.31,0,0,1-.36-.24L398,316a.31.31,0,0,1,.25-.36l.44-.08a.29.29,0,0,1,.36.24l1.52,8.05A.29.29,0,0,1,400.29,324.18Z" transform="translate(-320.17 -250.91)"/></g></g><g class="cls-83"><g class="cls-90"><path class="cls-11" d="M401.63,321.05l-.13,0a.31.31,0,0,1-.36-.25l-1.07-5.64a.31.31,0,0,1,.25-.36l.13,0a.29.29,0,0,1,.36.24l1.07,5.65a.32.32,0,0,1-.25.36" transform="translate(-320.17 -250.91)"/><path class="cls-14" d="M401.63,321.05l-.13,0a.31.31,0,0,1-.36-.25l-1.07-5.64a.31.31,0,0,1,.25-.36l.13,0a.29.29,0,0,1,.36.24l1.07,5.65A.32.32,0,0,1,401.63,321.05Z" transform="translate(-320.17 -250.91)"/></g></g><g class="cls-83"><g class="cls-91"><path class="cls-11" d="M427.39,318.85l-.44.09a.31.31,0,0,1-.36-.25l-1.52-8a.3.3,0,0,1,.24-.36l.45-.09a.31.31,0,0,1,.36.25l1.52,8a.31.31,0,0,1-.25.36" transform="translate(-320.17 -250.91)"/><path class="cls-14" d="M427.39,318.85l-.44.09a.31.31,0,0,1-.36-.25l-1.52-8a.3.3,0,0,1,.24-.36l.45-.09a.31.31,0,0,1,.36.25l1.52,8A.31.31,0,0,1,427.39,318.85Z" transform="translate(-320.17 -250.91)"/></g></g><line class="cls-92" x1="82.79" y1="62.1" x2="83.03" y2="55.9"/><line class="cls-92" x1="69.01" y1="65.5" x2="63.21" y2="59.65"/><line class="cls-92" x1="65.16" y1="66.17" x2="62.34" y2="64.16"/><line class="cls-92" x1="84.97" y1="61.72" x2="84.66" y2="56.41"/><line class="cls-92" x1="53.42" y1="66.24" x2="51.42" y2="63.86"/></g></g><text class="cls-93" transform="translate(53.11 129.46)">Den Inte<tspan class="cls-94" x="34.98" y="0">r</tspan><tspan class="cls-95" x="39" y="0">nationale Rumstation - ISS</tspan></text></g></g></svg>