<svg xmlns="http://www.w3.org/2000/svg" viewBox="0 0 152 209.98"><defs><style>.cls-1,.cls-2{fill:#fff;}.cls-1{stroke:#000;}.cls-1,.cls-3,.cls-4{stroke-miterlimit:10;}.cls-3,.cls-4{fill:none;stroke:#1d1d1b;}.cls-3{stroke-width:2px;}</style></defs><title>Asset 1</title><g id="Layer_2" data-name="Layer 2"><g id="Layer_2-2" data-name="Layer 2"><polygon class="cls-1" points="0.5 197.65 114.5 154.65 114.5 0.65 0.5 31.65 0.5 197.65"/><polygon class="cls-1" points="106.46 7.3 4.45 35.06 34.29 57.44 136.23 19.51 106.46 7.3"/><polygon class="cls-1" points="37.5 206.66 151.5 164.84 151.5 11.48 37.5 42.67 37.5 206.66"/><path d="M25.91,43C14.62,42.29,5.06,37.57.5,31.22V198H38V42A43.15,43.15,0,0,1,25.91,43Z"/><path d="M.5,197.48l10-17,26,10,1.5-1v18c-3.56.86-6.45,2.5-10.53,2.5C14.3,210,4.55,205,0,198"/><path class="cls-2" d="M88.92,113.32a23.45,23.45,0,0,0,28.63,16.52,23.21,23.21,0,0,0,16-28.74A23.46,23.46,0,0,0,105,84.58a23.2,23.2,0,0,0-16,28.74"/><ellipse class="cls-3" cx="111.26" cy="107.21" rx="23.15" ry="23.49" transform="translate(-34.35 55.52) rotate(-24.39)"/><line class="cls-4" x1="91.54" y1="126.67" x2="56.82" y2="140.12"/><line class="cls-4" x1="83.65" y1="120.78" x2="72.05" y2="124.8"/><line class="cls-4" x1="81.74" y1="107.19" x2="46.56" y2="115.14"/><line class="cls-4" x1="86.2" y1="113.61" x2="46.25" y2="125.78"/><line class="cls-4" x1="85.17" y1="99.09" x2="71.22" y2="102.24"/><line class="cls-4" x1="105.33" y1="85.89" x2="107.76" y2="94.62"/><line class="cls-4" x1="125.77" y1="102.16" x2="131.74" y2="99.79"/><line class="cls-4" x1="114.93" y1="120.4" x2="117.07" y2="128.11"/><line class="cls-4" x1="97.09" y1="113.09" x2="90.37" y2="115.47"/><line class="cls-4" x1="124.63" y1="117.08" x2="128.26" y2="121.25"/><line class="cls-4" x1="99.46" y1="119.96" x2="96.52" y2="124.19"/><line class="cls-4" x1="107.25" y1="123.03" x2="106.69" y2="128.56"/><line class="cls-4" x1="128.72" y1="109.58" x2="133.54" y2="111.31"/><line class="cls-4" x1="115.81" y1="86.05" x2="114.7" y2="91.43"/><line class="cls-4" x1="122.71" y1="95.35" x2="126.56" y2="92.19"/><line class="cls-4" x1="95.01" y1="92.09" x2="98.98" y2="95.82"/><line class="cls-4" x1="89.95" y1="101.7" x2="94.77" y2="103.42"/><line class="cls-3" x1="119.71" y1="91.87" x2="110.93" y2="109.43"/><line class="cls-3" x1="110.74" y1="108.76" x2="116.61" y2="114.28"/></g></g></svg>