<svg xmlns="http://www.w3.org/2000/svg" xmlns:xlink="http://www.w3.org/1999/xlink" viewBox="0 0 240.67 140.24"><defs><style>.cls-1,.cls-10,.cls-3,.cls-5,.cls-6,.cls-7,.cls-9{fill:none;}.cls-2{clip-path:url(#clip-path);}.cls-3{stroke:#b2b2b2;stroke-width:0.75px;}.cls-10,.cls-3,.cls-5,.cls-6,.cls-7,.cls-9{stroke-miterlimit:10;}.cls-4{fill:#b2b2b2;}.cls-5,.cls-7{stroke:#1d1d1b;}.cls-6{stroke:#878787;}.cls-10,.cls-6,.cls-9{stroke-width:0.25px;}.cls-7{stroke-width:2px;}.cls-8{fill:#1d1d1b;}.cls-9{stroke:#575756;}.cls-10{stroke:#706f6f;}.cls-11{fill:#706f6f;}.cls-12{font-size:17px;fill:#dbb24a;font-family:Rockwell;}</style><clipPath id="clip-path" transform="translate(-363.2 -247.68)"><rect class="cls-1" width="841.89" height="595.28"/></clipPath></defs><title>Luna17</title><g id="Layer_2" data-name="Layer 2"><g id="Layer_1-2" data-name="Layer 1"><g class="cls-2"><path class="cls-3" d="M448.42,373.08c.07,3.1-3.8,5.69-8.66,5.79s-8.85-2.32-8.92-5.41,3.81-5.69,8.66-5.8S448.35,370,448.42,373.08Z" transform="translate(-363.2 -247.68)"/><line class="cls-3" x1="76.3" y1="119.98" x2="76.56" y2="131.19"/><line class="cls-3" x1="67.64" y1="125.78" x2="85.22" y2="125.4"/><line class="cls-3" x1="71.06" y1="121.21" x2="81.4" y2="129.73"/><line class="cls-3" x1="71.11" y1="129.95" x2="82.63" y2="121.54"/><path class="cls-3" d="M486.7,372.23c.07,3.1-3.8,5.69-8.66,5.8s-8.85-2.32-8.92-5.42,3.81-5.69,8.66-5.79S486.63,369.14,486.7,372.23Z" transform="translate(-363.2 -247.68)"/><line class="cls-3" x1="114.58" y1="119.14" x2="114.84" y2="130.35"/><line class="cls-3" x1="105.92" y1="124.93" x2="123.5" y2="124.55"/><line class="cls-3" x1="109.34" y1="120.36" x2="119.68" y2="128.88"/><line class="cls-3" x1="109.39" y1="129.1" x2="120.91" y2="120.69"/><path class="cls-3" d="M525.57,372.39c.07,3.1-3.81,5.69-8.67,5.8s-8.85-2.33-8.92-5.42,3.81-5.69,8.67-5.8S525.5,369.3,525.57,372.39Z" transform="translate(-363.2 -247.68)"/><line class="cls-3" x1="153.44" y1="119.29" x2="153.7" y2="130.5"/><line class="cls-3" x1="144.78" y1="125.09" x2="162.36" y2="124.71"/><line class="cls-3" x1="148.21" y1="120.52" x2="158.55" y2="129.04"/><line class="cls-3" x1="148.26" y1="129.26" x2="159.77" y2="120.85"/><path class="cls-3" d="M409.8,373.66c.08,3.1-3.8,5.69-8.66,5.79s-8.85-2.32-8.92-5.41,3.81-5.69,8.66-5.8S409.73,370.56,409.8,373.66Z" transform="translate(-363.2 -247.68)"/><line class="cls-3" x1="37.68" y1="120.56" x2="37.94" y2="131.77"/><line class="cls-3" x1="29.02" y1="126.36" x2="46.6" y2="125.98"/><line class="cls-3" x1="32.44" y1="121.79" x2="42.78" y2="130.31"/><line class="cls-3" x1="32.49" y1="130.53" x2="44.01" y2="122.12"/><path class="cls-4" d="M519.09,370.55,399,371.11q-5.34-33.89-10.69-67.79H528.78l-9.69,67.23" transform="translate(-363.2 -247.68)"/><path class="cls-5" d="M419,377.63c.13,5.07-5.67,9.3-13,9.44s-13.31-3.88-13.44-8.95,5.67-9.3,13-9.44S418.82,372.55,419,377.63Z" transform="translate(-363.2 -247.68)"/><line class="cls-5" x1="42.3" y1="121" x2="42.79" y2="139.38"/><line class="cls-5" x1="29.34" y1="130.44" x2="55.75" y2="129.95"/><line class="cls-5" x1="34.45" y1="122.97" x2="50.06" y2="137.02"/><line class="cls-5" x1="34.6" y1="137.31" x2="51.82" y2="123.6"/><path class="cls-5" d="M454.86,377.82c.13,5.08-5.67,9.31-13,9.44s-13.32-3.87-13.45-8.95,5.67-9.3,13-9.43S454.73,372.75,454.86,377.82Z" transform="translate(-363.2 -247.68)"/><line class="cls-5" x1="78.21" y1="121.2" x2="78.69" y2="139.58"/><line class="cls-5" x1="65.25" y1="130.63" x2="91.65" y2="130.14"/><line class="cls-5" x1="70.35" y1="123.17" x2="85.96" y2="137.21"/><line class="cls-5" x1="70.51" y1="137.5" x2="87.73" y2="123.8"/><path class="cls-5" d="M489.7,377.2c.14,5.07-5.67,9.3-13,9.43s-13.31-3.87-13.45-8.94,5.67-9.3,13-9.44S489.57,372.12,489.7,377.2Z" transform="translate(-363.2 -247.68)"/><line class="cls-5" x1="113.05" y1="120.57" x2="113.54" y2="138.95"/><line class="cls-5" x1="100.09" y1="130.01" x2="126.5" y2="129.52"/><line class="cls-5" x1="105.2" y1="122.54" x2="120.8" y2="136.59"/><line class="cls-5" x1="105.35" y1="136.88" x2="122.57" y2="123.17"/><path class="cls-5" d="M526.11,376.48c.13,5.08-5.67,9.3-13,9.44s-13.32-3.87-13.45-8.95,5.67-9.3,13-9.44S526,371.4,526.11,376.48Z" transform="translate(-363.2 -247.68)"/><line class="cls-5" x1="149.46" y1="119.85" x2="149.94" y2="138.24"/><line class="cls-5" x1="136.5" y1="129.29" x2="162.9" y2="128.8"/><line class="cls-5" x1="141.6" y1="121.83" x2="157.21" y2="135.87"/><line class="cls-5" x1="141.76" y1="136.16" x2="158.98" y2="122.45"/><path class="cls-4" d="M388,303.41l.26-.09" transform="translate(-363.2 -247.68)"/><path class="cls-6" d="M388,303.41q33.28,1.21,68.94,1.27,37.05,0,71.59-1.27" transform="translate(-363.2 -247.68)"/><line class="cls-5" x1="36.2" y1="122.49" x2="4.02" y2="52.87"/><line class="cls-7" x1="5.21" y1="49.82" x2="38.36" y2="4.58"/><line class="cls-7" x1="33.59" y1="0.79" x2="43.22" y2="8.23"/><line class="cls-7" x1="0.62" y1="46.17" x2="10.37" y2="53.92"/><line class="cls-7" x1="27.16" y1="9.69" x2="36.8" y2="17.13"/><line class="cls-7" x1="18.03" y1="22.65" x2="27.67" y2="30.09"/><line class="cls-7" x1="8.57" y1="34.96" x2="18.21" y2="42.4"/><path class="cls-8" d="M370,299.65c0,.91-1.28,1.64-2.87,1.64s-2.87-.73-2.87-1.64,1.29-1.65,2.87-1.65,2.87.74,2.87,1.65" transform="translate(-363.2 -247.68)"/><path class="cls-4" d="M531.39,305.05c-.08,3.43-40.84,5.69-73,5.69s-72.9-2.12-73-5.69c0-.75,1.76-1.37,2.73-1.68,30.88-10.07,70.27-4,70.27-4,5.9-.26,51.08-2.09,70.15,4,1.66.54,2.86,1,2.85,1.64" transform="translate(-363.2 -247.68)"/><path class="cls-9" d="M531.39,305.05c-.08,3.43-40.84,5.69-73,5.69s-72.9-2.12-73-5.69c0-.75,1.76-1.37,2.73-1.68,30.88-10.07,70.27-4,70.27-4,5.9-.26,51.08-2.09,70.15,4C530.2,304,531.4,304.46,531.39,305.05Z" transform="translate(-363.2 -247.68)"/><path class="cls-4" d="M388.27,303.32a213.39,213.39,0,0,1,140.27.09" transform="translate(-363.2 -247.68)"/><path class="cls-10" d="M388.26,303.32c20.88,2.13,44,3.52,69.12,3.56a693.59,693.59,0,0,0,71.06-3.56" transform="translate(-363.2 -247.68)"/><path class="cls-11" d="M410.6,310.32c0,.7-.07,1.4-.1,2.11a.61.61,0,0,0,.62.62.64.64,0,0,0,.63-.62c0-.71.06-1.41.1-2.11a.63.63,0,1,0-1.25,0" transform="translate(-363.2 -247.68)"/><path class="cls-11" d="M391.85,308.28c-.15.69-.29,1.38-.44,2.07a.63.63,0,0,0,.44.77.65.65,0,0,0,.77-.44c.14-.69.29-1.38.44-2.07a.65.65,0,0,0-.44-.77.64.64,0,0,0-.77.44" transform="translate(-363.2 -247.68)"/><path class="cls-11" d="M416.52,310.59c0,.71,0,1.41-.07,2.11a.64.64,0,0,0,.63.63.63.63,0,0,0,.62-.63c0-.7.05-1.4.07-2.11a.62.62,0,0,0-.62-.62.63.63,0,0,0-.63.62" transform="translate(-363.2 -247.68)"/><path class="cls-11" d="M397.54,309l-.3,2.1a.73.73,0,0,0,.06.48.69.69,0,0,0,.38.29.62.62,0,0,0,.48-.07.6.6,0,0,0,.29-.37c.09-.7.19-1.4.29-2.09a.66.66,0,0,0-.06-.48.65.65,0,0,0-.38-.29.62.62,0,0,0-.48.06.61.61,0,0,0-.28.37" transform="translate(-363.2 -247.68)"/><path class="cls-11" d="M429.07,311.17l-.07,2.11a.63.63,0,1,0,1.25,0l.07-2.11a.63.63,0,1,0-1.25,0" transform="translate(-363.2 -247.68)"/><path class="cls-11" d="M436.06,311.29,436,313.4a.63.63,0,0,0,1.25,0l.07-2.11a.63.63,0,0,0-.62-.63.65.65,0,0,0-.63.63" transform="translate(-363.2 -247.68)"/><path class="cls-11" d="M447.81,311.52l-.07,2.11a.63.63,0,1,0,1.25,0l.07-2.11a.63.63,0,0,0-1.25,0" transform="translate(-363.2 -247.68)"/><path class="cls-11" d="M455.05,311.65c0,.7-.05,1.41-.07,2.11a.63.63,0,1,0,1.25,0c0-.7,0-1.41.07-2.11a.63.63,0,1,0-1.25,0" transform="translate(-363.2 -247.68)"/><path class="cls-11" d="M474.35,311.49c0,.7.08,1.41.13,2.11a.62.62,0,0,0,.62.62.63.63,0,0,0,.63-.62c-.05-.7-.09-1.41-.13-2.11a.64.64,0,0,0-.63-.62.62.62,0,0,0-.62.62" transform="translate(-363.2 -247.68)"/><path class="cls-11" d="M469,311.57l-.07,2.11a.63.63,0,1,0,1.25,0l.07-2.11a.63.63,0,0,0-.62-.63.65.65,0,0,0-.63.63" transform="translate(-363.2 -247.68)"/><path class="cls-11" d="M491.84,310.88c.05.7.1,1.41.14,2.11a.64.64,0,0,0,.63.62.62.62,0,0,0,.62-.62c0-.7-.09-1.41-.14-2.11a.64.64,0,0,0-.62-.63.65.65,0,0,0-.63.63" transform="translate(-363.2 -247.68)"/><path class="cls-11" d="M497.64,310.55c.07.7.15,1.4.22,2.1a.75.75,0,0,0,.18.45.67.67,0,0,0,.44.18.63.63,0,0,0,.63-.63c-.07-.7-.15-1.4-.22-2.1a.7.7,0,0,0-.18-.44.62.62,0,0,0-.44-.18.63.63,0,0,0-.63.62" transform="translate(-363.2 -247.68)"/><path class="cls-11" d="M517.94,309.2c.21.67.41,1.35.62,2a.62.62,0,1,0,1.2-.33c-.2-.67-.41-1.35-.61-2a.63.63,0,0,0-1.21.34" transform="translate(-363.2 -247.68)"/><path class="cls-11" d="M512,309.78c.12.69.23,1.39.35,2.09a.59.59,0,0,0,.29.37.62.62,0,0,0,.48.06.6.6,0,0,0,.37-.29.78.78,0,0,0,.07-.48c-.12-.69-.24-1.39-.35-2.08a.66.66,0,0,0-.29-.38.62.62,0,0,0-.48-.06.65.65,0,0,0-.38.29.71.71,0,0,0-.06.48" transform="translate(-363.2 -247.68)"/><path class="cls-11" d="M402.46,328.39a3,3,0,1,1-3-3.48,3.28,3.28,0,0,1,3,3.48" transform="translate(-363.2 -247.68)"/><path class="cls-11" d="M431.36,356.43c0,2.21-2.61,4-5.84,4s-5.84-1.79-5.84-4,2.62-4,5.84-4,5.84,1.79,5.84,4" transform="translate(-363.2 -247.68)"/><path class="cls-11" d="M442.76,328.39c0,3.44-.49,6.22-1.1,6.22s-1.12-2.78-1.12-6.22.5-6.21,1.12-6.21,1.1,2.78,1.1,6.21" transform="translate(-363.2 -247.68)"/><rect class="cls-11" x="128.95" y="108.78" width="12.22" height="5.1"/></g><text class="cls-12" transform="translate(180.8 135.59)">Luna 17</text></g></g></svg>