<svg xmlns="http://www.w3.org/2000/svg" xmlns:xlink="http://www.w3.org/1999/xlink" viewBox="0 0 98.16 94.61"><defs><style>.cls-1,.cls-14,.cls-15,.cls-6,.cls-9{fill:none;}.cls-2{font-size:10.14px;fill:#dbb24a;font-family:Rockwell;}.cls-3{letter-spacing:-0.01em;}.cls-4{clip-path:url(#clip-path);}.cls-5{fill:#575756;}.cls-6{stroke:#3c3c3b;stroke-width:0.75px;}.cls-14,.cls-15,.cls-6,.cls-9{stroke-miterlimit:10;}.cls-7{clip-path:url(#clip-path-2);}.cls-8{fill:url(#radial-gradient);}.cls-9{stroke:#1d1d1b;}.cls-15,.cls-9{stroke-width:0.5px;}.cls-10{fill:#b2b2b2;}.cls-11{fill:#9d9d9c;}.cls-12{fill:#706f6f;}.cls-13{fill:#3c3c3b;}.cls-14,.cls-15{stroke:#575756;}</style><clipPath id="clip-path" transform="translate(-355.23 -20.19)"><rect class="cls-1" width="841.89" height="595.28"/></clipPath><clipPath id="clip-path-2" transform="translate(-355.23 -20.19)"><path class="cls-1" d="M355.68,55.39c0,10.72,12.22,19.42,27.29,19.42s27.29-8.7,27.29-19.42S398,36,383,36s-27.29,8.69-27.29,19.42"/></clipPath><radialGradient id="radial-gradient" cx="0" cy="595.28" r="1" gradientTransform="matrix(23.68, 0, 0, -23.68, 27.74, 14134.08)" gradientUnits="userSpaceOnUse"><stop offset="0" stop-color="#fff"/><stop offset="1" stop-color="#1d1d1b"/></radialGradient></defs><title>Luna1</title><g id="Layer_2" data-name="Layer 2"><g id="Layer_1-2" data-name="Layer 1"><text class="cls-2" transform="translate(10.85 8.52) scale(1.07 1)"><tspan class="cls-3">L</tspan><tspan x="5.14" y="0">una 1 USSR</tspan></text><g class="cls-4"><path class="cls-5" d="M364.42,40.34c1.07,1.07,1.55,2.24,1.06,2.61s-1.76-.19-2.83-1.26-1.55-2.25-1.07-2.62,1.76.2,2.84,1.27" transform="translate(-355.23 -20.19)"/><line class="cls-6" x1="29.79" y1="50.02" x2="45.13" y2="71.56"/></g><g class="cls-7"><rect class="cls-8" x="0.45" y="15.77" width="54.58" height="38.84"/></g><g class="cls-4"><line class="cls-6" x1="38.59" y1="39.05" x2="97.94" y2="84.46"/><line class="cls-6" x1="47.25" y1="24.51" x2="75.82" y2="43.44"/><line class="cls-6" x1="18.43" y1="46.33" x2="43.23" y2="94.43"/><path class="cls-9" d="M359.1,64.78a78.5,78.5,0,0,0,29.71-16.45A71.37,71.37,0,0,0,397.5,39" transform="translate(-355.23 -20.19)"/><path class="cls-5" d="M382.82,40.79c-.07,1.14-3.75,2.16-4.9,1.35a6,6,0,0,1-.63-1.24c-.4-.87-.47-1-.34-1.24s.23-.18,1.38-.55c.33-.11.89-.24,1.41-.41a1.8,1.8,0,0,1,.56-.13,1.84,1.84,0,0,1,1.18.69c.9.89,1.35,1.33,1.34,1.53" transform="translate(-355.23 -20.19)"/><path class="cls-10" d="M382.3,40.74c-.05,1-3.1,1.88-4.05,1.18a5.34,5.34,0,0,1-.51-1.07c-.33-.75-.39-.9-.28-1.07s.18-.16,1.14-.48c.28-.1.74-.21,1.17-.35a1.33,1.33,0,0,1,.46-.12,1.5,1.5,0,0,1,1,.6c.74.76,1.11,1.14,1.1,1.31" transform="translate(-355.23 -20.19)"/><path class="cls-5" d="M380.26,68.6c-.07-1.61,4.52-3.46,6.12-2.44a3.13,3.13,0,0,1,1,1.68,2.69,2.69,0,0,1,.14,1.76,2.58,2.58,0,0,1-1.13,1.28,3.39,3.39,0,0,1-1.7.61,3.33,3.33,0,0,1-1.31-.21,3.88,3.88,0,0,1-1.17-.67c-1.27-1-1.91-1.48-1.93-2" transform="translate(-355.23 -20.19)"/><path class="cls-10" d="M380.77,68.62c-.06-1.28,3.9-2.75,5.27-2a2.5,2.5,0,0,1,.84,1.34,2,2,0,0,1,.12,1.4,2.05,2.05,0,0,1-1,1,2.9,2.9,0,0,1-1.46.49,3,3,0,0,1-1.12-.16,3.5,3.5,0,0,1-1-.54c-1.09-.78-1.64-1.17-1.66-1.59" transform="translate(-355.23 -20.19)"/><path class="cls-11" d="M407.2,60.89c0,.47-.9.84-2,.84s-2-.37-2-.84.9-.84,2-.84,2,.38,2,.84" transform="translate(-355.23 -20.19)"/><path class="cls-12" d="M391.34,42.64c0,.48-.67.88-1.5.88s-1.5-.4-1.5-.88.67-.88,1.5-.88,1.5.39,1.5.88" transform="translate(-355.23 -20.19)"/><polygon class="cls-13" points="22.31 34.36 16.79 37.13 14.86 34.21 20.37 31.44 22.31 34.36"/><polygon class="cls-13" points="40.78 30.89 35.2 36.43 31.45 33.56 37.02 28.02 40.78 30.89"/><polygon class="cls-13" points="17.31 45.75 11.79 48.53 8.91 44.17 14.42 41.4 17.31 45.75"/><path class="cls-5" d="M367.34,50.14c.21,1.42-4.25,3.42-5.94,2.64a8.2,8.2,0,0,1-1.13-1.41c-.73-1-.87-1.2-.75-1.47s.24-.28,1.62-1c.41-.2,1.09-.47,1.72-.78a1.8,1.8,0,0,1,.68-.27,2.5,2.5,0,0,1,1.69.62c1.38.92,2.08,1.38,2.11,1.63" transform="translate(-355.23 -20.19)"/><path class="cls-10" d="M366.43,50.29c.13,1.13-3.34,2.62-4.62,2a7,7,0,0,1-.83-1.15c-.54-.8-.64-1-.55-1.18s.19-.21,1.27-.73c.31-.15.84-.34,1.33-.58a1.61,1.61,0,0,1,.53-.2,1.88,1.88,0,0,1,1.28.53c1,.76,1.56,1.14,1.59,1.34" transform="translate(-355.23 -20.19)"/><path class="cls-14" d="M361.76,38.72c.58.89-.25,2.26-1.86,3.08s-3.4.75-4-.14.24-2.27,1.85-3.08S361.17,37.83,361.76,38.72Z" transform="translate(-355.23 -20.19)"/><path class="cls-15" d="M366.71,38.1c.15.79-.67,1.57-1.83,1.73s-2.21-.35-2.36-1.14.67-1.57,1.83-1.73S366.56,37.31,366.71,38.1Z" transform="translate(-355.23 -20.19)"/></g></g></g></svg>