<svg xmlns="http://www.w3.org/2000/svg" xmlns:xlink="http://www.w3.org/1999/xlink" viewBox="0 0 344.66 297.56"><defs><style>.cls-1,.cls-11,.cls-14,.cls-18,.cls-21,.cls-3,.cls-4,.cls-7,.cls-8{fill:none;}.cls-2{clip-path:url(#clip-path);}.cls-3{stroke:#be6900;}.cls-11,.cls-14,.cls-18,.cls-21,.cls-3,.cls-4,.cls-7,.cls-8{stroke-miterlimit:10;}.cls-3,.cls-4{stroke-width:5px;}.cls-4{stroke:#e9803b;}.cls-5{clip-path:url(#clip-path-2);}.cls-6{fill:url(#linear-gradient);}.cls-7{stroke:#dadada;}.cls-11,.cls-14,.cls-7{stroke-width:0.25px;}.cls-8{stroke:#1d1d1b;}.cls-21,.cls-8{stroke-width:2px;}.cls-9{clip-path:url(#clip-path-4);}.cls-10{fill:url(#linear-gradient-2);}.cls-11{stroke:#878787;}.cls-12{fill:#dadada;}.cls-13{fill:#f49819;}.cls-14{stroke:#9d9d9c;}.cls-15{opacity:0.62;}.cls-16{clip-path:url(#clip-path-6);}.cls-17{fill:#b86014;}.cls-18{stroke:#a96900;stroke-width:0.75px;}.cls-19{opacity:0.84;}.cls-20{clip-path:url(#clip-path-7);}.cls-21{stroke:#d57400;}.cls-22{fill:#d68716;}.cls-23{font-size:16px;fill:#dbb24a;font-family:Rockwell-Bold, Rockwell;font-weight:700;}</style><clipPath id="clip-path" transform="translate(-266.38 -115.68)"><rect class="cls-1" width="841.89" height="595.28"/></clipPath><clipPath id="clip-path-2" transform="translate(-266.38 -115.68)"><path class="cls-1" d="M487.53,227.28s-7.86,10.09-6.69,11.94l.31.48,1,1.46c.36.57.58.92.73,1.14l.27.43c1.31,2,13-1.18,13-1.18,8-2.16,9.22-2.79,9.45-3.91s-.83-1.62-3.43-5.48c-.82-1.22-1.92-3.11-4.12-6.91-2.49-4.28-2.74-4.94-3.57-5.09a1.27,1.27,0,0,0-.28,0c-1.29,0-2.47,1.76-6.66,7.14"/></clipPath><linearGradient id="linear-gradient" y1="595.31" x2="1" y2="595.31" gradientTransform="matrix(22.52, 0, 0, -31.47, 478.97, 18965.33)" gradientUnits="userSpaceOnUse"><stop offset="0" stop-color="#1d1d1b"/><stop offset="0.26" stop-color="#545452"/><stop offset="0.85" stop-color="#dcdcdc"/><stop offset="1" stop-color="#fff"/></linearGradient><clipPath id="clip-path-4" transform="translate(-266.38 -115.68)"><path class="cls-1" d="M395.22,157.12c-.3.18-.43.36-3.4,6.11-4.16,8.07-6.25,12.1-7.33,14.36-4.67,9.75-15.52,30.14-22.58,43-17.3,31.41-25.13,41.6-32.59,49.83-1.47,1.63-5.15,3.7-7.89,8.18-4.95,8.07-4,16.76-2.64,27.56,1.91,15.33,2.86,23,8.79,27.26,4.75,3.41,6.36,1.76,20.91,4.88,7.56,1.61,5.36,2.68,16.26,5.69,3.35.92,4.62,1.12,16.12,3.6,0,0,6.4,1.3,13.85,3,.29.06,9.17,2.26,26.95,6.65,24,5.92,36,8.89,36.24,9,17.34,4.82,18,5.93,20.33,5,15-5.74,13-60.5-3.19-109.49-20.26-61.2-67.31-104.93-78.46-104.92a2.75,2.75,0,0,0-1.37.31"/></clipPath><linearGradient id="linear-gradient-2" y1="595.32" x2="1" y2="595.32" gradientTransform="matrix(164.64, 0, 0, -164.64, 309.83, 98280.28)" gradientUnits="userSpaceOnUse"><stop offset="0" stop-color="#1d1d1b"/><stop offset="0.08" stop-color="#252523"/><stop offset="0.21" stop-color="#3a3a38"/><stop offset="0.36" stop-color="#5d5d5b"/><stop offset="0.54" stop-color="#8d8d8c"/><stop offset="0.73" stop-color="#cacaca"/><stop offset="0.89" stop-color="#fff"/><stop offset="1" stop-color="#fff"/></linearGradient><clipPath id="clip-path-6" transform="translate(-266.38 -115.68)"><rect class="cls-1" x="319.46" y="274.44" width="47.04" height="52.32"/></clipPath><clipPath id="clip-path-7" transform="translate(-266.38 -115.68)"><rect class="cls-1" x="375.72" y="323.25" width="182.04" height="72.48"/></clipPath></defs><title>pioneer10</title><g id="Layer_2" data-name="Layer 2"><g id="Layer_1-2" data-name="Layer 1"><g class="cls-2"><line class="cls-3" x1="73.19" y1="180.9" x2="20.66" y2="74.51"/><line class="cls-4" x1="79.67" y1="221.22" x2="79.67" y2="266.41"/><g class="cls-5"><rect class="cls-6" x="475.01" y="214.9" width="35.48" height="35.07" transform="translate(-311.57 203.04) rotate(-34.37)"/></g><g class="cls-2"><path class="cls-7" d="M505.59,237.64c-.23,1.12-1.46,1.75-9.45,3.91,0,0-11.73,3.18-13,1.18l-.27-.43c-.15-.22-.37-.57-.73-1.14l-1-1.45c-.12-.2-.29-.46-.31-.49-1.17-1.85,6.69-11.94,6.69-11.94,4.49-5.76,5.52-7.37,6.94-7.12.83.15,1.08.81,3.57,5.09,2.2,3.8,3.3,5.7,4.12,6.91C504.76,236,505.83,236.48,505.59,237.64Z" transform="translate(-266.38 -115.68)"/><line class="cls-8" x1="203.13" y1="133.31" x2="215.86" y2="125.48"/></g><g class="cls-9"><rect class="cls-10" x="293.25" y="138.76" width="223.19" height="251.39" transform="translate(-317.96 -10.94) rotate(-13.87)"/></g><g class="cls-2"><path class="cls-11" d="M321.43,278.57c2.74-4.48,6.42-6.55,7.89-8.18,7.46-8.23,15.3-18.43,32.59-49.83,7.06-12.83,17.91-33.22,22.58-43,1.08-2.26,3.17-6.29,7.33-14.36,3-5.75,3.1-5.94,3.4-6.11,7.87-4.54,58.58,40.42,79.83,104.61,16.22,49,18.16,103.74,3.19,109.49-2.34.9-3-.21-20.33-5-.24-.07-12.24-3-36.24-9l-26.95-6.65c-7.46-1.72-13.85-3-13.85-3-11.5-2.48-12.77-2.68-16.12-3.6-10.9-3-8.7-4.08-16.26-5.7-14.55-3.11-16.16-1.46-20.91-4.87-5.93-4.26-6.88-11.93-8.79-27.26C317.44,295.33,316.48,286.64,321.43,278.57Z" transform="translate(-266.38 -115.68)"/><polygon class="cls-12" points="146.74 65.35 138.7 75.33 123.48 63.3 131.52 53.32 146.74 65.35"/><polygon class="cls-7" points="146.74 65.35 138.7 75.33 123.48 63.3 131.52 53.32 146.74 65.35"/><polygon class="cls-12" points="172.56 94.08 160.58 102.24 147.67 83.66 159.65 75.5 172.56 94.08"/><polygon class="cls-7" points="172.56 94.08 160.58 102.24 147.67 83.66 159.65 75.5 172.56 94.08"/><polygon class="cls-12" points="191.6 128.37 177.8 135.05 167.24 113.68 181.04 106.99 191.6 128.37"/><polygon class="cls-7" points="191.6 128.37 177.8 135.05 167.24 113.68 181.04 106.99 191.6 128.37"/><polygon class="cls-12" points="211.38 240.9 200.19 239.83 201.93 221.98 213.12 223.06 211.38 240.9"/><polygon class="cls-7" points="211.38 240.9 200.19 239.83 201.93 221.98 213.12 223.06 211.38 240.9"/><polygon class="cls-12" points="213.72 203 200.2 205.4 196.59 185.43 210.11 183.03 213.72 203"/><polygon class="cls-7" points="213.72 203 200.2 205.4 196.59 185.43 210.11 183.03 213.72 203"/><polygon class="cls-12" points="204.64 165.02 190.84 169.55 183.67 148.15 197.47 143.62 204.64 165.02"/><polygon class="cls-7" points="204.64 165.02 190.84 169.55 183.67 148.15 197.47 143.62 204.64 165.02"/><path class="cls-13" d="M361.53,343.43,318.82,332l-10.3-42.59,33-35.21,31.26,17q5.42,20.61,10.82,41.22l-22.05,31" transform="translate(-266.38 -115.68)"/><path class="cls-14" d="M361.53,343.43,318.82,332l-10.3-42.59,33-35.21,31.26,17q5.42,20.61,10.82,41.22Z" transform="translate(-266.38 -115.68)"/><g class="cls-15"><g class="cls-16"><polygon class="cls-17" points="99.71 192.58 83.55 210.64 60.44 202.97 53.5 177.25 69.67 159.19 92.77 166.86 99.71 192.58"/><polygon class="cls-18" points="99.71 192.58 83.55 210.64 60.44 202.97 53.5 177.25 69.67 159.19 92.77 166.86 99.71 192.58"/></g></g><g class="cls-19"><g class="cls-20"><line class="cls-21" x1="109.7" y1="208.5" x2="291.01" y2="279.12"/></g></g><path class="cls-22" d="M561.71,396c-.67,2.25-3.57,3.4-6.48,2.55s-4.73-3.35-4.06-5.6,3.56-3.4,6.47-2.56,4.73,3.35,4.07,5.61" transform="translate(-266.38 -115.68)"/><polygon class="cls-22" points="81.92 153.4 72.23 148.55 75.13 142.86 84.82 147.7 81.92 153.4"/><polygon class="cls-22" points="102.25 156.35 99.64 160.83 90.73 155.74 93.34 151.25 102.25 156.35"/><polygon class="cls-22" points="110.03 177.95 106.86 178.66 104.56 168.56 107.73 167.85 110.03 177.95"/><polygon class="cls-22" points="93.75 225.02 89.56 222.21 96.79 211.63 100.97 214.44 93.75 225.02"/><polygon class="cls-22" points="114.56 195.01 109.63 196.11 107.1 185.01 112.03 183.91 114.56 195.01"/><rect class="cls-22" x="47.81" y="171.43" width="4.89" height="9.36"/><rect class="cls-22" x="49.07" y="187.93" width="4.5" height="7.34"/><rect class="cls-22" x="55.55" y="208.36" width="6.32" height="2.1"/><rect class="cls-22" x="74.97" y="214.03" width="3.27" height="3.24"/><polygon class="cls-13" points="112.74 143.59 106.66 154.53 75.65 137.63 81.73 126.68 112.74 143.59"/><polygon class="cls-14" points="112.74 143.59 106.66 154.53 75.65 137.63 81.73 126.68 112.74 143.59"/><polygon class="cls-13" points="105.93 226.2 99.07 221.61 114.61 198.84 121.47 203.44 105.93 226.2"/><polygon class="cls-14" points="105.93 226.2 99.07 221.61 114.61 198.84 121.47 203.44 105.93 226.2"/><polygon class="cls-13" points="134.19 192.18 118.2 196.41 107.3 155.99 123.29 151.76 134.19 192.18"/><polygon class="cls-14" points="134.19 192.18 118.2 196.41 107.3 155.99 123.29 151.76 134.19 192.18"/><polygon class="cls-12" points="143.98 101.94 131.91 111.34 117.05 92.64 129.13 83.23 143.98 101.94"/><polygon class="cls-7" points="143.98 101.94 131.91 111.34 117.05 92.64 129.13 83.23 143.98 101.94"/><polygon class="cls-12" points="163.1 136.07 149.79 143.68 137.78 123.07 151.08 115.47 163.1 136.07"/><polygon class="cls-7" points="163.1 136.07 149.79 143.68 137.78 123.07 151.08 115.47 163.1 136.07"/><polygon class="cls-12" points="179.85 169.72 165.7 175.65 156.34 153.73 170.5 147.81 179.85 169.72"/><polygon class="cls-7" points="179.85 169.72 165.7 175.65 156.34 153.73 170.5 147.81 179.85 169.72"/><polygon class="cls-12" points="189.1 214.48 173.98 217.16 169.74 193.73 184.86 191.05 189.1 214.48"/><polygon class="cls-7" points="189.1 214.48 173.98 217.16 169.74 193.73 184.86 191.05 189.1 214.48"/></g></g><text class="cls-23" transform="translate(261.98 202.49)">Pioneer 10</text></g></g></svg>