<svg xmlns="http://www.w3.org/2000/svg" xmlns:xlink="http://www.w3.org/1999/xlink" viewBox="0 0 243.7 201.61"><defs><style>.cls-1,.cls-12,.cls-13,.cls-14,.cls-16,.cls-17,.cls-18,.cls-19,.cls-5,.cls-6{fill:none;}.cls-2{font-size:16px;fill:#dbb24a;font-family:Rockwell;}.cls-3{letter-spacing:0em;}.cls-4{letter-spacing:0.02em;}.cls-16,.cls-5,.cls-6{stroke:#1d1d1b;}.cls-12,.cls-13,.cls-14,.cls-16,.cls-17,.cls-18,.cls-19,.cls-5,.cls-6{stroke-miterlimit:10;}.cls-12,.cls-13,.cls-14,.cls-19,.cls-5{stroke-width:0.25px;}.cls-7{clip-path:url(#clip-path);}.cls-8{fill:url(#linear-gradient);}.cls-9{clip-path:url(#clip-path-2);}.cls-10{clip-path:url(#clip-path-3);}.cls-11{fill:url(#linear-gradient-2);}.cls-12{stroke:#9d9d9c;}.cls-13{stroke:#706f6f;}.cls-14,.cls-17{stroke:#575756;}.cls-15{fill:#e6d100;}.cls-16,.cls-17{stroke-width:0.5px;}.cls-18,.cls-19{stroke:#ae411d;}.cls-20{opacity:0.83;}.cls-21{clip-path:url(#clip-path-5);}.cls-22{fill:#b34006;}</style><clipPath id="clip-path" transform="translate(-354.09 -214.25)"><path class="cls-1" d="M375.82,340.22c-2.89,9.39,19.05,24.53,49,33.81s56.57,9.2,59.46-.19-19.06-24.53-49-33.81c-14.86-4.61-28.91-6.91-39.64-6.91-10.89,0-18.37,2.37-19.82,7.1"/></clipPath><linearGradient id="linear-gradient" y1="595.29" x2="1" y2="595.29" gradientTransform="matrix(0, -113.56, -113.56, 0, 68029.91, 414.64)" gradientUnits="userSpaceOnUse"><stop offset="0" stop-color="#fff"/><stop offset="0.07" stop-color="#e9e9e9"/><stop offset="0.33" stop-color="#a1a1a1"/><stop offset="0.56" stop-color="#686867"/><stop offset="0.75" stop-color="#3f3f3e"/><stop offset="0.91" stop-color="#262624"/><stop offset="1" stop-color="#1d1d1b"/></linearGradient><clipPath id="clip-path-2" transform="translate(-354.09 -214.25)"><rect class="cls-1" width="841.89" height="595.28"/></clipPath><clipPath id="clip-path-3" transform="translate(-354.09 -214.25)"><polygon class="cls-1" points="375.82 340.22 484.29 373.84 497.41 331.16 388.94 297.54 375.82 340.22"/></clipPath><linearGradient id="linear-gradient-2" y1="595.28" x2="1" y2="595.28" gradientTransform="matrix(0, -113.77, -113.77, 0, 68161.08, 392.58)" gradientUnits="userSpaceOnUse"><stop offset="0" stop-color="#fff"/><stop offset="0.15" stop-color="#d0d0d0"/><stop offset="0.38" stop-color="#919190"/><stop offset="0.58" stop-color="#5f5f5e"/><stop offset="0.76" stop-color="#3b3b39"/><stop offset="0.91" stop-color="#252523"/><stop offset="1" stop-color="#1d1d1b"/></linearGradient><clipPath id="clip-path-5" transform="translate(-354.09 -214.25)"><rect class="cls-1" x="449.29" y="302.11" width="7" height="7"/></clipPath></defs><title>sakigake</title><g id="Layer_2" data-name="Layer 2"><g id="Layer_1-2" data-name="Layer 1"><text class="cls-2" transform="translate(175.73 95.87)"><tspan class="cls-3">S</tspan><tspan x="8.54" y="0">a</tspan><tspan class="cls-4" x="17.03" y="0">k</tspan><tspan x="26.46" y="0">igake</tspan></text><line class="cls-5" x1="140.97" y1="118.7" x2="140.97" y2="118.7"/><line class="cls-6" x1="22.88" y1="155.54" x2="33.53" y2="131.28"/><g class="cls-7"><rect class="cls-8" x="389.05" y="296.21" width="82" height="124.02" transform="translate(-394.27 447.51) rotate(-72.64)"/></g><g class="cls-9"><path class="cls-5" d="M484.29,373.84c-2.89,9.39-29.51,9.48-59.46.19s-51.9-24.42-49-33.81,29.51-9.48,59.46-.19S487.17,364.45,484.29,373.84Z" transform="translate(-354.09 -214.25)"/></g><g class="cls-10"><rect class="cls-11" x="382.06" y="266.28" width="109.11" height="138.82" transform="translate(-368.17 437.97) rotate(-72.64)"/></g><g class="cls-9"><line class="cls-5" x1="130.2" y1="159.59" x2="143.33" y2="116.91"/><line class="cls-5" x1="21.73" y1="125.97" x2="34.86" y2="83.29"/><line class="cls-12" x1="122.08" y1="165.44" x2="134.74" y2="122.17"/><line class="cls-13" x1="110.08" y1="166.7" x2="122.84" y2="123.37"/><line class="cls-13" x1="95.09" y1="165.44" x2="106.21" y2="122.15"/><line class="cls-13" x1="79.18" y1="162.33" x2="90.34" y2="118.88"/><line class="cls-14" x1="63.94" y1="157.03" x2="77.13" y2="114.86"/><path class="cls-12" d="M492.58,346.17a148,148,0,0,1-108.43-33.05" transform="translate(-354.09 -214.25)"/><line class="cls-12" x1="24.09" y1="134.08" x2="39.03" y2="92.54"/><line class="cls-12" x1="33.84" y1="143.12" x2="49.06" y2="101.46"/><line class="cls-12" x1="49.76" y1="151.45" x2="63.19" y2="108.51"/><path class="cls-12" d="M489.22,357.36a157.4,157.4,0,0,1-108.41-33.09" transform="translate(-354.09 -214.25)"/><path class="cls-12" d="M486.41,365.9a148.09,148.09,0,0,1-108.43-33" transform="translate(-354.09 -214.25)"/><path class="cls-12" d="M483.42,374.85a145.48,145.48,0,0,1-60.63-7.19A143.49,143.49,0,0,1,375.24,341" transform="translate(-354.09 -214.25)"/><path class="cls-15" d="M497.65,331.21c-2.62,8.52-29,7.9-59-1.39s-52.12-23.71-49.5-32.23,29-7.89,59,1.39,52.12,23.71,49.5,32.23" transform="translate(-354.09 -214.25)"/><path class="cls-16" d="M497.65,331.21c-2.62,8.52-29,7.9-59-1.39s-52.12-23.71-49.5-32.23,29-7.89,59,1.39S500.27,322.69,497.65,331.21Z" transform="translate(-354.09 -214.25)"/><path class="cls-15" d="M441.65,309.39c.85-2.7,5.2-3.75,9.72-2.34s7.5,4.75,6.66,7.46-5.2,3.75-9.72,2.34-7.5-4.75-6.66-7.46" transform="translate(-354.09 -214.25)"/><path class="cls-17" d="M441.65,309.39c.85-2.7,5.2-3.75,9.72-2.34s7.5,4.75,6.66,7.46-5.2,3.75-9.72,2.34S440.81,312.1,441.65,309.39Z" transform="translate(-354.09 -214.25)"/><line class="cls-14" x1="87.75" y1="97.47" x2="52.87" y2="101.88"/><line class="cls-14" x1="88.57" y1="99.03" x2="67.29" y2="108.91"/><line class="cls-14" x1="92.22" y1="101.87" x2="81.7" y2="114.25"/><line class="cls-14" x1="96.45" y1="103.12" x2="93.96" y2="118.29"/><line class="cls-14" x1="99.07" y1="103.63" x2="108.96" y2="121.29"/><line class="cls-14" x1="102.12" y1="102.34" x2="125.41" y2="122.82"/><line class="cls-14" x1="103.91" y1="100.27" x2="137.22" y2="121.58"/><line class="cls-14" x1="104.41" y1="98.68" x2="141.75" y2="110.71"/><path class="cls-14" d="M441.62,309.41l-47-2.14.12.12" transform="translate(-354.09 -214.25)"/><path class="cls-14" d="M442,308.38l-51.19-12,.11-.13" transform="translate(-354.09 -214.25)"/><line class="cls-14" x1="89.32" y1="93.09" x2="54.21" y2="77.82"/><path class="cls-14" d="M444.64,306.82,426.7,294.2l.15,0" transform="translate(-354.09 -214.25)"/><path class="cls-14" d="M446.79,306.34,440,297.27l.09-.24" transform="translate(-354.09 -214.25)"/><line class="cls-14" x1="95.57" y1="92.29" x2="97.36" y2="86.11"/><line class="cls-14" x1="99.6" y1="93.55" x2="103.53" y2="88.25"/><line class="cls-14" x1="101.81" y1="95.28" x2="110.6" y2="91.05"/><line class="cls-14" x1="102.76" y1="96.25" x2="119.05" y2="94.75"/><line class="cls-14" x1="103.54" y1="97.4" x2="129.35" y2="100.36"/><path class="cls-14" d="M425.24,305.47c1.37-4.38,12.64-4.76,25.16-.85s21.57,10.65,20.2,15-12.64,4.76-25.16.85S423.87,309.86,425.24,305.47Z" transform="translate(-354.09 -214.25)"/><path class="cls-14" d="M408.31,302.93c2.23-7.15,21.11-7.61,42.15-1s36.3,17.71,34.06,24.86-21.11,7.62-42.16,1S406.07,310.08,408.31,302.93Z" transform="translate(-354.09 -214.25)"/><path class="cls-18" d="M496.24,278.92c-1.17,3.17-10.2,27.61-29.32,29.94-20.16,2.46-41.09-21-41.94-43.15-1.18-30.66,36-57.35,56.31-49.61C498.8,222.79,504.85,255.65,496.24,278.92Z" transform="translate(-354.09 -214.25)"/><line class="cls-19" x1="113.15" y1="39.38" x2="86.47" y2="16.5"/><line class="cls-19" x1="110.42" y1="40.71" x2="77.38" y2="28.04"/><line class="cls-19" x1="105.96" y1="45.16" x2="71.8" y2="41.87"/><line class="cls-19" x1="105.3" y1="49.62" x2="71.12" y2="54.44"/><line class="cls-19" x1="106.35" y1="52.18" x2="75.14" y2="68.4"/><line class="cls-19" x1="110.81" y1="54.89" x2="84.01" y2="81.74"/><line class="cls-19" x1="117.38" y1="54.91" x2="94.58" y2="90.48"/><line class="cls-19" x1="121.19" y1="53.8" x2="119.59" y2="92.91"/><path class="cls-19" d="M472.1,252.12q-9.66-15.09-19.34-30.18l-.14.12" transform="translate(-354.09 -214.25)"/><path class="cls-19" d="M474.6,251.89q-2.13-18.48-4.25-37h.37" transform="translate(-354.09 -214.25)"/><line class="cls-19" x1="123.8" y1="38.24" x2="132.9" y2="5.37"/><path class="cls-19" d="M479.94,253.35l15.66-21.21a.58.58,0,0,1,0,.14" transform="translate(-354.09 -214.25)"/><path class="cls-19" d="M482.22,255.09l16.46-10.56.62,0" transform="translate(-354.09 -214.25)"/><line class="cls-19" x1="129.96" y1="43.49" x2="146.05" y2="42.03"/><line class="cls-19" x1="129.53" y1="47.72" x2="145.42" y2="48.75"/><line class="cls-19" x1="127.55" y1="50.03" x2="144.03" y2="56.77"/><line class="cls-19" x1="125.67" y1="51.53" x2="141.18" y2="66.51"/><line class="cls-19" x1="123.59" y1="52.86" x2="135.03" y2="78.53"/><path class="cls-19" d="M469.65,235.19c11-.9,19.67,9.08,19.32,22.29S479.4,282.13,468.38,283s-19.66-9.08-19.31-22.29S458.63,236.09,469.65,235.19Z" transform="translate(-354.09 -214.25)"/><path class="cls-19" d="M466.5,221.52c17.25-1.51,30.72,14.85,30.07,36.54s-15.16,40.49-32.42,42-30.72-14.85-30.07-36.54S449.24,223,466.5,221.52Z" transform="translate(-354.09 -214.25)"/><path class="cls-19" d="M484.27,258.7c.57,4.84-6.82,9.47-12.8,10.46-1.15.19-8.16,1.35-11-2.73a7,7,0,0,1-1.12-4.58c.62-6,8.88-8.65,10.23-9.06a12.61,12.61,0,0,1,8.35-.3C480.16,253.31,483.89,255.51,484.27,258.7Z" transform="translate(-354.09 -214.25)"/><g class="cls-20"><g class="cls-21"><path class="cls-22" d="M452.58,308.91,450,307.43a1.49,1.49,0,0,1-.54-2l1.47-2.55a1.49,1.49,0,0,1,2-.54l2.55,1.47a1.49,1.49,0,0,1,.55,2l-1.48,2.55a1.49,1.49,0,0,1-2,.55" transform="translate(-354.09 -214.25)"/></g></g><line class="cls-6" x1="105.98" y1="166.57" x2="105.98" y2="171.36"/></g></g></g></svg>