<svg xmlns="http://www.w3.org/2000/svg" xmlns:xlink="http://www.w3.org/1999/xlink" viewBox="0 0 397.08 250.9"><defs><style>.cls-1{fill:url(#linear-gradient);}.cls-2{fill:url(#linear-gradient-2);}.cls-3{fill:url(#linear-gradient-3);}.cls-10,.cls-11,.cls-18,.cls-21,.cls-23,.cls-24,.cls-4{fill:none;}.cls-5{font-size:26.63px;fill:#dbb24a;font-family:Rockwell;}.cls-6{letter-spacing:0em;}.cls-7{clip-path:url(#clip-path);}.cls-8{mask:url(#mask);}.cls-9{fill:url(#linear-gradient-4);}.cls-10{stroke:#878787;}.cls-10,.cls-11,.cls-18,.cls-21,.cls-23,.cls-24{stroke-miterlimit:10;}.cls-10,.cls-21{stroke-width:0.25px;}.cls-11{stroke:#706f6f;}.cls-11,.cls-23{stroke-width:0.75px;}.cls-12{clip-path:url(#clip-path-2);}.cls-13{mask:url(#mask-2);}.cls-14{fill:url(#linear-gradient-5);}.cls-15{clip-path:url(#clip-path-3);}.cls-16{fill:url(#linear-gradient-6);}.cls-17{clip-path:url(#clip-path-4);}.cls-18,.cls-21{stroke:#477e25;}.cls-19{fill:#477e25;}.cls-20{fill:#c6c6c6;}.cls-22{fill:#3c3c3b;}.cls-23,.cls-24{stroke:#575756;}.cls-25{clip-path:url(#clip-path-5);}.cls-26{mask:url(#mask-3);}.cls-27{fill:url(#linear-gradient-7);}.cls-28{opacity:0.35;}.cls-29{clip-path:url(#clip-path-7);}.cls-30{clip-path:url(#clip-path-8);}.cls-31{fill:url(#linear-gradient-8);}.cls-32{fill:url(#linear-gradient-9);}.cls-33{opacity:0.14;}.cls-34{clip-path:url(#clip-path-9);}.cls-35{clip-path:url(#clip-path-10);}.cls-36{fill:url(#linear-gradient-10);}.cls-37{fill:url(#linear-gradient-11);}.cls-38{clip-path:url(#clip-path-11);}.cls-39{fill:url(#linear-gradient-12);}.cls-40{fill:url(#linear-gradient-13);}.cls-41{clip-path:url(#clip-path-12);}.cls-42{fill:url(#linear-gradient-14);}.cls-43{fill:url(#linear-gradient-15);}.cls-44{clip-path:url(#clip-path-13);}.cls-45{fill:url(#linear-gradient-16);}.cls-46{fill:url(#linear-gradient-17);}.cls-47{clip-path:url(#clip-path-14);}.cls-48{fill:url(#linear-gradient-18);}.cls-49{fill:url(#linear-gradient-19);}.cls-50{clip-path:url(#clip-path-15);}.cls-51{fill:url(#linear-gradient-20);}.cls-52{fill:url(#linear-gradient-21);}.cls-53{opacity:0.13;}.cls-54{clip-path:url(#clip-path-16);}.cls-55{clip-path:url(#clip-path-17);}.cls-56{fill:url(#linear-gradient-22);}.cls-57{fill:url(#linear-gradient-23);}.cls-58{clip-path:url(#clip-path-18);}.cls-59{fill:url(#linear-gradient-24);}.cls-60{fill:url(#linear-gradient-25);}.cls-61{clip-path:url(#clip-path-19);}.cls-62{fill:url(#linear-gradient-26);}.cls-63{fill:url(#linear-gradient-27);}.cls-64{clip-path:url(#clip-path-20);}.cls-65{fill:url(#linear-gradient-28);}.cls-66{fill:url(#linear-gradient-29);}.cls-67{clip-path:url(#clip-path-21);}.cls-68{fill:url(#linear-gradient-30);}.cls-69{fill:url(#linear-gradient-31);}.cls-70{clip-path:url(#clip-path-22);}.cls-71{fill:url(#linear-gradient-32);}.cls-72{fill:url(#linear-gradient-33);}.cls-73{clip-path:url(#clip-path-23);}.cls-74{clip-path:url(#clip-path-24);}.cls-75{fill:url(#linear-gradient-34);}.cls-76{fill:url(#linear-gradient-35);}.cls-77{clip-path:url(#clip-path-25);}.cls-78{fill:url(#linear-gradient-36);}.cls-79{fill:url(#linear-gradient-37);}.cls-80{clip-path:url(#clip-path-26);}.cls-81{fill:url(#linear-gradient-38);}.cls-82{fill:url(#linear-gradient-39);}.cls-83{clip-path:url(#clip-path-27);}.cls-84{fill:url(#linear-gradient-40);}.cls-85{fill:url(#linear-gradient-41);}.cls-86{clip-path:url(#clip-path-28);}.cls-87{fill:url(#linear-gradient-42);}.cls-88{fill:url(#linear-gradient-43);}.cls-89{clip-path:url(#clip-path-29);}.cls-90{fill:url(#linear-gradient-44);}.cls-91{fill:url(#linear-gradient-45);}.cls-92{clip-path:url(#clip-path-30);}.cls-93{clip-path:url(#clip-path-31);}.cls-94{fill:url(#linear-gradient-46);}.cls-95{fill:url(#linear-gradient-47);}.cls-96{clip-path:url(#clip-path-32);}.cls-97{fill:url(#linear-gradient-48);}.cls-98{fill:url(#linear-gradient-49);}.cls-99{clip-path:url(#clip-path-33);}.cls-100{fill:url(#linear-gradient-50);}.cls-101{fill:url(#linear-gradient-51);}.cls-102{clip-path:url(#clip-path-34);}.cls-103{fill:url(#linear-gradient-52);}.cls-104{fill:url(#linear-gradient-53);}.cls-105{clip-path:url(#clip-path-35);}.cls-106{fill:url(#linear-gradient-54);}.cls-107{fill:url(#linear-gradient-55);}.cls-108{clip-path:url(#clip-path-36);}.cls-109{fill:url(#linear-gradient-56);}.cls-110{fill:url(#linear-gradient-57);}.cls-111{clip-path:url(#clip-path-37);}.cls-112{clip-path:url(#clip-path-38);}.cls-113{fill:url(#linear-gradient-58);}.cls-114{fill:url(#linear-gradient-59);}.cls-115{clip-path:url(#clip-path-39);}.cls-116{fill:url(#linear-gradient-60);}.cls-117{fill:url(#linear-gradient-61);}.cls-118{clip-path:url(#clip-path-40);}.cls-119{fill:url(#linear-gradient-62);}.cls-120{fill:url(#linear-gradient-63);}.cls-121{clip-path:url(#clip-path-41);}.cls-122{fill:url(#linear-gradient-64);}.cls-123{fill:url(#linear-gradient-65);}.cls-124{clip-path:url(#clip-path-42);}.cls-125{fill:url(#linear-gradient-66);}.cls-126{fill:url(#linear-gradient-67);}.cls-127{clip-path:url(#clip-path-43);}.cls-128{fill:url(#linear-gradient-68);}.cls-129{fill:url(#linear-gradient-69);}.cls-130{clip-path:url(#clip-path-44);}.cls-131{clip-path:url(#clip-path-45);}.cls-132{fill:url(#linear-gradient-70);}.cls-133{fill:url(#linear-gradient-71);}.cls-134{clip-path:url(#clip-path-46);}.cls-135{fill:url(#linear-gradient-72);}.cls-136{fill:url(#linear-gradient-73);}.cls-137{clip-path:url(#clip-path-47);}.cls-138{fill:url(#linear-gradient-74);}.cls-139{fill:url(#linear-gradient-75);}.cls-140{clip-path:url(#clip-path-48);}.cls-141{fill:url(#linear-gradient-76);}.cls-142{fill:url(#linear-gradient-77);}.cls-143{clip-path:url(#clip-path-49);}.cls-144{fill:url(#linear-gradient-78);}.cls-145{fill:url(#linear-gradient-79);}.cls-146{clip-path:url(#clip-path-50);}.cls-147{fill:url(#linear-gradient-80);}.cls-148{fill:url(#linear-gradient-81);}.cls-149{clip-path:url(#clip-path-51);}.cls-150{clip-path:url(#clip-path-52);}.cls-151{fill:url(#linear-gradient-82);}.cls-152{fill:url(#linear-gradient-83);}.cls-153{clip-path:url(#clip-path-53);}.cls-154{fill:url(#linear-gradient-84);}.cls-155{fill:url(#linear-gradient-85);}.cls-156{clip-path:url(#clip-path-54);}.cls-157{fill:url(#linear-gradient-86);}.cls-158{fill:url(#linear-gradient-87);}.cls-159{clip-path:url(#clip-path-55);}.cls-160{fill:url(#linear-gradient-88);}.cls-161{fill:url(#linear-gradient-89);}.cls-162{clip-path:url(#clip-path-56);}.cls-163{fill:url(#linear-gradient-90);}.cls-164{fill:url(#linear-gradient-91);}.cls-165{clip-path:url(#clip-path-57);}.cls-166{fill:url(#linear-gradient-92);}.cls-167{fill:url(#linear-gradient-93);}.cls-168{clip-path:url(#clip-path-58);}.cls-169{clip-path:url(#clip-path-59);}.cls-170{fill:url(#linear-gradient-94);}.cls-171{fill:url(#linear-gradient-95);}.cls-172{clip-path:url(#clip-path-60);}.cls-173{fill:url(#linear-gradient-96);}.cls-174{fill:url(#linear-gradient-97);}.cls-175{clip-path:url(#clip-path-61);}.cls-176{fill:url(#linear-gradient-98);}.cls-177{fill:url(#linear-gradient-99);}.cls-178{clip-path:url(#clip-path-62);}.cls-179{fill:url(#linear-gradient-100);}.cls-180{fill:url(#linear-gradient-101);}.cls-181{clip-path:url(#clip-path-63);}.cls-182{fill:url(#linear-gradient-102);}.cls-183{fill:url(#linear-gradient-103);}.cls-184{clip-path:url(#clip-path-64);}.cls-185{fill:url(#linear-gradient-104);}.cls-186{fill:url(#linear-gradient-105);}.cls-187{clip-path:url(#clip-path-65);}.cls-188{clip-path:url(#clip-path-66);}.cls-189{fill:url(#linear-gradient-106);}.cls-190{fill:url(#linear-gradient-107);}.cls-191{clip-path:url(#clip-path-67);}.cls-192{fill:url(#linear-gradient-108);}.cls-193{fill:url(#linear-gradient-109);}.cls-194{clip-path:url(#clip-path-68);}.cls-195{fill:url(#linear-gradient-110);}.cls-196{fill:url(#linear-gradient-111);}.cls-197{clip-path:url(#clip-path-69);}.cls-198{fill:url(#linear-gradient-112);}.cls-199{fill:url(#linear-gradient-113);}.cls-200{clip-path:url(#clip-path-70);}.cls-201{fill:url(#linear-gradient-114);}.cls-202{fill:url(#linear-gradient-115);}.cls-203{clip-path:url(#clip-path-71);}.cls-204{fill:url(#linear-gradient-116);}.cls-205{fill:url(#linear-gradient-117);}.cls-206{clip-path:url(#clip-path-72);}.cls-207{clip-path:url(#clip-path-73);}.cls-208{fill:url(#linear-gradient-118);}.cls-209{fill:url(#linear-gradient-119);}.cls-210{clip-path:url(#clip-path-74);}.cls-211{fill:url(#linear-gradient-120);}.cls-212{fill:url(#linear-gradient-121);}.cls-213{clip-path:url(#clip-path-75);}.cls-214{fill:url(#linear-gradient-122);}.cls-215{fill:url(#linear-gradient-123);}.cls-216{clip-path:url(#clip-path-76);}.cls-217{fill:url(#linear-gradient-124);}.cls-218{fill:url(#linear-gradient-125);}.cls-219{clip-path:url(#clip-path-77);}.cls-220{fill:url(#linear-gradient-126);}.cls-221{fill:url(#linear-gradient-127);}.cls-222{clip-path:url(#clip-path-78);}.cls-223{fill:url(#linear-gradient-128);}.cls-224{fill:url(#linear-gradient-129);}.cls-225{clip-path:url(#clip-path-79);}.cls-226{clip-path:url(#clip-path-80);}.cls-227{fill:url(#linear-gradient-130);}.cls-228{fill:url(#linear-gradient-131);}.cls-229{clip-path:url(#clip-path-81);}.cls-230{fill:url(#linear-gradient-132);}.cls-231{fill:url(#linear-gradient-133);}.cls-232{clip-path:url(#clip-path-82);}.cls-233{fill:url(#linear-gradient-134);}.cls-234{fill:url(#linear-gradient-135);}.cls-235{clip-path:url(#clip-path-83);}.cls-236{fill:url(#linear-gradient-136);}.cls-237{fill:url(#linear-gradient-137);}.cls-238{clip-path:url(#clip-path-84);}.cls-239{fill:url(#linear-gradient-138);}.cls-240{fill:url(#linear-gradient-139);}.cls-241{clip-path:url(#clip-path-85);}.cls-242{fill:url(#linear-gradient-140);}.cls-243{fill:url(#linear-gradient-141);}.cls-244{clip-path:url(#clip-path-86);}.cls-245{clip-path:url(#clip-path-87);}.cls-246{fill:url(#linear-gradient-142);}.cls-247{fill:url(#linear-gradient-143);}.cls-248{clip-path:url(#clip-path-88);}.cls-249{fill:url(#linear-gradient-144);}.cls-250{fill:url(#linear-gradient-145);}.cls-251{clip-path:url(#clip-path-89);}.cls-252{fill:url(#linear-gradient-146);}.cls-253{fill:url(#linear-gradient-147);}.cls-254{clip-path:url(#clip-path-90);}.cls-255{fill:url(#linear-gradient-148);}.cls-256{fill:url(#linear-gradient-149);}.cls-257{clip-path:url(#clip-path-91);}.cls-258{fill:url(#linear-gradient-150);}.cls-259{fill:url(#linear-gradient-151);}.cls-260{clip-path:url(#clip-path-92);}.cls-261{fill:url(#linear-gradient-152);}.cls-262{fill:url(#linear-gradient-153);}</style><linearGradient id="linear-gradient" y1="595.28" x2="1" y2="595.28" gradientTransform="matrix(0, -48.07, -48.07, 0, 29055.24, 305.38)" gradientUnits="userSpaceOnUse"><stop offset="0" stop-color="#fff"/><stop offset="0.12" stop-color="#fbfbfb"/><stop offset="0.24" stop-color="#eee"/><stop offset="0.37" stop-color="#d8d8d8"/><stop offset="0.5" stop-color="#bbb"/><stop offset="0.63" stop-color="#949494"/><stop offset="0.77" stop-color="#656565"/><stop offset="0.9" stop-color="#2e2e2e"/><stop offset="1"/></linearGradient><linearGradient id="linear-gradient-2" y1="595.28" y2="595.28" gradientTransform="matrix(0, -48.03, -48.03, 0, 29032.88, 426.37)" xlink:href="#linear-gradient"/><linearGradient id="linear-gradient-3" y1="595.12" y2="595.12" gradientTransform="matrix(-48.49, 0, 0, 48.49, 443, -28565.11)" xlink:href="#linear-gradient"/><clipPath id="clip-path" transform="translate(-299.08 -210.11)"><polygon class="cls-4" points="417.78 231.63 465.79 231.77 465.64 331.04 417.63 330.89 417.78 231.63"/></clipPath><mask id="mask" x="118.34" y="21.42" width="48.58" height="99.6" maskUnits="userSpaceOnUse"><g transform="translate(-299.08 -210.11)"><rect class="cls-1" x="391.96" y="257.15" width="99.5" height="48.37" transform="translate(159.44 722.45) rotate(-89.88)"/></g></mask><linearGradient id="linear-gradient-4" y1="595.28" x2="1" y2="595.28" gradientTransform="matrix(0, -48.07, -48.07, 0, 29055.24, 305.38)" gradientUnits="userSpaceOnUse"><stop offset="0" stop-color="#575756"/><stop offset="0.18" stop-color="#55595a"/><stop offset="0.38" stop-color="#4f5e67"/><stop offset="0.57" stop-color="#46667c"/><stop offset="0.78" stop-color="#38719a"/><stop offset="0.98" stop-color="#2780c0"/><stop offset="1" stop-color="#2581c4"/></linearGradient><clipPath id="clip-path-2" transform="translate(-299.08 -210.11)"><polygon class="cls-4" points="417.74 343.82 465.68 343.98 465.52 460.88 417.59 460.72 417.74 343.82"/></clipPath><mask id="mask-2" x="118.26" y="133.61" width="48.58" height="117.27" maskUnits="userSpaceOnUse"><g transform="translate(-299.08 -210.11)"><rect class="cls-2" x="383.05" y="378.18" width="117.16" height="48.34" transform="translate(38.35 843.13) rotate(-89.88)"/></g></mask><linearGradient id="linear-gradient-5" y1="595.28" y2="595.28" gradientTransform="matrix(0, -48.03, -48.03, 0, 29032.88, 426.37)" xlink:href="#linear-gradient-4"/><clipPath id="clip-path-3" transform="translate(-299.08 -210.11)"><path class="cls-4" d="M474.77,325.18l-.06,26.95a3.35,3.35,0,0,0,3.34,3.35l87.51.18a3.32,3.32,0,0,0,3.34-3.33l.06-26.95a3.34,3.34,0,0,0-3.33-3.35l-87.51-.18h0a3.34,3.34,0,0,0-3.34,3.33"/></clipPath><linearGradient id="linear-gradient-6" y1="595.28" x2="1" y2="595.28" gradientTransform="matrix(0, -94.19, -141.04, 0, 84477.65, 385.84)" gradientUnits="userSpaceOnUse"><stop offset="0" stop-color="#1d1d1b"/><stop offset="0.19" stop-color="#5a5a59"/><stop offset="0.43" stop-color="#a0a09f"/><stop offset="0.63" stop-color="#d3d3d3"/><stop offset="0.78" stop-color="#f3f3f3"/><stop offset="0.86" stop-color="#fff"/><stop offset="1" stop-color="#fff"/></linearGradient><clipPath id="clip-path-4" transform="translate(-299.08 -210.11)"><rect class="cls-4" width="841.89" height="595.28"/></clipPath><clipPath id="clip-path-5" transform="translate(-299.08 -210.11)"><path class="cls-4" d="M378.7,262.36l45.53,78,41.41-3Q444.07,290,422.49,242.67Z"/></clipPath><mask id="mask-3" x="43.06" y="0" width="160.09" height="162.78" maskUnits="userSpaceOnUse"><g transform="translate(-299.08 -210.11)"><rect class="cls-3" x="362.48" y="229.12" width="119.38" height="124.75" transform="translate(-82.47 199.12) rotate(-24.25)"/></g></mask><linearGradient id="linear-gradient-7" y1="595.12" y2="595.12" gradientTransform="matrix(-48.49, 0, 0, 48.49, 443, -28565.11)" xlink:href="#linear-gradient-4"/><clipPath id="clip-path-7" transform="translate(-299.08 -210.11)"><rect class="cls-4" x="574.48" y="317.6" width="53.96" height="42.31"/></clipPath><clipPath id="clip-path-8" transform="translate(-299.08 -210.11)"><rect class="cls-4" x="574.61" y="317.73" width="53.71" height="42.06"/></clipPath><linearGradient id="linear-gradient-8" y1="595.28" x2="1" y2="595.28" gradientTransform="matrix(53.71, 0, 0, -53.71, 275.53, 32099.49)" gradientUnits="userSpaceOnUse"><stop offset="0" stop-color="#fff"/><stop offset="1" stop-color="#1d1d1b"/></linearGradient><linearGradient id="linear-gradient-9" x1="0" y1="595.28" x2="1" y2="595.28" gradientTransform="matrix(53.96, 0, 0, -53.96, 275.41, 32248.31)" xlink:href="#linear-gradient-8"/><clipPath id="clip-path-9" transform="translate(-299.08 -210.11)"><rect class="cls-4" x="568.97" y="333.62" width="3.35" height="31.09"/></clipPath><clipPath id="clip-path-10" transform="translate(-299.08 -210.11)"><path class="cls-4" d="M571.81,335.09a1.36,1.36,0,1,1-1.37-1.34,1.35,1.35,0,0,1,1.37,1.34"/></clipPath><linearGradient id="linear-gradient-10" x1="0" y1="595.28" x2="1" y2="595.28" gradientTransform="matrix(2.71, 0, 0, -2.71, 569.11, 1949.77)" xlink:href="#linear-gradient-8"/><linearGradient id="linear-gradient-11" y1="595.28" x2="1" y2="595.28" gradientTransform="matrix(2.96, -0.04, -0.04, -2.96, 590.33, 2098.47)" gradientUnits="userSpaceOnUse"><stop offset="0" stop-color="#1d1d1b"/><stop offset="1" stop-color="#fff"/></linearGradient><clipPath id="clip-path-11" transform="translate(-299.08 -210.11)"><path class="cls-4" d="M572,340.53a1.31,1.31,0,1,1-1.32-1.29,1.31,1.31,0,0,1,1.32,1.29"/></clipPath><linearGradient id="linear-gradient-12" x1="0" y1="595.28" x2="1" y2="595.28" gradientTransform="matrix(2.61, 0, 0, -2.61, 569.4, 1893.34)" xlink:href="#linear-gradient-8"/><linearGradient id="linear-gradient-13" y1="595.28" y2="595.28" gradientTransform="matrix(2.86, -0.03, -0.03, -2.86, 589.87, 2042.05)" xlink:href="#linear-gradient-11"/><clipPath id="clip-path-12" transform="translate(-299.08 -210.11)"><path class="cls-4" d="M572.07,346.17a1.31,1.31,0,1,1-2.61,0,1.31,1.31,0,1,1,2.61,0"/></clipPath><linearGradient id="linear-gradient-14" x1="0" y1="595.28" x2="1" y2="595.28" gradientTransform="matrix(2.61, 0, 0, -2.61, 569.46, 1898.97)" xlink:href="#linear-gradient-8"/><linearGradient id="linear-gradient-15" y1="595.28" y2="595.28" gradientTransform="matrix(2.86, -0.03, -0.03, -2.86, 589.94, 2047.68)" xlink:href="#linear-gradient-11"/><clipPath id="clip-path-13" transform="translate(-299.08 -210.11)"><path class="cls-4" d="M572.13,351.74a1.31,1.31,0,1,1-1.32-1.28,1.3,1.3,0,0,1,1.32,1.28"/></clipPath><linearGradient id="linear-gradient-16" x1="0" y1="595.28" x2="1" y2="595.28" gradientTransform="matrix(2.61, 0, 0, -2.61, 569.53, 1904.55)" xlink:href="#linear-gradient-8"/><linearGradient id="linear-gradient-17" y1="595.28" y2="595.28" gradientTransform="matrix(2.86, -0.03, -0.03, -2.86, 590.01, 2053.26)" xlink:href="#linear-gradient-11"/><clipPath id="clip-path-14" transform="translate(-299.08 -210.11)"><path class="cls-4" d="M572.2,357.32a1.31,1.31,0,1,1-1.32-1.28,1.31,1.31,0,0,1,1.32,1.28"/></clipPath><linearGradient id="linear-gradient-18" x1="0" y1="595.28" x2="1" y2="595.28" gradientTransform="matrix(2.61, 0, 0, -2.61, 569.6, 1910.13)" xlink:href="#linear-gradient-8"/><linearGradient id="linear-gradient-19" y1="595.28" y2="595.28" gradientTransform="matrix(2.86, -0.03, -0.03, -2.86, 590.08, 2058.84)" xlink:href="#linear-gradient-11"/><clipPath id="clip-path-15" transform="translate(-299.08 -210.11)"><path class="cls-4" d="M572.1,363.27a1.31,1.31,0,1,1-1.32-1.29,1.31,1.31,0,0,1,1.32,1.29"/></clipPath><linearGradient id="linear-gradient-20" x1="0" y1="595.28" x2="1" y2="595.28" gradientTransform="matrix(2.61, 0, 0, -2.61, 569.49, 1916.08)" xlink:href="#linear-gradient-8"/><linearGradient id="linear-gradient-21" y1="595.28" y2="595.28" gradientTransform="matrix(2.86, -0.03, -0.03, -2.86, 589.98, 2064.79)" xlink:href="#linear-gradient-11"/><clipPath id="clip-path-16" transform="translate(-299.08 -210.11)"><rect class="cls-4" x="569.38" y="311.46" width="31.09" height="3.31"/></clipPath><clipPath id="clip-path-17" transform="translate(-299.08 -210.11)"><path class="cls-4" d="M570.87,311.63a1.36,1.36,0,0,1,1.34,1.38,1.35,1.35,0,0,1-1.37,1.34,1.36,1.36,0,0,1,0-2.72"/></clipPath><linearGradient id="linear-gradient-22" x1="0" y1="595.28" x2="1" y2="595.28" gradientTransform="matrix(2.71, 0, 0, -2.71, 569.51, 1927.65)" xlink:href="#linear-gradient-8"/><linearGradient id="linear-gradient-23" y1="595.28" y2="595.28" gradientTransform="matrix(0.04, -2.96, -2.96, -0.04, 2334.19, 336.16)" xlink:href="#linear-gradient-11"/><clipPath id="clip-path-18" transform="translate(-299.08 -210.11)"><path class="cls-4" d="M576.32,311.58a1.31,1.31,0,1,1-1.32,1.29,1.31,1.31,0,0,1,1.32-1.29"/></clipPath><linearGradient id="linear-gradient-24" x1="0" y1="595.28" x2="1" y2="595.28" gradientTransform="matrix(2.61, 0, 0, -2.61, 574.98, 1865.68)" xlink:href="#linear-gradient-8"/><linearGradient id="linear-gradient-25" y1="595.28" y2="595.28" gradientTransform="matrix(0.04, -2.86, -2.86, -0.04, 2277.77, 335.24)" xlink:href="#linear-gradient-11"/><clipPath id="clip-path-19" transform="translate(-299.08 -210.11)"><path class="cls-4" d="M582,311.65a1.31,1.31,0,1,1-1.32,1.29,1.3,1.3,0,0,1,1.32-1.29"/></clipPath><linearGradient id="linear-gradient-26" x1="0" y1="595.28" x2="1" y2="595.28" gradientTransform="matrix(2.61, 0, 0, -2.61, 580.65, 1865.74)" xlink:href="#linear-gradient-8"/><linearGradient id="linear-gradient-27" y1="595.28" y2="595.28" gradientTransform="matrix(0.04, -2.86, -2.86, -0.04, 2283.4, 335.31)" xlink:href="#linear-gradient-11"/><clipPath id="clip-path-20" transform="translate(-299.08 -210.11)"><path class="cls-4" d="M587.53,311.72a1.31,1.31,0,1,1-1.32,1.29,1.31,1.31,0,0,1,1.32-1.29"/></clipPath><linearGradient id="linear-gradient-28" x1="0" y1="595.28" x2="1" y2="595.28" gradientTransform="matrix(2.61, 0, 0, -2.61, 586.2, 1865.81)" xlink:href="#linear-gradient-8"/><linearGradient id="linear-gradient-29" y1="595.28" y2="595.28" gradientTransform="matrix(0.04, -2.86, -2.86, -0.04, 2288.98, 335.38)" xlink:href="#linear-gradient-11"/><clipPath id="clip-path-21" transform="translate(-299.08 -210.11)"><path class="cls-4" d="M593.11,311.79a1.31,1.31,0,1,1-1.32,1.29,1.31,1.31,0,0,1,1.32-1.29"/></clipPath><linearGradient id="linear-gradient-30" x1="0" y1="595.28" x2="1" y2="595.28" gradientTransform="matrix(2.61, 0, 0, -2.61, 591.81, 1865.88)" xlink:href="#linear-gradient-8"/><linearGradient id="linear-gradient-31" y1="595.28" y2="595.28" gradientTransform="matrix(0.04, -2.86, -2.86, -0.04, 2294.56, 335.44)" xlink:href="#linear-gradient-11"/><clipPath id="clip-path-22" transform="translate(-299.08 -210.11)"><path class="cls-4" d="M599.06,312a1.31,1.31,0,1,1-1.32,1.29,1.3,1.3,0,0,1,1.32-1.29"/></clipPath><linearGradient id="linear-gradient-32" x1="0" y1="595.28" x2="1" y2="595.28" gradientTransform="matrix(2.61, 0, 0, -2.61, 597.76, 1866.13)" xlink:href="#linear-gradient-8"/><linearGradient id="linear-gradient-33" y1="595.28" y2="595.28" gradientTransform="matrix(0.04, -2.86, -2.86, -0.04, 2300.5, 335.69)" xlink:href="#linear-gradient-11"/><clipPath id="clip-path-23" transform="translate(-299.08 -210.11)"><rect class="cls-4" x="603.59" y="311.68" width="31.09" height="3.1"/></clipPath><clipPath id="clip-path-24" transform="translate(-299.08 -210.11)"><path class="cls-4" d="M605.08,311.91a1.36,1.36,0,1,1-1.36,1.35,1.36,1.36,0,0,1,1.36-1.35"/></clipPath><linearGradient id="linear-gradient-34" x1="0" y1="595.28" x2="1" y2="595.28" gradientTransform="matrix(2.71, 0, 0, -2.71, 603.71, 1927.93)" xlink:href="#linear-gradient-8"/><linearGradient id="linear-gradient-35" y1="595.28" y2="595.28" gradientTransform="matrix(0.01, -2.96, -2.96, -0.01, 2368.54, 319.85)" xlink:href="#linear-gradient-11"/><clipPath id="clip-path-25" transform="translate(-299.08 -210.11)"><path class="cls-4" d="M610.52,311.81a1.31,1.31,0,1,1-1.31,1.3,1.3,1.3,0,0,1,1.31-1.3"/></clipPath><linearGradient id="linear-gradient-36" x1="0" y1="595.28" x2="1" y2="595.28" gradientTransform="matrix(2.61, 0, 0, -2.61, 609.21, 1865.9)" xlink:href="#linear-gradient-8"/><linearGradient id="linear-gradient-37" y1="595.28" y2="595.28" gradientTransform="matrix(0.01, -2.86, -2.86, -0.01, 2312.12, 319.46)" xlink:href="#linear-gradient-11"/><clipPath id="clip-path-26" transform="translate(-299.08 -210.11)"><path class="cls-4" d="M616.15,311.82a1.31,1.31,0,1,1,0,2.61,1.31,1.31,0,0,1,0-2.61"/></clipPath><linearGradient id="linear-gradient-38" x1="0" y1="595.28" x2="1" y2="595.28" gradientTransform="matrix(2.61, 0, 0, -2.61, 614.84, 1865.92)" xlink:href="#linear-gradient-8"/><linearGradient id="linear-gradient-39" y1="595.28" y2="595.28" gradientTransform="matrix(0.01, -2.86, -2.86, -0.01, 2317.75, 319.48)" xlink:href="#linear-gradient-11"/><clipPath id="clip-path-27" transform="translate(-299.08 -210.11)"><path class="cls-4" d="M621.73,311.84a1.31,1.31,0,1,1-1.3,1.3,1.3,1.3,0,0,1,1.3-1.3"/></clipPath><linearGradient id="linear-gradient-40" x1="0" y1="595.28" x2="1" y2="595.28" gradientTransform="matrix(2.61, 0, 0, -2.61, 620.42, 1865.93)" xlink:href="#linear-gradient-8"/><linearGradient id="linear-gradient-41" y1="595.28" y2="595.28" gradientTransform="matrix(0.01, -2.86, -2.86, -0.01, 2323.33, 319.49)" xlink:href="#linear-gradient-11"/><clipPath id="clip-path-28" transform="translate(-299.08 -210.11)"><path class="cls-4" d="M627.31,311.86a1.3,1.3,0,1,1-1.3,1.3,1.29,1.29,0,0,1,1.3-1.3"/></clipPath><linearGradient id="linear-gradient-42" x1="0" y1="595.28" x2="1" y2="595.28" gradientTransform="matrix(2.61, 0, 0, -2.61, 626, 1865.95)" xlink:href="#linear-gradient-8"/><linearGradient id="linear-gradient-43" y1="595.28" y2="595.28" gradientTransform="matrix(0.01, -2.86, -2.86, -0.01, 2328.91, 319.51)" xlink:href="#linear-gradient-11"/><clipPath id="clip-path-29" transform="translate(-299.08 -210.11)"><path class="cls-4" d="M633.26,312a1.31,1.31,0,0,1,0,2.61,1.31,1.31,0,0,1,0-2.61"/></clipPath><linearGradient id="linear-gradient-44" x1="0" y1="595.28" x2="1" y2="595.28" gradientTransform="matrix(2.61, 0, 0, -2.61, 631.95, 1866.14)" xlink:href="#linear-gradient-8"/><linearGradient id="linear-gradient-45" y1="595.28" y2="595.28" gradientTransform="matrix(0.01, -2.86, -2.86, -0.01, 2334.85, 319.7)" xlink:href="#linear-gradient-11"/><clipPath id="clip-path-30" transform="translate(-299.08 -210.11)"><rect class="cls-4" x="631.92" y="311.92" width="3.65" height="31.53"/></clipPath><clipPath id="clip-path-31" transform="translate(-299.08 -210.11)"><path class="cls-4" d="M634.76,313.38a1.36,1.36,0,1,1-1.39-1.34,1.36,1.36,0,0,1,1.39,1.34"/></clipPath><linearGradient id="linear-gradient-46" x1="0" y1="595.28" x2="1" y2="595.28" gradientTransform="matrix(2.71, 0, 0, -2.75, 632.03, 1951.08)" xlink:href="#linear-gradient-8"/><linearGradient id="linear-gradient-47" y1="595.28" y2="595.28" gradientTransform="matrix(2.96, -0.08, -0.08, -3, 677.26, 2101.48)" xlink:href="#linear-gradient-11"/><clipPath id="clip-path-32" transform="translate(-299.08 -210.11)"><path class="cls-4" d="M635,318.9a1.31,1.31,0,1,1-1.34-1.29A1.32,1.32,0,0,1,635,318.9"/></clipPath><linearGradient id="linear-gradient-48" x1="0" y1="595.28" x2="1" y2="595.28" gradientTransform="matrix(2.61, 0, 0, -2.65, 632.41, 1893.84)" xlink:href="#linear-gradient-8"/><linearGradient id="linear-gradient-49" y1="595.28" y2="595.28" gradientTransform="matrix(2.86, -0.07, -0.07, -2.9, 676.03, 2044.26)" xlink:href="#linear-gradient-11"/><clipPath id="clip-path-33" transform="translate(-299.08 -210.11)"><path class="cls-4" d="M635.16,324.61a1.32,1.32,0,0,1-1.27,1.36,1.33,1.33,0,1,1,1.27-1.36"/></clipPath><linearGradient id="linear-gradient-50" x1="0" y1="595.28" x2="1" y2="595.28" gradientTransform="matrix(2.61, 0, 0, -2.65, 632.55, 1899.55)" xlink:href="#linear-gradient-8"/><linearGradient id="linear-gradient-51" y1="595.28" y2="595.28" gradientTransform="matrix(2.86, -0.07, -0.07, -2.9, 676.18, 2049.97)" xlink:href="#linear-gradient-11"/><clipPath id="clip-path-34" transform="translate(-299.08 -210.11)"><path class="cls-4" d="M635.31,330.27A1.31,1.31,0,1,1,634,329a1.32,1.32,0,0,1,1.34,1.29"/></clipPath><linearGradient id="linear-gradient-52" x1="0" y1="595.28" x2="1" y2="595.28" gradientTransform="matrix(2.61, 0, 0, -2.65, 632.7, 1905.21)" xlink:href="#linear-gradient-8"/><linearGradient id="linear-gradient-53" y1="595.28" y2="595.28" gradientTransform="matrix(2.86, -0.07, -0.07, -2.9, 676.32, 2055.63)" xlink:href="#linear-gradient-11"/><clipPath id="clip-path-35" transform="translate(-299.08 -210.11)"><path class="cls-4" d="M635.45,335.93a1.3,1.3,0,0,1-1.27,1.35,1.32,1.32,0,1,1,1.27-1.35"/></clipPath><linearGradient id="linear-gradient-54" x1="0" y1="595.28" x2="1" y2="595.28" gradientTransform="matrix(2.61, 0, 0, -2.65, 632.86, 1910.86)" xlink:href="#linear-gradient-8"/><linearGradient id="linear-gradient-55" y1="595.28" y2="595.28" gradientTransform="matrix(2.86, -0.07, -0.07, -2.9, 676.47, 2061.29)" xlink:href="#linear-gradient-11"/><clipPath id="clip-path-36" transform="translate(-299.08 -210.11)"><path class="cls-4" d="M635.43,342a1.31,1.31,0,1,1-1.34-1.29,1.32,1.32,0,0,1,1.34,1.29"/></clipPath><linearGradient id="linear-gradient-56" x1="0" y1="595.28" x2="1" y2="595.28" gradientTransform="matrix(2.61, 0, 0, -2.65, 632.82, 1916.9)" xlink:href="#linear-gradient-8"/><linearGradient id="linear-gradient-57" y1="595.28" y2="595.28" gradientTransform="matrix(2.86, -0.07, -0.07, -2.9, 676.45, 2067.32)" xlink:href="#linear-gradient-11"/><clipPath id="clip-path-37" transform="translate(-299.08 -210.11)"><rect class="cls-4" x="569.21" y="362.04" width="31.09" height="3.31"/></clipPath><clipPath id="clip-path-38" transform="translate(-299.08 -210.11)"><path class="cls-4" d="M570.7,362.22a1.36,1.36,0,1,1-1.37,1.34,1.35,1.35,0,0,1,1.37-1.34"/></clipPath><linearGradient id="linear-gradient-58" x1="0" y1="595.28" x2="1" y2="595.28" gradientTransform="matrix(2.71, 0, 0, -2.71, 569.33, 1978.24)" xlink:href="#linear-gradient-8"/><linearGradient id="linear-gradient-59" y1="595.28" y2="595.28" gradientTransform="matrix(0.04, -2.96, -2.96, -0.04, 2334.02, 386.74)" xlink:href="#linear-gradient-11"/><clipPath id="clip-path-39" transform="translate(-299.08 -210.11)"><path class="cls-4" d="M576.15,362.17a1.3,1.3,0,1,1-1.32,1.28,1.3,1.3,0,0,1,1.32-1.28"/></clipPath><linearGradient id="linear-gradient-60" x1="0" y1="595.28" x2="1" y2="595.28" gradientTransform="matrix(2.61, 0, 0, -2.61, 574.81, 1916.26)" xlink:href="#linear-gradient-8"/><linearGradient id="linear-gradient-61" y1="595.28" y2="595.28" gradientTransform="matrix(0.04, -2.86, -2.86, -0.04, 2277.59, 385.82)" xlink:href="#linear-gradient-11"/><clipPath id="clip-path-40" transform="translate(-299.08 -210.11)"><path class="cls-4" d="M581.78,362.24a1.3,1.3,0,1,1-1.32,1.28,1.3,1.3,0,0,1,1.32-1.28"/></clipPath><linearGradient id="linear-gradient-62" x1="0" y1="595.28" x2="1" y2="595.28" gradientTransform="matrix(2.61, 0, 0, -2.61, 580.45, 1916.33)" xlink:href="#linear-gradient-8"/><linearGradient id="linear-gradient-63" y1="595.28" y2="595.28" gradientTransform="matrix(0.04, -2.86, -2.86, -0.04, 2283.23, 385.89)" xlink:href="#linear-gradient-11"/><clipPath id="clip-path-41" transform="translate(-299.08 -210.11)"><path class="cls-4" d="M587.36,362.3a1.31,1.31,0,1,1-1.32,1.29,1.31,1.31,0,0,1,1.32-1.29"/></clipPath><linearGradient id="linear-gradient-64" x1="0" y1="595.28" x2="1" y2="595.28" gradientTransform="matrix(2.61, 0, 0, -2.61, 586.06, 1916.4)" xlink:href="#linear-gradient-8"/><linearGradient id="linear-gradient-65" y1="595.28" y2="595.28" gradientTransform="matrix(0.04, -2.86, -2.86, -0.04, 2288.81, 385.96)" xlink:href="#linear-gradient-11"/><clipPath id="clip-path-42" transform="translate(-299.08 -210.11)"><path class="cls-4" d="M592.94,362.37a1.31,1.31,0,1,1-1.32,1.29,1.31,1.31,0,0,1,1.32-1.29"/></clipPath><linearGradient id="linear-gradient-66" x1="0" y1="595.28" x2="1" y2="595.28" gradientTransform="matrix(2.61, 0, 0, -2.61, 591.64, 1916.47)" xlink:href="#linear-gradient-8"/><linearGradient id="linear-gradient-67" y1="595.28" y2="595.28" gradientTransform="matrix(0.04, -2.86, -2.86, -0.04, 2294.39, 386.03)" xlink:href="#linear-gradient-11"/><clipPath id="clip-path-43" transform="translate(-299.08 -210.11)"><path class="cls-4" d="M598.89,362.62a1.31,1.31,0,1,1-1.33,1.28,1.3,1.3,0,0,1,1.33-1.28"/></clipPath><linearGradient id="linear-gradient-68" x1="0" y1="595.28" x2="1" y2="595.28" gradientTransform="matrix(2.61, 0, 0, -2.61, 597.55, 1916.71)" xlink:href="#linear-gradient-8"/><linearGradient id="linear-gradient-69" y1="595.28" y2="595.28" gradientTransform="matrix(0.04, -2.86, -2.86, -0.04, 2300.33, 386.27)" xlink:href="#linear-gradient-11"/><clipPath id="clip-path-44" transform="translate(-299.08 -210.11)"><rect class="cls-4" x="603.9" y="362.27" width="31.09" height="3.31"/></clipPath><clipPath id="clip-path-45" transform="translate(-299.08 -210.11)"><path class="cls-4" d="M605.4,362.44a1.36,1.36,0,1,1-1.37,1.34,1.36,1.36,0,0,1,1.37-1.34"/></clipPath><linearGradient id="linear-gradient-70" x1="0" y1="595.28" x2="1" y2="595.28" gradientTransform="matrix(2.71, 0, 0, -2.71, 604, 1978.46)" xlink:href="#linear-gradient-8"/><linearGradient id="linear-gradient-71" y1="595.28" y2="595.28" gradientTransform="matrix(0.04, -2.96, -2.96, -0.04, 2368.72, 386.96)" xlink:href="#linear-gradient-11"/><clipPath id="clip-path-46" transform="translate(-299.08 -210.11)"><path class="cls-4" d="M610.85,362.39a1.31,1.31,0,1,1-1.32,1.29,1.31,1.31,0,0,1,1.32-1.29"/></clipPath><linearGradient id="linear-gradient-72" x1="0" y1="595.28" x2="1" y2="595.28" gradientTransform="matrix(2.61, 0, 0, -2.61, 609.51, 1916.48)" xlink:href="#linear-gradient-8"/><linearGradient id="linear-gradient-73" y1="595.28" y2="595.28" gradientTransform="matrix(0.04, -2.86, -2.86, -0.04, 2312.29, 386.05)" xlink:href="#linear-gradient-11"/><clipPath id="clip-path-47" transform="translate(-299.08 -210.11)"><path class="cls-4" d="M616.48,362.46a1.31,1.31,0,1,1-1.32,1.29,1.31,1.31,0,0,1,1.32-1.29"/></clipPath><linearGradient id="linear-gradient-74" x1="0" y1="595.28" x2="1" y2="595.28" gradientTransform="matrix(2.61, 0, 0, -2.61, 615.14, 1916.55)" xlink:href="#linear-gradient-8"/><linearGradient id="linear-gradient-75" y1="595.28" y2="595.28" gradientTransform="matrix(0.04, -2.86, -2.86, -0.04, 2317.92, 386.12)" xlink:href="#linear-gradient-11"/><clipPath id="clip-path-48" transform="translate(-299.08 -210.11)"><path class="cls-4" d="M622.06,362.53a1.31,1.31,0,1,1-1.32,1.29,1.31,1.31,0,0,1,1.32-1.29"/></clipPath><linearGradient id="linear-gradient-76" x1="0" y1="595.28" x2="1" y2="595.28" gradientTransform="matrix(2.61, 0, 0, -2.61, 620.75, 1916.62)" xlink:href="#linear-gradient-8"/><linearGradient id="linear-gradient-77" y1="595.28" y2="595.28" gradientTransform="matrix(0.04, -2.86, -2.86, -0.04, 2323.5, 386.19)" xlink:href="#linear-gradient-11"/><clipPath id="clip-path-49" transform="translate(-299.08 -210.11)"><path class="cls-4" d="M627.64,362.6a1.31,1.31,0,1,1-1.32,1.29,1.31,1.31,0,0,1,1.32-1.29"/></clipPath><linearGradient id="linear-gradient-78" x1="0" y1="595.28" x2="1" y2="595.28" gradientTransform="matrix(2.61, 0, 0, -2.61, 626.34, 1916.69)" xlink:href="#linear-gradient-8"/><linearGradient id="linear-gradient-79" y1="595.28" y2="595.28" gradientTransform="matrix(0.04, -2.86, -2.86, -0.04, 2329.08, 386.25)" xlink:href="#linear-gradient-11"/><clipPath id="clip-path-50" transform="translate(-299.08 -210.11)"><path class="cls-4" d="M633.58,362.84a1.31,1.31,0,1,1-1.32,1.29,1.31,1.31,0,0,1,1.32-1.29"/></clipPath><linearGradient id="linear-gradient-80" x1="0" y1="595.28" x2="1" y2="595.28" gradientTransform="matrix(2.61, 0, 0, -2.61, 632.25, 1916.94)" xlink:href="#linear-gradient-8"/><linearGradient id="linear-gradient-81" y1="595.28" y2="595.28" gradientTransform="matrix(0.04, -2.86, -2.86, -0.04, 2335.03, 386.5)" xlink:href="#linear-gradient-11"/><clipPath id="clip-path-51" transform="translate(-299.08 -210.11)"><rect class="cls-4" x="569.11" y="311.33" width="3.14" height="31.09"/></clipPath><clipPath id="clip-path-52" transform="translate(-299.08 -210.11)"><path class="cls-4" d="M572,312.81a1.36,1.36,0,1,1-1.36-1.35,1.35,1.35,0,0,1,1.36,1.35"/></clipPath><linearGradient id="linear-gradient-82" x1="0" y1="595.28" x2="1" y2="595.28" gradientTransform="matrix(2.71, 0, 0, -2.71, 569.23, 1927.48)" xlink:href="#linear-gradient-8"/><linearGradient id="linear-gradient-83" y1="595.28" y2="595.28" gradientTransform="matrix(2.96, -0.01, -0.01, -2.96, 573.93, 2076.29)" xlink:href="#linear-gradient-11"/><clipPath id="clip-path-53" transform="translate(-299.08 -210.11)"><path class="cls-4" d="M572.09,318.26a1.31,1.31,0,1,1-2.61,0,1.31,1.31,0,0,1,2.61,0"/></clipPath><linearGradient id="linear-gradient-84" x1="0" y1="595.28" x2="1" y2="595.28" gradientTransform="matrix(2.61, 0, 0, -2.61, 569.48, 1871.05)" xlink:href="#linear-gradient-8"/><linearGradient id="linear-gradient-85" y1="595.28" y2="595.28" gradientTransform="matrix(2.86, -0.01, -0.01, -2.86, 574, 2019.87)" xlink:href="#linear-gradient-11"/><clipPath id="clip-path-54" transform="translate(-299.08 -210.11)"><path class="cls-4" d="M572.1,323.89a1.31,1.31,0,1,1-1.31-1.3,1.31,1.31,0,0,1,1.31,1.3"/></clipPath><linearGradient id="linear-gradient-86" x1="0" y1="595.28" x2="1" y2="595.28" gradientTransform="matrix(2.61, 0, 0, -2.61, 569.5, 1876.68)" xlink:href="#linear-gradient-8"/><linearGradient id="linear-gradient-87" y1="595.28" y2="595.28" gradientTransform="matrix(2.86, -0.01, -0.01, -2.86, 574.01, 2025.5)" xlink:href="#linear-gradient-11"/><clipPath id="clip-path-55" transform="translate(-299.08 -210.11)"><path class="cls-4" d="M572.12,329.47a1.31,1.31,0,1,1-1.31-1.3,1.31,1.31,0,0,1,1.31,1.3"/></clipPath><linearGradient id="linear-gradient-88" x1="0" y1="595.28" x2="1" y2="595.28" gradientTransform="matrix(2.61, 0, 0, -2.61, 569.51, 1882.26)" xlink:href="#linear-gradient-8"/><linearGradient id="linear-gradient-89" y1="595.28" y2="595.28" gradientTransform="matrix(2.86, -0.01, -0.01, -2.86, 574.03, 2031.08)" xlink:href="#linear-gradient-11"/><clipPath id="clip-path-56" transform="translate(-299.08 -210.11)"><path class="cls-4" d="M572.13,335.05a1.31,1.31,0,1,1-1.3-1.3,1.3,1.3,0,0,1,1.3,1.3"/></clipPath><linearGradient id="linear-gradient-90" x1="0" y1="595.28" x2="1" y2="595.28" gradientTransform="matrix(2.61, 0, 0, -2.61, 569.53, 1887.84)" xlink:href="#linear-gradient-8"/><linearGradient id="linear-gradient-91" y1="595.28" y2="595.28" gradientTransform="matrix(2.86, -0.01, -0.01, -2.86, 574.04, 2036.66)" xlink:href="#linear-gradient-11"/><clipPath id="clip-path-57" transform="translate(-299.08 -210.11)"><path class="cls-4" d="M572,341a1.31,1.31,0,1,1-1.31-1.3A1.3,1.3,0,0,1,572,341"/></clipPath><linearGradient id="linear-gradient-92" x1="0" y1="595.28" x2="1" y2="595.28" gradientTransform="matrix(2.61, 0, 0, -2.61, 569.37, 1893.79)" xlink:href="#linear-gradient-8"/><linearGradient id="linear-gradient-93" y1="595.28" y2="595.28" gradientTransform="matrix(2.86, -0.01, -0.01, -2.86, 573.89, 2042.61)" xlink:href="#linear-gradient-11"/><clipPath id="clip-path-58" transform="translate(-299.08 -210.11)"><rect class="cls-4" x="632.54" y="334.53" width="3.55" height="30.81"/></clipPath><clipPath id="clip-path-59" transform="translate(-299.08 -210.11)"><path class="cls-4" d="M635.92,336a1.39,1.39,0,0,1-1.46,1.33,1.35,1.35,0,1,1,0-2.69,1.39,1.39,0,0,1,1.42,1.36"/></clipPath><linearGradient id="linear-gradient-94" x1="0" y1="595.28" x2="1" y2="595.28" gradientTransform="matrix(0, 2.88, 2.69, 0, -965.62, 334.58)" xlink:href="#linear-gradient-8"/><linearGradient id="linear-gradient-95" y1="595.28" y2="595.28" gradientTransform="matrix(3.15, 0.05, 0.04, -2.94, 606.2, 2083.36)" xlink:href="#linear-gradient-11"/><clipPath id="clip-path-60" transform="translate(-299.08 -210.11)"><path class="cls-4" d="M636,341.42a1.39,1.39,0,1,1-1.37-1.31,1.35,1.35,0,0,1,1.37,1.31"/></clipPath><linearGradient id="linear-gradient-96" x1="0" y1="595.28" x2="1" y2="595.28" gradientTransform="matrix(0, 2.77, 2.58, 0, -904.21, 340.02)" xlink:href="#linear-gradient-8"/><linearGradient id="linear-gradient-97" y1="595.28" y2="595.28" gradientTransform="matrix(3.04, 0.05, 0.04, -2.83, 607.29, 2027.44)" xlink:href="#linear-gradient-11"/><clipPath id="clip-path-61" transform="translate(-299.08 -210.11)"><path class="cls-4" d="M635.88,347a1.39,1.39,0,1,1-1.36-1.32,1.34,1.34,0,0,1,1.36,1.32"/></clipPath><linearGradient id="linear-gradient-98" x1="0" y1="595.28" x2="1" y2="595.28" gradientTransform="matrix(0, 2.77, 2.58, 0, -904.29, 345.6)" xlink:href="#linear-gradient-8"/><linearGradient id="linear-gradient-99" y1="595.28" y2="595.28" gradientTransform="matrix(3.04, 0.05, 0.04, -2.83, 607.2, 2033.03)" xlink:href="#linear-gradient-11"/><clipPath id="clip-path-62" transform="translate(-299.08 -210.11)"><path class="cls-4" d="M635.8,352.54a1.39,1.39,0,1,1-1.37-1.32,1.34,1.34,0,0,1,1.37,1.32"/></clipPath><linearGradient id="linear-gradient-100" x1="0" y1="595.28" x2="1" y2="595.28" gradientTransform="matrix(0, 2.77, 2.58, 0, -904.38, 351.13)" xlink:href="#linear-gradient-8"/><linearGradient id="linear-gradient-101" y1="595.28" y2="595.28" gradientTransform="matrix(3.04, 0.05, 0.04, -2.83, 607.12, 2038.56)" xlink:href="#linear-gradient-11"/><clipPath id="clip-path-63" transform="translate(-299.08 -210.11)"><path class="cls-4" d="M635.71,358.06a1.39,1.39,0,0,1-2.77,0,1.39,1.39,0,0,1,2.77,0"/></clipPath><linearGradient id="linear-gradient-102" x1="0" y1="595.28" x2="1" y2="595.28" gradientTransform="matrix(0, 2.77, 2.58, 0, -904.46, 356.66)" xlink:href="#linear-gradient-8"/><linearGradient id="linear-gradient-103" y1="595.28" y2="595.28" gradientTransform="matrix(3.04, 0.05, 0.04, -2.83, 607.03, 2044.08)" xlink:href="#linear-gradient-11"/><clipPath id="clip-path-64" transform="translate(-299.08 -210.11)"><path class="cls-4" d="M635.44,364a1.39,1.39,0,1,1-1.36-1.31,1.33,1.33,0,0,1,1.36,1.31"/></clipPath><linearGradient id="linear-gradient-104" x1="0" y1="595.28" x2="1" y2="595.28" gradientTransform="matrix(0, 2.77, 2.58, 0, -904.73, 362.54)" xlink:href="#linear-gradient-8"/><linearGradient id="linear-gradient-105" y1="595.28" y2="595.28" gradientTransform="matrix(3.04, 0.05, 0.04, -2.83, 606.76, 2049.97)" xlink:href="#linear-gradient-11"/><clipPath id="clip-path-65" transform="translate(-299.08 -210.11)"><rect class="cls-4" x="368.53" y="328.62" width="31.09" height="3.31"/></clipPath><clipPath id="clip-path-66" transform="translate(-299.08 -210.11)"><path class="cls-4" d="M370,328.8a1.36,1.36,0,1,1-1.37,1.34A1.35,1.35,0,0,1,370,328.8"/></clipPath><linearGradient id="linear-gradient-106" x1="0" y1="595.28" x2="1" y2="595.28" gradientTransform="matrix(2.71, 0, 0, -2.71, 368.66, 1944.82)" xlink:href="#linear-gradient-8"/><linearGradient id="linear-gradient-107" y1="595.28" y2="595.28" gradientTransform="matrix(0.04, -2.96, -2.96, -0.04, 2133.35, 353.32)" xlink:href="#linear-gradient-11"/><clipPath id="clip-path-67" transform="translate(-299.08 -210.11)"><path class="cls-4" d="M375.48,328.75a1.31,1.31,0,1,1-1.32,1.29,1.31,1.31,0,0,1,1.32-1.29"/></clipPath><linearGradient id="linear-gradient-108" x1="0" y1="595.28" x2="1" y2="595.28" gradientTransform="matrix(2.61, 0, 0, -2.61, 374.16, 1882.84)" xlink:href="#linear-gradient-8"/><linearGradient id="linear-gradient-109" y1="595.28" y2="595.28" gradientTransform="matrix(0.04, -2.86, -2.86, -0.04, 2076.92, 352.4)" xlink:href="#linear-gradient-11"/><clipPath id="clip-path-68" transform="translate(-299.08 -210.11)"><path class="cls-4" d="M381.11,328.82a1.31,1.31,0,1,1-1.32,1.29,1.31,1.31,0,0,1,1.32-1.29"/></clipPath><linearGradient id="linear-gradient-110" x1="0" y1="595.28" x2="1" y2="595.28" gradientTransform="matrix(2.61, 0, 0, -2.61, 379.79, 1882.91)" xlink:href="#linear-gradient-8"/><linearGradient id="linear-gradient-111" y1="595.28" y2="595.28" gradientTransform="matrix(0.04, -2.86, -2.86, -0.04, 2082.56, 352.47)" xlink:href="#linear-gradient-11"/><clipPath id="clip-path-69" transform="translate(-299.08 -210.11)"><path class="cls-4" d="M386.69,328.89a1.3,1.3,0,1,1-1.32,1.28,1.3,1.3,0,0,1,1.32-1.28"/></clipPath><linearGradient id="linear-gradient-112" x1="0" y1="595.28" x2="1" y2="595.28" gradientTransform="matrix(2.61, 0, 0, -2.61, 385.37, 1882.98)" xlink:href="#linear-gradient-8"/><linearGradient id="linear-gradient-113" y1="595.28" y2="595.28" gradientTransform="matrix(0.04, -2.86, -2.86, -0.04, 2088.14, 352.54)" xlink:href="#linear-gradient-11"/><clipPath id="clip-path-70" transform="translate(-299.08 -210.11)"><path class="cls-4" d="M392.27,329a1.31,1.31,0,1,1-1.32,1.29,1.31,1.31,0,0,1,1.32-1.29"/></clipPath><linearGradient id="linear-gradient-114" x1="0" y1="595.28" x2="1" y2="595.28" gradientTransform="matrix(2.61, 0, 0, -2.61, 390.95, 1883.05)" xlink:href="#linear-gradient-8"/><linearGradient id="linear-gradient-115" y1="595.28" y2="595.28" gradientTransform="matrix(0.04, -2.86, -2.86, -0.04, 2093.71, 352.61)" xlink:href="#linear-gradient-11"/><clipPath id="clip-path-71" transform="translate(-299.08 -210.11)"><path class="cls-4" d="M398.21,329.2a1.31,1.31,0,1,1-1.32,1.29,1.31,1.31,0,0,1,1.32-1.29"/></clipPath><linearGradient id="linear-gradient-116" x1="0" y1="595.28" x2="1" y2="595.28" gradientTransform="matrix(2.61, 0, 0, -2.61, 396.9, 1883.29)" xlink:href="#linear-gradient-8"/><linearGradient id="linear-gradient-117" y1="595.28" y2="595.28" gradientTransform="matrix(0.04, -2.86, -2.86, -0.04, 2099.66, 352.86)" xlink:href="#linear-gradient-11"/><clipPath id="clip-path-72" transform="translate(-299.08 -210.11)"><rect class="cls-4" x="408.17" y="342.33" width="31.09" height="3.31"/></clipPath><clipPath id="clip-path-73" transform="translate(-299.08 -210.11)"><path class="cls-4" d="M409.67,342.51a1.36,1.36,0,1,1-1.38,1.34,1.35,1.35,0,0,1,1.38-1.34"/></clipPath><linearGradient id="linear-gradient-118" x1="0" y1="595.28" x2="1" y2="595.28" gradientTransform="matrix(2.71, 0, 0, -2.71, 408.29, 1958.53)" xlink:href="#linear-gradient-8"/><linearGradient id="linear-gradient-119" y1="595.28" y2="595.28" gradientTransform="matrix(0.04, -2.96, -2.96, -0.04, 2172.98, 367.03)" xlink:href="#linear-gradient-11"/><clipPath id="clip-path-74" transform="translate(-299.08 -210.11)"><path class="cls-4" d="M415.11,342.45a1.31,1.31,0,1,1-1.32,1.29,1.31,1.31,0,0,1,1.32-1.29"/></clipPath><linearGradient id="linear-gradient-120" x1="0" y1="595.28" x2="1" y2="595.28" gradientTransform="matrix(2.61, 0, 0, -2.61, 413.79, 1896.55)" xlink:href="#linear-gradient-8"/><linearGradient id="linear-gradient-121" y1="595.28" y2="595.28" gradientTransform="matrix(0.04, -2.86, -2.86, -0.04, 2116.56, 366.11)" xlink:href="#linear-gradient-11"/><clipPath id="clip-path-75" transform="translate(-299.08 -210.11)"><path class="cls-4" d="M420.75,342.52a1.31,1.31,0,1,1-1.32,1.29,1.3,1.3,0,0,1,1.32-1.29"/></clipPath><linearGradient id="linear-gradient-122" x1="0" y1="595.28" x2="1" y2="595.28" gradientTransform="matrix(2.61, 0, 0, -2.61, 419.43, 1896.62)" xlink:href="#linear-gradient-8"/><linearGradient id="linear-gradient-123" y1="595.28" y2="595.28" gradientTransform="matrix(0.04, -2.86, -2.86, -0.04, 2122.19, 366.18)" xlink:href="#linear-gradient-11"/><clipPath id="clip-path-76" transform="translate(-299.08 -210.11)"><path class="cls-4" d="M426.33,342.59a1.31,1.31,0,1,1-1.32,1.29,1.3,1.3,0,0,1,1.32-1.29"/></clipPath><linearGradient id="linear-gradient-124" x1="0" y1="595.28" x2="1" y2="595.28" gradientTransform="matrix(2.61, 0, 0, -2.61, 425.01, 1896.69)" xlink:href="#linear-gradient-8"/><linearGradient id="linear-gradient-125" y1="595.28" y2="595.28" gradientTransform="matrix(0.04, -2.86, -2.86, -0.04, 2127.77, 366.25)" xlink:href="#linear-gradient-11"/><clipPath id="clip-path-77" transform="translate(-299.08 -210.11)"><path class="cls-4" d="M431.9,342.66a1.31,1.31,0,1,1-1.32,1.29,1.3,1.3,0,0,1,1.32-1.29"/></clipPath><linearGradient id="linear-gradient-126" x1="0" y1="595.28" x2="1" y2="595.28" gradientTransform="matrix(2.61, 0, 0, -2.61, 430.58, 1896.75)" xlink:href="#linear-gradient-8"/><linearGradient id="linear-gradient-127" y1="595.28" y2="595.28" gradientTransform="matrix(0.04, -2.86, -2.86, -0.04, 2133.35, 366.32)" xlink:href="#linear-gradient-11"/><clipPath id="clip-path-78" transform="translate(-299.08 -210.11)"><path class="cls-4" d="M437.85,342.91a1.3,1.3,0,1,1-1.32,1.28,1.31,1.31,0,0,1,1.32-1.28"/></clipPath><linearGradient id="linear-gradient-128" x1="0" y1="595.28" x2="1" y2="595.28" gradientTransform="matrix(2.61, 0, 0, -2.61, 436.53, 1897)" xlink:href="#linear-gradient-8"/><linearGradient id="linear-gradient-129" y1="595.28" y2="595.28" gradientTransform="matrix(0.04, -2.86, -2.86, -0.04, 2139.29, 366.56)" xlink:href="#linear-gradient-11"/><clipPath id="clip-path-79" transform="translate(-299.08 -210.11)"><rect class="cls-4" x="310.39" y="342.07" width="31.09" height="3.31"/></clipPath><clipPath id="clip-path-80" transform="translate(-299.08 -210.11)"><path class="cls-4" d="M311.89,342.25a1.36,1.36,0,1,1-1.38,1.34,1.36,1.36,0,0,1,1.38-1.34"/></clipPath><linearGradient id="linear-gradient-130" x1="0" y1="595.28" x2="1" y2="595.28" gradientTransform="matrix(2.71, 0, 0, -2.71, 310.53, 1958.27)" xlink:href="#linear-gradient-8"/><linearGradient id="linear-gradient-131" y1="595.28" y2="595.28" gradientTransform="matrix(0.04, -2.96, -2.96, -0.04, 2075.2, 366.77)" xlink:href="#linear-gradient-11"/><clipPath id="clip-path-81" transform="translate(-299.08 -210.11)"><path class="cls-4" d="M317.33,342.2a1.31,1.31,0,1,1-1.32,1.29,1.31,1.31,0,0,1,1.32-1.29"/></clipPath><linearGradient id="linear-gradient-132" x1="0" y1="595.28" x2="1" y2="595.28" gradientTransform="matrix(2.61, 0, 0, -2.61, 316.02, 1896.29)" xlink:href="#linear-gradient-8"/><linearGradient id="linear-gradient-133" y1="595.28" y2="595.28" gradientTransform="matrix(0.04, -2.86, -2.86, -0.04, 2018.78, 365.85)" xlink:href="#linear-gradient-11"/><clipPath id="clip-path-82" transform="translate(-299.08 -210.11)"><path class="cls-4" d="M323,342.27a1.31,1.31,0,1,1,0,2.61,1.31,1.31,0,0,1,0-2.61"/></clipPath><linearGradient id="linear-gradient-134" x1="0" y1="595.28" x2="1" y2="595.28" gradientTransform="matrix(2.61, 0, 0, -2.61, 321.65, 1896.36)" xlink:href="#linear-gradient-8"/><linearGradient id="linear-gradient-135" y1="595.28" y2="595.28" gradientTransform="matrix(0.04, -2.86, -2.86, -0.04, 2024.41, 365.92)" xlink:href="#linear-gradient-11"/><clipPath id="clip-path-83" transform="translate(-299.08 -210.11)"><path class="cls-4" d="M328.55,342.34a1.31,1.31,0,1,1-1.32,1.28,1.3,1.3,0,0,1,1.32-1.28"/></clipPath><linearGradient id="linear-gradient-136" x1="0" y1="595.28" x2="1" y2="595.28" gradientTransform="matrix(2.61, 0, 0, -2.61, 327.23, 1896.43)" xlink:href="#linear-gradient-8"/><linearGradient id="linear-gradient-137" y1="595.28" y2="595.28" gradientTransform="matrix(0.04, -2.86, -2.86, -0.04, 2029.99, 365.99)" xlink:href="#linear-gradient-11"/><clipPath id="clip-path-84" transform="translate(-299.08 -210.11)"><path class="cls-4" d="M334.13,342.4a1.31,1.31,0,1,1-1.33,1.29,1.31,1.31,0,0,1,1.33-1.29"/></clipPath><linearGradient id="linear-gradient-138" x1="0" y1="595.28" x2="1" y2="595.28" gradientTransform="matrix(2.61, 0, 0, -2.61, 332.81, 1896.5)" xlink:href="#linear-gradient-8"/><linearGradient id="linear-gradient-139" y1="595.28" y2="595.28" gradientTransform="matrix(0.04, -2.86, -2.86, -0.04, 2035.57, 366.06)" xlink:href="#linear-gradient-11"/><clipPath id="clip-path-85" transform="translate(-299.08 -210.11)"><path class="cls-4" d="M340.07,342.65a1.31,1.31,0,1,1-1.32,1.29,1.31,1.31,0,0,1,1.32-1.29"/></clipPath><linearGradient id="linear-gradient-140" x1="0" y1="595.28" x2="1" y2="595.28" gradientTransform="matrix(2.61, 0, 0, -2.61, 338.75, 1896.74)" xlink:href="#linear-gradient-8"/><linearGradient id="linear-gradient-141" y1="595.28" y2="595.28" gradientTransform="matrix(0.04, -2.86, -2.86, -0.04, 2041.51, 366.31)" xlink:href="#linear-gradient-11"/><clipPath id="clip-path-86" transform="translate(-299.08 -210.11)"><rect class="cls-4" x="310.39" y="336.5" width="31.09" height="3.31"/></clipPath><clipPath id="clip-path-87" transform="translate(-299.08 -210.11)"><path class="cls-4" d="M311.89,336.67a1.36,1.36,0,1,1-1.37,1.34,1.35,1.35,0,0,1,1.37-1.34"/></clipPath><linearGradient id="linear-gradient-142" x1="0" y1="595.28" x2="1" y2="595.28" gradientTransform="matrix(2.71, 0, 0, -2.71, 310.52, 1952.69)" xlink:href="#linear-gradient-8"/><linearGradient id="linear-gradient-143" y1="595.28" y2="595.28" gradientTransform="matrix(0.04, -2.96, -2.96, -0.04, 2075.2, 361.19)" xlink:href="#linear-gradient-11"/><clipPath id="clip-path-88" transform="translate(-299.08 -210.11)"><path class="cls-4" d="M317.34,336.62a1.31,1.31,0,1,1,0,2.61,1.31,1.31,0,0,1,0-2.61"/></clipPath><linearGradient id="linear-gradient-144" x1="0" y1="595.28" x2="1" y2="595.28" gradientTransform="matrix(2.61, 0, 0, -2.61, 316.02, 1890.71)" xlink:href="#linear-gradient-8"/><linearGradient id="linear-gradient-145" y1="595.28" y2="595.28" gradientTransform="matrix(0.04, -2.86, -2.86, -0.04, 2018.78, 360.28)" xlink:href="#linear-gradient-11"/><clipPath id="clip-path-89" transform="translate(-299.08 -210.11)"><path class="cls-4" d="M323,336.69a1.31,1.31,0,1,1-1.32,1.29,1.31,1.31,0,0,1,1.32-1.29"/></clipPath><linearGradient id="linear-gradient-146" x1="0" y1="595.28" x2="1" y2="595.28" gradientTransform="matrix(2.61, 0, 0, -2.61, 321.65, 1890.78)" xlink:href="#linear-gradient-8"/><linearGradient id="linear-gradient-147" y1="595.28" y2="595.28" gradientTransform="matrix(0.04, -2.86, -2.86, -0.04, 2024.41, 360.35)" xlink:href="#linear-gradient-11"/><clipPath id="clip-path-90" transform="translate(-299.08 -210.11)"><path class="cls-4" d="M328.55,336.76a1.31,1.31,0,1,1-1.32,1.29,1.31,1.31,0,0,1,1.32-1.29"/></clipPath><linearGradient id="linear-gradient-148" x1="0" y1="595.28" x2="1" y2="595.28" gradientTransform="matrix(2.61, 0, 0, -2.61, 327.23, 1890.85)" xlink:href="#linear-gradient-8"/><linearGradient id="linear-gradient-149" y1="595.28" y2="595.28" gradientTransform="matrix(0.04, -2.86, -2.86, -0.04, 2029.99, 360.41)" xlink:href="#linear-gradient-11"/><clipPath id="clip-path-91" transform="translate(-299.08 -210.11)"><path class="cls-4" d="M334.13,336.83a1.31,1.31,0,1,1-1.32,1.29,1.31,1.31,0,0,1,1.32-1.29"/></clipPath><linearGradient id="linear-gradient-150" x1="0" y1="595.28" x2="1" y2="595.28" gradientTransform="matrix(2.61, 0, 0, -2.61, 332.81, 1890.92)" xlink:href="#linear-gradient-8"/><linearGradient id="linear-gradient-151" y1="595.28" y2="595.28" gradientTransform="matrix(0.04, -2.86, -2.86, -0.04, 2035.57, 360.48)" xlink:href="#linear-gradient-11"/><clipPath id="clip-path-92" transform="translate(-299.08 -210.11)"><path class="cls-4" d="M340.07,337.07a1.31,1.31,0,1,1-1.32,1.29,1.31,1.31,0,0,1,1.32-1.29"/></clipPath><linearGradient id="linear-gradient-152" x1="0" y1="595.28" x2="1" y2="595.28" gradientTransform="matrix(2.61, 0, 0, -2.61, 338.75, 1891.17)" xlink:href="#linear-gradient-8"/><linearGradient id="linear-gradient-153" y1="595.28" y2="595.28" gradientTransform="matrix(0.04, -2.86, -2.86, -0.04, 2041.51, 360.73)" xlink:href="#linear-gradient-11"/></defs><title>salyut4</title><g id="Layer_2" data-name="Layer 2"><g id="Layer_1-2" data-name="Layer 1"><text class="cls-5" transform="translate(301.87 63.73) scale(1 1.12)"><tspan class="cls-6">S</tspan><tspan x="14.19" y="0">alyut 4</tspan></text><g class="cls-7"><g class="cls-8"><rect class="cls-9" x="391.96" y="257.15" width="99.5" height="48.37" transform="translate(-139.64 512.33) rotate(-89.88)"/></g></g><polygon class="cls-10" points="118.7 21.52 166.71 21.66 166.56 120.92 118.55 120.78 118.7 21.52"/><line class="cls-11" x1="129.25" y1="120.81" x2="129.33" y2="21.55"/><line class="cls-11" x1="153.89" y1="120.91" x2="153.98" y2="22.09"/><line class="cls-11" x1="160.11" y1="121.03" x2="160.19" y2="22.24"/><line class="cls-11" x1="135.74" y1="120.83" x2="135.83" y2="21.57"/><line class="cls-11" x1="148.08" y1="120.87" x2="148.17" y2="21.54"/><line class="cls-11" x1="123.4" y1="120.8" x2="123.49" y2="21.52"/><line class="cls-11" x1="141.39" y1="120.85" x2="141.48" y2="21.52"/><line class="cls-11" x1="166.52" y1="110.85" x2="118.71" y2="109.03"/><line class="cls-11" x1="166.53" y1="99.97" x2="118.72" y2="98.64"/><line class="cls-11" x1="166.61" y1="87.3" x2="118.81" y2="85.97"/><line class="cls-11" x1="166.55" y1="76.12" x2="118.74" y2="74.43"/><line class="cls-11" x1="166.56" y1="63.73" x2="118.75" y2="62.57"/><line class="cls-11" x1="166.5" y1="31.01" x2="118.69" y2="29.85"/><line class="cls-11" x1="166.58" y1="41.49" x2="118.77" y2="40.33"/><line class="cls-11" x1="166.51" y1="52.3" x2="118.76" y2="51.14"/><g class="cls-12"><g class="cls-13"><rect class="cls-14" x="383.05" y="378.18" width="117.16" height="48.34" transform="translate(-260.73 633.02) rotate(-89.88)"/></g></g><polygon class="cls-10" points="118.66 133.71 166.6 133.87 166.45 250.77 118.51 250.61 118.66 133.71"/><line class="cls-11" x1="129.19" y1="250.64" x2="129.28" y2="132.6"/><line class="cls-11" x1="153.8" y1="250.76" x2="153.88" y2="134.38"/><line class="cls-11" x1="160.01" y1="250.9" x2="160.09" y2="134.55"/><line class="cls-11" x1="135.68" y1="250.66" x2="135.76" y2="132.89"/><line class="cls-11" x1="148" y1="250.71" x2="148.08" y2="133.73"/><line class="cls-11" x1="123.36" y1="250.62" x2="123.44" y2="132.06"/><line class="cls-11" x1="141.32" y1="250.68" x2="141.41" y2="133.42"/><line class="cls-11" x1="166.41" y1="238.91" x2="118.67" y2="236.77"/><line class="cls-11" x1="166.41" y1="226.1" x2="118.68" y2="224.53"/><line class="cls-11" x1="166.5" y1="211.18" x2="118.77" y2="209.6"/><line class="cls-11" x1="166.43" y1="198.01" x2="118.7" y2="196.02"/><line class="cls-11" x1="166.45" y1="183.42" x2="118.71" y2="182.04"/><line class="cls-11" x1="166.38" y1="144.89" x2="118.65" y2="143.51"/><line class="cls-11" x1="166.46" y1="157.23" x2="118.73" y2="155.86"/><line class="cls-11" x1="166.39" y1="169.96" x2="118.72" y2="168.59"/><g class="cls-15"><rect class="cls-16" x="504.83" y="291.59" width="34.02" height="94.33" transform="translate(-117.1 649.76) rotate(-89.88)"/></g><g class="cls-17"><path class="cls-18" d="M478.12,321.85l87.51.18a3.34,3.34,0,0,1,3.33,3.35l-.06,26.95a3.32,3.32,0,0,1-3.34,3.33l-87.51-.18a3.35,3.35,0,0,1-3.34-3.35l.06-26.95A3.33,3.33,0,0,1,478.12,321.85Z" transform="translate(-299.08 -210.11)"/><path class="cls-19" d="M571,309.88l61,.12a5.92,5.92,0,0,1,5.91,5.94l-.09,45.78a5.93,5.93,0,0,1-5.94,5.91l-61-.12a5.93,5.93,0,0,1-5.91-5.94l.1-45.79a5.91,5.91,0,0,1,5.93-5.9" transform="translate(-299.08 -210.11)"/><path class="cls-19" d="M409.06,325.9l65,.14a2.31,2.31,0,0,1,2.32,2.33l0,17.53a2.34,2.34,0,0,1-2.34,2.33l-65-.14a2.32,2.32,0,0,1-2.32-2.33l0-17.54a2.33,2.33,0,0,1,2.34-2.32" transform="translate(-299.08 -210.11)"/><path class="cls-19" d="M351.44,337.5c0-6.4,13.29-11.56,29.66-11.53s29.61,5.26,29.6,11.66-13.29,11.57-29.65,11.53-29.62-5.25-29.61-11.66" transform="translate(-299.08 -210.11)"/><path class="cls-19" d="M299.79,325.37l43.51,3.31c7.8.3,13.95,4.09,14,8.59s-6.09,8.43-14,8.73l-44.26,1.37q.35-11,.71-22" transform="translate(-299.08 -210.11)"/><path class="cls-20" d="M307.12,326l26.39,2q.28,9.12.56,18.26l-27.27.84q.17-10.56.32-21.12" transform="translate(-299.08 -210.11)"/><path class="cls-21" d="M307.12,326l26.39,2q.28,9.12.56,18.26l-27.27.84Q307,336.53,307.12,326Z" transform="translate(-299.08 -210.11)"/><path class="cls-22" d="M495.77,343.76c0-1.09,2-2,4.37-2s4.35.89,4.35,2-2,2-4.36,2-4.36-.89-4.36-2" transform="translate(-299.08 -210.11)"/><path class="cls-22" d="M513.6,343.8c0-1.28,1.8-2.32,4-2.32s4,1,4,2.34-1.8,2.32-4,2.32-4-1.05-4-2.34" transform="translate(-299.08 -210.11)"/><path class="cls-22" d="M529,343.83c0-1.09,2-2,4.36-2s4.36.89,4.36,2-2,2-4.36,2-4.36-.89-4.36-2" transform="translate(-299.08 -210.11)"/><line class="cls-23" x1="89.58" y1="133.23" x2="89.59" y2="129.71"/><line class="cls-24" x1="151.68" y1="133.88" x2="144.31" y2="133.86"/><line class="cls-24" x1="151.69" y1="132.05" x2="146.03" y2="132.04"/><line class="cls-23" x1="82.93" y1="131.9" x2="82.93" y2="129.7"/><path class="cls-19" d="M627.64,322.58l28.77.06a2.85,2.85,0,0,1,2.84,2.86l-.06,26.75a2.85,2.85,0,0,1-2.85,2.84L627.57,355a2.85,2.85,0,0,1-2.84-2.85l.06-26.75a2.85,2.85,0,0,1,2.85-2.85" transform="translate(-299.08 -210.11)"/><line class="cls-24" x1="354.47" y1="136.35" x2="351.44" y2="136.34"/><line class="cls-24" x1="354.64" y1="138.74" x2="350.77" y2="138.74"/><line class="cls-23" x1="76.62" y1="133.2" x2="76.63" y2="129.68"/><rect class="cls-23" x="428.46" y="337.98" width="2.56" height="3.51" transform="matrix(0, -1, 1, 0, -209.94, 558.68)"/><rect class="cls-23" x="361.99" y="336.18" width="11.33" height="3.94" transform="translate(-270.41 494.92) rotate(-89.87)"/></g><g class="cls-25"><g class="cls-26"><rect class="cls-27" x="362.48" y="229.12" width="119.38" height="124.75" transform="translate(-381.55 -11) rotate(-24.25)"/></g></g><g class="cls-17"><path class="cls-10" d="M378.7,262.36l43.79-19.69Q444.08,290,465.64,337.3l-41.41,3Z" transform="translate(-299.08 -210.11)"/><line class="cls-11" x1="126.42" y1="129.98" x2="89.32" y2="47.89"/><line class="cls-11" x1="152.7" y1="128.26" x2="111.99" y2="38.21"/><line class="cls-11" x1="159.35" y1="127.03" x2="117.72" y2="35.77"/><line class="cls-11" x1="133.47" y1="129.8" x2="95.24" y2="45.22"/><line class="cls-11" x1="146.63" y1="128.95" x2="106.47" y2="40.1"/><line class="cls-11" x1="106.69" y1="98.29" x2="83.99" y2="50.27"/><line class="cls-11" x1="139.38" y1="129.15" x2="100.37" y2="42.85"/><line class="cls-11" x1="155.56" y1="103.97" x2="118.83" y2="119.39"/><line class="cls-11" x1="150.41" y1="92.39" x2="112.27" y2="108.4"/><line class="cls-11" x1="145.74" y1="82.24" x2="106.69" y2="98.29"/><line class="cls-11" x1="140.07" y1="71.18" x2="100.37" y2="88.01"/><line class="cls-11" x1="83.86" y1="59.49" x2="127.08" y2="41.17"/><line class="cls-11" x1="131.48" y1="50.68" x2="89.18" y2="68.61"/><line class="cls-11" x1="135.87" y1="60.56" x2="94.68" y2="78.02"/><g class="cls-28"><g class="cls-29"><g class="cls-30"><rect class="cls-31" x="275.53" y="107.61" width="53.71" height="42.06"/></g><polygon class="cls-32" points="329.24 149.67 329.24 149.67 275.53 149.67 275.53 107.61 329.24 107.61 329.24 149.67 329.24 149.67 329.24 149.67 329.24 107.61 275.53 107.61 275.53 149.67 329.24 149.67 329.24 149.67"/></g></g><path class="cls-19" d="M480.83,324.83a1.36,1.36,0,1,1-2.71,0,1.36,1.36,0,0,1,2.71,0" transform="translate(-299.08 -210.11)"/><path class="cls-19" d="M481,330.28a1.31,1.31,0,1,1-1.31-1.31,1.31,1.31,0,0,1,1.31,1.31" transform="translate(-299.08 -210.11)"/><path class="cls-19" d="M481,335.91a1.31,1.31,0,1,1-2.61,0,1.31,1.31,0,0,1,2.61,0" transform="translate(-299.08 -210.11)"/><path class="cls-19" d="M481,341.49a1.31,1.31,0,1,1-2.61,0,1.31,1.31,0,0,1,2.61,0" transform="translate(-299.08 -210.11)"/><path class="cls-19" d="M481,347.07a1.31,1.31,0,1,1-2.61,0,1.31,1.31,0,0,1,2.61,0" transform="translate(-299.08 -210.11)"/><path class="cls-19" d="M480.78,353a1.31,1.31,0,1,1-1.31-1.31,1.31,1.31,0,0,1,1.31,1.31" transform="translate(-299.08 -210.11)"/><g class="cls-33"><g class="cls-34"><g class="cls-35"><rect class="cls-36" x="569.07" y="333.72" width="2.76" height="2.76" transform="translate(-303.09 -203.18) rotate(-0.69)"/></g><path class="cls-37" d="M571.81,335.09h0a1.36,1.36,0,0,1-1.34,1.36h0a1.36,1.36,0,0,1-1.35-1.34v0a1.35,1.35,0,0,1,1.34-1.35h0a1.35,1.35,0,0,1,1.36,1.34h0a1.35,1.35,0,0,0-1.36-1.34h0a1.35,1.35,0,0,0-1.34,1.35v0a1.36,1.36,0,0,0,1.35,1.34h0a1.36,1.36,0,0,0,1.34-1.36Z" transform="translate(-299.08 -210.11)"/><g class="cls-38"><rect class="cls-39" x="569.36" y="339.22" width="2.66" height="2.66" transform="translate(-303.16 -203.18) rotate(-0.69)"/></g><path class="cls-40" d="M572,340.53h0v0a1.31,1.31,0,0,1-1.29,1.3h0a1.3,1.3,0,0,1-1.3-1.29h0a1.31,1.31,0,0,1,1.29-1.31h0a1.32,1.32,0,0,1,1.31,1.29h0a1.32,1.32,0,0,0-1.31-1.29h0a1.31,1.31,0,0,0-1.29,1.31h0a1.3,1.3,0,0,0,1.3,1.29h0a1.31,1.31,0,0,0,1.29-1.3v0Z" transform="translate(-299.08 -210.11)"/><g class="cls-41"><rect class="cls-42" x="569.43" y="344.85" width="2.66" height="2.66" transform="translate(-303.23 -203.18) rotate(-0.69)"/></g><path class="cls-43" d="M572.07,346.17h0a1.31,1.31,0,0,1-1.29,1.31h0a1.31,1.31,0,0,1-1.3-1.29v0a1.3,1.3,0,0,1,1.29-1.3h0a1.31,1.31,0,0,1,1.31,1.29h0a1.31,1.31,0,0,0-1.31-1.29h0a1.3,1.3,0,0,0-1.29,1.3v0a1.31,1.31,0,0,0,1.3,1.29h0a1.31,1.31,0,0,0,1.29-1.31Z" transform="translate(-299.08 -210.11)"/><g class="cls-44"><rect class="cls-45" x="569.5" y="350.43" width="2.66" height="2.66" transform="translate(-303.29 -203.17) rotate(-0.69)"/></g><path class="cls-46" d="M572.13,351.74h0v0a1.3,1.3,0,0,1-1.29,1.3h0a1.3,1.3,0,0,1-1.31-1.28v0a1.31,1.31,0,0,1,1.29-1.3h0a1.3,1.3,0,0,1,1.3,1.28h0a1.3,1.3,0,0,0-1.3-1.28h0a1.31,1.31,0,0,0-1.29,1.3v0a1.3,1.3,0,0,0,1.31,1.28h0a1.3,1.3,0,0,0,1.29-1.3v0Z" transform="translate(-299.08 -210.11)"/><g class="cls-47"><rect class="cls-48" x="569.57" y="356.01" width="2.66" height="2.66" transform="translate(-303.36 -203.17) rotate(-0.69)"/></g><path class="cls-49" d="M572.2,357.32h0v0a1.3,1.3,0,0,1-1.29,1.3h0a1.3,1.3,0,0,1-1.31-1.28v0a1.3,1.3,0,0,1,1.29-1.3h0a1.3,1.3,0,0,1,1.3,1.28h0a1.3,1.3,0,0,0-1.3-1.28h0a1.3,1.3,0,0,0-1.29,1.3v0a1.3,1.3,0,0,0,1.31,1.28h0a1.3,1.3,0,0,0,1.29-1.3v0Z" transform="translate(-299.08 -210.11)"/><g class="cls-50"><rect class="cls-51" x="569.47" y="361.96" width="2.66" height="2.66" transform="translate(-303.44 -203.17) rotate(-0.69)"/></g><path class="cls-52" d="M572.1,363.27h0v0a1.3,1.3,0,0,1-1.29,1.3h0a1.3,1.3,0,0,1-1.31-1.29h0a1.31,1.31,0,0,1,1.29-1.31h0a1.31,1.31,0,0,1,1.3,1.29h0a1.31,1.31,0,0,0-1.3-1.29h0a1.31,1.31,0,0,0-1.29,1.31h0a1.3,1.3,0,0,0,1.31,1.29h0a1.3,1.3,0,0,0,1.29-1.3v0Z" transform="translate(-299.08 -210.11)"/></g></g><g class="cls-53"><g class="cls-54"><g class="cls-55"><rect class="cls-56" x="569.48" y="311.61" width="2.76" height="2.77" transform="translate(-48.21 669.84) rotate(-89.3)"/></g><path class="cls-57" d="M570.87,311.63h0a1.36,1.36,0,0,1,1.34,1.36v0a1.35,1.35,0,0,1-1.35,1.34h0A1.36,1.36,0,0,1,569.5,313v0a1.36,1.36,0,0,1,1.36-1.34h0A1.36,1.36,0,0,0,569.5,313v0a1.36,1.36,0,0,0,1.34,1.36h0a1.35,1.35,0,0,0,1.35-1.34v0a1.36,1.36,0,0,0-1.34-1.36Z" transform="translate(-299.08 -210.11)"/><g class="cls-58"><rect class="cls-59" x="574.98" y="311.56" width="2.66" height="2.66" transform="translate(-42.71 675.19) rotate(-89.3)"/></g><path class="cls-60" d="M576.32,311.58h0a1.3,1.3,0,0,1,1.29,1.3v0a1.3,1.3,0,0,1-1.3,1.29h0a1.3,1.3,0,0,1-1.29-1.3v0a1.31,1.31,0,0,1,1.3-1.29h0a1.31,1.31,0,0,0-1.3,1.29v0a1.3,1.3,0,0,0,1.29,1.3h0a1.3,1.3,0,0,0,1.3-1.29v0a1.3,1.3,0,0,0-1.29-1.3Z" transform="translate(-299.08 -210.11)"/><g class="cls-61"><rect class="cls-62" x="580.61" y="311.63" width="2.66" height="2.66" transform="translate(-37.23 680.89) rotate(-89.29)"/></g><path class="cls-63" d="M582,311.65h0a1.3,1.3,0,0,1,1.28,1.3v0a1.3,1.3,0,0,1-1.3,1.29h0a1.31,1.31,0,0,1-1.29-1.3s0,0,0,0a1.29,1.29,0,0,1,1.3-1.29h0a1.29,1.29,0,0,0-1.3,1.29s0,0,0,0a1.31,1.31,0,0,0,1.29,1.3h0a1.3,1.3,0,0,0,1.3-1.29v0a1.3,1.3,0,0,0-1.28-1.3Z" transform="translate(-299.08 -210.11)"/><g class="cls-64"><rect class="cls-65" x="586.19" y="311.7" width="2.66" height="2.66" transform="matrix(0.01, -1, 1, 0.01, -31.78, 686.54)"/></g><path class="cls-66" d="M587.53,311.72h0a1.3,1.3,0,0,1,1.29,1.3v0a1.31,1.31,0,0,1-1.3,1.29h0a1.31,1.31,0,0,1-1.29-1.31h0a1.3,1.3,0,0,1,1.31-1.29h0a1.3,1.3,0,0,0-1.31,1.29h0a1.31,1.31,0,0,0,1.29,1.31h0a1.31,1.31,0,0,0,1.3-1.29v0a1.3,1.3,0,0,0-1.29-1.3Z" transform="translate(-299.08 -210.11)"/><g class="cls-67"><rect class="cls-68" x="591.77" y="311.76" width="2.66" height="2.66" transform="translate(-26.35 692.18) rotate(-89.29)"/></g><path class="cls-69" d="M593.11,311.79h0a1.3,1.3,0,0,1,1.29,1.3v0a1.31,1.31,0,0,1-1.3,1.29h0a1.31,1.31,0,0,1-1.29-1.31h0a1.3,1.3,0,0,1,1.31-1.29h0a1.3,1.3,0,0,0-1.31,1.29h0a1.31,1.31,0,0,0,1.29,1.31h0a1.31,1.31,0,0,0,1.3-1.29v0a1.3,1.3,0,0,0-1.29-1.3Z" transform="translate(-299.08 -210.11)"/><g class="cls-70"><rect class="cls-71" x="597.71" y="312.01" width="2.66" height="2.66" transform="translate(-20.72 698.36) rotate(-89.29)"/></g><path class="cls-72" d="M599.06,312h0a1.3,1.3,0,0,1,1.28,1.31h0a1.3,1.3,0,0,1-1.3,1.29h0a1.3,1.3,0,0,1-1.28-1.3v0A1.3,1.3,0,0,1,599,312h0a1.3,1.3,0,0,0-1.3,1.29v0a1.3,1.3,0,0,0,1.28,1.3h0a1.3,1.3,0,0,0,1.3-1.29h0a1.3,1.3,0,0,0-1.28-1.31Z" transform="translate(-299.08 -210.11)"/></g></g><g class="cls-33"><g class="cls-73"><g class="cls-74"><rect class="cls-75" x="603.71" y="311.9" width="2.72" height="2.72" transform="translate(-9.02 707.32) rotate(-89.83)"/></g><path class="cls-76" d="M605.08,311.91h0a1.36,1.36,0,0,1,1.35,1.36h0a1.35,1.35,0,0,1-1.36,1.35h0a1.35,1.35,0,0,1-1.35-1.35h0a1.35,1.35,0,0,1,1.35-1.35h0a1.35,1.35,0,0,0-1.35,1.35h0a1.35,1.35,0,0,0,1.35,1.35h0a1.35,1.35,0,0,0,1.36-1.35h0a1.36,1.36,0,0,0-1.35-1.36Z" transform="translate(-299.08 -210.11)"/><g class="cls-77"><rect class="cls-78" x="609.21" y="311.8" width="2.62" height="2.62" transform="translate(-3.43 712.61) rotate(-89.83)"/></g><path class="cls-79" d="M610.52,311.81h0a1.3,1.3,0,0,1,1.3,1.3h0a1.3,1.3,0,0,1-1.3,1.3h0a1.31,1.31,0,0,1-1.3-1.31h0a1.31,1.31,0,0,1,1.31-1.3h0a1.31,1.31,0,0,0-1.31,1.3h0a1.31,1.31,0,0,0,1.3,1.31h0a1.3,1.3,0,0,0,1.3-1.3h0a1.3,1.3,0,0,0-1.3-1.3Z" transform="translate(-299.08 -210.11)"/><g class="cls-80"><rect class="cls-81" x="614.84" y="311.82" width="2.62" height="2.62" transform="translate(2.17 718.26) rotate(-89.83)"/></g><path class="cls-82" d="M616.15,311.82h0a1.32,1.32,0,0,1,1.31,1.31h0a1.31,1.31,0,0,1-1.31,1.3h0a1.3,1.3,0,0,1-1.3-1.3h0a1.3,1.3,0,0,1,1.3-1.3h0a1.3,1.3,0,0,0-1.3,1.3h0a1.3,1.3,0,0,0,1.3,1.3h0a1.31,1.31,0,0,0,1.31-1.3h0a1.32,1.32,0,0,0-1.31-1.31Z" transform="translate(-299.08 -210.11)"/><g class="cls-83"><rect class="cls-84" x="620.42" y="311.83" width="2.62" height="2.62" transform="matrix(0, -1, 1, 0, 7.72, 723.86)"/></g><path class="cls-85" d="M621.73,311.84h0a1.31,1.31,0,0,1,1.31,1.3h0a1.31,1.31,0,0,1-1.31,1.3h0a1.31,1.31,0,0,1-1.3-1.31h0a1.3,1.3,0,0,1,1.3-1.3h0a1.3,1.3,0,0,0-1.3,1.3h0a1.31,1.31,0,0,0,1.3,1.31h0a1.31,1.31,0,0,0,1.31-1.3h0a1.31,1.31,0,0,0-1.31-1.3Z" transform="translate(-299.08 -210.11)"/><g class="cls-86"><rect class="cls-87" x="626" y="311.85" width="2.62" height="2.62" transform="translate(13.26 729.45) rotate(-89.83)"/></g><path class="cls-88" d="M627.31,311.86h0a1.3,1.3,0,0,1,1.3,1.3h0a1.3,1.3,0,0,1-1.3,1.3h0a1.3,1.3,0,0,1-1.3-1.3h0a1.3,1.3,0,0,1,1.3-1.3h0a1.3,1.3,0,0,0-1.3,1.3h0a1.3,1.3,0,0,0,1.3,1.3h0a1.3,1.3,0,0,0,1.3-1.3h0a1.3,1.3,0,0,0-1.3-1.3Z" transform="translate(-299.08 -210.11)"/><g class="cls-89"><rect class="cls-90" x="631.94" y="312.04" width="2.62" height="2.62" transform="translate(19 735.59) rotate(-89.83)"/></g><path class="cls-91" d="M633.26,312h0a1.31,1.31,0,0,1,1.3,1.31h0a1.3,1.3,0,0,1-1.3,1.3h0a1.3,1.3,0,0,1-1.3-1.3h0a1.31,1.31,0,0,1,1.31-1.31h0a1.31,1.31,0,0,0-1.31,1.31h0a1.3,1.3,0,0,0,1.3,1.3h0a1.3,1.3,0,0,0,1.3-1.3h0a1.31,1.31,0,0,0-1.3-1.31Z" transform="translate(-299.08 -210.11)"/></g></g><g class="cls-53"><g class="cls-92"><g class="cls-93"><rect class="cls-94" x="631.99" y="311.99" width="2.82" height="2.86" transform="translate(-306.82 -193.95) rotate(-1.45)"/></g><path class="cls-95" d="M634.76,313.38h0v0a1.37,1.37,0,0,1-1.32,1.37h0a1.36,1.36,0,0,1-1.35-1.34v0a1.36,1.36,0,0,1,1.32-1.38h0a1.37,1.37,0,0,1,1.36,1.34h0A1.37,1.37,0,0,0,633.4,312h0a1.36,1.36,0,0,0-1.32,1.38v0a1.36,1.36,0,0,0,1.35,1.34h0a1.37,1.37,0,0,0,1.32-1.37v0Z" transform="translate(-299.08 -210.11)"/><g class="cls-96"><rect class="cls-97" x="632.36" y="317.56" width="2.71" height="2.75" transform="translate(-306.96 -193.95) rotate(-1.45)"/></g><path class="cls-98" d="M635,318.9h0v0a1.32,1.32,0,0,1-1.27,1.32h0a1.31,1.31,0,0,1-1.3-1.29v0a1.32,1.32,0,0,1,1.27-1.32h0A1.32,1.32,0,0,1,635,318.9h0a1.32,1.32,0,0,0-1.31-1.29h0a1.32,1.32,0,0,0-1.27,1.32v0a1.31,1.31,0,0,0,1.3,1.29h0a1.32,1.32,0,0,0,1.27-1.32v0Z" transform="translate(-299.08 -210.11)"/><g class="cls-99"><rect class="cls-100" x="632.5" y="323.27" width="2.71" height="2.75" transform="translate(-307.1 -193.94) rotate(-1.45)"/></g><path class="cls-101" d="M635.16,324.61h0v0a1.32,1.32,0,0,1-1.27,1.32h0a1.3,1.3,0,0,1-1.3-1.29v0a1.32,1.32,0,0,1,1.27-1.32h0a1.31,1.31,0,0,1,1.3,1.29h0a1.31,1.31,0,0,0-1.3-1.29h0a1.32,1.32,0,0,0-1.27,1.32v0a1.3,1.3,0,0,0,1.3,1.29h0a1.32,1.32,0,0,0,1.27-1.32v0Z" transform="translate(-299.08 -210.11)"/><g class="cls-102"><rect class="cls-103" x="632.65" y="328.93" width="2.71" height="2.75" transform="translate(-307.25 -193.93) rotate(-1.45)"/></g><path class="cls-104" d="M635.31,330.27h0v0a1.32,1.32,0,0,1-1.27,1.32h0a1.31,1.31,0,0,1-1.3-1.29v0A1.32,1.32,0,0,1,634,329h0a1.32,1.32,0,0,1,1.31,1.29h0A1.32,1.32,0,0,0,634,329h0a1.32,1.32,0,0,0-1.27,1.32v0a1.31,1.31,0,0,0,1.3,1.29h0a1.32,1.32,0,0,0,1.27-1.32v0Z" transform="translate(-299.08 -210.11)"/><g class="cls-105"><rect class="cls-106" x="632.79" y="334.59" width="2.71" height="2.75" transform="translate(-307.39 -193.94) rotate(-1.45)"/></g><path class="cls-107" d="M635.45,335.93h0v0a1.3,1.3,0,0,1-1.27,1.32h0a1.32,1.32,0,0,1-1.31-1.29v0a1.31,1.31,0,0,1,1.27-1.32h0a1.31,1.31,0,0,1,1.3,1.29h0a1.31,1.31,0,0,0-1.3-1.29h0a1.31,1.31,0,0,0-1.27,1.32v0a1.32,1.32,0,0,0,1.31,1.29h0a1.3,1.3,0,0,0,1.27-1.32v0Z" transform="translate(-299.08 -210.11)"/><g class="cls-108"><rect class="cls-109" x="632.77" y="340.62" width="2.71" height="2.75" transform="translate(-307.54 -193.93) rotate(-1.45)"/></g><path class="cls-110" d="M635.43,342h0v0a1.32,1.32,0,0,1-1.27,1.32h0a1.32,1.32,0,0,1-1.31-1.29v0a1.32,1.32,0,0,1,1.27-1.32h0a1.31,1.31,0,0,1,1.3,1.29h0a1.31,1.31,0,0,0-1.3-1.29h0a1.32,1.32,0,0,0-1.27,1.32v0a1.32,1.32,0,0,0,1.31,1.29h0a1.32,1.32,0,0,0,1.27-1.32v0Z" transform="translate(-299.08 -210.11)"/></g></g><g class="cls-53"><g class="cls-111"><g class="cls-112"><rect class="cls-113" x="569.3" y="362.19" width="2.76" height="2.76" transform="translate(-98.96 719.63) rotate(-89.3)"/></g><path class="cls-114" d="M570.7,362.22h0a1.35,1.35,0,0,1,1.34,1.35v0a1.36,1.36,0,0,1-1.35,1.34h0a1.36,1.36,0,0,1-1.34-1.36h0a1.35,1.35,0,0,1,1.36-1.34h0a1.35,1.35,0,0,0-1.36,1.34h0a1.36,1.36,0,0,0,1.34,1.36h0a1.36,1.36,0,0,0,1.35-1.34v0a1.35,1.35,0,0,0-1.34-1.35Z" transform="translate(-299.08 -210.11)"/><g class="cls-115"><rect class="cls-116" x="574.8" y="362.14" width="2.66" height="2.66" transform="matrix(0.01, -1, 1, 0.01, -93.46, 724.98)"/></g><path class="cls-117" d="M576.15,362.17h0a1.3,1.3,0,0,1,1.29,1.3v0a1.3,1.3,0,0,1-1.31,1.28h0a1.3,1.3,0,0,1-1.29-1.3v0a1.3,1.3,0,0,1,1.3-1.28h0a1.3,1.3,0,0,0-1.3,1.28v0a1.3,1.3,0,0,0,1.29,1.3h0a1.3,1.3,0,0,0,1.31-1.28v0a1.3,1.3,0,0,0-1.29-1.3Z" transform="translate(-299.08 -210.11)"/><g class="cls-118"><rect class="cls-119" x="580.44" y="362.21" width="2.66" height="2.66" transform="translate(-87.97 730.68) rotate(-89.3)"/></g><path class="cls-120" d="M581.78,362.23h0a1.31,1.31,0,0,1,1.29,1.31h0a1.3,1.3,0,0,1-1.3,1.29h0a1.31,1.31,0,0,1-1.29-1.3v0a1.31,1.31,0,0,1,1.31-1.29h0a1.31,1.31,0,0,0-1.31,1.29v0a1.31,1.31,0,0,0,1.29,1.3h0a1.3,1.3,0,0,0,1.3-1.29h0a1.31,1.31,0,0,0-1.29-1.31Z" transform="translate(-299.08 -210.11)"/><g class="cls-121"><rect class="cls-122" x="586.02" y="362.28" width="2.66" height="2.66" transform="translate(-82.54 736.32) rotate(-89.29)"/></g><path class="cls-123" d="M587.36,362.3h0a1.31,1.31,0,0,1,1.29,1.31h0a1.3,1.3,0,0,1-1.3,1.29h0a1.31,1.31,0,0,1-1.29-1.3v0a1.31,1.31,0,0,1,1.31-1.29h0a1.31,1.31,0,0,0-1.31,1.29v0a1.31,1.31,0,0,0,1.29,1.3h0a1.3,1.3,0,0,0,1.3-1.29h0a1.31,1.31,0,0,0-1.29-1.31Z" transform="translate(-299.08 -210.11)"/><g class="cls-124"><rect class="cls-125" x="591.6" y="362.35" width="2.66" height="2.66" transform="translate(-77.1 741.97) rotate(-89.29)"/></g><path class="cls-126" d="M592.94,362.37h0a1.3,1.3,0,0,1,1.29,1.31h0a1.3,1.3,0,0,1-1.3,1.29h0a1.3,1.3,0,0,1-1.29-1.3v0a1.31,1.31,0,0,1,1.3-1.29h0a1.31,1.31,0,0,0-1.3,1.29v0a1.3,1.3,0,0,0,1.29,1.3h0a1.3,1.3,0,0,0,1.3-1.29h0a1.3,1.3,0,0,0-1.29-1.31Z" transform="translate(-299.08 -210.11)"/><g class="cls-127"><rect class="cls-128" x="597.54" y="362.59" width="2.66" height="2.66" transform="translate(-71.46 748.16) rotate(-89.3)"/></g><path class="cls-129" d="M598.88,362.62h0a1.3,1.3,0,0,1,1.29,1.3v0a1.3,1.3,0,0,1-1.3,1.28h0a1.3,1.3,0,0,1-1.29-1.3v0a1.31,1.31,0,0,1,1.31-1.28h0a1.31,1.31,0,0,0-1.31,1.28v0a1.3,1.3,0,0,0,1.29,1.3h0a1.3,1.3,0,0,0,1.3-1.28v0a1.3,1.3,0,0,0-1.29-1.3Z" transform="translate(-299.08 -210.11)"/></g></g><g class="cls-53"><g class="cls-130"><g class="cls-131"><rect class="cls-132" x="604" y="362.42" width="2.76" height="2.76" transform="translate(-64.9 754.56) rotate(-89.3)"/></g><path class="cls-133" d="M605.4,362.44h0a1.36,1.36,0,0,1,1.34,1.36v0a1.36,1.36,0,0,1-1.36,1.34h0A1.36,1.36,0,0,1,604,363.8v0a1.36,1.36,0,0,1,1.35-1.34h0a1.36,1.36,0,0,0-1.35,1.34v0a1.36,1.36,0,0,0,1.34,1.36h0a1.36,1.36,0,0,0,1.36-1.34v0a1.36,1.36,0,0,0-1.34-1.36Z" transform="translate(-299.08 -210.11)"/><g class="cls-134"><rect class="cls-135" x="609.5" y="362.37" width="2.66" height="2.66" transform="translate(-59.42 759.9) rotate(-89.3)"/></g><path class="cls-136" d="M610.85,362.39h0a1.31,1.31,0,0,1,1.29,1.3v0a1.31,1.31,0,0,1-1.31,1.29h0a1.3,1.3,0,0,1-1.29-1.3v0a1.3,1.3,0,0,1,1.3-1.29h0a1.3,1.3,0,0,0-1.3,1.29v0a1.3,1.3,0,0,0,1.29,1.3h0a1.31,1.31,0,0,0,1.31-1.29v0a1.31,1.31,0,0,0-1.29-1.3Z" transform="translate(-299.08 -210.11)"/><g class="cls-137"><rect class="cls-138" x="615.14" y="362.44" width="2.66" height="2.66" transform="translate(-53.92 765.6) rotate(-89.3)"/></g><path class="cls-139" d="M616.48,362.46h0a1.3,1.3,0,0,1,1.29,1.3v0a1.3,1.3,0,0,1-1.3,1.29h0a1.3,1.3,0,0,1-1.29-1.3v0a1.3,1.3,0,0,1,1.3-1.29h0a1.3,1.3,0,0,0-1.3,1.29v0a1.3,1.3,0,0,0,1.29,1.3h0a1.3,1.3,0,0,0,1.3-1.29v0a1.3,1.3,0,0,0-1.29-1.3Z" transform="translate(-299.08 -210.11)"/><g class="cls-140"><rect class="cls-141" x="620.71" y="362.5" width="2.66" height="2.66" transform="translate(-48.49 771.24) rotate(-89.3)"/></g><path class="cls-142" d="M622.06,362.53h0a1.31,1.31,0,0,1,1.29,1.3v0a1.31,1.31,0,0,1-1.3,1.29h0a1.3,1.3,0,0,1-1.29-1.31h0a1.3,1.3,0,0,1,1.3-1.29h0a1.3,1.3,0,0,0-1.3,1.29h0a1.3,1.3,0,0,0,1.29,1.31h0a1.31,1.31,0,0,0,1.3-1.29v0a1.31,1.31,0,0,0-1.29-1.3Z" transform="translate(-299.08 -210.11)"/><g class="cls-143"><rect class="cls-144" x="626.29" y="362.57" width="2.66" height="2.66" transform="translate(-43.05 776.89) rotate(-89.29)"/></g><path class="cls-145" d="M627.64,362.6h0a1.31,1.31,0,0,1,1.29,1.3v0a1.31,1.31,0,0,1-1.31,1.29h0a1.3,1.3,0,0,1-1.29-1.31h0a1.3,1.3,0,0,1,1.3-1.29h0a1.3,1.3,0,0,0-1.3,1.29h0a1.3,1.3,0,0,0,1.29,1.31h0a1.31,1.31,0,0,0,1.31-1.29v0a1.31,1.31,0,0,0-1.29-1.3Z" transform="translate(-299.08 -210.11)"/><g class="cls-146"><rect class="cls-147" x="632.24" y="362.82" width="2.66" height="2.66" transform="translate(-37.41 783.08) rotate(-89.3)"/></g><path class="cls-148" d="M633.58,362.84h0a1.3,1.3,0,0,1,1.29,1.31h0a1.3,1.3,0,0,1-1.3,1.29h0a1.31,1.31,0,0,1-1.29-1.3v0a1.31,1.31,0,0,1,1.31-1.29h0a1.31,1.31,0,0,0-1.31,1.29v0a1.31,1.31,0,0,0,1.29,1.3h0a1.3,1.3,0,0,0,1.3-1.29h0a1.3,1.3,0,0,0-1.29-1.31Z" transform="translate(-299.08 -210.11)"/></g></g><g class="cls-53"><g class="cls-149"><g class="cls-150"><rect class="cls-151" x="569.23" y="311.45" width="2.72" height="2.72" transform="translate(-299.93 -208.55) rotate(-0.16)"/></g><path class="cls-152" d="M572,312.81h0a1.35,1.35,0,0,1-1.35,1.36h0a1.35,1.35,0,0,1-1.36-1.35h0a1.36,1.36,0,1,1,2.71,0h0a1.36,1.36,0,1,0-2.71,0h0a1.35,1.35,0,0,0,1.36,1.35h0a1.35,1.35,0,0,0,1.35-1.36Z" transform="translate(-299.08 -210.11)"/><g class="cls-153"><rect class="cls-154" x="569.47" y="316.95" width="2.62" height="2.62" transform="translate(-299.94 -208.55) rotate(-0.16)"/></g><path class="cls-155" d="M572.09,318.26h0a1.31,1.31,0,0,1-1.3,1.31h0a1.31,1.31,0,0,1-1.3-1.31h0a1.3,1.3,0,0,1,1.3-1.3h0a1.31,1.31,0,0,1,1.31,1.3h0a1.31,1.31,0,0,0-1.31-1.3h0a1.3,1.3,0,0,0-1.3,1.3h0a1.31,1.31,0,0,0,1.3,1.31h0a1.31,1.31,0,0,0,1.3-1.31Z" transform="translate(-299.08 -210.11)"/><g class="cls-156"><rect class="cls-157" x="569.49" y="322.58" width="2.62" height="2.62" transform="translate(-299.96 -208.55) rotate(-0.16)"/></g><path class="cls-158" d="M572.1,323.89h0a1.31,1.31,0,0,1-1.3,1.31h0a1.31,1.31,0,0,1-1.31-1.3h0a1.31,1.31,0,0,1,1.3-1.3h0a1.3,1.3,0,0,1,1.3,1.3h0a1.3,1.3,0,0,0-1.3-1.3h0a1.31,1.31,0,0,0-1.3,1.3h0a1.31,1.31,0,0,0,1.31,1.3h0a1.31,1.31,0,0,0,1.3-1.31Z" transform="translate(-299.08 -210.11)"/><g class="cls-159"><rect class="cls-160" x="569.5" y="328.16" width="2.62" height="2.62" transform="translate(-299.97 -208.55) rotate(-0.16)"/></g><path class="cls-161" d="M572.12,329.47h0a1.31,1.31,0,0,1-1.3,1.31h0a1.3,1.3,0,0,1-1.3-1.3h0a1.3,1.3,0,0,1,1.3-1.3h0a1.31,1.31,0,0,1,1.31,1.3h0a1.31,1.31,0,0,0-1.31-1.3h0a1.3,1.3,0,0,0-1.3,1.3h0a1.3,1.3,0,0,0,1.3,1.3h0a1.31,1.31,0,0,0,1.3-1.31Z" transform="translate(-299.08 -210.11)"/><g class="cls-162"><rect class="cls-163" x="569.52" y="333.74" width="2.62" height="2.62" transform="translate(-299.99 -208.56) rotate(-0.16)"/></g><path class="cls-164" d="M572.13,335.05h0a1.31,1.31,0,0,1-1.3,1.31h0a1.31,1.31,0,0,1-1.31-1.3h0a1.3,1.3,0,0,1,1.3-1.3h0a1.3,1.3,0,0,1,1.3,1.3h0a1.3,1.3,0,0,0-1.3-1.3h0a1.3,1.3,0,0,0-1.3,1.3h0a1.31,1.31,0,0,0,1.31,1.3h0a1.31,1.31,0,0,0,1.3-1.31Z" transform="translate(-299.08 -210.11)"/><g class="cls-165"><rect class="cls-166" x="569.36" y="339.69" width="2.62" height="2.62" transform="translate(-300 -208.55) rotate(-0.16)"/></g><path class="cls-167" d="M572,341h0a1.3,1.3,0,0,1-1.3,1.3h0a1.3,1.3,0,0,1-1.3-1.3h0a1.31,1.31,0,0,1,1.3-1.31h0A1.31,1.31,0,0,1,572,341h0a1.31,1.31,0,0,0-1.31-1.31h0a1.31,1.31,0,0,0-1.3,1.31h0a1.3,1.3,0,0,0,1.3,1.3h0A1.3,1.3,0,0,0,572,341Z" transform="translate(-299.08 -210.11)"/></g></g><g class="cls-53"><g class="cls-168"><g class="cls-169"><rect class="cls-170" x="633.1" y="334.53" width="2.76" height="2.95" transform="translate(-10.26 755.16) rotate(-89.12)"/></g><path class="cls-171" d="M635.92,336h0a1.39,1.39,0,0,1-1.43,1.33h0A1.4,1.4,0,0,1,633,336v0a1.39,1.39,0,0,1,1.44-1.32h0a1.39,1.39,0,0,1,1.42,1.35h0a1.39,1.39,0,0,0-1.42-1.35h0A1.39,1.39,0,0,0,633,336v0a1.4,1.4,0,0,0,1.42,1.35h0a1.39,1.39,0,0,0,1.43-1.33Z" transform="translate(-299.08 -210.11)"/><g class="cls-172"><rect class="cls-173" x="633.26" y="339.99" width="2.65" height="2.83" transform="translate(-15.56 760.58) rotate(-89.12)"/></g><path class="cls-174" d="M636,341.42h0a1.34,1.34,0,0,1-1.38,1.27h0a1.34,1.34,0,0,1-1.36-1.29v0a1.33,1.33,0,0,1,1.38-1.27h0A1.34,1.34,0,0,1,636,341.4v0h0v0a1.34,1.34,0,0,0-1.37-1.29h0a1.33,1.33,0,0,0-1.38,1.27v0a1.34,1.34,0,0,0,1.36,1.29h0a1.34,1.34,0,0,0,1.38-1.27Z" transform="translate(-299.08 -210.11)"/><g class="cls-175"><rect class="cls-176" x="633.17" y="345.57" width="2.65" height="2.83" transform="translate(-21.22 765.99) rotate(-89.12)"/></g><path class="cls-177" d="M635.88,347h0a1.34,1.34,0,0,1-1.38,1.27h0a1.35,1.35,0,0,1-1.37-1.3v0a1.34,1.34,0,0,1,1.38-1.27h0a1.34,1.34,0,0,1,1.36,1.3v0h0v0a1.34,1.34,0,0,0-1.36-1.3h0a1.34,1.34,0,0,0-1.38,1.27v0a1.35,1.35,0,0,0,1.37,1.3h0a1.34,1.34,0,0,0,1.38-1.27Z" transform="translate(-299.08 -210.11)"/><g class="cls-178"><rect class="cls-179" x="633.09" y="351.1" width="2.65" height="2.83" transform="translate(-26.83 771.35) rotate(-89.12)"/></g><path class="cls-180" d="M635.8,352.53h0a1.35,1.35,0,0,1-1.39,1.28h0a1.34,1.34,0,0,1-1.36-1.3v0a1.33,1.33,0,0,1,1.38-1.27h0a1.34,1.34,0,0,1,1.37,1.29v0h0v0a1.34,1.34,0,0,0-1.37-1.29h0a1.33,1.33,0,0,0-1.38,1.27v0a1.34,1.34,0,0,0,1.36,1.3h0a1.35,1.35,0,0,0,1.39-1.28Z" transform="translate(-299.08 -210.11)"/><g class="cls-181"><rect class="cls-182" x="633" y="356.63" width="2.65" height="2.83" transform="translate(-32.45 776.71) rotate(-89.12)"/></g><path class="cls-183" d="M635.71,358.06h0a1.34,1.34,0,0,1-1.38,1.27h0a1.34,1.34,0,0,1-1.37-1.29v0a1.34,1.34,0,0,1,1.38-1.27h0a1.34,1.34,0,0,1,1.36,1.29v0h0v0a1.34,1.34,0,0,0-1.36-1.29h0a1.34,1.34,0,0,0-1.38,1.27v0a1.34,1.34,0,0,0,1.37,1.29h0a1.34,1.34,0,0,0,1.38-1.27Z" transform="translate(-299.08 -210.11)"/><g class="cls-184"><rect class="cls-185" x="632.73" y="362.51" width="2.65" height="2.83" transform="translate(-38.6 782.24) rotate(-89.12)"/></g><path class="cls-186" d="M635.44,364h0a1.34,1.34,0,0,1-1.38,1.27h0a1.34,1.34,0,0,1-1.37-1.29v0a1.34,1.34,0,0,1,1.38-1.27h0a1.34,1.34,0,0,1,1.36,1.29v0h0v0a1.34,1.34,0,0,0-1.36-1.29h0a1.34,1.34,0,0,0-1.38,1.27v0a1.34,1.34,0,0,0,1.37,1.29h0a1.34,1.34,0,0,0,1.38-1.27Z" transform="translate(-299.08 -210.11)"/></g></g><g class="cls-53"><g class="cls-187"><g class="cls-188"><rect class="cls-189" x="368.63" y="328.78" width="2.76" height="2.76" transform="translate(-263.74 485.97) rotate(-89.3)"/></g><path class="cls-190" d="M370,328.8h0a1.36,1.36,0,0,1,1.34,1.36h0a1.35,1.35,0,0,1-1.35,1.34h0a1.36,1.36,0,0,1-1.34-1.35v0A1.36,1.36,0,0,1,370,328.8h0a1.36,1.36,0,0,0-1.36,1.34v0a1.36,1.36,0,0,0,1.34,1.35h0a1.35,1.35,0,0,0,1.35-1.34h0A1.36,1.36,0,0,0,370,328.8Z" transform="translate(-299.08 -210.11)"/><g class="cls-191"><rect class="cls-192" x="374.13" y="328.72" width="2.66" height="2.66" transform="translate(-258.26 491.32) rotate(-89.3)"/></g><path class="cls-193" d="M375.48,328.75h0a1.31,1.31,0,0,1,1.29,1.3v0a1.31,1.31,0,0,1-1.31,1.29h0a1.3,1.3,0,0,1-1.29-1.31h0a1.3,1.3,0,0,1,1.3-1.29h0a1.3,1.3,0,0,0-1.3,1.29h0a1.3,1.3,0,0,0,1.29,1.31h0a1.31,1.31,0,0,0,1.31-1.29v0a1.31,1.31,0,0,0-1.29-1.3Z" transform="translate(-299.08 -210.11)"/><g class="cls-194"><rect class="cls-195" x="379.77" y="328.79" width="2.66" height="2.66" transform="translate(-252.76 497.02) rotate(-89.3)"/></g><path class="cls-196" d="M381.11,328.82h0a1.3,1.3,0,0,1,1.29,1.3v0a1.31,1.31,0,0,1-1.3,1.29h0a1.31,1.31,0,0,1-1.29-1.31h0a1.3,1.3,0,0,1,1.31-1.29h0a1.3,1.3,0,0,0-1.31,1.29h0a1.31,1.31,0,0,0,1.29,1.31h0a1.31,1.31,0,0,0,1.3-1.29v0a1.3,1.3,0,0,0-1.29-1.3Z" transform="translate(-299.08 -210.11)"/><g class="cls-197"><rect class="cls-198" x="385.35" y="328.86" width="2.66" height="2.66" transform="translate(-247.32 502.66) rotate(-89.3)"/></g><path class="cls-199" d="M386.69,328.89h0a1.3,1.3,0,0,1,1.29,1.3v0a1.3,1.3,0,0,1-1.3,1.28h0a1.3,1.3,0,0,1-1.29-1.3v0a1.3,1.3,0,0,1,1.3-1.28h0a1.3,1.3,0,0,0-1.3,1.28v0a1.3,1.3,0,0,0,1.29,1.3h0a1.3,1.3,0,0,0,1.3-1.28v0a1.3,1.3,0,0,0-1.29-1.3Z" transform="translate(-299.08 -210.11)"/><g class="cls-200"><rect class="cls-201" x="390.92" y="328.93" width="2.66" height="2.66" transform="translate(-241.88 508.31) rotate(-89.3)"/></g><path class="cls-202" d="M392.27,329h0a1.3,1.3,0,0,1,1.29,1.3h0a1.3,1.3,0,0,1-1.3,1.29h0a1.3,1.3,0,0,1-1.29-1.3v0a1.3,1.3,0,0,1,1.3-1.28h0a1.3,1.3,0,0,0-1.3,1.28v0a1.3,1.3,0,0,0,1.29,1.3h0a1.3,1.3,0,0,0,1.3-1.29h0a1.3,1.3,0,0,0-1.29-1.3Z" transform="translate(-299.08 -210.11)"/><g class="cls-203"><rect class="cls-204" x="396.87" y="329.18" width="2.66" height="2.66" transform="translate(-236.25 514.5) rotate(-89.3)"/></g><path class="cls-205" d="M398.21,329.2h0a1.3,1.3,0,0,1,1.29,1.3v0a1.3,1.3,0,0,1-1.3,1.29h0a1.31,1.31,0,0,1-1.29-1.31h0a1.3,1.3,0,0,1,1.31-1.29h0a1.3,1.3,0,0,0-1.31,1.29h0a1.31,1.31,0,0,0,1.29,1.31h0a1.3,1.3,0,0,0,1.3-1.29v0a1.3,1.3,0,0,0-1.29-1.3Z" transform="translate(-299.08 -210.11)"/></g></g><g class="cls-53"><g class="cls-206"><g class="cls-207"><rect class="cls-208" x="408.27" y="342.48" width="2.77" height="2.76" transform="translate(-238.3 539.14) rotate(-89.3)"/></g><path class="cls-209" d="M409.67,342.51h0a1.36,1.36,0,0,1,1.34,1.35v0a1.35,1.35,0,0,1-1.35,1.34h0a1.36,1.36,0,0,1-1.34-1.36h0a1.36,1.36,0,0,1,1.36-1.34h0a1.36,1.36,0,0,0-1.36,1.34h0a1.36,1.36,0,0,0,1.34,1.36h0a1.35,1.35,0,0,0,1.35-1.34v0a1.36,1.36,0,0,0-1.34-1.35Z" transform="translate(-299.08 -210.11)"/><g class="cls-210"><rect class="cls-211" x="413.77" y="342.43" width="2.66" height="2.66" transform="translate(-232.82 544.49) rotate(-89.3)"/></g><path class="cls-212" d="M415.11,342.45h0a1.31,1.31,0,0,1,1.29,1.31h0a1.3,1.3,0,0,1-1.3,1.29h0a1.31,1.31,0,0,1-1.29-1.3v0a1.31,1.31,0,0,1,1.31-1.29h0a1.31,1.31,0,0,0-1.31,1.29v0a1.31,1.31,0,0,0,1.29,1.3h0a1.3,1.3,0,0,0,1.3-1.29h0a1.31,1.31,0,0,0-1.29-1.31Z" transform="translate(-299.08 -210.11)"/><g class="cls-213"><rect class="cls-214" x="419.4" y="342.5" width="2.66" height="2.66" transform="translate(-227.32 550.19) rotate(-89.3)"/></g><path class="cls-215" d="M420.75,342.52h0a1.3,1.3,0,0,1,1.28,1.31h0a1.3,1.3,0,0,1-1.3,1.29h0a1.3,1.3,0,0,1-1.28-1.3v0a1.3,1.3,0,0,1,1.3-1.29h0a1.3,1.3,0,0,0-1.3,1.29v0a1.3,1.3,0,0,0,1.28,1.3h0a1.3,1.3,0,0,0,1.3-1.29h0a1.3,1.3,0,0,0-1.28-1.31Z" transform="translate(-299.08 -210.11)"/><g class="cls-216"><rect class="cls-217" x="424.98" y="342.57" width="2.66" height="2.66" transform="translate(-221.88 555.83) rotate(-89.3)"/></g><path class="cls-218" d="M426.33,342.59h0a1.3,1.3,0,0,1,1.28,1.31h0a1.3,1.3,0,0,1-1.3,1.29h0a1.3,1.3,0,0,1-1.28-1.3v0a1.3,1.3,0,0,1,1.3-1.29h0a1.3,1.3,0,0,0-1.3,1.29v0a1.3,1.3,0,0,0,1.28,1.3h0a1.3,1.3,0,0,0,1.3-1.29h0a1.3,1.3,0,0,0-1.28-1.31Z" transform="translate(-299.08 -210.11)"/><g class="cls-219"><rect class="cls-220" x="430.56" y="342.64" width="2.66" height="2.66" transform="translate(-216.44 561.48) rotate(-89.3)"/></g><path class="cls-221" d="M431.9,342.66h0a1.3,1.3,0,0,1,1.29,1.3v0a1.3,1.3,0,0,1-1.3,1.29h0a1.31,1.31,0,0,1-1.29-1.3v0a1.31,1.31,0,0,1,1.31-1.29h0a1.31,1.31,0,0,0-1.31,1.29v0a1.31,1.31,0,0,0,1.29,1.3h0a1.3,1.3,0,0,0,1.3-1.29v0a1.3,1.3,0,0,0-1.29-1.3Z" transform="translate(-299.08 -210.11)"/><g class="cls-222"><rect class="cls-223" x="436.5" y="342.88" width="2.66" height="2.66" transform="translate(-210.81 567.66) rotate(-89.3)"/></g><path class="cls-224" d="M437.85,342.91h0a1.3,1.3,0,0,1,1.29,1.3v0a1.31,1.31,0,0,1-1.31,1.28h0a1.3,1.3,0,0,1-1.29-1.3v0a1.3,1.3,0,0,1,1.3-1.28h0a1.3,1.3,0,0,0-1.3,1.28v0a1.3,1.3,0,0,0,1.29,1.3h0a1.31,1.31,0,0,0,1.31-1.28v0a1.3,1.3,0,0,0-1.29-1.3Z" transform="translate(-299.08 -210.11)"/></g></g><g class="cls-53"><g class="cls-225"><g class="cls-226"><rect class="cls-227" x="310.49" y="342.23" width="2.76" height="2.76" transform="translate(-334.62 441.11) rotate(-89.3)"/></g><path class="cls-228" d="M311.89,342.25h0a1.36,1.36,0,0,1,1.34,1.35v0a1.36,1.36,0,0,1-1.36,1.34h0a1.36,1.36,0,0,1-1.34-1.35v0a1.36,1.36,0,0,1,1.36-1.34h0a1.36,1.36,0,0,0-1.36,1.34v0a1.36,1.36,0,0,0,1.34,1.35h0a1.36,1.36,0,0,0,1.36-1.34v0a1.36,1.36,0,0,0-1.34-1.35Z" transform="translate(-299.08 -210.11)"/><g class="cls-229"><rect class="cls-230" x="315.99" y="342.17" width="2.66" height="2.66" transform="translate(-329.14 446.46) rotate(-89.3)"/></g><path class="cls-231" d="M317.33,342.2h0a1.3,1.3,0,0,1,1.29,1.3v0a1.31,1.31,0,0,1-1.3,1.29h0A1.31,1.31,0,0,1,316,343.5h0a1.3,1.3,0,0,1,1.31-1.29h0a1.3,1.3,0,0,0-1.31,1.29h0a1.31,1.31,0,0,0,1.29,1.31h0a1.31,1.31,0,0,0,1.3-1.29v0a1.3,1.3,0,0,0-1.29-1.3Z" transform="translate(-299.08 -210.11)"/><g class="cls-232"><rect class="cls-233" x="321.62" y="342.24" width="2.66" height="2.66" transform="translate(-323.64 452.16) rotate(-89.3)"/></g><path class="cls-234" d="M323,342.27h0a1.3,1.3,0,0,1,1.28,1.3v0a1.3,1.3,0,0,1-1.3,1.29h0a1.3,1.3,0,0,1-1.28-1.31h0a1.3,1.3,0,0,1,1.3-1.29h0a1.3,1.3,0,0,0-1.3,1.29h0a1.3,1.3,0,0,0,1.28,1.31h0a1.3,1.3,0,0,0,1.3-1.29v0a1.3,1.3,0,0,0-1.28-1.3Z" transform="translate(-299.08 -210.11)"/><g class="cls-235"><rect class="cls-236" x="327.2" y="342.31" width="2.66" height="2.66" transform="translate(-318.2 457.81) rotate(-89.3)"/></g><path class="cls-237" d="M328.55,342.34h0a1.3,1.3,0,0,1,1.28,1.3v0a1.3,1.3,0,0,1-1.3,1.28h0a1.29,1.29,0,0,1-1.28-1.3v0a1.29,1.29,0,0,1,1.3-1.28h0a1.29,1.29,0,0,0-1.3,1.28v0a1.29,1.29,0,0,0,1.28,1.3h0a1.3,1.3,0,0,0,1.3-1.28v0a1.3,1.3,0,0,0-1.28-1.3Z" transform="translate(-299.08 -210.11)"/><g class="cls-238"><rect class="cls-239" x="332.78" y="342.38" width="2.66" height="2.66" transform="translate(-312.76 463.45) rotate(-89.3)"/></g><path class="cls-240" d="M334.13,342.4h0a1.31,1.31,0,0,1,1.28,1.31h0a1.3,1.3,0,0,1-1.3,1.29h0a1.31,1.31,0,0,1-1.29-1.3v0a1.32,1.32,0,0,1,1.31-1.29h0a1.32,1.32,0,0,0-1.31,1.29v0a1.31,1.31,0,0,0,1.29,1.3h0a1.3,1.3,0,0,0,1.3-1.29h0a1.31,1.31,0,0,0-1.28-1.31Z" transform="translate(-299.08 -210.11)"/><g class="cls-241"><rect class="cls-242" x="338.72" y="342.62" width="2.66" height="2.66" transform="translate(-307.13 469.64) rotate(-89.3)"/></g><path class="cls-243" d="M340.07,342.65h0a1.31,1.31,0,0,1,1.29,1.3v0a1.31,1.31,0,0,1-1.31,1.29h0a1.3,1.3,0,0,1-1.29-1.31h0a1.3,1.3,0,0,1,1.3-1.29h0a1.3,1.3,0,0,0-1.3,1.29h0a1.3,1.3,0,0,0,1.29,1.31h0a1.31,1.31,0,0,0,1.31-1.29v0a1.31,1.31,0,0,0-1.29-1.3Z" transform="translate(-299.08 -210.11)"/></g></g><g class="cls-53"><g class="cls-244"><g class="cls-245"><rect class="cls-246" x="310.49" y="336.65" width="2.76" height="2.76" transform="translate(-329.04 435.61) rotate(-89.3)"/></g><path class="cls-247" d="M311.89,336.67h0a1.36,1.36,0,0,1,1.34,1.36v0a1.36,1.36,0,0,1-1.36,1.34h0a1.36,1.36,0,0,1-1.34-1.36v0a1.36,1.36,0,0,1,1.35-1.34h0a1.36,1.36,0,0,0-1.35,1.34v0a1.36,1.36,0,0,0,1.34,1.36h0a1.36,1.36,0,0,0,1.36-1.34v0a1.36,1.36,0,0,0-1.34-1.36Z" transform="translate(-299.08 -210.11)"/><g class="cls-248"><rect class="cls-249" x="315.99" y="336.6" width="2.66" height="2.66" transform="translate(-323.56 440.95) rotate(-89.3)"/></g><path class="cls-250" d="M317.34,336.62h0a1.3,1.3,0,0,1,1.28,1.3v0a1.3,1.3,0,0,1-1.3,1.29h0a1.3,1.3,0,0,1-1.28-1.3v0a1.3,1.3,0,0,1,1.3-1.29h0a1.3,1.3,0,0,0-1.3,1.29v0a1.3,1.3,0,0,0,1.28,1.3h0a1.3,1.3,0,0,0,1.3-1.29v0a1.3,1.3,0,0,0-1.28-1.3Z" transform="translate(-299.08 -210.11)"/><g class="cls-251"><rect class="cls-252" x="321.62" y="336.66" width="2.66" height="2.66" transform="translate(-318.06 446.65) rotate(-89.3)"/></g><path class="cls-253" d="M323,336.69h0a1.31,1.31,0,0,1,1.29,1.3v0A1.3,1.3,0,0,1,323,339.3h0a1.3,1.3,0,0,1-1.29-1.31h0a1.3,1.3,0,0,1,1.3-1.29h0a1.3,1.3,0,0,0-1.3,1.29h0a1.3,1.3,0,0,0,1.29,1.31h0a1.3,1.3,0,0,0,1.31-1.29v0a1.31,1.31,0,0,0-1.29-1.3Z" transform="translate(-299.08 -210.11)"/><g class="cls-254"><rect class="cls-255" x="327.2" y="336.73" width="2.66" height="2.66" transform="translate(-312.62 452.3) rotate(-89.3)"/></g><path class="cls-256" d="M328.55,336.76h0a1.31,1.31,0,0,1,1.29,1.3v0a1.31,1.31,0,0,1-1.31,1.29h0a1.3,1.3,0,0,1-1.29-1.31h0a1.3,1.3,0,0,1,1.3-1.29h0a1.3,1.3,0,0,0-1.3,1.29h0a1.3,1.3,0,0,0,1.29,1.31h0a1.31,1.31,0,0,0,1.31-1.29v0a1.31,1.31,0,0,0-1.29-1.3Z" transform="translate(-299.08 -210.11)"/><g class="cls-257"><rect class="cls-258" x="332.78" y="336.8" width="2.66" height="2.66" transform="translate(-307.18 457.95) rotate(-89.3)"/></g><path class="cls-259" d="M334.13,336.83h0a1.31,1.31,0,0,1,1.29,1.3v0a1.32,1.32,0,0,1-1.31,1.29h0a1.3,1.3,0,0,1-1.29-1.31h0a1.3,1.3,0,0,1,1.3-1.29h0a1.3,1.3,0,0,0-1.3,1.29h0a1.3,1.3,0,0,0,1.29,1.31h0a1.32,1.32,0,0,0,1.31-1.29v0a1.31,1.31,0,0,0-1.29-1.3Z" transform="translate(-299.08 -210.11)"/><g class="cls-260"><rect class="cls-261" x="338.73" y="337.05" width="2.66" height="2.66" transform="translate(-301.55 464.13) rotate(-89.3)"/></g><path class="cls-262" d="M340.07,337.07h0a1.3,1.3,0,0,1,1.29,1.31h0a1.3,1.3,0,0,1-1.3,1.29h0a1.3,1.3,0,0,1-1.29-1.3v0a1.31,1.31,0,0,1,1.3-1.29h0a1.31,1.31,0,0,0-1.3,1.29v0a1.3,1.3,0,0,0,1.29,1.3h0a1.3,1.3,0,0,0,1.3-1.29h0a1.3,1.3,0,0,0-1.29-1.31Z" transform="translate(-299.08 -210.11)"/></g></g></g></g></g></svg>