<svg xmlns="http://www.w3.org/2000/svg" xmlns:xlink="http://www.w3.org/1999/xlink" viewBox="0 0 496.28 292.58"><defs><style>.cls-1{fill:url(#linear-gradient);}.cls-2{fill:url(#linear-gradient-2);}.cls-3{fill:url(#linear-gradient-3);}.cls-4{fill:url(#linear-gradient-4);}.cls-5{fill:url(#linear-gradient-5);}.cls-6{fill:url(#linear-gradient-6);}.cls-7{fill:url(#linear-gradient-7);}.cls-13,.cls-14,.cls-32,.cls-39,.cls-41,.cls-43,.cls-44,.cls-8{fill:none;}.cls-9{clip-path:url(#clip-path);}.cls-10{clip-path:url(#clip-path-2);}.cls-11{mask:url(#mask);}.cls-12{fill:url(#linear-gradient-8);}.cls-13{stroke:#878787;}.cls-13,.cls-14,.cls-32,.cls-39,.cls-41,.cls-43,.cls-44{stroke-miterlimit:10;}.cls-13,.cls-39,.cls-41{stroke-width:0.25px;}.cls-14,.cls-39{stroke:#706f6f;}.cls-14,.cls-43{stroke-width:0.75px;}.cls-15{clip-path:url(#clip-path-3);}.cls-16{mask:url(#mask-2);}.cls-17{fill:url(#linear-gradient-9);}.cls-18{clip-path:url(#clip-path-4);}.cls-19{mask:url(#mask-3);}.cls-20{fill:url(#linear-gradient-10);}.cls-21{clip-path:url(#clip-path-5);}.cls-22{mask:url(#mask-4);}.cls-23{fill:url(#linear-gradient-11);}.cls-24{clip-path:url(#clip-path-6);}.cls-25{mask:url(#mask-5);}.cls-26{fill:url(#linear-gradient-12);}.cls-27{clip-path:url(#clip-path-7);}.cls-28{mask:url(#mask-6);}.cls-29{fill:url(#linear-gradient-13);}.cls-30{clip-path:url(#clip-path-8);}.cls-31{fill:url(#linear-gradient-14);}.cls-32,.cls-41{stroke:#477e25;}.cls-33{fill:#477e25;}.cls-34{clip-path:url(#clip-path-10);}.cls-35{fill:url(#linear-gradient-15);}.cls-36{clip-path:url(#clip-path-12);}.cls-37{mask:url(#mask-7);}.cls-38{fill:url(#linear-gradient-16);}.cls-40{fill:#c6c6c6;}.cls-42{fill:#3c3c3b;}.cls-43,.cls-44{stroke:#575756;}.cls-45{font-size:22px;fill:#dbb24a;font-family:Rockwell;}.cls-46{letter-spacing:-0.02em;}</style><linearGradient id="linear-gradient" y1="595.28" x2="1" y2="595.28" gradientTransform="matrix(51.46, 0, 0, -51.46, 451.41, 30971.61)" gradientUnits="userSpaceOnUse"><stop offset="0" stop-color="#fff"/><stop offset="0.12" stop-color="#fbfbfb"/><stop offset="0.24" stop-color="#eee"/><stop offset="0.37" stop-color="#d8d8d8"/><stop offset="0.5" stop-color="#bbb"/><stop offset="0.63" stop-color="#949494"/><stop offset="0.77" stop-color="#656565"/><stop offset="0.9" stop-color="#2e2e2e"/><stop offset="1"/></linearGradient><linearGradient id="linear-gradient-2" x1="0" y1="595.28" x2="1" y2="595.28" gradientTransform="matrix(51.46, 0, 0, -51.46, 451.3, 30843.11)" xlink:href="#linear-gradient"/><linearGradient id="linear-gradient-3" x1="0" y1="595.28" x2="1" y2="595.28" gradientTransform="matrix(51.46, 0, 0, -51.46, 328.41, 30842.88)" xlink:href="#linear-gradient"/><linearGradient id="linear-gradient-4" x1="0" y1="595.28" x2="1" y2="595.28" gradientTransform="matrix(51.46, 0, 0, -51.46, 327.22, 30971.67)" xlink:href="#linear-gradient"/><linearGradient id="linear-gradient-5" x1="0" y1="595.28" x2="1" y2="595.28" gradientTransform="matrix(51.46, 0, 0, -51.46, 151.62, 30984.5)" xlink:href="#linear-gradient"/><linearGradient id="linear-gradient-6" x1="0" y1="595.28" x2="1" y2="595.28" gradientTransform="matrix(51.46, 0, 0, -51.46, 152.8, 30823.74)" xlink:href="#linear-gradient"/><linearGradient id="linear-gradient-7" y1="595.28" x2="1" y2="595.28" gradientTransform="matrix(42.68, 0, 0, -42.68, 155.71, 25679.5)" gradientUnits="userSpaceOnUse"><stop offset="0" stop-color="#f2f2f2"/><stop offset="0" stop-color="#e1e1e1"/><stop offset="0" stop-color="#cbcbcb"/><stop offset="0" stop-color="#bababa"/><stop offset="0.01" stop-color="#afafaf"/><stop offset="0.01" stop-color="#a8a8a8"/><stop offset="0.01" stop-color="#a6a6a6"/><stop offset="0.08" stop-color="#959595"/><stop offset="0.31" stop-color="#606060"/><stop offset="0.52" stop-color="#373737"/><stop offset="0.72" stop-color="#191919"/><stop offset="0.88" stop-color="#060606"/><stop offset="1"/></linearGradient><clipPath id="clip-path" transform="translate(-90.89 -139.72)"><rect class="cls-8" width="841.89" height="595.28"/></clipPath><clipPath id="clip-path-2" transform="translate(-90.89 -139.72)"><rect class="cls-8" x="451.41" y="287.73" width="51.46" height="106.52"/></clipPath><mask id="mask" x="360.52" y="148.01" width="51.46" height="106.52" maskUnits="userSpaceOnUse"><g transform="translate(-90.89 -139.72)"><rect class="cls-1" x="451.41" y="287.73" width="51.46" height="106.52"/></g></mask><linearGradient id="linear-gradient-8" y1="595.28" x2="1" y2="595.28" gradientTransform="matrix(51.46, 0, 0, -51.46, 360.52, 30831.89)" gradientUnits="userSpaceOnUse"><stop offset="0" stop-color="#575756"/><stop offset="0.18" stop-color="#55595a"/><stop offset="0.38" stop-color="#4f5e67"/><stop offset="0.57" stop-color="#46667c"/><stop offset="0.78" stop-color="#38719a"/><stop offset="0.98" stop-color="#2780c0"/><stop offset="1" stop-color="#2581c4"/></linearGradient><clipPath id="clip-path-3" transform="translate(-90.89 -139.72)"><rect class="cls-8" x="451.3" y="159.23" width="51.46" height="106.52"/></clipPath><mask id="mask-2" x="360.41" y="19.52" width="51.46" height="106.52" maskUnits="userSpaceOnUse"><g transform="translate(-90.89 -139.72)"><rect class="cls-2" x="451.3" y="159.23" width="51.46" height="106.52"/></g></mask><linearGradient id="linear-gradient-9" x1="0" y1="595.28" x2="1" y2="595.28" gradientTransform="matrix(51.46, 0, 0, -51.46, 360.41, 30703.4)" xlink:href="#linear-gradient-8"/><clipPath id="clip-path-4" transform="translate(-90.89 -139.72)"><rect class="cls-8" x="328.41" y="159" width="51.46" height="106.52"/></clipPath><mask id="mask-3" x="237.52" y="19.28" width="51.46" height="106.52" maskUnits="userSpaceOnUse"><g transform="translate(-90.89 -139.72)"><rect class="cls-3" x="328.41" y="159" width="51.46" height="106.52"/></g></mask><linearGradient id="linear-gradient-10" x1="0" y1="595.28" x2="1" y2="595.28" gradientTransform="matrix(51.46, 0, 0, -51.46, 237.52, 30703.16)" xlink:href="#linear-gradient-8"/><clipPath id="clip-path-5" transform="translate(-90.89 -139.72)"><rect class="cls-8" x="327.22" y="287.79" width="51.46" height="106.52"/></clipPath><mask id="mask-4" x="236.33" y="148.07" width="51.46" height="106.52" maskUnits="userSpaceOnUse"><g transform="translate(-90.89 -139.72)"><rect class="cls-4" x="327.22" y="287.79" width="51.46" height="106.52"/></g></mask><linearGradient id="linear-gradient-11" x1="0" y1="595.28" x2="1" y2="595.28" gradientTransform="matrix(51.46, 0, 0, -51.46, 236.33, 30831.96)" xlink:href="#linear-gradient-8"/><clipPath id="clip-path-6" transform="translate(-90.89 -139.72)"><rect class="cls-8" x="151.62" y="300.61" width="51.46" height="106.52"/></clipPath><mask id="mask-5" x="60.73" y="160.9" width="51.46" height="106.52" maskUnits="userSpaceOnUse"><g transform="translate(-90.89 -139.72)"><rect class="cls-5" x="151.62" y="300.61" width="51.46" height="106.52"/></g></mask><linearGradient id="linear-gradient-12" x1="0" y1="595.28" x2="1" y2="595.28" gradientTransform="matrix(51.46, 0, 0, -51.46, 60.73, 30844.78)" xlink:href="#linear-gradient-8"/><clipPath id="clip-path-7" transform="translate(-90.89 -139.72)"><rect class="cls-8" x="152.8" y="139.86" width="51.46" height="106.52"/></clipPath><mask id="mask-6" x="61.91" y="0.14" width="51.46" height="106.52" maskUnits="userSpaceOnUse"><g transform="translate(-90.89 -139.72)"><rect class="cls-6" x="152.8" y="139.86" width="51.46" height="106.52"/></g></mask><linearGradient id="linear-gradient-13" x1="0" y1="595.28" x2="1" y2="595.28" gradientTransform="matrix(51.46, 0, 0, -51.46, 61.91, 30684.02)" xlink:href="#linear-gradient-8"/><clipPath id="clip-path-8" transform="translate(-90.89 -139.72)"><rect class="cls-8" x="216.55" y="260.14" width="100.95" height="33.05" rx="11.57"/></clipPath><linearGradient id="linear-gradient-14" y1="595.28" x2="1" y2="595.28" gradientTransform="matrix(100.95, 0, 0, -100.95, 125.66, 60229.86)" gradientUnits="userSpaceOnUse"><stop offset="0" stop-color="#1d1d1b"/><stop offset="0.19" stop-color="#5a5a59"/><stop offset="0.43" stop-color="#a0a09f"/><stop offset="0.63" stop-color="#d3d3d3"/><stop offset="0.78" stop-color="#f3f3f3"/><stop offset="0.86" stop-color="#fff"/><stop offset="1" stop-color="#fff"/></linearGradient><clipPath id="clip-path-10" transform="translate(-90.89 -139.72)"><rect class="cls-8" x="134.54" y="244.92" width="85.62" height="58.62" rx="22.16"/></clipPath><linearGradient id="linear-gradient-15" x1="0" y1="595.28" x2="1" y2="595.28" gradientTransform="matrix(85.62, 0, 0, -85.62, 43.65, 51100.83)" xlink:href="#linear-gradient-14"/><clipPath id="clip-path-12" transform="translate(-90.89 -139.72)"><rect class="cls-8" x="155.71" y="252.48" width="42.68" height="46.64"/></clipPath><mask id="mask-7" x="64.82" y="112.77" width="42.68" height="46.64" maskUnits="userSpaceOnUse"><g transform="translate(-90.89 -139.72)"><rect class="cls-7" x="155.71" y="252.48" width="42.68" height="46.64"/></g></mask><linearGradient id="linear-gradient-16" y1="595.28" x2="1" y2="595.28" gradientTransform="matrix(42.68, 0, 0, -42.68, 64.82, 25539.78)" gradientUnits="userSpaceOnUse"><stop offset="0" stop-color="#161412"/><stop offset="0.01" stop-color="#161412"/><stop offset="1" stop-color="#161412"/></linearGradient></defs><title>Salyut1</title><g id="Layer_2" data-name="Layer 2"><g id="Layer_1-2" data-name="Layer 1"><g class="cls-9"><g class="cls-10"><g class="cls-11"><rect class="cls-12" x="360.52" y="148.01" width="51.46" height="106.52"/></g></g><rect class="cls-13" x="360.52" y="148.01" width="51.46" height="106.52"/><line class="cls-14" x1="400.51" y1="148.01" x2="400.59" y2="255.57"/><line class="cls-14" x1="374.1" y1="147.98" x2="374.17" y2="254.03"/><line class="cls-14" x1="367.43" y1="147.87" x2="367.51" y2="253.89"/><line class="cls-14" x1="393.55" y1="148.01" x2="393.63" y2="255.33"/><line class="cls-14" x1="380.33" y1="148.01" x2="380.4" y2="254.6"/><line class="cls-14" x1="406.78" y1="148.01" x2="406.85" y2="256.05"/><line class="cls-14" x1="387.49" y1="148.01" x2="387.57" y2="254.86"/><line class="cls-14" x1="360.58" y1="158.82" x2="411.82" y2="160.62"/><line class="cls-14" x1="360.59" y1="170.49" x2="411.83" y2="171.77"/><line class="cls-14" x1="360.52" y1="184.09" x2="411.76" y2="185.37"/><line class="cls-14" x1="360.61" y1="196.08" x2="411.85" y2="197.75"/><line class="cls-14" x1="360.62" y1="209.38" x2="411.86" y2="210.48"/><line class="cls-14" x1="360.74" y1="244.49" x2="411.98" y2="245.59"/><line class="cls-14" x1="360.63" y1="233.24" x2="411.87" y2="234.35"/><line class="cls-14" x1="360.69" y1="221.65" x2="411.86" y2="222.75"/><g class="cls-15"><g class="cls-16"><rect class="cls-17" x="360.41" y="19.52" width="51.46" height="106.52"/></g></g><rect class="cls-13" x="360.41" y="19.52" width="51.46" height="106.52"/><line class="cls-14" x1="400.41" y1="19.52" x2="400.48" y2="127.08"/><line class="cls-14" x1="373.99" y1="19.48" x2="374.06" y2="125.53"/><line class="cls-14" x1="367.33" y1="19.38" x2="367.4" y2="125.4"/><line class="cls-14" x1="393.44" y1="19.52" x2="393.52" y2="126.83"/><line class="cls-14" x1="380.22" y1="19.51" x2="380.29" y2="126.11"/><line class="cls-14" x1="406.67" y1="19.52" x2="406.74" y2="127.55"/><line class="cls-14" x1="387.38" y1="19.52" x2="387.46" y2="126.37"/><line class="cls-14" x1="360.47" y1="30.32" x2="411.71" y2="32.12"/><line class="cls-14" x1="360.48" y1="42" x2="411.72" y2="43.27"/><line class="cls-14" x1="360.41" y1="55.59" x2="411.65" y2="56.88"/><line class="cls-14" x1="360.5" y1="67.59" x2="411.74" y2="69.26"/><line class="cls-14" x1="360.51" y1="80.89" x2="411.75" y2="81.99"/><line class="cls-14" x1="360.63" y1="116" x2="411.87" y2="117.1"/><line class="cls-14" x1="360.52" y1="104.75" x2="411.76" y2="105.85"/><line class="cls-14" x1="360.58" y1="93.15" x2="411.76" y2="94.25"/><g class="cls-18"><g class="cls-19"><rect class="cls-20" x="237.52" y="19.28" width="51.46" height="106.52"/></g></g><rect class="cls-13" x="237.52" y="19.28" width="51.46" height="106.52"/><line class="cls-14" x1="277.51" y1="19.28" x2="277.59" y2="126.85"/><line class="cls-14" x1="251.1" y1="19.25" x2="251.17" y2="125.3"/><line class="cls-14" x1="244.44" y1="19.14" x2="244.51" y2="125.16"/><line class="cls-14" x1="270.55" y1="19.28" x2="270.63" y2="126.6"/><line class="cls-14" x1="257.33" y1="19.28" x2="257.4" y2="125.87"/><line class="cls-14" x1="283.78" y1="19.28" x2="283.85" y2="127.32"/><line class="cls-14" x1="264.49" y1="19.28" x2="264.57" y2="126.13"/><line class="cls-14" x1="237.58" y1="30.09" x2="288.82" y2="31.89"/><line class="cls-14" x1="237.59" y1="41.77" x2="288.83" y2="43.04"/><line class="cls-14" x1="237.52" y1="55.36" x2="288.76" y2="56.65"/><line class="cls-14" x1="237.61" y1="67.36" x2="288.85" y2="69.02"/><line class="cls-14" x1="237.62" y1="80.66" x2="288.86" y2="81.76"/><line class="cls-14" x1="237.74" y1="115.76" x2="288.98" y2="116.87"/><line class="cls-14" x1="237.63" y1="104.52" x2="288.87" y2="105.62"/><line class="cls-14" x1="237.69" y1="92.92" x2="288.87" y2="94.02"/><g class="cls-21"><g class="cls-22"><rect class="cls-23" x="236.33" y="148.07" width="51.46" height="106.52"/></g></g><rect class="cls-13" x="236.33" y="148.07" width="51.46" height="106.52"/><line class="cls-14" x1="276.32" y1="148.07" x2="276.4" y2="255.64"/><line class="cls-14" x1="249.91" y1="148.04" x2="249.98" y2="254.09"/><line class="cls-14" x1="243.24" y1="147.94" x2="243.32" y2="253.96"/><line class="cls-14" x1="269.36" y1="148.07" x2="269.44" y2="255.39"/><line class="cls-14" x1="256.14" y1="148.07" x2="256.21" y2="254.67"/><line class="cls-14" x1="282.59" y1="148.07" x2="282.66" y2="256.11"/><line class="cls-14" x1="263.3" y1="148.07" x2="263.38" y2="254.93"/><line class="cls-14" x1="236.39" y1="158.88" x2="287.63" y2="160.68"/><line class="cls-14" x1="236.4" y1="170.56" x2="287.64" y2="171.83"/><line class="cls-14" x1="236.33" y1="184.15" x2="287.57" y2="185.44"/><line class="cls-14" x1="236.42" y1="196.15" x2="287.66" y2="197.82"/><line class="cls-14" x1="236.43" y1="209.45" x2="287.67" y2="210.55"/><line class="cls-14" x1="236.55" y1="244.56" x2="287.79" y2="245.66"/><line class="cls-14" x1="236.44" y1="233.31" x2="287.68" y2="234.41"/><line class="cls-14" x1="236.5" y1="221.71" x2="287.67" y2="222.81"/><g class="cls-24"><g class="cls-25"><rect class="cls-26" x="60.73" y="160.9" width="51.46" height="106.52"/></g></g><rect class="cls-13" x="60.73" y="160.9" width="51.46" height="106.52"/><line class="cls-14" x1="100.73" y1="160.9" x2="100.8" y2="268.46"/><line class="cls-14" x1="74.31" y1="160.87" x2="74.38" y2="266.92"/><line class="cls-14" x1="67.65" y1="160.76" x2="67.72" y2="266.78"/><line class="cls-14" x1="93.76" y1="160.9" x2="93.84" y2="268.22"/><line class="cls-14" x1="80.54" y1="160.9" x2="80.61" y2="267.49"/><line class="cls-14" x1="106.99" y1="160.9" x2="107.06" y2="268.94"/><line class="cls-14" x1="87.7" y1="160.9" x2="87.78" y2="267.75"/><line class="cls-14" x1="60.79" y1="171.71" x2="112.03" y2="173.51"/><line class="cls-14" x1="60.8" y1="183.38" x2="112.04" y2="184.66"/><line class="cls-14" x1="60.73" y1="196.98" x2="111.97" y2="198.26"/><line class="cls-14" x1="60.82" y1="208.97" x2="112.06" y2="210.64"/><line class="cls-14" x1="60.83" y1="222.27" x2="112.07" y2="223.38"/><line class="cls-14" x1="60.95" y1="257.38" x2="112.19" y2="258.48"/><line class="cls-14" x1="60.85" y1="246.14" x2="112.09" y2="247.24"/><line class="cls-14" x1="60.9" y1="234.54" x2="112.08" y2="235.64"/><g class="cls-27"><g class="cls-28"><rect class="cls-29" x="61.91" y="0.14" width="51.46" height="106.52"/></g></g><rect class="cls-13" x="61.91" y="0.14" width="51.46" height="106.52"/><line class="cls-14" x1="101.9" y1="0.14" x2="101.98" y2="107.7"/><line class="cls-14" x1="75.48" y1="0.11" x2="75.56" y2="106.16"/><line class="cls-14" x1="68.82" x2="68.89" y2="106.02"/><line class="cls-14" x1="94.94" y1="0.14" x2="95.01" y2="107.46"/><line class="cls-14" x1="81.71" y1="0.14" x2="81.79" y2="106.73"/><line class="cls-14" x1="108.16" y1="0.14" x2="108.24" y2="108.18"/><line class="cls-14" x1="88.88" y1="0.14" x2="88.95" y2="106.99"/><line class="cls-14" x1="61.97" y1="10.95" x2="113.21" y2="12.75"/><line class="cls-14" x1="61.98" y1="22.62" x2="113.22" y2="23.9"/><line class="cls-14" x1="61.91" y1="36.22" x2="113.15" y2="37.5"/><line class="cls-14" x1="62" y1="48.21" x2="113.24" y2="49.88"/><line class="cls-14" x1="62" y1="61.51" x2="113.24" y2="62.61"/><line class="cls-14" x1="62.13" y1="96.62" x2="113.37" y2="97.72"/><line class="cls-14" x1="62.02" y1="85.37" x2="113.26" y2="86.48"/><line class="cls-14" x1="62.08" y1="73.78" x2="113.25" y2="74.88"/><g class="cls-30"><rect class="cls-31" x="125.66" y="120.42" width="100.95" height="33.05"/></g><g class="cls-9"><rect class="cls-32" x="125.66" y="120.42" width="100.95" height="33.05" rx="11.57"/><path class="cls-33" d="M128.2,288.32H105a14.1,14.1,0,0,1,0-28.19H128.2a14.1,14.1,0,1,1,0,28.19" transform="translate(-90.89 -139.72)"/></g><g class="cls-34"><rect class="cls-35" x="43.65" y="105.2" width="85.62" height="58.62"/></g><g class="cls-9"><rect class="cls-32" x="43.65" y="105.2" width="85.62" height="58.62" rx="22.16"/><path class="cls-33" d="M384.67,288.18H321.23a5.62,5.62,0,0,1-5.62-5.62v-11.8a5.61,5.61,0,0,1,5.62-5.61h63.44a5.61,5.61,0,0,1,5.62,5.61v11.8a5.62,5.62,0,0,1-5.62,5.62" transform="translate(-90.89 -139.72)"/><path class="cls-33" d="M449.52,277c0,9.43-14.22,17.06-31.76,17.06S386,286.39,386,277s14.22-17.06,31.75-17.06,31.76,7.64,31.76,17.06" transform="translate(-90.89 -139.72)"/><path class="cls-33" d="M504.91,294.66l-46.64-4.74c-8.36-.42-15-6-15-12.6s6.5-12.43,15-12.89l47.43-2.15Z" transform="translate(-90.89 -139.72)"/></g><g class="cls-36"><g class="cls-37"><rect class="cls-38" x="64.82" y="112.77" width="42.68" height="46.64"/></g></g><g class="cls-9"><rect class="cls-39" x="64.82" y="112.76" width="42.68" height="46.64"/><path class="cls-40" d="M497.05,293.8l-28.29-2.89L468.11,264l29.23-1.32q-.15,15.54-.29,31.08" transform="translate(-90.89 -139.72)"/><path class="cls-41" d="M497.05,293.8l-28.29-2.89L468.11,264l29.23-1.32Q497.19,278.26,497.05,293.8Z" transform="translate(-90.89 -139.72)"/><path class="cls-42" d="M295,277.43c0,1.61-2.09,2.91-4.67,2.91s-4.67-1.3-4.67-2.91,2.09-2.91,4.67-2.91,4.67,1.3,4.67,2.91" transform="translate(-90.89 -139.72)"/><path class="cls-42" d="M275.84,277.43c0,1.89-1.92,3.42-4.29,3.42s-4.29-1.53-4.29-3.42,1.92-3.43,4.29-3.43,4.29,1.54,4.29,3.43" transform="translate(-90.89 -139.72)"/><path class="cls-42" d="M259.36,277.43c0,1.61-2.09,2.91-4.67,2.91S250,279,250,277.43s2.09-2.91,4.67-2.91,4.67,1.3,4.67,2.91" transform="translate(-90.89 -139.72)"/><line class="cls-43" x1="318.73" y1="128.77" x2="318.73" y2="133.95"/><line class="cls-44" x1="252.17" y1="128.01" x2="260.08" y2="128.01"/><line class="cls-44" x1="252.17" y1="130.7" x2="258.23" y2="130.7"/><line class="cls-43" x1="325.86" y1="130.7" x2="325.86" y2="133.95"/><line class="cls-44" x1="14.47" y1="134.29" x2="18.22" y2="134.29"/><line class="cls-44" x1="14.25" y1="131.79" x2="19.05" y2="131.79"/><line class="cls-43" x1="332.62" y1="128.77" x2="332.62" y2="133.95"/><rect class="cls-43" x="272.83" y="132.33" width="3.76" height="3.76"/><rect class="cls-43" x="339.14" y="128.01" width="4.22" height="16.67"/></g></g><text class="cls-45" transform="translate(418.11 286.56)">Sa<tspan class="cls-46" x="23.35" y="0">l</tspan><tspan x="29.34" y="0">yut 1</tspan></text></g></g></svg>