<svg xmlns="http://www.w3.org/2000/svg" xmlns:xlink="http://www.w3.org/1999/xlink" viewBox="0 0 79.88 160.09"><defs><style>.cls-1,.cls-12,.cls-14,.cls-16,.cls-17,.cls-19,.cls-21,.cls-22,.cls-4,.cls-5,.cls-6,.cls-9{fill:none;}.cls-2{clip-path:url(#clip-path);}.cls-3{fill:#c6c6c6;}.cls-4{stroke:#878787;}.cls-12,.cls-14,.cls-16,.cls-17,.cls-19,.cls-21,.cls-22,.cls-4,.cls-5,.cls-6,.cls-9{stroke-miterlimit:10;}.cls-22,.cls-4,.cls-5,.cls-6,.cls-9{stroke-width:0.25px;}.cls-5{stroke:#706f6f;}.cls-6{stroke:#575756;}.cls-7{clip-path:url(#clip-path-2);}.cls-8{fill:url(#radial-gradient);}.cls-12,.cls-14,.cls-16,.cls-17,.cls-19,.cls-9{stroke:#1d1d1b;}.cls-10{fill:#3c3c3b;}.cls-11{fill:#dadada;}.cls-13{fill:#fff;}.cls-14{stroke-width:0.75px;}.cls-15{fill:#1d71b8;}.cls-16{stroke-width:2px;}.cls-17{stroke-width:3px;}.cls-18{fill:#1d1d1b;}.cls-19{stroke-width:0.5px;}.cls-20{fill:#be1622;}.cls-21,.cls-22{stroke:#fff;}.cls-23{fill:#312783;}</style><clipPath id="clip-path" transform="translate(-393.11 -243.97)"><rect class="cls-1" width="841.89" height="595.28"/></clipPath><clipPath id="clip-path-2" transform="translate(-393.11 -243.97)"><path class="cls-1" d="M424.51,271.21l-.9,42.45,19.55,0v-.2q-.33-21.22-.65-42.45c-.93-4.28-4-17.33-8.51-17.37h0c-4.56,0-8.35,13.34-9.47,17.53"/></clipPath><radialGradient id="radial-gradient" cx="0" cy="595.28" r="1" gradientTransform="matrix(0, -30.27, -27.63, 0, 16887.56, 280.96)" gradientUnits="userSpaceOnUse"><stop offset="0" stop-color="#fff"/><stop offset="0.09" stop-color="#fff"/><stop offset="0.18" stop-color="#f9f9f9"/><stop offset="0.29" stop-color="#e9e9e9"/><stop offset="0.41" stop-color="#cecece"/><stop offset="0.55" stop-color="#a8a8a8"/><stop offset="0.69" stop-color="#787877"/><stop offset="0.84" stop-color="#3e3e3d"/><stop offset="0.92" stop-color="#1d1d1b"/><stop offset="1" stop-color="#1d1d1b"/></radialGradient></defs><title>samarbejde</title><g id="Layer_2" data-name="Layer 2"><g id="Layer_1-2" data-name="Layer 1"><g class="cls-2"><path class="cls-3" d="M444.61,393.73l-21.5,0q5.72-8.24,11.44-16.48l10.06,16.52" transform="translate(-393.11 -243.97)"/><path class="cls-4" d="M444.61,393.73l-21.5,0q5.72-8.24,11.44-16.48Z" transform="translate(-393.11 -243.97)"/><path class="cls-3" d="M443,368.58l0,13.29a.51.51,0,0,1-.53.48l-18.5,0a.5.5,0,0,1-.52-.48l0-13.29a.51.51,0,0,1,.53-.48l18.5,0a.51.51,0,0,1,.52.48" transform="translate(-393.11 -243.97)"/><path class="cls-5" d="M443,368.58l0,13.29a.51.51,0,0,1-.53.48l-18.5,0a.5.5,0,0,1-.52-.48l0-13.29a.51.51,0,0,1,.53-.48l18.5,0A.51.51,0,0,1,443,368.58Z" transform="translate(-393.11 -243.97)"/><rect class="cls-3" x="406.43" y="330.79" width="53.77" height="19.55" transform="translate(-301.48 529.03) rotate(-89.85)"/><rect class="cls-6" x="406.43" y="330.79" width="53.77" height="19.55" transform="translate(-301.48 529.03) rotate(-89.85)"/><path class="cls-3" d="M445.2,367.9v.42a.69.69,0,0,1-.71.64l-22.49,0a.67.67,0,0,1-.7-.64v-.42a.68.68,0,0,1,.71-.64l22.49.05a.68.68,0,0,1,.7.64" transform="translate(-393.11 -243.97)"/><path class="cls-6" d="M445.2,367.9v.42a.69.69,0,0,1-.71.64l-22.49,0a.67.67,0,0,1-.7-.64v-.42a.68.68,0,0,1,.71-.64l22.49.05A.68.68,0,0,1,445.2,367.9Z" transform="translate(-393.11 -243.97)"/></g><g class="cls-7"><rect class="cls-8" x="406.09" y="254.81" width="54.59" height="57.76" transform="translate(-471.86 117.31) rotate(-41.82)"/></g><g class="cls-2"><path class="cls-9" d="M443.16,313.7l-19.55,0,.9-42.45c1.12-4.2,4.92-17.56,9.49-17.53s7.58,13.09,8.51,17.37q.33,21.22.65,42.45" transform="translate(-393.11 -243.97)"/><rect class="cls-10" x="432.32" y="360.08" width="1.84" height="19.55" transform="translate(-330.89 558.12) rotate(-89.84)"/><line class="cls-5" x1="30.66" y1="69.69" x2="49.66" y2="59.88"/><line class="cls-5" x1="30.87" y1="59.73" x2="49.9" y2="59.81"/><line class="cls-5" x1="49.74" y1="69.65" x2="31.22" y2="59.7"/><line class="cls-5" x1="49.45" y1="48.87" x2="31.49" y2="37.96"/><line class="cls-5" x1="49.66" y1="59.88" x2="31.12" y2="48.82"/><line class="cls-5" x1="31.49" y1="37.86" x2="49.21" y2="27.01"/><line class="cls-5" x1="31.12" y1="48.82" x2="49.27" y2="37.93"/><line class="cls-5" x1="31.11" y1="59.68" x2="49.4" y2="48.94"/><line class="cls-5" x1="31.94" y1="27.32" x2="49.28" y2="37.8"/><line class="cls-5" x1="31.55" y1="27.24" x2="49.41" y2="27.25"/><line class="cls-5" x1="30.85" y1="48.88" x2="49.74" y2="48.96"/><line class="cls-5" x1="31.26" y1="37.91" x2="49.57" y2="37.86"/><path class="cls-11" d="M419,384.64H408.33a13.52,13.52,0,0,1-13.52-13.52V353.18a13.52,13.52,0,0,1,13.52-13.52H419a13.51,13.51,0,0,1,13.51,13.52v17.94A13.51,13.51,0,0,1,419,384.64" transform="translate(-393.11 -243.97)"/><rect class="cls-12" x="1.7" y="95.69" width="37.67" height="44.98" rx="13.52"/><path class="cls-13" d="M411.51,401.9c.21-.85.48-2.07.73-3.54a63.3,63.3,0,0,0,.65-7.54c.27-5.17.2-6.64-.65-7-.26-.11-.34,0-2.13.16-2.17.2-2.23.06-2.55.23-.88.44-1,1.74-.8,7,.11,2.33.17,3.55.37,5.71s.41,3.81.57,5a1.91,1.91,0,0,0,3.81,0" transform="translate(-393.11 -243.97)"/><path class="cls-14" d="M411.51,401.9c.21-.85.48-2.07.73-3.54a63.3,63.3,0,0,0,.65-7.54c.27-5.17.2-6.64-.65-7-.26-.11-.34,0-2.13.16-2.17.2-2.23.06-2.55.23-.88.44-1,1.74-.8,7,.11,2.33.17,3.55.37,5.71s.41,3.81.57,5a1.91,1.91,0,0,0,3.81,0Z" transform="translate(-393.11 -243.97)"/><path class="cls-13" d="M419.31,401.82c.21-.85.48-2.06.73-3.53a54.72,54.72,0,0,0,.65-7.49c.06-1.42.1-3.3.06-5.51h-6.22c-.06,2.23,0,4.21,0,5.87,0,.63.1,2.81.37,5.67.19,2.08.4,3.79.57,5a1.91,1.91,0,0,0,3.81,0" transform="translate(-393.11 -243.97)"/><path class="cls-14" d="M419.31,401.82c.21-.85.48-2.06.73-3.53a54.72,54.72,0,0,0,.65-7.49c.06-1.42.1-3.3.06-5.51h-6.22c-.06,2.23,0,4.21,0,5.87,0,.63.1,2.81.37,5.67.19,2.08.4,3.79.57,5a1.91,1.91,0,0,0,3.81,0Z" transform="translate(-393.11 -243.97)"/><path class="cls-13" d="M431.91,348.14c0,7.38-8.17,13.37-18.24,13.37s-18.23-6-18.23-13.37,8.16-13.37,18.23-13.37,18.24,6,18.24,13.37" transform="translate(-393.11 -243.97)"/><ellipse class="cls-12" cx="20.57" cy="104.17" rx="18.23" ry="13.37"/><path class="cls-13" d="M413.65,382h0a8.91,8.91,0,0,1-8.92-8.91v-2.64a8.92,8.92,0,0,1,17.83,0v2.64a8.91,8.91,0,0,1-8.91,8.91" transform="translate(-393.11 -243.97)"/><path class="cls-12" d="M413.65,382h0a8.91,8.91,0,0,1-8.92-8.91v-2.64a8.92,8.92,0,0,1,17.83,0v2.64A8.91,8.91,0,0,1,413.65,382Z" transform="translate(-393.11 -243.97)"/><path class="cls-13" d="M400.82,384.5A73.07,73.07,0,0,0,404,374.31a72.3,72.3,0,0,0,1.48-9A1.92,1.92,0,0,0,404,363a2.44,2.44,0,0,0-1.44.23,2.47,2.47,0,0,0-1.19,1.44,60.73,60.73,0,0,0-4.28,19,1.92,1.92,0,0,0,1.4,2.32,1.91,1.91,0,0,0,2.3-1.42" transform="translate(-393.11 -243.97)"/><path class="cls-14" d="M400.82,384.5A73.07,73.07,0,0,0,404,374.31a72.3,72.3,0,0,0,1.48-9A1.92,1.92,0,0,0,404,363a2.44,2.44,0,0,0-1.44.23,2.47,2.47,0,0,0-1.19,1.44,60.73,60.73,0,0,0-4.28,19,1.92,1.92,0,0,0,1.4,2.32A1.91,1.91,0,0,0,400.82,384.5Z" transform="translate(-393.11 -243.97)"/><path class="cls-13" d="M421.75,365.28c.13,2.25.36,4.67.76,7.24a75.25,75.25,0,0,0,2.92,12.18,1.9,1.9,0,1,0,3.74-.72,77.06,77.06,0,0,0-1.32-11.61c-.41-2.15-.89-4.17-1.41-6a6.1,6.1,0,0,0-1.74-3,2.36,2.36,0,0,0-.86-.32,1.82,1.82,0,0,0-.57,0,1.91,1.91,0,0,0-1.52,2.24" transform="translate(-393.11 -243.97)"/><path class="cls-14" d="M421.75,365.28c.13,2.25.36,4.67.76,7.24a75.25,75.25,0,0,0,2.92,12.18,1.9,1.9,0,1,0,3.74-.72,77.06,77.06,0,0,0-1.32-11.61c-.41-2.15-.89-4.17-1.41-6a6.1,6.1,0,0,0-1.74-3,2.36,2.36,0,0,0-.86-.32,1.82,1.82,0,0,0-.57,0A1.91,1.91,0,0,0,421.75,365.28Z" transform="translate(-393.11 -243.97)"/><path class="cls-15" d="M420,357H407.77a8.09,8.09,0,0,1,0-16.18H420A8.09,8.09,0,1,1,420,357" transform="translate(-393.11 -243.97)"/><path class="cls-16" d="M420,357H407.77a8.09,8.09,0,0,1,0-16.18H420A8.09,8.09,0,1,1,420,357Z" transform="translate(-393.11 -243.97)"/><path class="cls-13" d="M421.27,386.26H406c-.17-1.11-.33-2.23-.5-3.34-.21-1.42-.43-2.84-.64-4.26l1.52-1.85,13.88-.25,2.18,1.83c-.4,2.62-.79,5.25-1.19,7.87" transform="translate(-393.11 -243.97)"/><path class="cls-12" d="M421.27,386.26H406c-.17-1.11-.33-2.23-.5-3.34-.21-1.42-.43-2.84-.64-4.26l1.52-1.85,13.88-.25,2.18,1.83C422.06,381,421.67,383.64,421.27,386.26Z" transform="translate(-393.11 -243.97)"/><path class="cls-13" d="M396.27,348.14c0,2-.37,3.57-.83,3.57s-.83-1.6-.83-3.57.37-3.57.83-3.57.83,1.59.83,3.57" transform="translate(-393.11 -243.97)"/><ellipse class="cls-17" cx="2.33" cy="104.17" rx="0.83" ry="3.57"/><path class="cls-13" d="M431.05,348.58c0,2,.28,3.63.63,3.63s.64-1.62.64-3.63-.28-3.64-.64-3.64-.63,1.63-.63,3.64" transform="translate(-393.11 -243.97)"/><path class="cls-17" d="M431.05,348.58c0,2,.28,3.63.63,3.63s.64-1.62.64-3.63-.28-3.64-.64-3.64S431.05,346.57,431.05,348.58Z" transform="translate(-393.11 -243.97)"/><rect class="cls-13" x="15.61" y="121.4" width="9.77" height="6.31"/><rect class="cls-12" x="15.61" y="121.4" width="9.77" height="6.31"/><path class="cls-18" d="M411.34,370.26a1.16,1.16,0,1,1-1.12-.85,1,1,0,0,1,1.12.85" transform="translate(-393.11 -243.97)"/><path class="cls-12" d="M411.34,370.26a1.16,1.16,0,1,1-1.12-.85A1,1,0,0,1,411.34,370.26Z" transform="translate(-393.11 -243.97)"/><line class="cls-12" x1="20.56" y1="121.4" x2="20.54" y2="127.71"/><rect class="cls-3" x="22.09" y="125.44" width="3.08" height="2.27"/><rect class="cls-12" x="22.09" y="125.44" width="3.08" height="2.27"/><rect class="cls-3" x="16" y="121.91" width="4.5" height="2.64"/><rect class="cls-19" x="16" y="121.91" width="4.5" height="2.64"/><path class="cls-3" d="M415.19,366.2c0-.16-.26-.3-.57-.3s-.56.14-.56.3.25.3.56.3.57-.14.57-.3" transform="translate(-393.11 -243.97)"/><path class="cls-9" d="M415.19,366.2c0-.16-.26-.3-.57-.3s-.56.14-.56.3.25.3.56.3S415.19,366.36,415.19,366.2Z" transform="translate(-393.11 -243.97)"/><path class="cls-20" d="M417.05,367.33a.32.32,0,0,1-.32.32.33.33,0,0,1,0-.65.32.32,0,0,1,.32.33" transform="translate(-393.11 -243.97)"/><path class="cls-9" d="M417.05,367.33a.32.32,0,0,1-.32.32.33.33,0,0,1,0-.65A.32.32,0,0,1,417.05,367.33Z" transform="translate(-393.11 -243.97)"/><path class="cls-18" d="M415.19,367.71a.51.51,0,1,1-.51-.51.51.51,0,0,1,.51.51" transform="translate(-393.11 -243.97)"/><path class="cls-9" d="M415.19,367.71a.51.51,0,1,1-.51-.51A.51.51,0,0,1,415.19,367.71Z" transform="translate(-393.11 -243.97)"/><path class="cls-18" d="M418.08,366.17a.45.45,0,0,1-.9,0,.45.45,0,1,1,.9,0" transform="translate(-393.11 -243.97)"/><path class="cls-9" d="M418.08,366.17a.45.45,0,0,1-.9,0,.45.45,0,1,1,.9,0Z" transform="translate(-393.11 -243.97)"/><line class="cls-21" x1="31.21" y1="122.57" x2="32.86" y2="122.22"/><polygon class="cls-13" points="29.36 123 29.31 122.99 29.27 123.02 29.27 122.97 29.23 122.95 29.28 122.94 29.29 122.89 29.32 122.93 29.37 122.92 29.34 122.96 29.36 123"/><polygon class="cls-13" points="29.77 122.92 29.72 122.91 29.68 122.94 29.68 122.89 29.64 122.87 29.69 122.85 29.7 122.81 29.73 122.84 29.78 122.84 29.75 122.88 29.77 122.92"/><polygon class="cls-13" points="29.57 122.96 29.52 122.95 29.48 122.98 29.48 122.93 29.44 122.91 29.49 122.89 29.5 122.85 29.53 122.89 29.58 122.88 29.55 122.92 29.57 122.96"/><polygon class="cls-13" points="29.12 123.05 29.08 123.04 29.04 123.07 29.04 123.02 29 123 29.04 122.98 29.06 122.94 29.09 122.98 29.13 122.97 29.1 123.01 29.12 123.05"/><polygon class="cls-13" points="30.19 122.83 30.15 122.82 30.11 122.85 30.11 122.81 30.07 122.78 30.11 122.77 30.13 122.72 30.16 122.76 30.2 122.75 30.18 122.79 30.19 122.83"/><polygon class="cls-13" points="30.6 122.75 30.56 122.74 30.52 122.77 30.52 122.72 30.48 122.7 30.52 122.68 30.54 122.64 30.57 122.67 30.61 122.67 30.59 122.71 30.6 122.75"/><polygon class="cls-13" points="30.4 122.79 30.36 122.78 30.32 122.81 30.32 122.76 30.28 122.74 30.32 122.72 30.34 122.68 30.37 122.71 30.41 122.71 30.39 122.75 30.4 122.79"/><polygon class="cls-13" points="29.98 122.88 29.93 122.86 29.89 122.89 29.89 122.85 29.86 122.83 29.9 122.81 29.92 122.77 29.94 122.8 29.99 122.8 29.96 122.83 29.98 122.88"/><polygon class="cls-13" points="31.04 122.66 30.99 122.65 30.96 122.68 30.96 122.63 30.92 122.61 30.96 122.59 30.98 122.55 31 122.58 31.05 122.58 31.02 122.62 31.04 122.66"/><polygon class="cls-13" points="30.83 122.7 30.79 122.69 30.75 122.72 30.75 122.67 30.71 122.65 30.75 122.64 30.77 122.59 30.8 122.63 30.84 122.62 30.82 122.66 30.83 122.7"/><polygon class="cls-13" points="29.51 123.78 29.46 123.77 29.43 123.8 29.43 123.75 29.39 123.73 29.43 123.72 29.45 123.67 29.48 123.71 29.52 123.7 29.5 123.74 29.51 123.78"/><polygon class="cls-13" points="29.92 123.71 29.88 123.69 29.84 123.72 29.84 123.68 29.8 123.66 29.84 123.64 29.86 123.6 29.89 123.63 29.93 123.63 29.91 123.67 29.92 123.71"/><polygon class="cls-13" points="29.72 123.74 29.68 123.73 29.64 123.76 29.64 123.72 29.6 123.69 29.64 123.68 29.66 123.63 29.69 123.67 29.73 123.67 29.7 123.7 29.72 123.74"/><polygon class="cls-13" points="29.27 123.82 29.23 123.81 29.19 123.84 29.19 123.8 29.15 123.77 29.2 123.76 29.21 123.72 29.24 123.75 29.29 123.75 29.26 123.78 29.27 123.82"/><polygon class="cls-13" points="30.35 123.63 30.3 123.61 30.27 123.64 30.27 123.6 30.23 123.58 30.27 123.56 30.29 123.52 30.32 123.55 30.36 123.55 30.33 123.59 30.35 123.63"/><polygon class="cls-13" points="30.76 123.55 30.71 123.54 30.68 123.57 30.68 123.53 30.64 123.5 30.68 123.49 30.7 123.44 30.73 123.48 30.77 123.47 30.74 123.51 30.76 123.55"/><polygon class="cls-13" points="30.56 123.59 30.51 123.58 30.48 123.61 30.48 123.56 30.44 123.54 30.48 123.52 30.5 123.48 30.53 123.51 30.57 123.51 30.54 123.55 30.56 123.59"/><polygon class="cls-13" points="30.14 123.67 30.09 123.66 30.05 123.68 30.05 123.64 30.01 123.62 30.06 123.6 30.07 123.56 30.1 123.59 30.15 123.59 30.12 123.63 30.14 123.67"/><polygon class="cls-13" points="31.2 123.47 31.16 123.46 31.12 123.49 31.12 123.44 31.08 123.42 31.13 123.41 31.14 123.36 31.17 123.4 31.21 123.39 31.19 123.43 31.2 123.47"/><polygon class="cls-13" points="30.99 123.51 30.95 123.5 30.91 123.53 30.91 123.48 30.87 123.46 30.92 123.44 30.93 123.4 30.96 123.44 31.01 123.43 30.98 123.47 30.99 123.51"/><polygon class="cls-13" points="29.58 124.08 29.53 124.07 29.49 124.1 29.49 124.06 29.45 124.03 29.5 124.02 29.51 123.97 29.54 124.01 29.59 124 29.56 124.04 29.58 124.08"/><polygon class="cls-13" points="29.98 124 29.94 123.99 29.9 124.02 29.9 123.97 29.86 123.95 29.91 123.94 29.92 123.89 29.95 123.93 30 123.92 29.97 123.96 29.98 124"/><polygon class="cls-13" points="29.79 124.04 29.74 124.03 29.7 124.06 29.7 124.01 29.66 123.99 29.71 123.97 29.72 123.93 29.75 123.97 29.8 123.96 29.77 124 29.79 124.04"/><polygon class="cls-13" points="29.34 124.13 29.3 124.12 29.26 124.15 29.26 124.11 29.22 124.08 29.26 124.07 29.28 124.02 29.3 124.06 29.35 124.05 29.32 124.09 29.34 124.13"/><polygon class="cls-13" points="30.41 123.91 30.37 123.9 30.33 123.93 30.33 123.89 30.29 123.86 30.34 123.85 30.35 123.81 30.38 123.84 30.43 123.83 30.4 123.87 30.41 123.91"/><polygon class="cls-13" points="30.82 123.83 30.77 123.82 30.74 123.85 30.74 123.8 30.7 123.78 30.74 123.77 30.76 123.72 30.79 123.75 30.83 123.75 30.8 123.79 30.82 123.83"/><polygon class="cls-13" points="30.62 123.87 30.58 123.86 30.54 123.89 30.54 123.84 30.5 123.82 30.54 123.81 30.56 123.76 30.59 123.8 30.63 123.79 30.6 123.83 30.62 123.87"/><polygon class="cls-13" points="30.2 123.96 30.15 123.94 30.11 123.97 30.11 123.93 30.08 123.91 30.12 123.89 30.14 123.85 30.16 123.88 30.21 123.88 30.18 123.92 30.2 123.96"/><polygon class="cls-13" points="31.26 123.74 31.21 123.73 31.18 123.76 31.18 123.71 31.14 123.69 31.18 123.67 31.2 123.63 31.23 123.67 31.27 123.66 31.24 123.7 31.26 123.74"/><polygon class="cls-13" points="31.05 123.78 31.01 123.77 30.97 123.8 30.97 123.76 30.93 123.73 30.98 123.72 30.99 123.67 31.02 123.71 31.07 123.7 31.04 123.74 31.05 123.78"/><line class="cls-22" x1="31.26" y1="123.12" x2="33.18" y2="122.77"/><line class="cls-22" x1="31.35" y1="123.61" x2="33.28" y2="123.26"/><line class="cls-22" x1="29.25" y1="124.53" x2="33.37" y2="123.71"/><line class="cls-22" x1="29.3" y1="124.88" x2="33.42" y2="124.05"/><line class="cls-22" x1="29.36" y1="125.24" x2="33.52" y2="124.36"/><polygon class="cls-23" points="33.63 125.49 29.77 126.45 29.25 124.29 33.11 123.32 33.63 125.49"/><polygon class="cls-13" points="33.28 124.05 29.42 125.01 29.25 124.29 33.11 123.32 33.28 124.05"/><polygon class="cls-20" points="33.63 125.49 29.77 126.45 29.6 125.73 33.46 124.76 33.63 125.49"/><polygon class="cls-9" points="33.64 125.49 29.77 126.45 29.24 124.25 33.11 123.28 33.64 125.49"/><line class="cls-21" x1="39.96" y1="77.93" x2="46.33" y2="78.36"/><path class="cls-20" d="M440.27,329.57l-16-.79c0-2.62.09-5.25.13-7.87l15.85,1c0,2.55,0,5.09,0,7.64" transform="translate(-393.11 -243.97)"/><path class="cls-23" d="M433.1,325.56l-8.77-.58c0-1.36.05-2.72.08-4.07l8.45.54Z" transform="translate(-393.11 -243.97)"/><polygon class="cls-13" points="32.82 77.58 32.66 77.51 32.5 77.56 32.52 77.44 32.38 77.34 32.56 77.34 32.64 77.23 32.72 77.35 32.91 77.38 32.78 77.45 32.82 77.58"/><polygon class="cls-13" points="34.39 77.69 34.23 77.63 34.07 77.67 34.09 77.55 33.96 77.46 34.14 77.45 34.21 77.34 34.3 77.46 34.48 77.49 34.35 77.57 34.39 77.69"/><polygon class="cls-13" points="33.62 77.64 33.46 77.57 33.3 77.62 33.33 77.5 33.19 77.4 33.37 77.39 33.44 77.28 33.53 77.4 33.71 77.43 33.59 77.51 33.62 77.64"/><polygon class="cls-13" points="31.91 77.52 31.75 77.45 31.59 77.5 31.61 77.38 31.48 77.28 31.66 77.27 31.73 77.17 31.82 77.28 32 77.31 31.88 77.39 31.91 77.52"/><polygon class="cls-13" points="36.03 77.81 35.87 77.74 35.71 77.79 35.73 77.67 35.6 77.57 35.78 77.56 35.85 77.46 35.94 77.57 36.12 77.6 36 77.68 36.03 77.81"/><polygon class="cls-13" points="37.61 77.92 37.44 77.85 37.29 77.9 37.31 77.78 37.17 77.68 37.35 77.68 37.43 77.57 37.51 77.69 37.7 77.72 37.57 77.8 37.61 77.92"/><polygon class="cls-13" points="36.84 77.87 36.67 77.8 36.52 77.84 36.54 77.72 36.4 77.63 36.58 77.62 36.66 77.51 36.74 77.63 36.93 77.66 36.8 77.74 36.84 77.87"/><polygon class="cls-13" points="35.21 77.75 35.05 77.69 34.89 77.73 34.91 77.61 34.78 77.52 34.96 77.51 35.03 77.4 35.12 77.52 35.3 77.55 35.17 77.63 35.21 77.75"/><polygon class="cls-13" points="39.3 78.04 39.13 77.97 38.98 78.02 39 77.9 38.86 77.8 39.04 77.79 39.12 77.69 39.2 77.8 39.38 77.83 39.26 77.91 39.3 78.04"/><polygon class="cls-13" points="38.5 77.98 38.33 77.92 38.18 77.96 38.2 77.84 38.06 77.75 38.24 77.74 38.31 77.63 38.4 77.75 38.59 77.78 38.46 77.86 38.5 77.98"/><polygon class="cls-13" points="33.01 79.9 32.84 79.83 32.68 79.87 32.71 79.75 32.58 79.65 32.75 79.65 32.83 79.54 32.92 79.66 33.1 79.69 32.97 79.77 33.01 79.9"/><polygon class="cls-13" points="34.58 80.03 34.42 79.96 34.26 80.01 34.28 79.89 34.15 79.79 34.33 79.78 34.41 79.68 34.49 79.8 34.67 79.83 34.55 79.91 34.58 80.03"/><polygon class="cls-13" points="33.81 79.97 33.65 79.89 33.49 79.94 33.52 79.82 33.38 79.72 33.56 79.72 33.64 79.61 33.72 79.73 33.9 79.76 33.78 79.84 33.81 79.97"/><polygon class="cls-13" points="32.1 79.82 31.94 79.75 31.78 79.8 31.8 79.67 31.67 79.57 31.85 79.57 31.92 79.46 32.01 79.58 32.19 79.61 32.06 79.69 32.1 79.82"/><polygon class="cls-13" points="36.22 80.17 36.06 80.1 35.9 80.15 35.93 80.03 35.79 79.93 35.97 79.92 36.05 79.82 36.13 79.94 36.31 79.97 36.19 80.05 36.22 80.17"/><polygon class="cls-13" points="37.8 80.31 37.63 80.24 37.48 80.28 37.5 80.16 37.37 80.06 37.55 80.06 37.62 79.95 37.71 80.07 37.89 80.1 37.76 80.18 37.8 80.31"/><polygon class="cls-13" points="37.03 80.24 36.87 80.17 36.71 80.22 36.73 80.09 36.6 80 36.78 79.99 36.85 79.89 36.94 80 37.12 80.04 36.99 80.11 37.03 80.24"/><polygon class="cls-13" points="35.4 80.1 35.24 80.03 35.08 80.08 35.1 79.96 34.97 79.86 35.15 79.86 35.23 79.75 35.31 79.87 35.49 79.9 35.37 79.98 35.4 80.1"/><polygon class="cls-13" points="39.49 80.45 39.33 80.38 39.17 80.43 39.19 80.31 39.06 80.21 39.24 80.2 39.31 80.1 39.4 80.22 39.58 80.25 39.45 80.33 39.49 80.45"/><polygon class="cls-13" points="38.69 80.39 38.52 80.31 38.37 80.36 38.39 80.24 38.26 80.14 38.44 80.14 38.51 80.03 38.6 80.15 38.78 80.18 38.65 80.26 38.69 80.39"/><polygon class="cls-13" points="32.95 79.08 32.79 79.02 32.63 79.06 32.65 78.94 32.52 78.85 32.7 78.84 32.77 78.73 32.86 78.85 33.04 78.88 32.91 78.96 32.95 79.08"/><polygon class="cls-13" points="34.53 79.2 34.36 79.13 34.21 79.18 34.23 79.05 34.09 78.96 34.27 78.95 34.35 78.84 34.43 78.96 34.62 78.99 34.49 79.07 34.53 79.2"/><polygon class="cls-13" points="33.76 79.14 33.59 79.07 33.44 79.12 33.46 79 33.32 78.9 33.5 78.9 33.58 78.79 33.66 78.91 33.85 78.94 33.72 79.02 33.76 79.14"/><polygon class="cls-13" points="32.05 79.02 31.88 78.95 31.73 79 31.75 78.88 31.61 78.78 31.79 78.78 31.86 78.67 31.95 78.79 32.13 78.82 32.01 78.9 32.05 79.02"/><polygon class="cls-13" points="36.17 79.31 36 79.24 35.85 79.29 35.87 79.17 35.73 79.07 35.91 79.07 35.99 78.96 36.07 79.08 36.26 79.11 36.13 79.19 36.17 79.31"/><polygon class="cls-13" points="37.74 79.42 37.58 79.36 37.42 79.4 37.44 79.28 37.31 79.19 37.49 79.18 37.56 79.07 37.65 79.19 37.83 79.22 37.7 79.3 37.74 79.42"/><polygon class="cls-13" points="36.97 79.37 36.81 79.3 36.65 79.35 36.67 79.23 36.54 79.13 36.72 79.12 36.79 79.02 36.88 79.13 37.06 79.16 36.94 79.24 36.97 79.37"/><polygon class="cls-13" points="35.35 79.26 35.18 79.19 35.03 79.24 35.05 79.11 34.91 79.02 35.09 79.01 35.17 78.9 35.25 79.02 35.44 79.05 35.31 79.13 35.35 79.26"/><polygon class="cls-13" points="39.43 79.54 39.27 79.47 39.11 79.52 39.13 79.4 39 79.3 39.18 79.3 39.25 79.19 39.34 79.31 39.52 79.34 39.4 79.42 39.43 79.54"/><polygon class="cls-13" points="38.63 79.49 38.47 79.42 38.31 79.47 38.33 79.34 38.2 79.25 38.38 79.24 38.45 79.13 38.54 79.25 38.72 79.28 38.59 79.36 38.63 79.49"/><polygon class="cls-13" points="32.9 78.27 32.73 78.2 32.58 78.25 32.6 78.12 32.47 78.03 32.65 78.02 32.72 77.91 32.81 78.03 32.99 78.06 32.86 78.14 32.9 78.27"/><polygon class="cls-13" points="34.47 78.39 34.31 78.32 34.15 78.37 34.17 78.24 34.04 78.15 34.22 78.14 34.29 78.03 34.38 78.15 34.56 78.18 34.44 78.26 34.47 78.39"/><polygon class="cls-13" points="33.71 78.33 33.54 78.26 33.38 78.31 33.41 78.18 33.27 78.09 33.45 78.08 33.52 77.97 33.61 78.09 33.79 78.12 33.67 78.2 33.71 78.33"/><polygon class="cls-13" points="31.99 78.2 31.83 78.13 31.67 78.18 31.7 78.06 31.56 77.96 31.74 77.95 31.81 77.85 31.9 77.97 32.08 78 31.96 78.07 31.99 78.2"/><polygon class="cls-13" points="36.12 78.51 35.95 78.44 35.79 78.49 35.82 78.36 35.68 78.27 35.86 78.26 35.94 78.16 36.02 78.27 36.2 78.3 36.08 78.38 36.12 78.51"/><polygon class="cls-13" points="37.69 78.63 37.52 78.56 37.37 78.61 37.39 78.48 37.26 78.39 37.44 78.38 37.51 78.28 37.6 78.39 37.78 78.42 37.65 78.5 37.69 78.63"/><polygon class="cls-13" points="36.92 78.57 36.76 78.5 36.6 78.55 36.62 78.42 36.49 78.33 36.67 78.32 36.74 78.22 36.83 78.33 37.01 78.36 36.88 78.44 36.92 78.57"/><polygon class="cls-13" points="35.29 78.45 35.13 78.38 34.97 78.43 35 78.31 34.86 78.21 35.04 78.2 35.11 78.09 35.2 78.21 35.38 78.24 35.26 78.32 35.29 78.45"/><polygon class="cls-13" points="39.38 78.75 39.22 78.69 39.06 78.73 39.08 78.61 38.95 78.52 39.13 78.51 39.2 78.4 39.29 78.52 39.47 78.55 39.34 78.63 39.38 78.75"/><polygon class="cls-13" points="38.58 78.7 38.41 78.63 38.26 78.67 38.28 78.55 38.15 78.46 38.33 78.45 38.4 78.34 38.49 78.46 38.67 78.49 38.54 78.57 38.58 78.7"/><polygon class="cls-13" points="33.1 80.8 32.93 80.73 32.77 80.78 32.8 80.65 32.66 80.56 32.84 80.55 32.91 80.44 33 80.56 33.18 80.59 33.06 80.67 33.1 80.8"/><polygon class="cls-13" points="34.67 80.91 34.51 80.84 34.35 80.89 34.37 80.76 34.24 80.67 34.41 80.66 34.49 80.55 34.58 80.67 34.76 80.7 34.63 80.78 34.67 80.91"/><polygon class="cls-13" points="33.9 80.85 33.74 80.78 33.58 80.83 33.6 80.71 33.47 80.61 33.65 80.61 33.72 80.5 33.81 80.62 33.99 80.65 33.86 80.73 33.9 80.85"/><polygon class="cls-13" points="32.19 80.73 32.03 80.66 31.87 80.71 31.89 80.59 31.76 80.5 31.94 80.49 32.01 80.38 32.1 80.5 32.28 80.53 32.15 80.61 32.19 80.73"/><polygon class="cls-13" points="36.31 81.02 36.15 80.95 35.99 81 36.01 80.88 35.88 80.78 36.06 80.78 36.13 80.67 36.22 80.79 36.4 80.82 36.27 80.9 36.31 81.02"/><polygon class="cls-13" points="37.89 81.14 37.72 81.07 37.56 81.11 37.59 80.99 37.45 80.9 37.63 80.89 37.7 80.78 37.79 80.9 37.97 80.93 37.85 81.01 37.89 81.14"/><polygon class="cls-13" points="37.12 81.08 36.95 81.01 36.8 81.06 36.82 80.94 36.68 80.84 36.86 80.83 36.94 80.72 37.02 80.84 37.2 80.87 37.08 80.95 37.12 81.08"/><polygon class="cls-13" points="35.49 80.97 35.33 80.9 35.17 80.95 35.19 80.82 35.06 80.73 35.24 80.72 35.31 80.61 35.4 80.73 35.58 80.76 35.45 80.84 35.49 80.97"/><polygon class="cls-13" points="39.58 81.25 39.41 81.19 39.26 81.23 39.28 81.11 39.14 81.02 39.32 81.01 39.39 80.9 39.48 81.02 39.66 81.05 39.54 81.13 39.58 81.25"/><polygon class="cls-13" points="38.78 81.2 38.61 81.13 38.45 81.18 38.48 81.06 38.34 80.96 38.52 80.95 38.59 80.84 38.68 80.96 38.86 80.99 38.74 81.07 38.78 81.2"/><line class="cls-22" x1="39.87" y1="79.53" x2="47.26" y2="80.14"/><line class="cls-22" x1="39.81" y1="78.38" x2="47.2" y2="79.06"/><line class="cls-22" x1="39.97" y1="80.95" x2="47.12" y2="81.59"/><line class="cls-22" x1="31.22" y1="81.58" x2="47.07" y2="82.74"/><line class="cls-22" x1="31.14" y1="82.58" x2="47.28" y2="83.75"/><line class="cls-22" x1="31.19" y1="83.81" x2="47.23" y2="84.88"/></g></g></g></svg>