<svg xmlns="http://www.w3.org/2000/svg" xmlns:xlink="http://www.w3.org/1999/xlink" viewBox="0 0 103.19 94.74"><defs><style>.cls-1,.cls-2,.cls-6,.cls-7,.cls-8{fill:none;}.cls-2{stroke:#3c3c3b;}.cls-2,.cls-6,.cls-7,.cls-8{stroke-miterlimit:10;}.cls-2,.cls-7{stroke-width:0.75px;}.cls-3{clip-path:url(#clip-path);}.cls-4{fill:url(#radial-gradient);}.cls-5{clip-path:url(#clip-path-2);}.cls-6{stroke:#1d1d1b;stroke-width:0.25px;}.cls-7{stroke:#575756;}.cls-8{stroke:#b2b2b2;stroke-width:0.5px;}.cls-9{font-size:13.88px;fill:#dbb24a;font-family:Rockwell;}</style><clipPath id="clip-path" transform="translate(-41.95 -17.06)"><path class="cls-1" d="M42.08,47c0,11.7,12.2,21.19,27.26,21.19S96.6,58.69,96.6,47,84.39,25.8,69.34,25.8,42.08,35.28,42.08,47"/></clipPath><radialGradient id="radial-gradient" cx="0" cy="595.28" r="1" gradientTransform="matrix(24.42, 0, 0, -24.42, 27.39, 14564.3)" gradientUnits="userSpaceOnUse"><stop offset="0" stop-color="#fff"/><stop offset="1" stop-color="#1d1d1b"/></radialGradient><clipPath id="clip-path-2" transform="translate(-41.95 -17.06)"><rect class="cls-1" width="841.89" height="595.28"/></clipPath></defs><title>Sputnik1</title><g id="Layer_2" data-name="Layer 2"><g id="Layer_1-2" data-name="Layer 1"><line class="cls-2" x1="29.43" y1="46.11" x2="44.76" y2="69.61"/><g class="cls-3"><rect class="cls-4" x="0.12" y="8.74" width="54.52" height="42.39"/></g><g class="cls-5"><ellipse class="cls-6" cx="27.39" cy="29.93" rx="27.26" ry="21.19"/><line class="cls-2" x1="38.22" y1="34.14" x2="97.51" y2="83.69"/><line class="cls-7" x1="46.87" y1="18.28" x2="75.42" y2="38.93"/><line class="cls-2" x1="18.08" y1="42.08" x2="42.86" y2="94.58"/><path class="cls-8" d="M45.34,57.65A81.3,81.3,0,0,0,70.73,44.27,78.2,78.2,0,0,0,85,29.66" transform="translate(-41.95 -17.06)"/><path class="cls-8" d="M44.58,55.88a76.11,76.11,0,0,0,29-17.59,75.57,75.57,0,0,0,8.53-10" transform="translate(-41.95 -17.06)"/></g><text class="cls-9" transform="translate(48.55 11.65) scale(0.58 1)">Sputnik 1 USSR</text></g></g></svg>