<svg xmlns="http://www.w3.org/2000/svg" xmlns:xlink="http://www.w3.org/1999/xlink" viewBox="0 0 76.38 97.7"><defs><style>.cls-1,.cls-12,.cls-13,.cls-15,.cls-9{fill:none;}.cls-2{font-size:9.86px;fill:#dbb24a;font-family:Rockwell;}.cls-3{letter-spacing:-0.01em;}.cls-4{letter-spacing:0em;}.cls-5{letter-spacing:-0.01em;}.cls-6{clip-path:url(#clip-path);}.cls-7{fill:url(#linear-gradient);}.cls-8{clip-path:url(#clip-path-2);}.cls-15,.cls-9{stroke:#1d1d1b;}.cls-12,.cls-13,.cls-15,.cls-9{stroke-miterlimit:10;}.cls-12,.cls-13,.cls-9{stroke-width:0.25px;}.cls-10{clip-path:url(#clip-path-3);}.cls-11{fill:url(#linear-gradient-2);}.cls-12{stroke:#9d9d9c;}.cls-13{stroke:#706f6f;}.cls-14{fill:#27348b;}.cls-15{stroke-width:0.5px;}.cls-16{fill:#706f6f;}</style><clipPath id="clip-path" transform="translate(-519.9 -7.31)"><path class="cls-1" d="M558,28.64c-21,.06-37.91,6.23-37.88,13.79s17,13.63,38,13.57S596,49.77,596,42.21s-16.87-13.57-37.68-13.57H558"/></clipPath><linearGradient id="linear-gradient" y1="595.28" x2="1" y2="595.28" gradientTransform="matrix(75.87, 0, 0, -75.87, 0.19, 45200.48)" gradientUnits="userSpaceOnUse"><stop offset="0" stop-color="#fff"/><stop offset="1" stop-color="#1d1d1b"/></linearGradient><clipPath id="clip-path-2" transform="translate(-519.9 -7.31)"><rect class="cls-1" width="841.89" height="595.28"/></clipPath><clipPath id="clip-path-3" transform="translate(-519.9 -7.31)"><polygon class="cls-1" points="520.09 42.43 520.23 76.78 596.1 76.56 595.96 42.21 520.09 42.43"/></clipPath><linearGradient id="linear-gradient-2" x1="0" y1="595.28" x2="1" y2="595.28" gradientTransform="matrix(76.01, 0, 0, -76.01, 0.19, 45301.67)" xlink:href="#linear-gradient"/></defs><title>Tiros1</title><g id="Layer_2" data-name="Layer 2"><g id="Layer_1-2" data-name="Layer 1"><text class="cls-2" transform="translate(11.52 9.47) scale(1 1.14)"><tspan class="cls-3">T</tspan><tspan class="cls-4" x="5.53" y="0">i</tspan><tspan class="cls-5" x="8.41" y="0">r</tspan><tspan x="12.42" y="0">os 1 US</tspan></text><g class="cls-6"><rect class="cls-7" x="0.16" y="21.33" width="75.93" height="27.43"/></g><g class="cls-8"><path class="cls-9" d="M520.09,42.43c0-7.56,16.93-13.73,37.88-13.79s38,6,38,13.57S579,55.94,558.08,56,520.12,50,520.09,42.43Z" transform="translate(-519.9 -7.31)"/></g><g class="cls-10"><rect class="cls-11" x="0.19" y="34.91" width="76.01" height="34.57"/></g><g class="cls-8"><line class="cls-9" x1="1.78" y1="66.51" x2="1.78" y2="66.51"/><line class="cls-9" x1="0.19" y1="35.12" x2="0.33" y2="69.47"/><line class="cls-9" x1="76.06" y1="34.91" x2="76.2" y2="69.26"/><line class="cls-12" x1="4.2" y1="28.96" x2="4.76" y2="63.63"/><line class="cls-13" x1="11.6" y1="25.28" x2="12.1" y2="60.03"/><line class="cls-13" x1="21.41" y1="22.76" x2="22.95" y2="57.1"/><line class="cls-13" x1="32.18" y1="21.4" x2="33.73" y2="55.86"/><line class="cls-13" x1="42.95" y1="21.79" x2="42.95" y2="55.78"/><path class="cls-12" d="M520.32,64.65A87,87,0,0,1,596.05,64" transform="translate(-519.9 -7.31)"/><line class="cls-12" x1="72.94" y1="29.49" x2="71.7" y2="63.42"/><line class="cls-12" x1="64.92" y1="25.09" x2="63.53" y2="59.18"/><line class="cls-12" x1="53.11" y1="22.63" x2="53.11" y2="57.24"/><path class="cls-12" d="M520.23,55.66A92.31,92.31,0,0,1,596,55.07" transform="translate(-519.9 -7.31)"/><path class="cls-14" d="M520.15,75.66c0-6.85,16.94-12.46,37.89-12.52s38,5.44,38,12.29S579.1,87.9,558.14,88s-38-5.44-38-12.3" transform="translate(-519.9 -7.31)"/><path class="cls-15" d="M520.15,75.66c0-6.85,16.94-12.46,37.89-12.52s38,5.44,38,12.29S579.1,87.9,558.14,88,520.18,82.52,520.15,75.66Z" transform="translate(-519.9 -7.31)"/><path class="cls-12" d="M520.32,48.74a87,87,0,0,1,75.73-.63" transform="translate(-519.9 -7.31)"/><path class="cls-12" d="M520.44,41.49a87,87,0,0,1,75.74,0" transform="translate(-519.9 -7.31)"/><line class="cls-12" x1="39.95" y1="69.88" x2="61.31" y2="58.64"/><line class="cls-12" x1="39.11" y1="68.92" x2="50.71" y2="56.79"/><line class="cls-12" x1="36.22" y1="67.68" x2="40.46" y2="56.17"/><line class="cls-12" x1="33.27" y1="67.73" x2="31.84" y2="56.02"/><line class="cls-12" x1="31.5" y1="67.96" x2="21.67" y2="57.26"/><line class="cls-12" x1="29.81" y1="69.6" x2="10.88" y2="59.92"/><line class="cls-12" x1="29.08" y1="71.53" x2="3.59" y2="63.54"/><line class="cls-12" x1="29.08" y1="72.82" x2="2.87" y2="72.56"/><path class="cls-12" d="M560.44,78.84l30.43-9.23-.1-.06" transform="translate(-519.9 -7.31)"/><path class="cls-12" d="M560.44,79.67l35-3s0,.08,0,.12" transform="translate(-519.9 -7.31)"/><line class="cls-12" x1="39.82" y1="73.46" x2="65.25" y2="76.61"/><path class="cls-12" d="M559,81.43l14,5.15-.11,0" transform="translate(-519.9 -7.31)"/><path class="cls-12" d="M557.76,82.27l6.12,5.11c0,.07,0,.13,0,.2" transform="translate(-519.9 -7.31)"/><line class="cls-12" x1="35.99" y1="75.48" x2="36.08" y2="80.43"/><line class="cls-12" x1="33.17" y1="75.48" x2="31.72" y2="80.27"/><line class="cls-12" x1="31.42" y1="74.71" x2="26.65" y2="79.84"/><line class="cls-12" x1="30.62" y1="74.22" x2="20.53" y2="79.06"/><line class="cls-12" x1="29.89" y1="73.56" x2="12.84" y2="77.31"/><path class="cls-16" d="M560.44,78.84c0,2.18-2.56,4-5.73,4S549,81,549,78.84s2.57-4,5.73-4,5.73,1.77,5.73,4" transform="translate(-519.9 -7.31)"/><path class="cls-15" d="M560.44,78.84c0,2.18-2.56,4-5.73,4S549,81,549,78.84s2.57-4,5.73-4S560.44,76.66,560.44,78.84Z" transform="translate(-519.9 -7.31)"/><path class="cls-12" d="M571.68,78c0,3.53-7.11,6.4-15.88,6.4S539.92,81.5,539.92,78s7.11-6.41,15.88-6.41S571.68,74.43,571.68,78Z" transform="translate(-519.9 -7.31)"/><path class="cls-12" d="M583,75.94c0,5.77-11.94,10.44-26.68,10.44s-26.67-4.67-26.67-10.44,11.94-10.43,26.67-10.43S583,70.18,583,75.94Z" transform="translate(-519.9 -7.31)"/><line class="cls-15" x1="29.08" y1="71.53" x2="12.31" y2="97.57"/><line class="cls-15" x1="31.42" y1="74.71" x2="20.94" y2="93.48"/><line class="cls-15" x1="39.67" y1="69.44" x2="56.52" y2="96.16"/><line class="cls-15" x1="39.82" y1="73.46" x2="45.42" y2="92.76"/></g></g></g></svg>