<svg xmlns="http://www.w3.org/2000/svg" xmlns:xlink="http://www.w3.org/1999/xlink" viewBox="0 0 227.42 213.84"><defs><style>.cls-1{fill:url(#linear-gradient);}.cls-2{fill:url(#linear-gradient-2);}.cls-3{fill:url(#linear-gradient-3);}.cls-10,.cls-15,.cls-19,.cls-4,.cls-5{fill:none;}.cls-15,.cls-5{stroke:#3c3c3b;}.cls-10,.cls-15,.cls-19,.cls-5{stroke-miterlimit:10;}.cls-19,.cls-5{stroke-width:0.75px;}.cls-6{clip-path:url(#clip-path);}.cls-7{mask:url(#mask);}.cls-8{fill:url(#linear-gradient-4);}.cls-9{clip-path:url(#clip-path-2);}.cls-10{stroke:#1d1d1b;stroke-width:0.25px;}.cls-11{fill:#ced57c;}.cls-12{clip-path:url(#clip-path-3);}.cls-13{mask:url(#mask-2);}.cls-14{fill:url(#linear-gradient-5);}.cls-15{stroke-width:0.5px;}.cls-16{clip-path:url(#clip-path-5);}.cls-17{mask:url(#mask-3);}.cls-18{fill:url(#linear-gradient-6);}.cls-19{stroke:#706f6f;}.cls-20{font-size:12px;fill:#dbb24a;font-family:Rockwell;}.cls-21{letter-spacing:-0.01em;}</style><linearGradient id="linear-gradient" y1="595.28" x2="1" y2="595.28" gradientTransform="matrix(0, -96.04, -96.04, 0, 57290.67, 480.69)" gradientUnits="userSpaceOnUse"><stop offset="0" stop-color="#fff"/><stop offset="0.03" stop-color="#fff"/><stop offset="0.34" stop-color="#e9e9e9"/><stop offset="0.74" stop-color="#d4d4d4"/><stop offset="1" stop-color="#ccc"/><stop offset="1" stop-color="#ccc"/></linearGradient><linearGradient id="linear-gradient-2" y1="595.28" x2="1" y2="595.28" gradientTransform="matrix(71.12, 0, 0, -71.12, 95.63, 42708.73)" gradientUnits="userSpaceOnUse"><stop offset="0" stop-color="#fff"/><stop offset="0.51" stop-color="#f7f7f7"/><stop offset="1"/></linearGradient><linearGradient id="linear-gradient-3" y1="595.28" x2="1" y2="595.28" gradientTransform="matrix(71.12, 0, 0, -71.12, 115.63, 42805.25)" gradientUnits="userSpaceOnUse"><stop offset="0" stop-color="#fff"/><stop offset="0.09" stop-color="#fff"/><stop offset="1"/></linearGradient><clipPath id="clip-path" transform="translate(-12.04 -317.58)"><path class="cls-4" d="M57.49,415.41c-9.91,2.9-16.16,12-14.76,21.42,1.43,9.6,10.46,16.91,21.09,17l126-20.36a26.77,26.77,0,0,0,4.84-20.22c-2-11-10.43-16.89-12.09-18l-125.1,20.2"/></clipPath><mask id="mask" x="0" y="0" width="213.84" height="213.84" maskUnits="userSpaceOnUse"><g transform="translate(-12.04 -317.58)"><rect class="cls-1" x="43.36" y="348.89" width="151.21" height="151.21" transform="translate(-265.32 208.45) rotate(-45)"/></g></mask><linearGradient id="linear-gradient-4" y1="595.28" x2="1" y2="595.28" gradientTransform="matrix(0, -96.04, -96.04, 0, 57290.67, 480.69)" gradientUnits="userSpaceOnUse"><stop offset="0" stop-color="#fff"/><stop offset="0.03" stop-color="#fff"/><stop offset="0.21" stop-color="#c2d4c5"/><stop offset="0.42" stop-color="#84a98b"/><stop offset="0.61" stop-color="#53865c"/><stop offset="0.77" stop-color="#2f6e3b"/><stop offset="0.91" stop-color="#1a5f26"/><stop offset="1" stop-color="#12591f"/><stop offset="1" stop-color="#12591f"/></linearGradient><clipPath id="clip-path-2" transform="translate(-12.04 -317.58)"><rect class="cls-4" width="841.89" height="595.28"/></clipPath><clipPath id="clip-path-3" transform="translate(-12.04 -317.58)"><polygon class="cls-4" points="95.63 348.93 106.71 407.35 166.75 397.65 155.67 339.24 95.63 348.93"/></clipPath><mask id="mask-2" x="83.59" y="21.66" width="71.12" height="68.11" maskUnits="userSpaceOnUse"><g transform="translate(-12.04 -317.58)"><rect class="cls-2" x="95.63" y="339.24" width="71.12" height="68.11"/></g></mask><linearGradient id="linear-gradient-5" y1="595.28" x2="1" y2="595.28" gradientTransform="matrix(71.12, 0, 0, -71.12, 83.59, 42391.16)" gradientUnits="userSpaceOnUse"><stop offset="0" stop-color="#2581c4"/><stop offset="0.51" stop-color="#2581c4"/><stop offset="1" stop-color="#2581c4"/></linearGradient><clipPath id="clip-path-5" transform="translate(-12.04 -317.58)"><polygon class="cls-4" points="115.63 445.45 126.71 503.86 186.75 494.17 175.67 435.75 115.63 445.45"/></clipPath><mask id="mask-3" x="103.59" y="118.17" width="71.12" height="68.11" maskUnits="userSpaceOnUse"><g transform="translate(-12.04 -317.58)"><rect class="cls-3" x="115.63" y="435.75" width="71.12" height="68.11"/></g></mask><linearGradient id="linear-gradient-6" y1="595.28" x2="1" y2="595.28" gradientTransform="matrix(71.12, 0, 0, -71.12, 103.59, 42487.67)" gradientUnits="userSpaceOnUse"><stop offset="0" stop-color="#2581c4"/><stop offset="0.09" stop-color="#2581c4"/><stop offset="1" stop-color="#2581c4"/></linearGradient></defs><title>zond5</title><g id="Layer_2" data-name="Layer 2"><g id="Layer_1-2" data-name="Layer 1"><line class="cls-5" x1="115.04" y1="186.15" x2="54.33" y2="193.75"/><g class="cls-6"><g class="cls-7"><rect class="cls-8" x="43.36" y="348.89" width="151.21" height="151.21" transform="translate(-277.36 -109.13) rotate(-45)"/></g></g><g class="cls-9"><path class="cls-10" d="M189.84,433.43l-126,20.36c-10.63-.05-19.66-7.36-21.09-17-1.4-9.4,4.85-18.52,14.76-21.42l125.1-20.2c1.66,1.11,10.11,7,12.09,18A26.77,26.77,0,0,1,189.84,433.43Z" transform="translate(-12.04 -317.58)"/><polygon class="cls-11" points="90.06 130.03 84.45 130.93 77.2 92.71 82.81 91.8 90.06 130.03"/><polygon class="cls-11" points="171.97 116.8 156.88 119.24 149.63 81.01 164.72 78.57 171.97 116.8"/></g><g class="cls-12"><g class="cls-13"><rect class="cls-14" x="83.59" y="21.66" width="71.12" height="68.11"/></g></g><g class="cls-9"><polygon class="cls-15" points="154.71 80.08 94.67 89.77 83.59 31.36 143.63 21.66 154.71 80.08"/><polygon class="cls-11" points="80.57 131.56 79.1 131.8 71.85 93.57 73.32 93.33 80.57 131.56"/><line class="cls-5" x1="83.67" y1="31.47" x2="23.33" y2="41.22"/><line class="cls-5" x1="130.4" y1="23.87" x2="141.46" y2="82.14"/><line class="cls-5" x1="99.44" y1="28.8" x2="110.49" y2="87.09"/><line class="cls-5" x1="91.66" y1="30.2" x2="102.71" y2="88.48"/><line class="cls-5" x1="122.26" y1="25.26" x2="133.31" y2="83.54"/><line class="cls-5" x1="106.76" y1="27.76" x2="117.82" y2="86.04"/><line class="cls-5" x1="137.76" y1="22.76" x2="148.81" y2="81.03"/><line class="cls-5" x1="115.15" y1="26.34" x2="126.2" y2="84.61"/><line class="cls-5" x1="84.8" y1="37.72" x2="144.73" y2="27.47"/><line class="cls-5" x1="86.02" y1="44.14" x2="145.9" y2="33.6"/><line class="cls-5" x1="87.34" y1="51.63" x2="147.22" y2="41.1"/><line class="cls-5" x1="88.68" y1="58.21" x2="148.6" y2="47.88"/><line class="cls-5" x1="90.07" y1="65.52" x2="149.93" y2="54.88"/><line class="cls-5" x1="93.84" y1="84.79" x2="153.7" y2="74.16"/><line class="cls-5" x1="92.56" y1="78.63" x2="152.42" y2="68"/><line class="cls-5" x1="91.43" y1="72.24" x2="151.21" y2="61.62"/></g><g class="cls-16"><g class="cls-17"><rect class="cls-18" x="103.59" y="118.17" width="71.12" height="68.11"/></g></g><g class="cls-9"><polygon class="cls-15" points="174.71 176.59 114.67 186.29 103.59 127.87 163.63 118.17 174.71 176.59"/><line class="cls-5" x1="150.4" y1="120.38" x2="161.45" y2="178.66"/><line class="cls-19" x1="119.43" y1="125.31" x2="130.45" y2="183.42"/><line class="cls-19" x1="111.65" y1="126.71" x2="122.71" y2="184.99"/><line class="cls-5" x1="142.26" y1="121.77" x2="153.31" y2="180.05"/><line class="cls-19" x1="126.76" y1="124.28" x2="137.81" y2="182.55"/><line class="cls-5" x1="157.75" y1="119.27" x2="168.81" y2="177.54"/><line class="cls-5" x1="135.14" y1="122.85" x2="146.2" y2="181.12"/><line class="cls-5" x1="104.86" y1="134.22" x2="164.73" y2="123.98"/><line class="cls-5" x1="106.01" y1="140.65" x2="165.96" y2="130.1"/><line class="cls-5" x1="107.34" y1="148.14" x2="167.22" y2="137.61"/><line class="cls-5" x1="108.9" y1="154.68" x2="168.6" y2="144.4"/><line class="cls-5" x1="110.13" y1="161.97" x2="169.99" y2="151.33"/><line class="cls-5" x1="113.84" y1="181.31" x2="173.7" y2="170.67"/><line class="cls-5" x1="112.56" y1="175.15" x2="172.42" y2="164.51"/><line class="cls-5" x1="111.48" y1="168.73" x2="171.34" y2="158.1"/></g><text class="cls-20" transform="translate(190.04 132.16)"><tspan class="cls-21">Z</tspan><tspan x="6.62" y="0">ond 5</tspan></text></g></g></svg>